<?xml version="1.0" standalone="no"?>
 <!DOCTYPE svg PUBLIC "-//W3C//DTD SVG 1.1//EN" 
 "http://www.w3.org/Graphics/SVG/1.1/DTD/svg11.dtd"> 
<svg
  xmlns:svg="http://www.w3.org/2000/svg"
  xmlns="http://www.w3.org/2000/svg"
  xmlns:xlink="http://www.w3.org/1999/xlink"
  version="1.1"
  width="90.4748mm" height="73.1774mm" viewBox="0.0000 0.0000 90.4748 73.1774">
<title>SVG Image created as CodeStackOrnament2023-brd.svg date 2023/11/18 15:53:18 </title>
  <desc>Image generated by PCBNEW </desc>
<g style="fill:#000000; fill-opacity:1.0000;stroke:#000000; stroke-opacity:1.0000;
stroke-linecap:round; stroke-linejoin:round;"
 transform="translate(0 0) scale(1 1)">
</g>
<g style="fill:#000000; fill-opacity:0.0; 
stroke:#000000; stroke-width:0.0000; stroke-opacity:1; 
stroke-linecap:round; stroke-linejoin:round;">
</g>
<g style="fill:#000000; fill-opacity:0.0; 
stroke:#000000; stroke-width:0.2000; stroke-opacity:1; 
stroke-linecap:round; stroke-linejoin:round;">
</g>
<g style="fill:#000000; fill-opacity:1.0000; 
stroke:#000000; stroke-width:0.2000; stroke-opacity:1; 
stroke-linecap:round; stroke-linejoin:round;">
<path style="fill:#000000; fill-opacity:1.0000; 
stroke:#000000; stroke-width:0.2000; stroke-opacity:1; 
stroke-linecap:round; stroke-linejoin:round;fill-rule:evenodd;"
d="M 47.5226,41.4641
47.5226,43.3496
39.9898,35.8169
41.8753,35.8169
Z" /> 
<path style="fill:#000000; fill-opacity:1.0000; 
stroke:#000000; stroke-width:0.2000; stroke-opacity:1; 
stroke-linecap:round; stroke-linejoin:round;fill-rule:evenodd;"
d="M 39.9189,45.2586
39.7431,45.2713
39.5678,45.2886
39.3931,45.3106
39.2190,45.3372
39.0458,45.3684
38.8733,45.4041
38.7018,45.4445
38.5314,45.4894
38.4795,45.5046
38.4278,45.5203
38.3766,45.5363
38.3258,45.5526
36.9445,44.1713
36.9445,42.2858
Z" /> 
<path style="fill:#000000; fill-opacity:1.0000; 
stroke:#000000; stroke-width:0.2000; stroke-opacity:1; 
stroke-linecap:round; stroke-linejoin:round;fill-rule:evenodd;"
d="M 32.7568,35.2469
30.8697,35.2469
25.7965,30.1738
25.7965,28.2883
Z" /> 
</g>
<g style="fill:#000000; fill-opacity:1.0000; 
stroke:#000000; stroke-width:0.5653; stroke-opacity:1; 
stroke-linecap:round; stroke-linejoin:round;">
<path style="fill:#000000; fill-opacity:1.0000; 
stroke:#000000; stroke-width:0.5653; stroke-opacity:1; 
stroke-linecap:round; stroke-linejoin:round;fill-rule:evenodd;"
d="M 52.0365,45.2162
52.0199,45.8072
51.9691,46.3767
51.8824,46.9226
51.8251,47.1860
51.7582,47.4425
51.6816,47.6920
51.5949,47.9341
51.4981,48.1685
51.3909,48.3950
51.2730,48.6133
51.1444,48.8230
51.0048,49.0239
50.8539,49.2157
50.6916,49.3982
50.5177,49.5709
50.3320,49.7337
50.1342,49.8863
49.9243,50.0283
49.7018,50.1594
49.4668,50.2795
49.2189,50.3881
48.9579,50.4850
48.6837,50.5700
48.3960,50.6426
48.0947,50.7027
47.7794,50.7500
47.4502,50.7841
47.1066,50.8048
46.7486,50.8117
46.3509,50.7986
45.9537,50.7782
45.5570,50.7506
45.1609,50.7157
44.7654,50.6736
44.3708,50.6243
43.9771,50.5678
43.5844,50.5041
43.1962,50.4407
42.8070,50.3844
42.4170,50.3352
42.0261,50.2931
41.6345,50.2582
41.2423,50.2305
40.8496,50.2099
40.4565,50.1964
40.3316,50.1926
40.2069,50.1939
40.0827,50.2003
39.9592,50.2118
39.8364,50.2284
39.7146,50.2499
39.5938,50.2764
39.4743,50.3078
39.3561,50.3441
39.2395,50.3852
39.1246,50.4311
39.0115,50.4817
38.9005,50.5370
38.7915,50.5969
38.6849,50.6614
38.5807,50.7306
38.4767,50.8172
38.3766,50.9121
38.2807,51.0158
38.1895,51.1286
38.1033,51.2508
38.0225,51.3828
37.9476,51.5249
37.8788,51.6776
37.8167,51.8411
37.7616,52.0159
37.7138,52.2022
37.6739,52.4005
37.6422,52.6110
37.6190,52.8342
37.6048,53.0705
37.6000,53.3200
35.7113,53.3200
35.7101,53.1935
35.7065,53.0705
35.7006,52.9507
35.6924,52.8342
35.6820,52.7210
35.6693,52.6110
35.6546,52.5042
35.6377,52.4005
35.6188,52.2998
35.5979,52.2022
35.5751,52.1076
35.5503,52.0159
35.5237,51.9271
35.4953,51.8411
35.4652,51.7580
35.4333,51.6776
35.3998,51.5999
35.3647,51.5249
35.3280,51.4526
35.2898,51.3828
35.2501,51.3155
35.2090,51.2508
35.1665,51.1885
35.1227,51.1286
35.0314,51.0158
34.9353,50.9121
34.8350,50.8171
34.7307,50.7306
34.6265,50.6614
34.5198,50.5969
34.4109,50.5370
34.2998,50.4817
34.1867,50.4311
34.0718,50.3852
33.9552,50.3441
33.8370,50.3078
33.7175,50.2764
33.5968,50.2499
33.4749,50.2284
33.3522,50.2118
33.2286,50.2003
33.1044,50.1939
32.9798,50.1926
32.8548,50.1964
32.4620,50.2099
32.0695,50.2305
31.6776,50.2583
31.2863,50.2932
30.8957,50.3352
30.5059,50.3844
30.1170,50.4407
29.7290,50.5041
29.3361,50.5681
28.9421,50.6249
28.5472,50.6744
28.1515,50.7168
27.7552,50.7519
27.3582,50.7798
26.9607,50.8005
26.5627,50.8139
26.2047,50.8069
25.8611,50.7862
25.5319,50.7521
25.2167,50.7048
24.9153,50.6446
24.6276,50.5719
24.3534,50.4869
24.0925,50.3899
23.8445,50.2812
23.6095,50.1611
23.3871,50.0298
23.1771,49.8878
22.9793,49.7351
22.7936,49.5722
22.6197,49.3994
22.4574,49.2168
22.3066,49.0249
22.1669,48.8239
22.0383,48.6141
21.9205,48.3957
21.8132,48.1691
21.7164,47.9346
21.6297,47.6924
21.5531,47.4429
21.4289,46.9229
21.3422,46.3769
21.2914,45.8072
21.2749,45.2162
21.2749,44.4044
23.3986,44.4044
23.3986,44.8573
23.4022,45.0242
23.4140,45.1890
23.4338,45.3515
23.4615,45.5115
23.4968,45.6688
23.5396,45.8231
23.5895,45.9743
23.6466,46.1222
23.7104,46.2666
23.7809,46.4072
23.8579,46.5440
23.9411,46.6766
24.0304,46.8048
24.1255,46.9285
24.2262,47.0475
24.3325,47.1616
24.4440,47.2705
24.5605,47.3740
24.6820,47.4720
24.8081,47.5643
24.9387,47.6506
25.0735,47.7308
25.2125,47.8046
25.3553,47.8719
25.5018,47.9324
25.6518,47.9859
25.8051,48.0323
25.9615,48.0713
26.1208,48.1027
26.2828,48.1264
26.4472,48.1421
26.6140,48.1497
26.8239,48.1507
27.0328,48.1475
27.2406,48.1401
27.4473,48.1283
27.6175,48.1175
27.7883,48.1043
27.9595,48.0887
28.1309,48.0707
28.4827,48.0288
28.8339,47.9827
29.1846,47.9326
29.5346,47.8784
29.8985,47.8180
30.2633,47.7653
30.6291,47.7201
30.9958,47.6826
31.3631,47.6528
31.7310,47.6306
32.0994,47.6160
32.4681,47.6091
32.6732,47.6091
32.8932,47.6134
33.0300,47.6220
33.2159,47.6348
33.3782,47.6518
33.5278,47.6690
33.6100,47.6814
33.6921,47.6949
33.7739,47.7097
33.8555,47.7257
33.9369,47.7428
34.0180,47.7612
34.0989,47.7807
34.1794,47.8014
34.2214,47.8127
34.2638,47.8246
34.2850,47.8310
34.3062,47.8377
34.3273,47.8449
34.3482,47.8527
34.4350,47.8807
34.5210,47.9108
34.6062,47.9429
34.6906,47.9772
34.7741,48.0135
34.8567,48.0519
34.9384,48.0923
35.0191,48.1347
35.0475,48.1499
35.0757,48.1654
35.1038,48.1812
35.1316,48.1974
35.1593,48.2138
35.1868,48.2306
35.2142,48.2477
35.2413,48.2650
35.3050,48.3081
35.3677,48.3526
35.4292,48.3985
35.4897,48.4460
35.5490,48.4948
35.6072,48.5450
35.6641,48.5966
35.7198,48.6496
35.7337,48.6625
35.7474,48.6755
35.7610,48.6886
35.7744,48.7019
35.7877,48.7153
35.8009,48.7289
35.8139,48.7426
35.8267,48.7564
35.8578,48.7900
35.8883,48.8241
35.9182,48.8587
35.9476,48.8937
35.9765,48.9292
36.0048,48.9652
36.0325,49.0016
36.0596,49.0385
36.0729,49.0561
36.0860,49.0739
36.0988,49.0918
36.1115,49.1099
36.1239,49.1281
36.1362,49.1465
36.1482,49.1651
36.1600,49.1837
36.1851,49.2217
36.2096,49.2600
36.2336,49.2987
36.2568,49.3378
36.2795,49.3773
36.3015,49.4171
36.3230,49.4573
36.3437,49.4978
36.3565,49.5210
36.3690,49.5445
36.3811,49.5681
36.3929,49.5918
36.4356,49.6880
36.4485,49.7160
36.4610,49.7442
36.4731,49.7726
36.4847,49.8012
36.5318,49.9230
36.5489,49.9718
36.5656,50.0207
36.5816,50.0699
36.5971,50.1192
36.6121,50.1687
36.6265,50.2184
36.6403,50.2682
36.6535,50.3182
36.6666,50.2672
36.6800,50.2168
36.6940,50.1669
36.7085,50.1174
36.7237,50.0683
36.7394,50.0196
36.7559,49.9712
36.7732,49.9230
36.7951,49.8605
36.8008,49.8450
36.8068,49.8298
36.8133,49.8152
36.8167,49.8081
36.8202,49.8012
36.8715,49.6880
36.9142,49.5918
36.9590,49.4978
36.9801,49.4573
37.0019,49.4171
37.0242,49.3773
37.0471,49.3379
37.0707,49.2988
37.0948,49.2601
37.1196,49.2217
37.1449,49.1837
37.1567,49.1651
37.1687,49.1465
37.1810,49.1281
37.1934,49.1099
37.2061,49.0918
37.2189,49.0739
37.2320,49.0561
37.2453,49.0385
37.2725,49.0016
37.3002,48.9652
37.3284,48.9292
37.3573,48.8937
37.3867,48.8587
37.4167,48.8241
37.4472,48.7900
37.4782,48.7564
37.4911,48.7426
37.5041,48.7289
37.5172,48.7153
37.5305,48.7019
37.5439,48.6886
37.5575,48.6754
37.5712,48.6625
37.5851,48.6496
37.6409,48.5970
37.6979,48.5457
37.7560,48.4957
37.8154,48.4472
37.8758,48.4000
37.9373,48.3543
38.0000,48.3100
38.0636,48.2672
38.0911,48.2497
38.1189,48.2326
38.1469,48.2159
38.1753,48.1993
38.2325,48.1668
38.2901,48.1347
38.3703,48.0924
38.4514,48.0520
38.5335,48.0137
38.6165,47.9774
38.7004,47.9431
38.7850,47.9109
38.8705,47.8808
38.9567,47.8527
38.9991,47.8388
39.0417,47.8256
39.0846,47.8131
39.1276,47.8014
39.1298,47.8014
39.2106,47.7807
39.2917,47.7612
39.3731,47.7428
39.4547,47.7256
39.5366,47.7097
39.6187,47.6949
39.7010,47.6813
39.7835,47.6689
39.9331,47.6518
40.0933,47.6348
40.1165,47.6321
40.1396,47.6298
40.1628,47.6277
40.1861,47.6260
40.2093,47.6245
40.2326,47.6234
40.2559,47.6225
40.2792,47.6220
40.4159,47.6134
40.4426,47.6120
40.4695,47.6109
40.5244,47.6097
40.5800,47.6092
40.6360,47.6091
40.8411,47.6091
41.2098,47.6160
41.5782,47.6305
41.9461,47.6527
42.3134,47.6826
42.6801,47.7201
43.0459,47.7652
43.4107,47.8180
43.7745,47.8784
43.9536,47.9077
44.1316,47.9350
44.3085,47.9607
44.4839,47.9852
44.8274,48.0300
45.1717,48.0688
45.5165,48.1016
45.8619,48.1283
46.0686,48.1401
46.2764,48.1476
46.4853,48.1508
46.6952,48.1497
46.8620,48.1421
47.0265,48.1264
47.1885,48.1027
47.3479,48.0712
47.5043,48.0322
47.6576,47.9857
47.8076,47.9321
47.9541,47.8716
48.0969,47.8043
48.2359,47.7304
48.3707,47.6501
48.5013,47.5638
48.6273,47.4714
48.7487,47.3733
48.8653,47.2697
48.9767,47.1607
49.0829,47.0465
49.1836,46.9275
49.2786,46.8037
49.3678,46.6753
49.4509,46.5426
49.5278,46.4058
49.5982,46.2651
49.6619,46.1206
49.7188,45.9727
49.7686,45.8214
49.8112,45.6669
49.8463,45.5096
49.8738,45.3496
49.8935,45.1870
49.9051,45.0222
49.9085,44.8552
49.9085,44.4065
52.0365,44.4043
Z" /> 
</g>
<g style="fill:#000000; fill-opacity:1.0000; 
stroke:#000000; stroke-width:0.0000; stroke-opacity:1; 
stroke-linecap:round; stroke-linejoin:round;">
<path style="fill:#000000; fill-opacity:1.0000; 
stroke:#000000; stroke-width:0.0000; stroke-opacity:1; 
stroke-linecap:round; stroke-linejoin:round;fill-rule:evenodd;"
d="M 90.4920,37.1040
90.4920,37.1044
90.4920,37.1036
Z" /> 
</g>
<g style="fill:#000000; fill-opacity:1.0000; 
stroke:#000000; stroke-width:0.2000; stroke-opacity:1; 
stroke-linecap:round; stroke-linejoin:round;">
<path style="fill:#000000; fill-opacity:1.0000; 
stroke:#000000; stroke-width:0.2000; stroke-opacity:1; 
stroke-linecap:round; stroke-linejoin:round;fill-rule:evenodd;"
d="M 36.3746,33.1657
36.3746,35.0506
25.9733,24.6514
27.8603,24.6514
Z" /> 
<path style="fill:#000000; fill-opacity:1.0000; 
stroke:#000000; stroke-width:0.2000; stroke-opacity:1; 
stroke-linecap:round; stroke-linejoin:round;fill-rule:evenodd;"
d="M 47.5225,38.6140
47.5225,40.4979
42.8399,35.8169
44.7254,35.8169
Z" /> 
<path style="fill:#000000; fill-opacity:1.0000; 
stroke:#000000; stroke-width:0.2000; stroke-opacity:1; 
stroke-linecap:round; stroke-linejoin:round;fill-rule:evenodd;"
d="M 36.3746,30.3161
36.3746,32.2015
28.8249,24.6514
30.7104,24.6514
Z" /> 
</g>
<g style="fill:#000000; fill-opacity:1.0000; 
stroke:#000000; stroke-width:0.5139; stroke-opacity:1; 
stroke-linecap:round; stroke-linejoin:round;">
<path style="fill:#000000; fill-opacity:1.0000; 
stroke:#000000; stroke-width:0.5139; stroke-opacity:1; 
stroke-linecap:round; stroke-linejoin:round;fill-rule:evenodd;"
d="M 30.9170,37.2810
31.0886,37.2836
31.2545,37.2916
31.4148,37.3047
31.5696,37.3229
31.7187,37.3459
31.8622,37.3736
32.0002,37.4060
32.1326,37.4429
32.2594,37.4840
32.3808,37.5294
32.4966,37.5789
32.6069,37.6323
32.7116,37.6895
32.8109,37.7503
32.9048,37.8147
32.9931,37.8825
33.0760,37.9535
33.1535,38.0277
33.2256,38.1048
33.2922,38.1848
33.3534,38.2675
33.4093,38.3528
33.4598,38.4405
33.5049,38.5306
33.5446,38.6228
33.5790,38.7171
33.6081,38.8133
33.6319,38.9112
33.6503,39.0108
33.6635,39.1119
33.6714,39.2144
33.6740,39.3181
33.6631,39.5364
33.6313,39.7366
33.5800,39.9196
33.5106,40.0863
33.4245,40.2378
33.3231,40.3750
33.2077,40.4989
33.0799,40.6105
32.9408,40.7107
32.7920,40.8006
32.6349,40.8811
32.4708,40.9531
32.1273,41.0759
31.7726,41.1767
31.0745,41.3438
30.7532,41.4257
30.4654,41.5169
30.3375,41.5684
30.2222,41.6252
30.1207,41.6882
30.0346,41.7585
29.9652,41.8369
29.9139,41.9245
29.8821,42.0223
29.8712,42.1311
29.8755,42.2052
29.8886,42.2766
29.9107,42.3451
29.9422,42.4102
29.9831,42.4718
30.0338,42.5295
30.0945,42.5831
30.1655,42.6323
30.2471,42.6768
30.3393,42.7163
30.4426,42.7505
30.5572,42.7791
30.6832,42.8018
30.8210,42.8185
30.9708,42.8286
31.1328,42.8321
31.2772,42.8283
31.4211,42.8191
31.5641,42.8045
31.7063,42.7846
31.8475,42.7595
31.9874,42.7292
32.1261,42.6937
32.2633,42.6531
32.3989,42.6075
32.5328,42.5568
32.6647,42.5011
32.7946,42.4405
32.9224,42.3750
33.0478,42.3047
33.1708,42.2295
33.2912,42.1496
33.8040,43.2876
33.6553,43.3807
33.5024,43.4686
33.3466,43.5504
33.1881,43.6262
33.0271,43.6959
32.8638,43.7594
32.6983,43.8167
32.5308,43.8677
32.3616,43.9124
32.1907,43.9507
32.0184,43.9826
31.8448,44.0080
31.6702,44.0269
31.4946,44.0392
31.3184,44.0449
31.1416,44.0439
30.9692,44.0411
30.8025,44.0331
30.6414,44.0199
30.4859,44.0016
30.3359,43.9784
30.1916,43.9504
30.0529,43.9178
29.9197,43.8807
29.7921,43.8393
29.6700,43.7937
29.5534,43.7440
29.4424,43.6904
29.3369,43.6331
29.2369,43.5721
29.1424,43.5076
29.0533,43.4398
28.9698,43.3688
28.8917,43.2947
28.8191,43.2178
28.7519,43.1380
28.6901,43.0556
28.6338,42.9707
28.5829,42.8834
28.5374,42.7940
28.4972,42.7025
28.4625,42.6090
28.4331,42.5138
28.4091,42.4170
28.3905,42.3186
28.3772,42.2189
28.3692,42.1180
28.3665,42.0160
28.3774,41.8002
28.4092,41.6024
28.4605,41.4216
28.5299,41.2569
28.6160,41.1072
28.7175,40.9717
28.8328,40.8493
28.9607,40.7391
29.0998,40.6401
29.2485,40.5514
29.4057,40.4720
29.5698,40.4009
29.9133,40.2798
30.2679,40.1804
30.9661,40.0160
31.2874,39.9354
31.5752,39.8457
31.7031,39.7951
31.8184,39.7392
31.9199,39.6771
32.0060,39.6080
32.0754,39.5308
32.1267,39.4445
32.1585,39.3482
32.1694,39.2409
32.1653,39.1648
32.1528,39.0908
32.1316,39.0193
32.1014,38.9507
32.0619,38.8855
32.0386,38.8542
32.0128,38.8238
31.9845,38.7945
31.9538,38.7663
31.9204,38.7391
31.8845,38.7132
31.8048,38.6649
31.7142,38.6217
31.6125,38.5842
31.4994,38.5527
31.3746,38.5274
31.2378,38.5090
31.0886,38.4976
30.9267,38.4937
30.8072,38.4978
30.6880,38.5058
30.5694,38.5176
30.4514,38.5332
30.3340,38.5526
30.2174,38.5757
30.1017,38.6025
29.9869,38.6331
29.8732,38.6673
29.7606,38.7052
29.6492,38.7467
29.5391,38.7918
29.4305,38.8404
29.3233,38.8927
29.2177,38.9484
29.1137,39.0076
28.6456,37.8601
28.7762,37.7883
28.9088,37.7210
29.0435,37.6584
29.1800,37.6005
29.3182,37.5472
29.4580,37.4987
29.5993,37.4550
29.7419,37.4160
29.8858,37.3819
30.0308,37.3527
30.1767,37.3283
30.3235,37.3089
30.4711,37.2944
30.6193,37.2849
30.7679,37.2804
Z" /> 
</g>
<g style="fill:#000000; fill-opacity:1.0000; 
stroke:#000000; stroke-width:0.2000; stroke-opacity:1; 
stroke-linecap:round; stroke-linejoin:round;">
<path style="fill:#000000; fill-opacity:1.0000; 
stroke:#000000; stroke-width:0.2000; stroke-opacity:1; 
stroke-linecap:round; stroke-linejoin:round;fill-rule:evenodd;"
d="M 46.0579,45.6997
45.9905,45.7108
45.9229,45.7203
45.8551,45.7282
45.7871,45.7346
45.7190,45.7394
45.6508,45.7426
45.5826,45.7443
45.5142,45.7444
45.3977,45.7428
45.2803,45.7385
45.1626,45.7319
45.0453,45.7235
44.8145,45.7031
44.5933,45.6811
44.4685,45.6678
44.3437,45.6533
44.2187,45.6376
44.0933,45.6205
36.9445,38.4717
36.9445,36.5862
Z" /> 
<path style="fill:#000000; fill-opacity:1.0000; 
stroke:#000000; stroke-width:0.2000; stroke-opacity:1; 
stroke-linecap:round; stroke-linejoin:round;fill-rule:evenodd;"
d="M 35.6053,35.2470
33.7198,35.2470
25.7965,27.3237
25.7965,25.4382
Z" /> 
<path style="fill:#000000; fill-opacity:1.0000; 
stroke:#000000; stroke-width:0.2000; stroke-opacity:1; 
stroke-linecap:round; stroke-linejoin:round;fill-rule:evenodd;"
d="M 47.5226,37.6494
45.6900,35.8169
47.5226,35.8169
Z" /> 
<path style="fill:#000000; fill-opacity:1.0000; 
stroke:#000000; stroke-width:0.2000; stroke-opacity:1; 
stroke-linecap:round; stroke-linejoin:round;fill-rule:evenodd;"
d="M 33.5600,24.6519
36.3746,27.4665
36.3746,29.3515
31.6745,24.6514
Z" /> 
</g>
<g style="fill:#000000; fill-opacity:1.0000; 
stroke:#000000; stroke-width:0.5653; stroke-opacity:1; 
stroke-linecap:round; stroke-linejoin:round;">
<path style="fill:#000000; fill-opacity:1.0000; 
stroke:#000000; stroke-width:0.5653; stroke-opacity:1; 
stroke-linecap:round; stroke-linejoin:round;fill-rule:evenodd;"
d="M 23.3986,42.4879
21.2748,42.4879
21.2748,26.7802
23.3986,26.7802
Z" /> 
<path style="fill:#000000; fill-opacity:1.0000; 
stroke:#000000; stroke-width:0.5653; stroke-opacity:1; 
stroke-linecap:round; stroke-linejoin:round;fill-rule:evenodd;"
d="M 52.0343,42.4879
49.9106,42.4879
49.9106,26.7802
52.0343,26.7802
Z" /> 
</g>
<g style="fill:#000000; fill-opacity:1.0000; 
stroke:#000000; stroke-width:0.2000; stroke-opacity:1; 
stroke-linecap:round; stroke-linejoin:round;">
<path style="fill:#000000; fill-opacity:1.0000; 
stroke:#000000; stroke-width:0.2000; stroke-opacity:1; 
stroke-linecap:round; stroke-linejoin:round;fill-rule:evenodd;"
d="M 47.4881,44.2797
47.4689,44.3657
47.4456,44.4503
47.4184,44.5334
47.3873,44.6149
47.3525,44.6947
47.3140,44.7726
47.2718,44.8484
47.2262,44.9222
47.1771,44.9937
47.1247,45.0629
47.0690,45.1295
47.0100,45.1936
46.9480,45.2549
46.8829,45.3133
46.8149,45.3688
46.7440,45.4211
37.1398,35.8169
39.0263,35.8169
Z" /> 
<path style="fill:#000000; fill-opacity:1.0000; 
stroke:#000000; stroke-width:0.2000; stroke-opacity:1; 
stroke-linecap:round; stroke-linejoin:round;fill-rule:evenodd;"
d="M 37.6506,45.8400
37.5574,45.8900
37.4656,45.9423
37.3751,45.9968
37.2860,46.0536
37.1984,46.1126
37.1122,46.1737
37.0276,46.2370
36.9445,46.3024
36.9445,45.1359
Z" /> 
<path style="fill:#000000; fill-opacity:1.0000; 
stroke:#000000; stroke-width:0.2000; stroke-opacity:1; 
stroke-linecap:round; stroke-linejoin:round;fill-rule:evenodd;"
d="M 36.3746,26.5014
34.5246,24.6514
36.3746,24.6514
Z" /> 
</g>
<g style="fill:#000000; fill-opacity:1.0000; 
stroke:#000000; stroke-width:0.0000; stroke-opacity:1; 
stroke-linecap:round; stroke-linejoin:round;">
<path style="fill:#000000; fill-opacity:1.0000; 
stroke:#000000; stroke-width:0.0000; stroke-opacity:1; 
stroke-linecap:round; stroke-linejoin:round;fill-rule:evenodd;"
d="M 73.0206,39.6836
73.0205,39.6840
73.0205,39.6835
Z" /> 
</g>
<g style="fill:#000000; fill-opacity:1.0000; 
stroke:#000000; stroke-width:0.5139; stroke-opacity:1; 
stroke-linecap:round; stroke-linejoin:round;">
<path style="fill:#000000; fill-opacity:1.0000; 
stroke:#000000; stroke-width:0.5139; stroke-opacity:1; 
stroke-linecap:round; stroke-linejoin:round;fill-rule:evenodd;"
d="M 48.0503,35.8168
48.0503,43.9313
48.0498,43.9838
48.0492,44.0100
48.0482,44.0362
48.0469,44.0624
48.0453,44.0886
48.0434,44.1148
48.0410,44.1410
48.0247,44.2733
48.0012,44.4036
47.9706,44.5319
47.9330,44.6578
47.8886,44.7811
47.8376,44.9015
47.7802,45.0187
47.7164,45.1325
47.6464,45.2426
47.5705,45.3487
47.4887,45.4507
47.4011,45.5482
47.3081,45.6409
47.2097,45.7287
47.1060,45.8112
46.9973,45.8883
46.9130,45.9378
46.8272,45.9840
46.7399,46.0269
46.6511,46.0665
46.5611,46.1027
46.4700,46.1355
46.3777,46.1649
46.2844,46.1908
46.1903,46.2133
46.0953,46.2322
45.9996,46.2476
45.9033,46.2595
45.8066,46.2678
45.7094,46.2726
45.6119,46.2737
45.5142,46.2711
45.3918,46.2683
45.2695,46.2639
45.1473,46.2580
45.0251,46.2505
44.9031,46.2415
44.7812,46.2310
44.6594,46.2189
44.5378,46.2052
44.1648,46.1623
43.7930,46.1124
43.0510,46.0021
42.3085,45.8953
41.9361,45.8498
41.5623,45.8131
41.3025,45.7936
41.0422,45.7788
40.9118,45.7733
40.7813,45.7693
40.6507,45.7668
40.5201,45.7659
40.2864,45.7665
40.0530,45.7751
39.8203,45.7919
39.5883,45.8168
39.3574,45.8498
39.1276,45.8907
38.8993,45.9397
38.6726,45.9967
38.5243,46.0400
38.3782,46.0892
38.2347,46.1442
38.0938,46.2049
37.9557,46.2712
37.8207,46.3430
37.6887,46.4201
37.5600,46.5025
37.4348,46.5901
37.3132,46.6827
37.1954,46.7803
37.0815,46.8827
36.9717,46.9898
36.8662,47.1015
36.7650,47.2178
36.6684,47.3385
36.6656,47.3425
36.6644,47.3443
36.6632,47.3460
36.6620,47.3476
36.6607,47.3491
36.6595,47.3506
36.6581,47.3521
36.6473,47.3385
36.5507,47.2178
36.4495,47.1015
36.3440,46.9898
36.2342,46.8827
36.1203,46.7803
36.0025,46.6827
35.8809,46.5901
35.7557,46.5025
35.6270,46.4201
35.4951,46.3430
35.3600,46.2712
35.2219,46.2049
35.0810,46.1442
34.9375,46.0892
34.7914,46.0400
34.6431,45.9967
34.4161,45.9396
34.1875,45.8906
33.9574,45.8496
33.7261,45.8166
33.4938,45.7918
33.2607,45.7750
33.0271,45.7664
32.7930,45.7659
32.6626,45.7668
32.5321,45.7694
32.4016,45.7735
32.2712,45.7791
32.0107,45.7940
31.7509,45.8131
31.3770,45.8500
31.0046,45.8954
30.2622,46.0021
29.5202,46.1123
29.1484,46.1622
28.7754,46.2052
28.6538,46.2189
28.5320,46.2310
28.4101,46.2415
28.2880,46.2505
28.1659,46.2580
28.0437,46.2639
27.9214,46.2683
27.7990,46.2711
27.7013,46.2736
27.6038,46.2725
27.5066,46.2678
27.4098,46.2595
27.3136,46.2476
27.2179,46.2322
27.1229,46.2132
27.0288,46.1908
26.9355,46.1648
26.8432,46.1354
26.7520,46.1027
26.6620,46.0665
26.5733,46.0269
26.4860,45.9840
26.4002,45.9378
26.3159,45.8883
26.2072,45.8112
26.1035,45.7287
26.0051,45.6409
25.9120,45.5482
25.8245,45.4507
25.7427,45.3487
25.6667,45.2426
25.5968,45.1325
25.5330,45.0187
25.4755,44.9015
25.4245,44.7811
25.3802,44.6578
25.3426,44.5319
25.3120,44.4036
25.2884,44.2733
25.2721,44.1410
25.2698,44.1148
25.2679,44.0886
25.2663,44.0623
25.2650,44.0361
25.2640,44.0099
25.2634,43.9837
25.2628,43.9313
25.2628,35.8169
25.7964,35.8169
25.7965,43.9318
25.7966,43.9534
25.7970,43.9745
25.7983,44.0156
25.8003,44.0554
25.8031,44.0942
25.8157,44.1967
25.8340,44.2978
25.8577,44.3973
25.8868,44.4950
25.9212,44.5905
25.9607,44.6839
26.0053,44.7748
26.0547,44.8630
26.1089,44.9484
26.1678,45.0308
26.2312,45.1098
26.2990,45.1855
26.3711,45.2574
26.4474,45.3256
26.5277,45.3896
26.6120,45.4494
26.6799,45.4885
26.7491,45.5250
26.8195,45.5589
26.8909,45.5900
26.9634,45.6183
27.0368,45.6440
27.1111,45.6668
27.1861,45.6869
27.2618,45.7042
27.3382,45.7186
27.4150,45.7302
27.4924,45.7389
27.5701,45.7448
27.6481,45.7477
27.7263,45.7477
27.8047,45.7448
27.9211,45.7433
28.0385,45.7390
28.1561,45.7324
28.2735,45.7240
28.5044,45.7037
28.7257,45.6817
29.0604,45.6432
29.3962,45.5986
30.0618,45.5009
30.4668,45.4405
30.8772,45.3824
31.2918,45.3305
31.5005,45.3081
31.7099,45.2887
32.0010,45.2668
32.2776,45.2506
32.5419,45.2406
32.6700,45.2381
32.7957,45.2372
33.0477,45.2380
33.2992,45.2476
33.5501,45.2659
33.8001,45.2929
34.0491,45.3286
34.2967,45.3729
34.5428,45.4259
34.7871,45.4874
34.8949,45.5193
35.0018,45.5537
35.1077,45.5908
35.2125,45.6305
35.3163,45.6728
35.4189,45.7176
35.5204,45.7649
35.6206,45.8147
35.7196,45.8670
35.8173,45.9218
35.9136,45.9789
36.0084,46.0385
36.1019,46.1005
36.1938,46.1648
36.2842,46.2315
36.3730,46.3004
36.3730,35.8169
36.9444,35.8169
36.9445,46.3024
37.0333,46.2335
37.1237,46.1669
37.2157,46.1026
37.3091,46.0407
37.4040,45.9811
37.5003,45.9240
37.5980,45.8692
37.6969,45.8169
37.7972,45.7671
37.8986,45.7198
38.0012,45.6749
38.1050,45.6327
38.2098,45.5930
38.3157,45.5558
38.4226,45.5213
38.5304,45.4894
38.7747,45.4279
39.0207,45.3749
39.2684,45.3306
39.5173,45.2949
39.7674,45.2679
40.0182,45.2496
40.2698,45.2400
40.5217,45.2392
40.6475,45.2399
40.7756,45.2422
40.9063,45.2460
41.0399,45.2515
41.1767,45.2586
41.3169,45.2675
41.4608,45.2782
41.6086,45.2907
41.8176,45.3101
42.0260,45.3325
42.4404,45.3844
42.8507,45.4426
43.2557,45.5029
43.9224,45.6007
44.2579,45.6452
44.5918,45.6837
44.8130,45.7057
45.0438,45.7261
45.1611,45.7344
45.2788,45.7410
45.3962,45.7453
45.5127,45.7468
45.5910,45.7498
45.6692,45.7498
45.7472,45.7469
45.8248,45.7410
45.9021,45.7323
45.9789,45.7207
46.0552,45.7063
46.1309,45.6890
46.2058,45.6689
46.2800,45.6460
46.3534,45.6204
46.4258,45.5920
46.4972,45.5609
46.5675,45.5271
46.6366,45.4905
46.7044,45.4513
46.7892,45.3915
46.8699,45.3273
46.9466,45.2590
47.0190,45.1868
47.0872,45.1109
47.1508,45.0315
47.2099,44.9489
47.2644,44.8632
47.3139,44.7746
47.3586,44.6833
47.3982,44.5896
47.4326,44.4936
47.4617,44.3955
47.4853,44.2956
47.5035,44.1941
47.5159,44.0911
47.5186,44.0536
47.5207,44.0143
47.5215,43.9940
47.5220,43.9734
47.5224,43.9525
47.5225,43.9312
47.5225,35.8168
36.9444,35.8168
36.9444,35.8169
36.3730,35.8169
25.7964,35.8169
25.2628,35.8169
25.2628,35.2469
25.7965,35.2469
36.3746,35.2469
36.3746,24.6519
36.9445,24.6519
36.9445,35.2469
47.5225,35.2469
47.5225,24.6519
36.9445,24.6519
36.3746,24.6519
25.7965,24.6519
25.7965,35.2469
25.2628,35.2469
25.2628,24.1236
48.0503,24.1236
48.0503,24.6519
Z" /> 
</g>
<g style="fill:#000000; fill-opacity:1.0000; 
stroke:#000000; stroke-width:0.2000; stroke-opacity:1; 
stroke-linecap:round; stroke-linejoin:round;">
<path style="fill:#000000; fill-opacity:1.0000; 
stroke:#000000; stroke-width:0.2000; stroke-opacity:1; 
stroke-linecap:round; stroke-linejoin:round;fill-rule:evenodd;"
d="M 42.9653,45.4556
42.6306,45.4067
42.2924,45.3609
41.9514,45.3202
41.7802,45.3023
41.6086,45.2864
41.4134,45.2713
41.2251,45.2593
41.0432,45.2501
40.8671,45.2433
36.9445,41.3202
36.9445,39.4363
Z" /> 
<path style="fill:#000000; fill-opacity:1.0000; 
stroke:#000000; stroke-width:0.2000; stroke-opacity:1; 
stroke-linecap:round; stroke-linejoin:round;fill-rule:evenodd;"
d="M 27.0551,35.2464
25.7965,35.2464
25.7965,33.9879
Z" /> 
<path style="fill:#000000; fill-opacity:1.0000; 
stroke:#000000; stroke-width:0.2000; stroke-opacity:1; 
stroke-linecap:round; stroke-linejoin:round;fill-rule:evenodd;"
d="M 29.9051,35.2464
28.0196,35.2464
25.7965,33.0233
25.7965,31.1378
Z" /> 
</g>
<g style="fill:#000000; fill-opacity:1.0000; 
stroke:#000000; stroke-width:0.5139; stroke-opacity:1; 
stroke-linecap:round; stroke-linejoin:round;">
<path style="fill:#000000; fill-opacity:1.0000; 
stroke:#000000; stroke-width:0.5139; stroke-opacity:1; 
stroke-linecap:round; stroke-linejoin:round;fill-rule:evenodd;"
d="M 41.8034,26.5662
41.9928,26.5703
42.1791,26.5825
42.3618,26.6027
42.5410,26.6307
42.7164,26.6663
42.8878,26.7094
43.0550,26.7599
43.2179,26.8175
43.3763,26.8822
43.5300,26.9537
43.6788,27.0319
43.8225,27.1167
43.9610,27.2079
44.0941,27.3053
44.2216,27.4088
44.3433,27.5183
44.4590,27.6335
44.5685,27.7543
44.6717,27.8806
44.7685,28.0123
44.8585,28.1490
44.9416,28.2908
45.0177,28.4374
45.0865,28.5887
45.1480,28.7446
45.2018,28.9048
45.2478,29.0692
45.2859,29.2377
45.3158,29.4101
45.3374,29.5862
45.3505,29.7660
45.3549,29.9492
45.3549,29.9492
45.3520,30.1226
45.3401,30.2949
45.3195,30.4656
45.2903,30.6346
45.2527,30.8014
45.2067,30.9657
45.1524,31.1274
45.0901,31.2859
45.0198,31.4411
44.9417,31.5927
44.8559,31.7402
44.7625,31.8835
44.6617,32.0221
44.5536,32.1559
44.4384,32.2844
44.3160,32.4074
44.1875,32.5240
44.0538,32.6332
43.9152,32.7350
43.7721,32.8294
43.6247,32.9160
43.4734,32.9950
43.3184,33.0660
43.1601,33.1291
42.9989,33.1841
42.8349,33.2308
42.6686,33.2692
42.5003,33.2992
42.3302,33.3206
42.1587,33.3333
41.9860,33.3372
41.8126,33.3322
41.6197,33.3353
41.4280,33.3274
41.2379,33.3087
41.0500,33.2794
40.8646,33.2396
40.6821,33.1896
40.5031,33.1294
40.3278,33.0594
40.1567,32.9796
39.9902,32.8903
39.8288,32.7916
39.6728,32.6837
39.5228,32.5669
39.3790,32.4412
39.2420,32.3069
39.1121,32.1641
40.0839,31.2668
40.1613,31.3575
40.2434,31.4431
40.3297,31.5235
40.4201,31.5986
40.5142,31.6683
40.6120,31.7324
40.7130,31.7909
40.8170,31.8436
40.9239,31.8904
41.0332,31.9312
41.1449,31.9658
41.2586,31.9942
41.3740,32.0162
41.4909,32.0318
41.6092,32.0406
41.7284,32.0428
41.8337,32.0448
41.9384,32.0413
42.0424,32.0324
42.1454,32.0182
42.2473,31.9986
42.3479,31.9739
42.4469,31.9441
42.5442,31.9092
42.6396,31.8693
42.7328,31.8246
42.8238,31.7750
42.9122,31.7207
42.9979,31.6618
43.0807,31.5982
43.1603,31.5302
43.2367,31.4577
43.3092,31.3813
43.3772,31.3016
43.4408,31.2188
43.4997,31.1331
43.5540,31.0446
43.6035,30.9537
43.6482,30.8604
43.6881,30.7650
43.7229,30.6677
43.7528,30.5687
43.7775,30.4681
43.7970,30.3662
43.8112,30.2632
43.8201,30.1592
43.8235,30.0545
43.8215,29.9492
43.8235,29.8439
43.8201,29.7391
43.8112,29.6352
43.7969,29.5321
43.7774,29.4302
43.7527,29.3296
43.7229,29.2306
43.6881,29.1333
43.6482,29.0379
43.6035,28.9447
43.5540,28.8537
43.4997,28.7653
43.4408,28.6796
43.3772,28.5968
43.3092,28.5171
43.2367,28.4407
43.1603,28.3682
43.0806,28.3001
42.9979,28.2366
42.9122,28.1776
42.8237,28.1233
42.7328,28.0738
42.6396,28.0290
42.5442,27.9892
42.4469,27.9543
42.3479,27.9244
42.2473,27.8997
42.1454,27.8802
42.0424,27.8659
41.9384,27.8570
41.8336,27.8535
41.7284,27.8556
41.6096,27.8579
41.4917,27.8668
41.3752,27.8822
41.2601,27.9040
41.1467,27.9321
41.0353,27.9663
40.9261,28.0066
40.8194,28.0528
40.7153,28.1049
40.6143,28.1626
40.5164,28.2259
40.4220,28.2947
40.3313,28.3689
40.2446,28.4483
40.1620,28.5328
40.0839,28.6223
39.1121,27.7250
39.2421,27.5837
39.3792,27.4508
39.5228,27.3264
39.6726,27.2106
39.8282,27.1038
39.9891,27.0061
40.1550,26.9176
40.3255,26.8385
40.5001,26.7690
40.6784,26.7093
40.8600,26.6595
41.0445,26.6199
41.2315,26.5906
41.4206,26.5717
41.6114,26.5636
Z" /> 
</g>
<g style="fill:#000000; fill-opacity:1.0000; 
stroke:#000000; stroke-width:0.5653; stroke-opacity:1; 
stroke-linecap:round; stroke-linejoin:round;">
<path style="fill:#000000; fill-opacity:1.0000; 
stroke:#000000; stroke-width:0.5653; stroke-opacity:1; 
stroke-linecap:round; stroke-linejoin:round;fill-rule:evenodd;"
d="M 52.0322,24.8637
49.9106,24.8637
49.9106,22.3426
23.3943,22.3426
23.3943,24.8637
21.2727,24.8637
21.2727,20.2190
52.0322,20.2190
Z" /> 
<g >
</g>
<g >
</g>
<g >
</g>
<g >
</g>
<g style="fill:#000000; fill-opacity:1.0000; 
stroke:#000000; stroke-width:0.5653; stroke-opacity:1; 
stroke-linecap:round; stroke-linejoin:round;">
</g>
<g style="fill:#000000; fill-opacity:1.0000; 
stroke:#000000; stroke-width:0.0000; stroke-opacity:1; 
stroke-linecap:round; stroke-linejoin:round;">
<circle cx="67.7005" cy="28.3052" r="1.0500" /> 
</g>
<g style="fill:#000000; fill-opacity:1.0000; 
stroke:#000000; stroke-width:0.0212; stroke-opacity:1; 
stroke-linecap:round; stroke-linejoin:round;">
</g>
<g >
</g>
<g >
</g>
<g >
</g>
<g style="fill:#000000; fill-opacity:1.0000; 
stroke:#000000; stroke-width:0.0212; stroke-opacity:1; 
stroke-linecap:round; stroke-linejoin:round;">
</g>
<g style="fill:#000000; fill-opacity:1.0000; 
stroke:#000000; stroke-width:0.0000; stroke-opacity:1; 
stroke-linecap:round; stroke-linejoin:round;">
<circle cx="28.2698" cy="67.7837" r="1.0500" /> 
</g>
<g style="fill:#000000; fill-opacity:1.0000; 
stroke:#000000; stroke-width:0.0212; stroke-opacity:1; 
stroke-linecap:round; stroke-linejoin:round;">
</g>
<g >
</g>
<g >
</g>
<g >
</g>
<g style="fill:#000000; fill-opacity:1.0000; 
stroke:#000000; stroke-width:0.0212; stroke-opacity:1; 
stroke-linecap:round; stroke-linejoin:round;">
</g>
<g style="fill:#000000; fill-opacity:1.0000; 
stroke:#000000; stroke-width:0.0000; stroke-opacity:1; 
stroke-linecap:round; stroke-linejoin:round;">
<circle cx="44.9076" cy="5.5398" r="1.0500" /> 
</g>
<g style="fill:#000000; fill-opacity:1.0000; 
stroke:#000000; stroke-width:0.0212; stroke-opacity:1; 
stroke-linecap:round; stroke-linejoin:round;">
</g>
<g >
</g>
<g >
</g>
<g style="fill:#000000; fill-opacity:1.0000; 
stroke:#000000; stroke-width:0.0212; stroke-opacity:1; 
stroke-linecap:round; stroke-linejoin:round;">
</g>
<g style="fill:#000000; fill-opacity:1.0000; 
stroke:#000000; stroke-width:0.0000; stroke-opacity:1; 
stroke-linecap:round; stroke-linejoin:round;">
<circle cx="13.7958" cy="13.8964" r="1.0500" /> 
</g>
<g style="fill:#000000; fill-opacity:1.0000; 
stroke:#000000; stroke-width:0.0212; stroke-opacity:1; 
stroke-linecap:round; stroke-linejoin:round;">
</g>
<g >
</g>
<g style="fill:#000000; fill-opacity:1.0000; 
stroke:#000000; stroke-width:0.0212; stroke-opacity:1; 
stroke-linecap:round; stroke-linejoin:round;">
</g>
<g style="fill:#000000; fill-opacity:1.0000; 
stroke:#000000; stroke-width:0.0000; stroke-opacity:1; 
stroke-linecap:round; stroke-linejoin:round;">
<circle cx="5.4769" cy="45.0183" r="1.0500" /> 
</g>
<g style="fill:#000000; fill-opacity:1.0000; 
stroke:#000000; stroke-width:0.0212; stroke-opacity:1; 
stroke-linecap:round; stroke-linejoin:round;">
</g>
<g >
</g>
<g style="fill:#000000; fill-opacity:1.0000; 
stroke:#000000; stroke-width:0.0212; stroke-opacity:1; 
stroke-linecap:round; stroke-linejoin:round;">
</g>
<g style="fill:#000000; fill-opacity:1.0000; 
stroke:#000000; stroke-width:0.0000; stroke-opacity:1; 
stroke-linecap:round; stroke-linejoin:round;">
<circle cx="60.5546" cy="43.1195" r="0.8670" /> 
</g>
<g style="fill:#000000; fill-opacity:1.0000; 
stroke:#000000; stroke-width:0.0212; stroke-opacity:1; 
stroke-linecap:round; stroke-linejoin:round;">
</g>
<g style="fill:#000000; fill-opacity:1.0000; 
stroke:#000000; stroke-width:0.0000; stroke-opacity:1; 
stroke-linecap:round; stroke-linejoin:round;">
<circle cx="60.5546" cy="30.4195" r="0.8670" /> 
</g>
<g style="fill:#000000; fill-opacity:1.0000; 
stroke:#000000; stroke-width:0.0212; stroke-opacity:1; 
stroke-linecap:round; stroke-linejoin:round;">
</g>
<g >
</g>
<g >
</g>
<g style="fill:#000000; fill-opacity:1.0000; 
stroke:#000000; stroke-width:0.0212; stroke-opacity:1; 
stroke-linecap:round; stroke-linejoin:round;">
</g>
<g style="fill:#000000; fill-opacity:1.0000; 
stroke:#000000; stroke-width:0.0000; stroke-opacity:1; 
stroke-linecap:round; stroke-linejoin:round;">
<circle cx="5.4668" cy="28.3428" r="1.0500" /> 
</g>
<g style="fill:#000000; fill-opacity:1.0000; 
stroke:#000000; stroke-width:0.0212; stroke-opacity:1; 
stroke-linecap:round; stroke-linejoin:round;">
</g>
<g >
</g>
<g >
</g>
<g >
</g>
<g style="fill:#000000; fill-opacity:1.0000; 
stroke:#000000; stroke-width:0.0212; stroke-opacity:1; 
stroke-linecap:round; stroke-linejoin:round;">
</g>
<g style="fill:#000000; fill-opacity:1.0000; 
stroke:#000000; stroke-width:0.0000; stroke-opacity:1; 
stroke-linecap:round; stroke-linejoin:round;">
<circle cx="59.3541" cy="13.8688" r="1.0500" /> 
</g>
<g style="fill:#000000; fill-opacity:1.0000; 
stroke:#000000; stroke-width:0.0212; stroke-opacity:1; 
stroke-linecap:round; stroke-linejoin:round;">
</g>
<g >
</g>
<g >
</g>
<g >
</g>
<g >
</g>
<g style="fill:#000000; fill-opacity:1.0000; 
stroke:#000000; stroke-width:0.0212; stroke-opacity:1; 
stroke-linecap:round; stroke-linejoin:round;">
</g>
<g style="fill:#000000; fill-opacity:1.0000; 
stroke:#000000; stroke-width:0.0000; stroke-opacity:1; 
stroke-linecap:round; stroke-linejoin:round;">
<circle cx="13.8233" cy="59.4547" r="1.0500" /> 
</g>
<g style="fill:#000000; fill-opacity:1.0000; 
stroke:#000000; stroke-width:0.0212; stroke-opacity:1; 
stroke-linecap:round; stroke-linejoin:round;">
</g>
<g >
</g>
<g style="fill:#000000; fill-opacity:1.0000; 
stroke:#000000; stroke-width:0.0212; stroke-opacity:1; 
stroke-linecap:round; stroke-linejoin:round;">
</g>
<g style="fill:#000000; fill-opacity:1.0000; 
stroke:#000000; stroke-width:0.0000; stroke-opacity:1; 
stroke-linecap:round; stroke-linejoin:round;">
<circle cx="59.3816" cy="59.4271" r="1.0500" /> 
</g>
<g style="fill:#000000; fill-opacity:1.0000; 
stroke:#000000; stroke-width:0.0212; stroke-opacity:1; 
stroke-linecap:round; stroke-linejoin:round;">
</g>
<g >
</g>
<g >
</g>
<g >
</g>
<g >
</g>
<g style="fill:#000000; fill-opacity:1.0000; 
stroke:#000000; stroke-width:0.0212; stroke-opacity:1; 
stroke-linecap:round; stroke-linejoin:round;">
</g>
<g style="fill:#000000; fill-opacity:1.0000; 
stroke:#000000; stroke-width:0.0000; stroke-opacity:1; 
stroke-linecap:round; stroke-linejoin:round;">
<circle cx="67.7106" cy="44.9807" r="1.0500" /> 
</g>
<g style="fill:#000000; fill-opacity:1.0000; 
stroke:#000000; stroke-width:0.0212; stroke-opacity:1; 
stroke-linecap:round; stroke-linejoin:round;">
</g>
<g >
</g>
<g >
</g>
<g style="fill:#000000; fill-opacity:1.0000; 
stroke:#000000; stroke-width:0.0212; stroke-opacity:1; 
stroke-linecap:round; stroke-linejoin:round;">
</g>
<g style="fill:#000000; fill-opacity:1.0000; 
stroke:#000000; stroke-width:0.0000; stroke-opacity:1; 
stroke-linecap:round; stroke-linejoin:round;">
<circle cx="44.9453" cy="67.7736" r="1.0500" /> 
</g>
<g style="fill:#000000; fill-opacity:1.0000; 
stroke:#000000; stroke-width:0.0212; stroke-opacity:1; 
stroke-linecap:round; stroke-linejoin:round;">
</g>
<g >
</g>
<g style="fill:#000000; fill-opacity:1.0000; 
stroke:#000000; stroke-width:0.0212; stroke-opacity:1; 
stroke-linecap:round; stroke-linejoin:round;">
</g>
<g style="fill:#000000; fill-opacity:1.0000; 
stroke:#000000; stroke-width:0.0000; stroke-opacity:1; 
stroke-linecap:round; stroke-linejoin:round;">
<circle cx="28.2321" cy="5.5499" r="1.0500" /> 
</g>
<g style="fill:#000000; fill-opacity:1.0000; 
stroke:#000000; stroke-width:0.0212; stroke-opacity:1; 
stroke-linecap:round; stroke-linejoin:round;">
</g>
<g >
</g>
<g >
</g>
<g >
</g>
<g >
</g>
<g >
</g>
<g >
</g>
<g >
</g>
<g >
</g>
<g >
</g>
<g >
</g>
<g >
</g>
<g >
</g>
</g>
<g style="fill:#000000; fill-opacity:1.0000; 
stroke:#000000; stroke-width:0.0212; stroke-opacity:1; 
stroke-linecap:round; stroke-linejoin:round;">
</g>
<g style="fill:#000000; fill-opacity:1.0000; 
stroke:#000000; stroke-width:0.0000; stroke-opacity:1; 
stroke-linecap:round; stroke-linejoin:round;">
<circle cx="36.6546" cy="6.8445" r="2.1687" /> 
</g>
<g style="fill:#000000; fill-opacity:0.0; 
stroke:#000000; stroke-width:0.1000; stroke-opacity:1; 
stroke-linecap:round; stroke-linejoin:round;">
<circle cx="36.6546" cy="36.7695" r="35.0000" /> 
<g >
</g>
<g >
</g>
<g >
</g>
<g >
</g>
<g >
</g>
<g >
</g>
<g >
</g>
<g >
</g>
<g >
</g>
<g >
</g>
<g >
</g>
<g >
</g>
<g >
</g>
<g >
</g>
<g >
</g>
<g >
</g>
<g >
</g>
<g >
</g>
<g >
</g>
<g >
</g>
<g >
</g>
<g >
</g>
<g >
</g>
<g >
</g>
<g >
</g>
<g >
</g>
<g >
</g>
<g >
</g>
<g >
</g>
<g >
</g>
<g >
</g>
<g >
</g>
<g >
</g>
<g >
</g>
<g >
</g>
<g >
</g>
<g >
</g>
<g >
</g>
<g >
</g>
<g >
</g>
<g >
</g>
<g >
</g>
<g >
</g>
</g> 
</svg>
