%TF.GenerationSoftware,KiCad,Pcbnew,7.0.7*%
%TF.CreationDate,2023-11-12T19:42:32-08:00*%
%TF.ProjectId,CodeStackOrnament2023,436f6465-5374-4616-936b-4f726e616d65,rev?*%
%TF.SameCoordinates,Original*%
%TF.FileFunction,Copper,L2,Bot*%
%TF.FilePolarity,Positive*%
%FSLAX46Y46*%
G04 Gerber Fmt 4.6, Leading zero omitted, Abs format (unit mm)*
G04 Created by KiCad (PCBNEW 7.0.7) date 2023-11-12 19:42:32*
%MOMM*%
%LPD*%
G01*
G04 APERTURE LIST*
%TA.AperFunction,ComponentPad*%
%ADD10C,1.530000*%
%TD*%
%TA.AperFunction,ViaPad*%
%ADD11C,0.800000*%
%TD*%
G04 APERTURE END LIST*
D10*
%TO.P,BT1,1,+*%
%TO.N,Net-(BT1-+)*%
X173990000Y-111038605D03*
%TO.P,BT1,2,-*%
%TO.N,GND*%
X173990000Y-98338605D03*
%TD*%
D11*
%TO.N,GND*%
X132450000Y-125825000D03*
X131700000Y-123227000D03*
X155300000Y-135900000D03*
X160200000Y-126600000D03*
X157700000Y-126600000D03*
X149100000Y-127700000D03*
X148600000Y-122500000D03*
X153000000Y-127800016D03*
X146500000Y-120900000D03*
X143400000Y-125300000D03*
X170400000Y-128800000D03*
X141380000Y-131060000D03*
%TD*%
%TA.AperFunction,Conductor*%
%TO.N,GND*%
G36*
X154387420Y-69956977D02*
G01*
X154395671Y-69957542D01*
X155272790Y-70076787D01*
X155506380Y-70112571D01*
X156438811Y-70271577D01*
X156438829Y-70271580D01*
X156671081Y-70315235D01*
X157597578Y-70505634D01*
X157828279Y-70557120D01*
X157962477Y-70589458D01*
X158747828Y-70778705D01*
X158976613Y-70837942D01*
X159888152Y-71090458D01*
X160114811Y-71157389D01*
X161017354Y-71440564D01*
X161241550Y-71515088D01*
X162134023Y-71828587D01*
X162355610Y-71910654D01*
X163236984Y-72254115D01*
X163404607Y-72322720D01*
X163455667Y-72343618D01*
X164324920Y-72716644D01*
X164540444Y-72813475D01*
X165396617Y-73215652D01*
X165608771Y-73319719D01*
X166450821Y-73750557D01*
X166659419Y-73861773D01*
X166759613Y-73917385D01*
X167486396Y-74320783D01*
X167559246Y-74362843D01*
X167691103Y-74438970D01*
X168473393Y-74908418D01*
X168502112Y-74925652D01*
X168702722Y-75050693D01*
X169046747Y-75273280D01*
X169496810Y-75564475D01*
X169693117Y-75696243D01*
X170393401Y-76183656D01*
X170469399Y-76236552D01*
X170661103Y-76374846D01*
X171418744Y-76941103D01*
X171605618Y-77085754D01*
X171994713Y-77397585D01*
X172343652Y-77677234D01*
X172343695Y-77677268D01*
X172525634Y-77828196D01*
X173243295Y-78444288D01*
X173366376Y-78553614D01*
X173420001Y-78601246D01*
X173781252Y-78933208D01*
X174116433Y-79241214D01*
X174116464Y-79241242D01*
X174287787Y-79404097D01*
X174962236Y-80067251D01*
X175127919Y-80235756D01*
X175678966Y-80815457D01*
X175779615Y-80921339D01*
X175939506Y-81095338D01*
X176567675Y-81802540D01*
X176721598Y-81981839D01*
X176931138Y-82234433D01*
X177325506Y-82709832D01*
X177473334Y-82894288D01*
X178052290Y-83642237D01*
X178193784Y-83831553D01*
X178747178Y-84598673D01*
X178882163Y-84792610D01*
X179409346Y-85578000D01*
X179537714Y-85776402D01*
X180038052Y-86579120D01*
X180159668Y-86781783D01*
X180632602Y-87600929D01*
X180747295Y-87807566D01*
X181192284Y-88642199D01*
X181299962Y-88852649D01*
X181716510Y-89701842D01*
X181816984Y-89915734D01*
X182204624Y-90778531D01*
X182297837Y-90995744D01*
X182656101Y-91871107D01*
X182741924Y-92091339D01*
X183070425Y-92978318D01*
X183148758Y-93201317D01*
X183447115Y-94098888D01*
X183517869Y-94324398D01*
X183785739Y-95231523D01*
X183848845Y-95459324D01*
X183997961Y-96035246D01*
X184085918Y-96374954D01*
X184141298Y-96604775D01*
X184347309Y-97527883D01*
X184394894Y-97759430D01*
X184569614Y-98688988D01*
X184609349Y-98921997D01*
X184752577Y-99856940D01*
X184784416Y-100091136D01*
X184895987Y-101030396D01*
X184919899Y-101265539D01*
X184999681Y-102208008D01*
X185015640Y-102443854D01*
X185052323Y-103167193D01*
X185052402Y-103170422D01*
X185047937Y-106291309D01*
X185047930Y-106295150D01*
X185047851Y-106298183D01*
X185015640Y-106933355D01*
X184999681Y-107169201D01*
X184919899Y-108111670D01*
X184895987Y-108346813D01*
X184784416Y-109286073D01*
X184752577Y-109520269D01*
X184609349Y-110455212D01*
X184569614Y-110688221D01*
X184394894Y-111617779D01*
X184347309Y-111849326D01*
X184141298Y-112772434D01*
X184085918Y-113002255D01*
X183848845Y-113917885D01*
X183785739Y-114145686D01*
X183517869Y-115052811D01*
X183447115Y-115278321D01*
X183148758Y-116175892D01*
X183070425Y-116398891D01*
X182741924Y-117285870D01*
X182656101Y-117506102D01*
X182297837Y-118381465D01*
X182204624Y-118598678D01*
X181816984Y-119461475D01*
X181716510Y-119675367D01*
X181299962Y-120524560D01*
X181192284Y-120735010D01*
X180747295Y-121569643D01*
X180632602Y-121776280D01*
X180159668Y-122595426D01*
X180038052Y-122798089D01*
X179537714Y-123600807D01*
X179409346Y-123799209D01*
X178882163Y-124584599D01*
X178747178Y-124778536D01*
X178193784Y-125545656D01*
X178052290Y-125734972D01*
X177473334Y-126482921D01*
X177325506Y-126667377D01*
X176721608Y-127395359D01*
X176567675Y-127574669D01*
X175939506Y-128281871D01*
X175779615Y-128455870D01*
X175127919Y-129141453D01*
X174962236Y-129309958D01*
X174287770Y-129973129D01*
X174116476Y-130135956D01*
X173420001Y-130775963D01*
X173243302Y-130932916D01*
X172525634Y-131549013D01*
X172343695Y-131699941D01*
X171605618Y-132291455D01*
X171418744Y-132436106D01*
X170661103Y-133002363D01*
X170469399Y-133140657D01*
X169693119Y-133680965D01*
X169496810Y-133812734D01*
X168702730Y-134326511D01*
X168502112Y-134451557D01*
X167691103Y-134938239D01*
X167486396Y-135056426D01*
X166659429Y-135515431D01*
X166450809Y-135626658D01*
X165608805Y-136057473D01*
X165396586Y-136161571D01*
X164540469Y-136563723D01*
X164324914Y-136660568D01*
X163455667Y-137033591D01*
X163236960Y-137123103D01*
X162355632Y-137466547D01*
X162134002Y-137548630D01*
X161241573Y-137862113D01*
X161017325Y-137936654D01*
X160114816Y-138219818D01*
X159888150Y-138286752D01*
X158976614Y-138539266D01*
X158747814Y-138598507D01*
X157828279Y-138820089D01*
X157597578Y-138871575D01*
X156671081Y-139061974D01*
X156438829Y-139105629D01*
X155506415Y-139264632D01*
X155378041Y-139284298D01*
X155272792Y-139300422D01*
X154335527Y-139427844D01*
X154100856Y-139455719D01*
X153159821Y-139551413D01*
X152924328Y-139571348D01*
X151980612Y-139635204D01*
X151744575Y-139647174D01*
X150799253Y-139679120D01*
X150562931Y-139683113D01*
X149617069Y-139683113D01*
X149611864Y-139683025D01*
X149380746Y-139679120D01*
X148435424Y-139647174D01*
X148199387Y-139635204D01*
X147255671Y-139571348D01*
X147020178Y-139551413D01*
X146079143Y-139455719D01*
X145869499Y-139430816D01*
X145844467Y-139427843D01*
X144907207Y-139300422D01*
X144845731Y-139291004D01*
X144673607Y-139264636D01*
X144269159Y-139195666D01*
X143741170Y-139105629D01*
X143508918Y-139061974D01*
X142582421Y-138871575D01*
X142351720Y-138820089D01*
X141432185Y-138598507D01*
X141203385Y-138539266D01*
X140291864Y-138286756D01*
X140206112Y-138261434D01*
X140065183Y-138219818D01*
X139162674Y-137936654D01*
X138938426Y-137862113D01*
X138045997Y-137548630D01*
X137824367Y-137466547D01*
X136943039Y-137123103D01*
X136724332Y-137033591D01*
X135855085Y-136660568D01*
X135639530Y-136563723D01*
X135571641Y-136531833D01*
X135174815Y-136345428D01*
X134783413Y-136161571D01*
X134571194Y-136057473D01*
X133877980Y-135702787D01*
X140399726Y-135702787D01*
X140419558Y-135929472D01*
X140419560Y-135929483D01*
X140478452Y-136149274D01*
X140478455Y-136149283D01*
X140574625Y-136355518D01*
X140574626Y-136355520D01*
X140705148Y-136541927D01*
X140866052Y-136702831D01*
X140866055Y-136702833D01*
X141052460Y-136833354D01*
X141258698Y-136929525D01*
X141478502Y-136988421D01*
X141648410Y-137003286D01*
X141761978Y-137003286D01*
X141931886Y-136988421D01*
X142151690Y-136929525D01*
X142357928Y-136833354D01*
X142544333Y-136702833D01*
X142705241Y-136541925D01*
X142835762Y-136355520D01*
X142931933Y-136149282D01*
X142990829Y-135929478D01*
X143010662Y-135702786D01*
X143009779Y-135692695D01*
X157075214Y-135692695D01*
X157095046Y-135919380D01*
X157095048Y-135919391D01*
X157153940Y-136139182D01*
X157153943Y-136139191D01*
X157250113Y-136345426D01*
X157250114Y-136345428D01*
X157380636Y-136531835D01*
X157541540Y-136692739D01*
X157541543Y-136692741D01*
X157727948Y-136823262D01*
X157934186Y-136919433D01*
X157934191Y-136919434D01*
X157934193Y-136919435D01*
X157987097Y-136933610D01*
X158153990Y-136978329D01*
X158323898Y-136993194D01*
X158437466Y-136993194D01*
X158607374Y-136978329D01*
X158827178Y-136919433D01*
X159033416Y-136823262D01*
X159219821Y-136692741D01*
X159380729Y-136531833D01*
X159511250Y-136345428D01*
X159607421Y-136139190D01*
X159666317Y-135919386D01*
X159686150Y-135692694D01*
X159666317Y-135466002D01*
X159607421Y-135246198D01*
X159511250Y-135039960D01*
X159413521Y-134900387D01*
X159380727Y-134853552D01*
X159219823Y-134692648D01*
X159033416Y-134562126D01*
X159033414Y-134562125D01*
X158827179Y-134465955D01*
X158827170Y-134465952D01*
X158607379Y-134407060D01*
X158607369Y-134407058D01*
X158437466Y-134392194D01*
X158323898Y-134392194D01*
X158153994Y-134407058D01*
X158153984Y-134407060D01*
X157934193Y-134465952D01*
X157934184Y-134465955D01*
X157727949Y-134562125D01*
X157727947Y-134562126D01*
X157541540Y-134692648D01*
X157380636Y-134853552D01*
X157250114Y-135039959D01*
X157250113Y-135039961D01*
X157153943Y-135246196D01*
X157153940Y-135246205D01*
X157095048Y-135465996D01*
X157095046Y-135466007D01*
X157075214Y-135692692D01*
X157075214Y-135692695D01*
X143009779Y-135692695D01*
X142990829Y-135476094D01*
X142931933Y-135256290D01*
X142835762Y-135050052D01*
X142705241Y-134863647D01*
X142705239Y-134863644D01*
X142544335Y-134702740D01*
X142357928Y-134572218D01*
X142357926Y-134572217D01*
X142151691Y-134476047D01*
X142151682Y-134476044D01*
X141931891Y-134417152D01*
X141931881Y-134417150D01*
X141761978Y-134402286D01*
X141648410Y-134402286D01*
X141478506Y-134417150D01*
X141478496Y-134417152D01*
X141258705Y-134476044D01*
X141258696Y-134476047D01*
X141052461Y-134572217D01*
X141052459Y-134572218D01*
X140866052Y-134702740D01*
X140705148Y-134863644D01*
X140574626Y-135050051D01*
X140574625Y-135050053D01*
X140478455Y-135256288D01*
X140478452Y-135256297D01*
X140419560Y-135476088D01*
X140419558Y-135476099D01*
X140399726Y-135702784D01*
X140399726Y-135702787D01*
X133877980Y-135702787D01*
X133729190Y-135626658D01*
X133520570Y-135515431D01*
X132693603Y-135056426D01*
X132488896Y-134938239D01*
X131677887Y-134451557D01*
X131477269Y-134326511D01*
X130683189Y-133812734D01*
X130486880Y-133680965D01*
X129710600Y-133140657D01*
X129518896Y-133002363D01*
X128761255Y-132436106D01*
X128574381Y-132291455D01*
X127836304Y-131699941D01*
X127654365Y-131549013D01*
X127433367Y-131359292D01*
X126936693Y-130932912D01*
X126830984Y-130839017D01*
X126759998Y-130775963D01*
X126063523Y-130135956D01*
X125892212Y-129973112D01*
X125217763Y-129309958D01*
X125052080Y-129141453D01*
X124790940Y-128866734D01*
X124400371Y-128455855D01*
X124240493Y-128281871D01*
X123612324Y-127574669D01*
X123458391Y-127395359D01*
X123440491Y-127373781D01*
X125953287Y-127373781D01*
X125973119Y-127600466D01*
X125973121Y-127600477D01*
X126032013Y-127820268D01*
X126032016Y-127820277D01*
X126128186Y-128026512D01*
X126128187Y-128026514D01*
X126258709Y-128212921D01*
X126419613Y-128373825D01*
X126419616Y-128373827D01*
X126606021Y-128504348D01*
X126812259Y-128600519D01*
X127032063Y-128659415D01*
X127201971Y-128674280D01*
X127315539Y-128674280D01*
X127485447Y-128659415D01*
X127705251Y-128600519D01*
X127911489Y-128504348D01*
X128097894Y-128373827D01*
X128258802Y-128212919D01*
X128389323Y-128026514D01*
X128485494Y-127820276D01*
X128544390Y-127600472D01*
X128564223Y-127373780D01*
X128561811Y-127346216D01*
X171511562Y-127346216D01*
X171531394Y-127572901D01*
X171531396Y-127572912D01*
X171590288Y-127792703D01*
X171590291Y-127792712D01*
X171686461Y-127998947D01*
X171686462Y-127998949D01*
X171816984Y-128185356D01*
X171977888Y-128346260D01*
X172024723Y-128379054D01*
X172164296Y-128476783D01*
X172370534Y-128572954D01*
X172590338Y-128631850D01*
X172760246Y-128646715D01*
X172873814Y-128646715D01*
X173043722Y-128631850D01*
X173263526Y-128572954D01*
X173469764Y-128476783D01*
X173656169Y-128346262D01*
X173817077Y-128185354D01*
X173947598Y-127998949D01*
X174043769Y-127792711D01*
X174102665Y-127572907D01*
X174122498Y-127346215D01*
X174102665Y-127119523D01*
X174051155Y-126927284D01*
X174043771Y-126899726D01*
X174043768Y-126899717D01*
X173960452Y-126721047D01*
X173947598Y-126693481D01*
X173817077Y-126507076D01*
X173817075Y-126507073D01*
X173656171Y-126346169D01*
X173469764Y-126215647D01*
X173469762Y-126215646D01*
X173263527Y-126119476D01*
X173263518Y-126119473D01*
X173043727Y-126060581D01*
X173043717Y-126060579D01*
X172873814Y-126045715D01*
X172760246Y-126045715D01*
X172590342Y-126060579D01*
X172590332Y-126060581D01*
X172370541Y-126119473D01*
X172370532Y-126119476D01*
X172164297Y-126215646D01*
X172164295Y-126215647D01*
X171977888Y-126346169D01*
X171816984Y-126507073D01*
X171686462Y-126693480D01*
X171686461Y-126693482D01*
X171590291Y-126899717D01*
X171590288Y-126899726D01*
X171531396Y-127119517D01*
X171531394Y-127119528D01*
X171511562Y-127346213D01*
X171511562Y-127346216D01*
X128561811Y-127346216D01*
X128544390Y-127147093D01*
X128544390Y-127147088D01*
X128485494Y-126927284D01*
X128389323Y-126721046D01*
X128258802Y-126534641D01*
X128258800Y-126534638D01*
X128097896Y-126373734D01*
X127911489Y-126243212D01*
X127911487Y-126243211D01*
X127705252Y-126147041D01*
X127705243Y-126147038D01*
X127485452Y-126088146D01*
X127485442Y-126088144D01*
X127315539Y-126073280D01*
X127201971Y-126073280D01*
X127032067Y-126088144D01*
X127032057Y-126088146D01*
X126812266Y-126147038D01*
X126812257Y-126147041D01*
X126606022Y-126243211D01*
X126606020Y-126243212D01*
X126419613Y-126373734D01*
X126258709Y-126534638D01*
X126128187Y-126721045D01*
X126128186Y-126721047D01*
X126032016Y-126927282D01*
X126032013Y-126927291D01*
X125973121Y-127147082D01*
X125973119Y-127147093D01*
X125953287Y-127373778D01*
X125953287Y-127373781D01*
X123440491Y-127373781D01*
X123440490Y-127373780D01*
X122854493Y-126667377D01*
X122706665Y-126482921D01*
X122127709Y-125734972D01*
X121986209Y-125545648D01*
X121726836Y-125186102D01*
X121432821Y-124778536D01*
X121297836Y-124584599D01*
X120770653Y-123799209D01*
X120642290Y-123600814D01*
X120141948Y-122798089D01*
X120020331Y-122595426D01*
X119547397Y-121776280D01*
X119432704Y-121569643D01*
X118987715Y-120735010D01*
X118880037Y-120524560D01*
X118463489Y-119675367D01*
X118363015Y-119461475D01*
X117975375Y-118598678D01*
X117882162Y-118381465D01*
X117523898Y-117506102D01*
X117508957Y-117467762D01*
X117438081Y-117285885D01*
X117109560Y-116398852D01*
X117031228Y-116175852D01*
X116732884Y-115278321D01*
X116662130Y-115052811D01*
X116421500Y-114237932D01*
X116394253Y-114145662D01*
X116388948Y-114126510D01*
X116331164Y-113917921D01*
X116094072Y-113002218D01*
X116078461Y-112937433D01*
X117606804Y-112937433D01*
X117626636Y-113164118D01*
X117626638Y-113164129D01*
X117685530Y-113383920D01*
X117685533Y-113383929D01*
X117781703Y-113590164D01*
X117781704Y-113590166D01*
X117912226Y-113776573D01*
X118073130Y-113937477D01*
X118073133Y-113937479D01*
X118259538Y-114068000D01*
X118465776Y-114164171D01*
X118685580Y-114223067D01*
X118855488Y-114237932D01*
X118969056Y-114237932D01*
X119138964Y-114223067D01*
X119358768Y-114164171D01*
X119565006Y-114068000D01*
X119751411Y-113937479D01*
X119912319Y-113776571D01*
X120042840Y-113590166D01*
X120139011Y-113383928D01*
X120197907Y-113164124D01*
X120217740Y-112937432D01*
X120214445Y-112899773D01*
X179840566Y-112899773D01*
X179860399Y-113126458D01*
X179860401Y-113126469D01*
X179919293Y-113346260D01*
X179919296Y-113346269D01*
X180015466Y-113552504D01*
X180015467Y-113552506D01*
X180145989Y-113738913D01*
X180306893Y-113899817D01*
X180306896Y-113899819D01*
X180493301Y-114030340D01*
X180699539Y-114126511D01*
X180919343Y-114185407D01*
X181089251Y-114200272D01*
X181202819Y-114200272D01*
X181372727Y-114185407D01*
X181592531Y-114126511D01*
X181798769Y-114030340D01*
X181985174Y-113899819D01*
X182146082Y-113738911D01*
X182276603Y-113552506D01*
X182372774Y-113346268D01*
X182431670Y-113126464D01*
X182451503Y-112899772D01*
X182431670Y-112673080D01*
X182372774Y-112453276D01*
X182276603Y-112247038D01*
X182146082Y-112060633D01*
X182146080Y-112060630D01*
X181985176Y-111899726D01*
X181798769Y-111769204D01*
X181798767Y-111769203D01*
X181592532Y-111673033D01*
X181592523Y-111673030D01*
X181372732Y-111614138D01*
X181372722Y-111614136D01*
X181202819Y-111599272D01*
X181089251Y-111599272D01*
X180919347Y-111614136D01*
X180919337Y-111614138D01*
X180699546Y-111673030D01*
X180699537Y-111673033D01*
X180493302Y-111769203D01*
X180493300Y-111769204D01*
X180306893Y-111899726D01*
X180145989Y-112060630D01*
X180015467Y-112247037D01*
X180015466Y-112247039D01*
X179919296Y-112453274D01*
X179919293Y-112453283D01*
X179860401Y-112673074D01*
X179860399Y-112673085D01*
X179840566Y-112899770D01*
X179840566Y-112899773D01*
X120214445Y-112899773D01*
X120197907Y-112710740D01*
X120139011Y-112490936D01*
X120042840Y-112284698D01*
X119912319Y-112098293D01*
X119912317Y-112098290D01*
X119751413Y-111937386D01*
X119565006Y-111806864D01*
X119565004Y-111806863D01*
X119358769Y-111710693D01*
X119358760Y-111710690D01*
X119138969Y-111651798D01*
X119138959Y-111651796D01*
X118969056Y-111636932D01*
X118855488Y-111636932D01*
X118685584Y-111651796D01*
X118685574Y-111651798D01*
X118465783Y-111710690D01*
X118465774Y-111710693D01*
X118259539Y-111806863D01*
X118259537Y-111806864D01*
X118073130Y-111937386D01*
X117912226Y-112098290D01*
X117781704Y-112284697D01*
X117781703Y-112284699D01*
X117685533Y-112490934D01*
X117685530Y-112490943D01*
X117626638Y-112710734D01*
X117626636Y-112710745D01*
X117606804Y-112937430D01*
X117606804Y-112937433D01*
X116078461Y-112937433D01*
X116038701Y-112772434D01*
X115832690Y-111849326D01*
X115823964Y-111806864D01*
X115785105Y-111617776D01*
X115676243Y-111038606D01*
X172719666Y-111038606D01*
X172738964Y-111259190D01*
X172738965Y-111259197D01*
X172796275Y-111473080D01*
X172796279Y-111473091D01*
X172879611Y-111651797D01*
X172889858Y-111673772D01*
X173016868Y-111855160D01*
X173173445Y-112011737D01*
X173354833Y-112138747D01*
X173475572Y-112195048D01*
X173555513Y-112232325D01*
X173555515Y-112232325D01*
X173555520Y-112232328D01*
X173769409Y-112289640D01*
X173926974Y-112303425D01*
X173989998Y-112308939D01*
X173990000Y-112308939D01*
X173990002Y-112308939D01*
X174045147Y-112304114D01*
X174210591Y-112289640D01*
X174424480Y-112232328D01*
X174625167Y-112138747D01*
X174806555Y-112011737D01*
X174963132Y-111855160D01*
X175090142Y-111673772D01*
X175183723Y-111473085D01*
X175241035Y-111259196D01*
X175260334Y-111038605D01*
X175241035Y-110818014D01*
X175183723Y-110604125D01*
X175090142Y-110403438D01*
X174963132Y-110222050D01*
X174806555Y-110065473D01*
X174625167Y-109938463D01*
X174625163Y-109938461D01*
X174424486Y-109844884D01*
X174424475Y-109844880D01*
X174210592Y-109787570D01*
X174210585Y-109787569D01*
X173990002Y-109768271D01*
X173989998Y-109768271D01*
X173769414Y-109787569D01*
X173769407Y-109787570D01*
X173555524Y-109844880D01*
X173555513Y-109844884D01*
X173354836Y-109938461D01*
X173354834Y-109938462D01*
X173173444Y-110065473D01*
X173016868Y-110222049D01*
X172889857Y-110403439D01*
X172889856Y-110403441D01*
X172796279Y-110604118D01*
X172796275Y-110604129D01*
X172738965Y-110818012D01*
X172738964Y-110818019D01*
X172719666Y-111038603D01*
X172719666Y-111038606D01*
X115676243Y-111038606D01*
X115610382Y-110688207D01*
X115596043Y-110604118D01*
X115570651Y-110455212D01*
X115427420Y-109520252D01*
X115395584Y-109286077D01*
X115284013Y-108346813D01*
X115260103Y-108111695D01*
X115180317Y-107169190D01*
X115164360Y-106933355D01*
X115116451Y-105988661D01*
X115108473Y-105752582D01*
X115092496Y-104806765D01*
X115092496Y-104570444D01*
X115108472Y-103624670D01*
X115116450Y-103388556D01*
X115164360Y-102443844D01*
X115180318Y-102208008D01*
X115260105Y-101265480D01*
X115284007Y-101030439D01*
X115395585Y-100091122D01*
X115427417Y-99856978D01*
X115570658Y-98921946D01*
X115610385Y-98688988D01*
X115676243Y-98338604D01*
X172966069Y-98338604D01*
X172985743Y-98538362D01*
X173044012Y-98730447D01*
X173113882Y-98861167D01*
X173373814Y-98601235D01*
X173435137Y-98567750D01*
X173504828Y-98572734D01*
X173560762Y-98614605D01*
X173565806Y-98621871D01*
X173600605Y-98676018D01*
X173711438Y-98772056D01*
X173717219Y-98777065D01*
X173754993Y-98835844D01*
X173754993Y-98905713D01*
X173723698Y-98958459D01*
X173467436Y-99214721D01*
X173598159Y-99284593D01*
X173790244Y-99342861D01*
X173790240Y-99342861D01*
X173990000Y-99362535D01*
X174189757Y-99342861D01*
X174381845Y-99284591D01*
X174381848Y-99284590D01*
X174512562Y-99214722D01*
X174512562Y-99214721D01*
X174256301Y-98958460D01*
X174222816Y-98897137D01*
X174227800Y-98827445D01*
X174262779Y-98777066D01*
X174268559Y-98772057D01*
X174268562Y-98772056D01*
X174379395Y-98676018D01*
X174414189Y-98621876D01*
X174466992Y-98576123D01*
X174536150Y-98566179D01*
X174599706Y-98595204D01*
X174606185Y-98601236D01*
X174866116Y-98861167D01*
X174866117Y-98861167D01*
X174935985Y-98730453D01*
X174935986Y-98730450D01*
X174994256Y-98538362D01*
X175013930Y-98338604D01*
X174994256Y-98138847D01*
X174935988Y-97946764D01*
X174866116Y-97816041D01*
X174606184Y-98075973D01*
X174544861Y-98109458D01*
X174475169Y-98104474D01*
X174419236Y-98062602D01*
X174414187Y-98055330D01*
X174379397Y-98001194D01*
X174379392Y-98001189D01*
X174262779Y-97900142D01*
X174225005Y-97841364D01*
X174225005Y-97771494D01*
X174256301Y-97718749D01*
X174512562Y-97462487D01*
X174381842Y-97392617D01*
X174189755Y-97334348D01*
X174189759Y-97334348D01*
X173990000Y-97314674D01*
X173790242Y-97334348D01*
X173598156Y-97392617D01*
X173467436Y-97462487D01*
X173467436Y-97462488D01*
X173723698Y-97718750D01*
X173757183Y-97780073D01*
X173752199Y-97849765D01*
X173717220Y-97900143D01*
X173600606Y-98001189D01*
X173600605Y-98001191D01*
X173565810Y-98055333D01*
X173513005Y-98101087D01*
X173443846Y-98111030D01*
X173380291Y-98082004D01*
X173373814Y-98075973D01*
X173113882Y-97816041D01*
X173044012Y-97946761D01*
X172985743Y-98138847D01*
X172966069Y-98338604D01*
X115676243Y-98338604D01*
X115785115Y-97759379D01*
X115832690Y-97527883D01*
X116038705Y-96604758D01*
X116094082Y-96374954D01*
X116123342Y-96261945D01*
X117596715Y-96261945D01*
X117616547Y-96488630D01*
X117616549Y-96488641D01*
X117675441Y-96708432D01*
X117675444Y-96708441D01*
X117771614Y-96914676D01*
X117771615Y-96914678D01*
X117902137Y-97101085D01*
X118063041Y-97261989D01*
X118063044Y-97261991D01*
X118249449Y-97392512D01*
X118455687Y-97488683D01*
X118675491Y-97547579D01*
X118845399Y-97562444D01*
X118958967Y-97562444D01*
X119128875Y-97547579D01*
X119348679Y-97488683D01*
X119554917Y-97392512D01*
X119741322Y-97261991D01*
X119902230Y-97101083D01*
X120032751Y-96914678D01*
X120128922Y-96708440D01*
X120187818Y-96488636D01*
X120207651Y-96261944D01*
X120204356Y-96224288D01*
X179830478Y-96224288D01*
X179850311Y-96450973D01*
X179850313Y-96450984D01*
X179909205Y-96670775D01*
X179909208Y-96670784D01*
X180005378Y-96877019D01*
X180005379Y-96877021D01*
X180135901Y-97063428D01*
X180296805Y-97224332D01*
X180296808Y-97224334D01*
X180483213Y-97354855D01*
X180689451Y-97451026D01*
X180909255Y-97509922D01*
X181079163Y-97524787D01*
X181192731Y-97524787D01*
X181362639Y-97509922D01*
X181582443Y-97451026D01*
X181788681Y-97354855D01*
X181975086Y-97224334D01*
X182135994Y-97063426D01*
X182266515Y-96877021D01*
X182362686Y-96670783D01*
X182421582Y-96450979D01*
X182441415Y-96224287D01*
X182421582Y-95997595D01*
X182362686Y-95777791D01*
X182266515Y-95571553D01*
X182135994Y-95385148D01*
X182135992Y-95385145D01*
X181975088Y-95224241D01*
X181788681Y-95093719D01*
X181788679Y-95093718D01*
X181582444Y-94997548D01*
X181582435Y-94997545D01*
X181362644Y-94938653D01*
X181362634Y-94938651D01*
X181192731Y-94923787D01*
X181079163Y-94923787D01*
X180909259Y-94938651D01*
X180909249Y-94938653D01*
X180689458Y-94997545D01*
X180689449Y-94997548D01*
X180483214Y-95093718D01*
X180483212Y-95093719D01*
X180296805Y-95224241D01*
X180135901Y-95385145D01*
X180005379Y-95571552D01*
X180005378Y-95571554D01*
X179909208Y-95777789D01*
X179909205Y-95777798D01*
X179850313Y-95997589D01*
X179850311Y-95997600D01*
X179830478Y-96224285D01*
X179830478Y-96224288D01*
X120204356Y-96224288D01*
X120204356Y-96224287D01*
X120187818Y-96035257D01*
X120187818Y-96035252D01*
X120128922Y-95815448D01*
X120032751Y-95609210D01*
X119902230Y-95422805D01*
X119902228Y-95422802D01*
X119741324Y-95261898D01*
X119554917Y-95131376D01*
X119554915Y-95131375D01*
X119348680Y-95035205D01*
X119348671Y-95035202D01*
X119128880Y-94976310D01*
X119128870Y-94976308D01*
X118958967Y-94961444D01*
X118845399Y-94961444D01*
X118675495Y-94976308D01*
X118675485Y-94976310D01*
X118455694Y-95035202D01*
X118455685Y-95035205D01*
X118249450Y-95131375D01*
X118249448Y-95131376D01*
X118063041Y-95261898D01*
X117902137Y-95422802D01*
X117771615Y-95609209D01*
X117771614Y-95609211D01*
X117675444Y-95815446D01*
X117675441Y-95815455D01*
X117616549Y-96035246D01*
X117616547Y-96035257D01*
X117596715Y-96261942D01*
X117596715Y-96261945D01*
X116123342Y-96261945D01*
X116331165Y-95459281D01*
X116394247Y-95231567D01*
X116662136Y-94324376D01*
X116732873Y-94098922D01*
X117031260Y-93201261D01*
X117109559Y-92978358D01*
X117438100Y-92091273D01*
X117523898Y-91871107D01*
X117882181Y-90995696D01*
X117975349Y-90778590D01*
X118363020Y-89915723D01*
X118463489Y-89701842D01*
X118880058Y-88852606D01*
X118987690Y-88642245D01*
X119432711Y-87807553D01*
X119547381Y-87600956D01*
X120020343Y-86781761D01*
X120141948Y-86579120D01*
X120642311Y-85776361D01*
X120770620Y-85578049D01*
X121297850Y-84792589D01*
X121432783Y-84598724D01*
X121986232Y-83831530D01*
X122127675Y-83642281D01*
X122706677Y-82894271D01*
X122769769Y-82815549D01*
X122854481Y-82709846D01*
X123458415Y-81981821D01*
X123601195Y-81815505D01*
X125925720Y-81815505D01*
X125945552Y-82042190D01*
X125945554Y-82042201D01*
X126004446Y-82261992D01*
X126004449Y-82262001D01*
X126100619Y-82468236D01*
X126100620Y-82468238D01*
X126231142Y-82654645D01*
X126392046Y-82815549D01*
X126392049Y-82815551D01*
X126578454Y-82946072D01*
X126784692Y-83042243D01*
X127004496Y-83101139D01*
X127174404Y-83116004D01*
X127287972Y-83116004D01*
X127457880Y-83101139D01*
X127677684Y-83042243D01*
X127883922Y-82946072D01*
X128070327Y-82815551D01*
X128231235Y-82654643D01*
X128361756Y-82468238D01*
X128457927Y-82262000D01*
X128516823Y-82042196D01*
X128536656Y-81815504D01*
X128534244Y-81787937D01*
X171483996Y-81787937D01*
X171503828Y-82014622D01*
X171503830Y-82014633D01*
X171562722Y-82234424D01*
X171562725Y-82234433D01*
X171658895Y-82440668D01*
X171658896Y-82440670D01*
X171789418Y-82627077D01*
X171950322Y-82787981D01*
X171950325Y-82787983D01*
X172136730Y-82918504D01*
X172342968Y-83014675D01*
X172562772Y-83073571D01*
X172732680Y-83088436D01*
X172846248Y-83088436D01*
X173016156Y-83073571D01*
X173235960Y-83014675D01*
X173442198Y-82918504D01*
X173628603Y-82787983D01*
X173789511Y-82627075D01*
X173920032Y-82440670D01*
X174016203Y-82234432D01*
X174075099Y-82014628D01*
X174094932Y-81787936D01*
X174075099Y-81561244D01*
X174016203Y-81341440D01*
X173920032Y-81135202D01*
X173789511Y-80948797D01*
X173789509Y-80948794D01*
X173628605Y-80787890D01*
X173442198Y-80657368D01*
X173442196Y-80657367D01*
X173235961Y-80561197D01*
X173235952Y-80561194D01*
X173016161Y-80502302D01*
X173016151Y-80502300D01*
X172846248Y-80487436D01*
X172732680Y-80487436D01*
X172562776Y-80502300D01*
X172562766Y-80502302D01*
X172342975Y-80561194D01*
X172342966Y-80561197D01*
X172136731Y-80657367D01*
X172136729Y-80657368D01*
X171950322Y-80787890D01*
X171789418Y-80948794D01*
X171658896Y-81135201D01*
X171658895Y-81135203D01*
X171562725Y-81341438D01*
X171562722Y-81341447D01*
X171503830Y-81561238D01*
X171503828Y-81561249D01*
X171483996Y-81787934D01*
X171483996Y-81787937D01*
X128534244Y-81787937D01*
X128516823Y-81588812D01*
X128457927Y-81369008D01*
X128361756Y-81162770D01*
X128231235Y-80976365D01*
X128231233Y-80976362D01*
X128070329Y-80815458D01*
X127883922Y-80684936D01*
X127883920Y-80684935D01*
X127677685Y-80588765D01*
X127677676Y-80588762D01*
X127457885Y-80529870D01*
X127457875Y-80529868D01*
X127287972Y-80515004D01*
X127174404Y-80515004D01*
X127004500Y-80529868D01*
X127004490Y-80529870D01*
X126784699Y-80588762D01*
X126784690Y-80588765D01*
X126578455Y-80684935D01*
X126578453Y-80684936D01*
X126392046Y-80815458D01*
X126231142Y-80976362D01*
X126100620Y-81162769D01*
X126100619Y-81162771D01*
X126004449Y-81369006D01*
X126004446Y-81369015D01*
X125945554Y-81588806D01*
X125945552Y-81588817D01*
X125925720Y-81815502D01*
X125925720Y-81815505D01*
X123601195Y-81815505D01*
X123612325Y-81802540D01*
X124240506Y-81095322D01*
X124400385Y-80921339D01*
X125052109Y-80235725D01*
X125217728Y-80067284D01*
X125892236Y-79404074D01*
X126063481Y-79241292D01*
X126760015Y-78601230D01*
X126936666Y-78444320D01*
X127654390Y-77828174D01*
X127836305Y-77677268D01*
X128574395Y-77085743D01*
X128761255Y-76941103D01*
X129518950Y-76374806D01*
X129710576Y-76236568D01*
X130486928Y-75696211D01*
X130683161Y-75564493D01*
X131477296Y-75050681D01*
X131677834Y-74925683D01*
X132488922Y-74438954D01*
X132693572Y-74320800D01*
X133520610Y-73861756D01*
X133729144Y-73750575D01*
X134279417Y-73469025D01*
X140362069Y-73469025D01*
X140381901Y-73695710D01*
X140381903Y-73695721D01*
X140440795Y-73915512D01*
X140440798Y-73915521D01*
X140536968Y-74121756D01*
X140536969Y-74121758D01*
X140667491Y-74308165D01*
X140828395Y-74469069D01*
X140828398Y-74469071D01*
X141014803Y-74599592D01*
X141221041Y-74695763D01*
X141440845Y-74754659D01*
X141610753Y-74769524D01*
X141724321Y-74769524D01*
X141791370Y-74763658D01*
X147965824Y-74763658D01*
X147973601Y-74877359D01*
X147973746Y-74881592D01*
X147973746Y-74908418D01*
X147977398Y-74934989D01*
X147977830Y-74939199D01*
X147985608Y-75052897D01*
X148008793Y-75164473D01*
X148009512Y-75168647D01*
X148013164Y-75195224D01*
X148020407Y-75221075D01*
X148021410Y-75225189D01*
X148044590Y-75336743D01*
X148044594Y-75336756D01*
X148082757Y-75444140D01*
X148084036Y-75448169D01*
X148089339Y-75467089D01*
X148091274Y-75473996D01*
X148091279Y-75474012D01*
X148101968Y-75498619D01*
X148103521Y-75502559D01*
X148140839Y-75607562D01*
X148141684Y-75609938D01*
X148194106Y-75711108D01*
X148195923Y-75714930D01*
X148206619Y-75739553D01*
X148220560Y-75762477D01*
X148222635Y-75766168D01*
X148275060Y-75867342D01*
X148275067Y-75867354D01*
X148340779Y-75960447D01*
X148343102Y-75963987D01*
X148357041Y-75986910D01*
X148373983Y-76007734D01*
X148376523Y-76011083D01*
X148421668Y-76075039D01*
X148442251Y-76104199D01*
X148520018Y-76187467D01*
X148522803Y-76190660D01*
X148539731Y-76211470D01*
X148539746Y-76211484D01*
X148539751Y-76211490D01*
X148559367Y-76229810D01*
X148562351Y-76232795D01*
X148640137Y-76316083D01*
X148712366Y-76374846D01*
X148728513Y-76387982D01*
X148731706Y-76390766D01*
X148751320Y-76409085D01*
X148773253Y-76424567D01*
X148776627Y-76427126D01*
X148865020Y-76499039D01*
X148865030Y-76499047D01*
X148962412Y-76558266D01*
X148965922Y-76560568D01*
X148987859Y-76576053D01*
X149011710Y-76588411D01*
X149015345Y-76590455D01*
X149112741Y-76649683D01*
X149217284Y-76695092D01*
X149221057Y-76696886D01*
X149244912Y-76709247D01*
X149270221Y-76718242D01*
X149274111Y-76719776D01*
X149378657Y-76765187D01*
X149488393Y-76795933D01*
X149492397Y-76797204D01*
X149517707Y-76806199D01*
X149544019Y-76811666D01*
X149548069Y-76812654D01*
X149606242Y-76828953D01*
X149657808Y-76843402D01*
X149657816Y-76843403D01*
X149657824Y-76843406D01*
X149770718Y-76858923D01*
X149774858Y-76859637D01*
X149801151Y-76865101D01*
X149801161Y-76865101D01*
X149801163Y-76865102D01*
X149827978Y-76866936D01*
X149832128Y-76867363D01*
X149933130Y-76881245D01*
X149945040Y-76882883D01*
X150058992Y-76882883D01*
X150063224Y-76883028D01*
X150072925Y-76883691D01*
X150090000Y-76884859D01*
X150107170Y-76883684D01*
X150116777Y-76883028D01*
X150121008Y-76882883D01*
X150234959Y-76882883D01*
X150347881Y-76867362D01*
X150352012Y-76866936D01*
X150378837Y-76865102D01*
X150378839Y-76865101D01*
X150378846Y-76865101D01*
X150405139Y-76859637D01*
X150409271Y-76858924D01*
X150522176Y-76843406D01*
X150631962Y-76812645D01*
X150635954Y-76811672D01*
X150662293Y-76806199D01*
X150687592Y-76797207D01*
X150691610Y-76795933D01*
X150728854Y-76785497D01*
X150801343Y-76765187D01*
X150905898Y-76719771D01*
X150909777Y-76718242D01*
X150935088Y-76709247D01*
X150958956Y-76696879D01*
X150962688Y-76695104D01*
X151067259Y-76649683D01*
X151164676Y-76590442D01*
X151168259Y-76588427D01*
X151192141Y-76576053D01*
X151214082Y-76560565D01*
X151217562Y-76558281D01*
X151314970Y-76499047D01*
X151403410Y-76427095D01*
X151406722Y-76424584D01*
X151428663Y-76409097D01*
X151432153Y-76405837D01*
X151448291Y-76390767D01*
X151451455Y-76388007D01*
X151539863Y-76316083D01*
X151617671Y-76232770D01*
X151620602Y-76229838D01*
X151640249Y-76211490D01*
X151640249Y-76211488D01*
X151640253Y-76211486D01*
X151657193Y-76190663D01*
X151659948Y-76187502D01*
X151737747Y-76104201D01*
X151737749Y-76104199D01*
X151749109Y-76088103D01*
X151803492Y-76011061D01*
X151806001Y-76007753D01*
X151822956Y-75986913D01*
X151836905Y-75963974D01*
X151839200Y-75960474D01*
X151904937Y-75867347D01*
X151957383Y-75766129D01*
X151959407Y-75762528D01*
X151973382Y-75739549D01*
X151984092Y-75714890D01*
X151985875Y-75711142D01*
X152038318Y-75609933D01*
X152076499Y-75502502D01*
X152078026Y-75498631D01*
X152088723Y-75474005D01*
X152095964Y-75448159D01*
X152097234Y-75444158D01*
X152135406Y-75336755D01*
X152158596Y-75225153D01*
X152159583Y-75221103D01*
X152166833Y-75195230D01*
X152170492Y-75168604D01*
X152171206Y-75164473D01*
X152194391Y-75052901D01*
X152202169Y-74939183D01*
X152202597Y-74935022D01*
X152204968Y-74917764D01*
X152206254Y-74908419D01*
X152206277Y-74907062D01*
X152206885Y-74871377D01*
X152207016Y-74868323D01*
X152214176Y-74763659D01*
X152207016Y-74658998D01*
X152206885Y-74655937D01*
X152206254Y-74618903D01*
X152206254Y-74618898D01*
X152204492Y-74606088D01*
X152202597Y-74592301D01*
X152202169Y-74588131D01*
X152194391Y-74474417D01*
X152171203Y-74362832D01*
X152170487Y-74358674D01*
X152166833Y-74332088D01*
X152163665Y-74320783D01*
X152159589Y-74306233D01*
X152158594Y-74302150D01*
X152135406Y-74190563D01*
X152097236Y-74083164D01*
X152095959Y-74079139D01*
X152095958Y-74079135D01*
X152088723Y-74053313D01*
X152088715Y-74053295D01*
X152078028Y-74028690D01*
X152076491Y-74024794D01*
X152038318Y-73917385D01*
X152037352Y-73915520D01*
X151985893Y-73816209D01*
X151984075Y-73812385D01*
X151973382Y-73787769D01*
X151973377Y-73787760D01*
X151959423Y-73764815D01*
X151957367Y-73761157D01*
X151957362Y-73761147D01*
X151904937Y-73659971D01*
X151839214Y-73566863D01*
X151836899Y-73563333D01*
X151822956Y-73540405D01*
X151822956Y-73540404D01*
X151805995Y-73519558D01*
X151803484Y-73516245D01*
X151763028Y-73458932D01*
X157037556Y-73458932D01*
X157057388Y-73685617D01*
X157057390Y-73685628D01*
X157116282Y-73905419D01*
X157116285Y-73905428D01*
X157212455Y-74111663D01*
X157212456Y-74111665D01*
X157342978Y-74298072D01*
X157503882Y-74458976D01*
X157518299Y-74469071D01*
X157690290Y-74589499D01*
X157896528Y-74685670D01*
X158116332Y-74744566D01*
X158286240Y-74759431D01*
X158399808Y-74759431D01*
X158569716Y-74744566D01*
X158789520Y-74685670D01*
X158995758Y-74589499D01*
X159182163Y-74458978D01*
X159343071Y-74298070D01*
X159473592Y-74111665D01*
X159569763Y-73905427D01*
X159628659Y-73685623D01*
X159648492Y-73458931D01*
X159628659Y-73232239D01*
X159574006Y-73028270D01*
X159569765Y-73012442D01*
X159569762Y-73012433D01*
X159541238Y-72951263D01*
X159473592Y-72806197D01*
X159360225Y-72644290D01*
X159343069Y-72619789D01*
X159182165Y-72458885D01*
X158995758Y-72328363D01*
X158995756Y-72328362D01*
X158789521Y-72232192D01*
X158789512Y-72232189D01*
X158569721Y-72173297D01*
X158569711Y-72173295D01*
X158399808Y-72158431D01*
X158286240Y-72158431D01*
X158116336Y-72173295D01*
X158116326Y-72173297D01*
X157896535Y-72232189D01*
X157896526Y-72232192D01*
X157690291Y-72328362D01*
X157690289Y-72328363D01*
X157503882Y-72458885D01*
X157342978Y-72619789D01*
X157212456Y-72806196D01*
X157212455Y-72806198D01*
X157116285Y-73012433D01*
X157116282Y-73012442D01*
X157057390Y-73232233D01*
X157057388Y-73232244D01*
X157037556Y-73458929D01*
X157037556Y-73458932D01*
X151763028Y-73458932D01*
X151763026Y-73458929D01*
X151737748Y-73423117D01*
X151659979Y-73339848D01*
X151657194Y-73336654D01*
X151640258Y-73315836D01*
X151631260Y-73307433D01*
X151620632Y-73297507D01*
X151617646Y-73294520D01*
X151568910Y-73242337D01*
X151539863Y-73211235D01*
X151451473Y-73139324D01*
X151448292Y-73136550D01*
X151428680Y-73118233D01*
X151420398Y-73112386D01*
X151406749Y-73102752D01*
X151403375Y-73100193D01*
X151314976Y-73028275D01*
X151314966Y-73028268D01*
X151259043Y-72994261D01*
X151217595Y-72969056D01*
X151214063Y-72966739D01*
X151192139Y-72951263D01*
X151168314Y-72938918D01*
X151164624Y-72936843D01*
X151067265Y-72877638D01*
X151067261Y-72877636D01*
X151067259Y-72877635D01*
X150962728Y-72832230D01*
X150958910Y-72830414D01*
X150952337Y-72827008D01*
X150935088Y-72818071D01*
X150935087Y-72818070D01*
X150935086Y-72818070D01*
X150930057Y-72816283D01*
X150909797Y-72809081D01*
X150905862Y-72807529D01*
X150801350Y-72762133D01*
X150801339Y-72762129D01*
X150691602Y-72731381D01*
X150687567Y-72730101D01*
X150676931Y-72726320D01*
X150662296Y-72721119D01*
X150645655Y-72717661D01*
X150636015Y-72715658D01*
X150631911Y-72714658D01*
X150522182Y-72683913D01*
X150522177Y-72683912D01*
X150522176Y-72683912D01*
X150409309Y-72668398D01*
X150405142Y-72667680D01*
X150378835Y-72662212D01*
X150352041Y-72660381D01*
X150347828Y-72659948D01*
X150234961Y-72644435D01*
X150234959Y-72644435D01*
X150120995Y-72644435D01*
X150116763Y-72644290D01*
X150090000Y-72642459D01*
X150063237Y-72644290D01*
X150059005Y-72644435D01*
X149945039Y-72644435D01*
X149832172Y-72659948D01*
X149827959Y-72660381D01*
X149801162Y-72662213D01*
X149774856Y-72667680D01*
X149770682Y-72668400D01*
X149657824Y-72683912D01*
X149657813Y-72683914D01*
X149548086Y-72714658D01*
X149543972Y-72715661D01*
X149517694Y-72721121D01*
X149499654Y-72727533D01*
X149492418Y-72730105D01*
X149488380Y-72731387D01*
X149378663Y-72762128D01*
X149274142Y-72807527D01*
X149270205Y-72809080D01*
X149244920Y-72818066D01*
X149221086Y-72830414D01*
X149217267Y-72832231D01*
X149112737Y-72877636D01*
X149015376Y-72936843D01*
X149011684Y-72938919D01*
X148987859Y-72951263D01*
X148965943Y-72966734D01*
X148962402Y-72969056D01*
X148865041Y-73028263D01*
X148865030Y-73028270D01*
X148776631Y-73100186D01*
X148773274Y-73102733D01*
X148767750Y-73106635D01*
X148751317Y-73118233D01*
X148731706Y-73136550D01*
X148728514Y-73139333D01*
X148640137Y-73211234D01*
X148640129Y-73211242D01*
X148562351Y-73294522D01*
X148559358Y-73297516D01*
X148539731Y-73315846D01*
X148522801Y-73336657D01*
X148520018Y-73339849D01*
X148442259Y-73423110D01*
X148442247Y-73423125D01*
X148376532Y-73516220D01*
X148373975Y-73519592D01*
X148357034Y-73540416D01*
X148343095Y-73563339D01*
X148340773Y-73566879D01*
X148275061Y-73659972D01*
X148275060Y-73659975D01*
X148222637Y-73761147D01*
X148220561Y-73764840D01*
X148206621Y-73787760D01*
X148195924Y-73812386D01*
X148194107Y-73816208D01*
X148141682Y-73917382D01*
X148141681Y-73917384D01*
X148103521Y-74024757D01*
X148101967Y-74028698D01*
X148091281Y-74053295D01*
X148084040Y-74079135D01*
X148082760Y-74083166D01*
X148044597Y-74190553D01*
X148044593Y-74190567D01*
X148021409Y-74302128D01*
X148020407Y-74306241D01*
X148013164Y-74332091D01*
X148009512Y-74358670D01*
X148008793Y-74362843D01*
X147985608Y-74474420D01*
X147977831Y-74588112D01*
X147977398Y-74592323D01*
X147973746Y-74618896D01*
X147973746Y-74645725D01*
X147973601Y-74649958D01*
X147965824Y-74763658D01*
X141791370Y-74763658D01*
X141894229Y-74754659D01*
X142114033Y-74695763D01*
X142320271Y-74599592D01*
X142506676Y-74469071D01*
X142667584Y-74308163D01*
X142798105Y-74121758D01*
X142894276Y-73915520D01*
X142953172Y-73695716D01*
X142973005Y-73469024D01*
X142953172Y-73242332D01*
X142894276Y-73022528D01*
X142798105Y-72816290D01*
X142667584Y-72629885D01*
X142667582Y-72629882D01*
X142506678Y-72468978D01*
X142320271Y-72338456D01*
X142320269Y-72338455D01*
X142114034Y-72242285D01*
X142114025Y-72242282D01*
X141894234Y-72183390D01*
X141894224Y-72183388D01*
X141724321Y-72168524D01*
X141610753Y-72168524D01*
X141440849Y-72183388D01*
X141440839Y-72183390D01*
X141221048Y-72242282D01*
X141221039Y-72242285D01*
X141014804Y-72338455D01*
X141014802Y-72338456D01*
X140828395Y-72468978D01*
X140667491Y-72629882D01*
X140536969Y-72816290D01*
X140440798Y-73022526D01*
X140440795Y-73022535D01*
X140381903Y-73242326D01*
X140381901Y-73242337D01*
X140362069Y-73469022D01*
X140362069Y-73469025D01*
X134279417Y-73469025D01*
X134571240Y-73319712D01*
X134783372Y-73215657D01*
X135639545Y-72813480D01*
X135855029Y-72716665D01*
X136724361Y-72343605D01*
X136943004Y-72254120D01*
X137824377Y-71910658D01*
X138045939Y-71828600D01*
X138938484Y-71515076D01*
X139162662Y-71440559D01*
X140065205Y-71157384D01*
X140291816Y-71090467D01*
X141203408Y-70837936D01*
X141432136Y-70778714D01*
X142351726Y-70557118D01*
X142582390Y-70505640D01*
X143211773Y-70376299D01*
X143508918Y-70315235D01*
X143647655Y-70289157D01*
X143741135Y-70271586D01*
X144673658Y-70112565D01*
X144907155Y-70076794D01*
X145844540Y-69949356D01*
X145881050Y-69945020D01*
X145888432Y-69944589D01*
X154387420Y-69956977D01*
G37*
%TD.AperFunction*%
%TD*%
M02*
