%TF.GenerationSoftware,KiCad,Pcbnew,7.0.7*%
%TF.CreationDate,2023-11-12T19:42:32-08:00*%
%TF.ProjectId,CodeStackOrnament2023,436f6465-5374-4616-936b-4f726e616d65,rev?*%
%TF.SameCoordinates,Original*%
%TF.FileFunction,Legend,Bot*%
%TF.FilePolarity,Positive*%
%FSLAX46Y46*%
G04 Gerber Fmt 4.6, Leading zero omitted, Abs format (unit mm)*
G04 Created by KiCad (PCBNEW 7.0.7) date 2023-11-12 19:42:32*
%MOMM*%
%LPD*%
G01*
G04 APERTURE LIST*
%ADD10C,0.150000*%
%ADD11C,0.200000*%
%ADD12C,0.565287*%
%ADD13C,0.000000*%
%ADD14C,0.513897*%
%ADD15C,2.100000*%
%ADD16C,1.734000*%
G04 APERTURE END LIST*
D10*
X130753715Y-82348905D02*
X130919110Y-82177634D01*
X130919110Y-82177634D02*
X129891481Y-81185265D01*
X129891481Y-81185265D02*
X129726086Y-81356536D01*
X129885434Y-82768184D02*
X130282382Y-82357133D01*
X130083908Y-82562658D02*
X129364568Y-81868000D01*
X129364568Y-81868000D02*
X129533489Y-81898728D01*
X129533489Y-81898728D02*
X129668155Y-81896378D01*
X129668155Y-81896378D02*
X129768568Y-81860948D01*
X128736068Y-82518831D02*
X128669910Y-82587340D01*
X128669910Y-82587340D02*
X128638006Y-82688927D01*
X128638006Y-82688927D02*
X128639181Y-82756261D01*
X128639181Y-82756261D02*
X128674611Y-82856673D01*
X128674611Y-82856673D02*
X128778549Y-83023243D01*
X128778549Y-83023243D02*
X128949821Y-83188638D01*
X128949821Y-83188638D02*
X129119917Y-83286699D01*
X129119917Y-83286699D02*
X129221504Y-83318603D01*
X129221504Y-83318603D02*
X129288837Y-83317428D01*
X129288837Y-83317428D02*
X129389250Y-83281998D01*
X129389250Y-83281998D02*
X129455408Y-83213490D01*
X129455408Y-83213490D02*
X129487311Y-83111902D01*
X129487311Y-83111902D02*
X129486136Y-83044569D01*
X129486136Y-83044569D02*
X129450706Y-82944157D01*
X129450706Y-82944157D02*
X129346768Y-82777587D01*
X129346768Y-82777587D02*
X129175497Y-82612192D01*
X129175497Y-82612192D02*
X129005401Y-82514130D01*
X129005401Y-82514130D02*
X128903813Y-82482226D01*
X128903813Y-82482226D02*
X128836480Y-82483402D01*
X128836480Y-82483402D02*
X128736068Y-82518831D01*
X128308392Y-83098803D02*
X128241058Y-83099979D01*
X128241058Y-83099979D02*
X128140646Y-83135408D01*
X128140646Y-83135408D02*
X127975251Y-83306680D01*
X127975251Y-83306680D02*
X127943348Y-83408267D01*
X127943348Y-83408267D02*
X127944523Y-83475600D01*
X127944523Y-83475600D02*
X127979953Y-83576013D01*
X127979953Y-83576013D02*
X128048461Y-83642171D01*
X128048461Y-83642171D02*
X128184303Y-83707153D01*
X128184303Y-83707153D02*
X128992302Y-83693050D01*
X128992302Y-83693050D02*
X128562275Y-84138355D01*
X127487294Y-84291827D02*
X127966854Y-84754932D01*
X127378655Y-83855923D02*
X128057864Y-84180837D01*
X128057864Y-84180837D02*
X127627837Y-84626142D01*
X127908923Y-85294773D02*
X127743528Y-85466045D01*
X127743528Y-85466045D02*
X126715900Y-84473676D01*
X126715900Y-84473676D02*
X126881295Y-84302404D01*
X156472382Y-133213134D02*
X156243510Y-133278762D01*
X156243510Y-133278762D02*
X156637278Y-134651993D01*
X156637278Y-134651993D02*
X156866150Y-134586365D01*
X157114545Y-134416063D02*
X157709612Y-134245430D01*
X157709612Y-134245430D02*
X157284187Y-133971115D01*
X157284187Y-133971115D02*
X157421510Y-133931738D01*
X157421510Y-133931738D02*
X157499933Y-133859712D01*
X157499933Y-133859712D02*
X157532582Y-133800812D01*
X157532582Y-133800812D02*
X157552105Y-133696138D01*
X157552105Y-133696138D02*
X157486477Y-133467266D01*
X157486477Y-133467266D02*
X157414452Y-133388843D01*
X157414452Y-133388843D02*
X157355552Y-133356194D01*
X157355552Y-133356194D02*
X157250877Y-133336671D01*
X157250877Y-133336671D02*
X156976231Y-133415425D01*
X156976231Y-133415425D02*
X156897808Y-133487450D01*
X156897808Y-133487450D02*
X156865159Y-133546350D01*
X158049556Y-134048877D02*
X158108456Y-134081526D01*
X158108456Y-134081526D02*
X158213130Y-134101049D01*
X158213130Y-134101049D02*
X158442002Y-134035421D01*
X158442002Y-134035421D02*
X158520425Y-133963395D01*
X158520425Y-133963395D02*
X158553074Y-133904495D01*
X158553074Y-133904495D02*
X158572597Y-133799821D01*
X158572597Y-133799821D02*
X158546346Y-133708272D01*
X158546346Y-133708272D02*
X158461195Y-133584075D01*
X158461195Y-133584075D02*
X157754395Y-133192290D01*
X157754395Y-133192290D02*
X158349462Y-133021657D01*
X158578004Y-132609357D02*
X158806875Y-132543729D01*
X158806875Y-132543729D02*
X159200643Y-133916960D01*
X159200643Y-133916960D02*
X158971771Y-133982588D01*
X178203476Y-112626850D02*
X178145876Y-112857872D01*
X178145876Y-112857872D02*
X179532013Y-113203475D01*
X179532013Y-113203475D02*
X179589613Y-112972452D01*
X179208084Y-112337481D02*
X179231248Y-112441410D01*
X179231248Y-112441410D02*
X179265933Y-112499135D01*
X179265933Y-112499135D02*
X179346822Y-112568380D01*
X179346822Y-112568380D02*
X179393027Y-112579900D01*
X179393027Y-112579900D02*
X179496956Y-112556735D01*
X179496956Y-112556735D02*
X179554680Y-112522051D01*
X179554680Y-112522051D02*
X179623925Y-112441162D01*
X179623925Y-112441162D02*
X179670005Y-112256344D01*
X179670005Y-112256344D02*
X179646841Y-112152414D01*
X179646841Y-112152414D02*
X179612157Y-112094690D01*
X179612157Y-112094690D02*
X179531268Y-112025445D01*
X179531268Y-112025445D02*
X179485063Y-112013925D01*
X179485063Y-112013925D02*
X179381134Y-112037089D01*
X179381134Y-112037089D02*
X179323409Y-112071774D01*
X179323409Y-112071774D02*
X179254164Y-112152663D01*
X179254164Y-112152663D02*
X179208084Y-112337481D01*
X179208084Y-112337481D02*
X179138839Y-112418370D01*
X179138839Y-112418370D02*
X179081115Y-112453054D01*
X179081115Y-112453054D02*
X178977186Y-112476219D01*
X178977186Y-112476219D02*
X178792367Y-112430138D01*
X178792367Y-112430138D02*
X178711478Y-112360894D01*
X178711478Y-112360894D02*
X178676794Y-112303169D01*
X178676794Y-112303169D02*
X178653629Y-112199240D01*
X178653629Y-112199240D02*
X178699710Y-112014422D01*
X178699710Y-112014422D02*
X178768955Y-111933533D01*
X178768955Y-111933533D02*
X178826679Y-111898848D01*
X178826679Y-111898848D02*
X178930608Y-111875684D01*
X178930608Y-111875684D02*
X179115427Y-111921764D01*
X179115427Y-111921764D02*
X179196316Y-111991009D01*
X179196316Y-111991009D02*
X179231000Y-112048733D01*
X179231000Y-112048733D02*
X179254164Y-112152663D01*
X178502999Y-111425531D02*
X178560599Y-111194508D01*
X178560599Y-111194508D02*
X179946736Y-111540111D01*
X179946736Y-111540111D02*
X179889136Y-111771134D01*
X178613134Y-97747617D02*
X178678762Y-97976489D01*
X178678762Y-97976489D02*
X180051993Y-97582721D01*
X180051993Y-97582721D02*
X179986365Y-97353849D01*
X179351261Y-96693815D02*
X178710420Y-96877573D01*
X179783084Y-96817682D02*
X179162096Y-97243438D01*
X179162096Y-97243438D02*
X178991464Y-96648371D01*
X178271869Y-96557483D02*
X178206241Y-96328611D01*
X178206241Y-96328611D02*
X179579472Y-95934843D01*
X179579472Y-95934843D02*
X179645100Y-96163715D01*
X121246865Y-110642382D02*
X121181237Y-110413510D01*
X121181237Y-110413510D02*
X119808006Y-110807278D01*
X119808006Y-110807278D02*
X119873634Y-111036150D01*
X120148610Y-111304068D02*
X120115961Y-111362968D01*
X120115961Y-111362968D02*
X120096438Y-111467643D01*
X120096438Y-111467643D02*
X120162066Y-111696515D01*
X120162066Y-111696515D02*
X120234092Y-111774938D01*
X120234092Y-111774938D02*
X120292992Y-111807587D01*
X120292992Y-111807587D02*
X120397666Y-111827110D01*
X120397666Y-111827110D02*
X120489215Y-111800859D01*
X120489215Y-111800859D02*
X120613412Y-111715707D01*
X120613412Y-111715707D02*
X121005198Y-111008908D01*
X121005198Y-111008908D02*
X121175830Y-111603975D01*
X120463955Y-112749325D02*
X120332699Y-112291581D01*
X120332699Y-112291581D02*
X120777317Y-112114551D01*
X120777317Y-112114551D02*
X120744668Y-112173451D01*
X120744668Y-112173451D02*
X120725145Y-112278125D01*
X120725145Y-112278125D02*
X120790773Y-112506997D01*
X120790773Y-112506997D02*
X120862798Y-112585420D01*
X120862798Y-112585420D02*
X120921698Y-112618069D01*
X120921698Y-112618069D02*
X121026373Y-112637592D01*
X121026373Y-112637592D02*
X121255245Y-112571964D01*
X121255245Y-112571964D02*
X121333668Y-112499939D01*
X121333668Y-112499939D02*
X121366317Y-112441039D01*
X121366317Y-112441039D02*
X121385840Y-112336365D01*
X121385840Y-112336365D02*
X121320212Y-112107493D01*
X121320212Y-112107493D02*
X121248186Y-112029070D01*
X121248186Y-112029070D02*
X121189286Y-111996421D01*
X120713341Y-113619038D02*
X120660839Y-113435941D01*
X120660839Y-113435941D02*
X120680362Y-113331266D01*
X120680362Y-113331266D02*
X120713011Y-113272366D01*
X120713011Y-113272366D02*
X120824083Y-113141441D01*
X120824083Y-113141441D02*
X120994054Y-113043164D01*
X120994054Y-113043164D02*
X121360249Y-112938159D01*
X121360249Y-112938159D02*
X121464924Y-112957683D01*
X121464924Y-112957683D02*
X121523824Y-112990331D01*
X121523824Y-112990331D02*
X121595849Y-113068755D01*
X121595849Y-113068755D02*
X121648351Y-113251852D01*
X121648351Y-113251852D02*
X121628828Y-113356526D01*
X121628828Y-113356526D02*
X121596180Y-113415426D01*
X121596180Y-113415426D02*
X121517756Y-113487452D01*
X121517756Y-113487452D02*
X121288885Y-113553080D01*
X121288885Y-113553080D02*
X121184210Y-113533557D01*
X121184210Y-113533557D02*
X121125310Y-113500908D01*
X121125310Y-113500908D02*
X121053285Y-113422485D01*
X121053285Y-113422485D02*
X121000782Y-113239387D01*
X121000782Y-113239387D02*
X121020306Y-113134713D01*
X121020306Y-113134713D02*
X121052954Y-113075813D01*
X121052954Y-113075813D02*
X121131377Y-113003787D01*
X122113154Y-113663491D02*
X122178781Y-113892363D01*
X122178781Y-113892363D02*
X120805550Y-114286130D01*
X120805550Y-114286130D02*
X120739923Y-114057259D01*
X144467617Y-75686865D02*
X144696489Y-75621237D01*
X144696489Y-75621237D02*
X144302721Y-74248006D01*
X144302721Y-74248006D02*
X144073849Y-74313634D01*
X143805931Y-74588610D02*
X143747031Y-74555961D01*
X143747031Y-74555961D02*
X143642356Y-74536438D01*
X143642356Y-74536438D02*
X143413484Y-74602066D01*
X143413484Y-74602066D02*
X143335061Y-74674092D01*
X143335061Y-74674092D02*
X143302412Y-74732992D01*
X143302412Y-74732992D02*
X143282889Y-74837666D01*
X143282889Y-74837666D02*
X143309140Y-74929215D01*
X143309140Y-74929215D02*
X143394292Y-75053412D01*
X143394292Y-75053412D02*
X144101091Y-75445198D01*
X144101091Y-75445198D02*
X143506024Y-75615830D01*
X142635320Y-74825201D02*
X142543771Y-74851452D01*
X142543771Y-74851452D02*
X142465348Y-74923478D01*
X142465348Y-74923478D02*
X142432699Y-74982378D01*
X142432699Y-74982378D02*
X142413176Y-75087052D01*
X142413176Y-75087052D02*
X142419904Y-75283275D01*
X142419904Y-75283275D02*
X142485532Y-75512147D01*
X142485532Y-75512147D02*
X142583809Y-75682119D01*
X142583809Y-75682119D02*
X142655834Y-75760542D01*
X142655834Y-75760542D02*
X142714734Y-75793191D01*
X142714734Y-75793191D02*
X142819409Y-75812714D01*
X142819409Y-75812714D02*
X142910957Y-75786463D01*
X142910957Y-75786463D02*
X142989381Y-75714437D01*
X142989381Y-75714437D02*
X143022029Y-75655537D01*
X143022029Y-75655537D02*
X143041553Y-75550863D01*
X143041553Y-75550863D02*
X143034825Y-75354640D01*
X143034825Y-75354640D02*
X142969197Y-75125768D01*
X142969197Y-75125768D02*
X142870920Y-74955796D01*
X142870920Y-74955796D02*
X142798894Y-74877373D01*
X142798894Y-74877373D02*
X142739994Y-74844724D01*
X142739994Y-74844724D02*
X142635320Y-74825201D01*
X141582840Y-75473762D02*
X141766598Y-76114603D01*
X141706707Y-75041939D02*
X142132463Y-75662926D01*
X142132463Y-75662926D02*
X141537396Y-75833559D01*
X140968250Y-75749069D02*
X141046673Y-75677043D01*
X141046673Y-75677043D02*
X141079322Y-75618143D01*
X141079322Y-75618143D02*
X141098845Y-75513469D01*
X141098845Y-75513469D02*
X141085720Y-75467694D01*
X141085720Y-75467694D02*
X141013694Y-75389271D01*
X141013694Y-75389271D02*
X140954794Y-75356622D01*
X140954794Y-75356622D02*
X140850120Y-75337099D01*
X140850120Y-75337099D02*
X140667022Y-75389602D01*
X140667022Y-75389602D02*
X140588599Y-75461627D01*
X140588599Y-75461627D02*
X140555950Y-75520527D01*
X140555950Y-75520527D02*
X140536427Y-75625201D01*
X140536427Y-75625201D02*
X140549553Y-75670976D01*
X140549553Y-75670976D02*
X140621578Y-75749399D01*
X140621578Y-75749399D02*
X140680478Y-75782048D01*
X140680478Y-75782048D02*
X140785153Y-75801571D01*
X140785153Y-75801571D02*
X140968250Y-75749069D01*
X140968250Y-75749069D02*
X141072924Y-75768592D01*
X141072924Y-75768592D02*
X141131824Y-75801240D01*
X141131824Y-75801240D02*
X141203850Y-75879664D01*
X141203850Y-75879664D02*
X141256352Y-76062761D01*
X141256352Y-76062761D02*
X141236829Y-76167435D01*
X141236829Y-76167435D02*
X141204180Y-76226335D01*
X141204180Y-76226335D02*
X141125757Y-76298361D01*
X141125757Y-76298361D02*
X140942660Y-76350863D01*
X140942660Y-76350863D02*
X140837985Y-76331340D01*
X140837985Y-76331340D02*
X140779085Y-76298691D01*
X140779085Y-76298691D02*
X140707060Y-76220268D01*
X140707060Y-76220268D02*
X140654557Y-76037171D01*
X140654557Y-76037171D02*
X140674081Y-75932496D01*
X140674081Y-75932496D02*
X140706729Y-75873596D01*
X140706729Y-75873596D02*
X140785153Y-75801571D01*
X140531021Y-76815665D02*
X140302149Y-76881293D01*
X140302149Y-76881293D02*
X139908381Y-75508062D01*
X139908381Y-75508062D02*
X140137253Y-75442434D01*
X169966284Y-126061094D02*
X169800889Y-126232365D01*
X169800889Y-126232365D02*
X170828518Y-127224734D01*
X170828518Y-127224734D02*
X170993913Y-127053463D01*
X170834565Y-125641815D02*
X170437617Y-126052866D01*
X170636091Y-125847341D02*
X171355431Y-126541999D01*
X171355431Y-126541999D02*
X171186510Y-126511271D01*
X171186510Y-126511271D02*
X171051844Y-126513621D01*
X171051844Y-126513621D02*
X170951431Y-126549051D01*
X172149326Y-125719896D02*
X172017010Y-125856913D01*
X172017010Y-125856913D02*
X171916598Y-125892343D01*
X171916598Y-125892343D02*
X171849265Y-125893518D01*
X171849265Y-125893518D02*
X171680344Y-125862790D01*
X171680344Y-125862790D02*
X171510248Y-125764728D01*
X171510248Y-125764728D02*
X171236214Y-125500097D01*
X171236214Y-125500097D02*
X171200784Y-125399684D01*
X171200784Y-125399684D02*
X171199609Y-125332351D01*
X171199609Y-125332351D02*
X171231513Y-125230764D01*
X171231513Y-125230764D02*
X171363828Y-125093746D01*
X171363828Y-125093746D02*
X171464241Y-125058317D01*
X171464241Y-125058317D02*
X171531574Y-125057142D01*
X171531574Y-125057142D02*
X171633161Y-125089045D01*
X171633161Y-125089045D02*
X171804433Y-125254440D01*
X171804433Y-125254440D02*
X171839862Y-125354852D01*
X171839862Y-125354852D02*
X171841038Y-125422186D01*
X171841038Y-125422186D02*
X171809134Y-125523773D01*
X171809134Y-125523773D02*
X171676818Y-125660790D01*
X171676818Y-125660790D02*
X171576406Y-125696220D01*
X171576406Y-125696220D02*
X171509073Y-125697395D01*
X171509073Y-125697395D02*
X171407485Y-125665491D01*
X171487917Y-124485397D02*
X171653312Y-124314125D01*
X171653312Y-124314125D02*
X172680940Y-125306494D01*
X172680940Y-125306494D02*
X172515545Y-125477766D01*
X128118905Y-124196284D02*
X127947634Y-124030889D01*
X127947634Y-124030889D02*
X126955265Y-125058518D01*
X126955265Y-125058518D02*
X127126536Y-125223913D01*
X128538184Y-125064565D02*
X128127133Y-124667617D01*
X128332658Y-124866091D02*
X127638000Y-125585431D01*
X127638000Y-125585431D02*
X127668728Y-125416510D01*
X127668728Y-125416510D02*
X127666378Y-125281844D01*
X127666378Y-125281844D02*
X127630948Y-125181431D01*
X128183718Y-125980028D02*
X128184893Y-126047361D01*
X128184893Y-126047361D02*
X128220323Y-126147773D01*
X128220323Y-126147773D02*
X128391594Y-126313168D01*
X128391594Y-126313168D02*
X128493182Y-126345072D01*
X128493182Y-126345072D02*
X128560515Y-126343897D01*
X128560515Y-126343897D02*
X128660927Y-126308467D01*
X128660927Y-126308467D02*
X128727085Y-126239958D01*
X128727085Y-126239958D02*
X128792068Y-126104117D01*
X128792068Y-126104117D02*
X128777964Y-125296118D01*
X128777964Y-125296118D02*
X129223270Y-125726144D01*
X129237373Y-126534143D02*
X129135786Y-126502240D01*
X129135786Y-126502240D02*
X129068453Y-126503415D01*
X129068453Y-126503415D02*
X128968040Y-126538844D01*
X128968040Y-126538844D02*
X128934961Y-126573099D01*
X128934961Y-126573099D02*
X128903058Y-126674686D01*
X128903058Y-126674686D02*
X128904233Y-126742020D01*
X128904233Y-126742020D02*
X128939663Y-126842432D01*
X128939663Y-126842432D02*
X129076680Y-126974748D01*
X129076680Y-126974748D02*
X129178267Y-127006651D01*
X129178267Y-127006651D02*
X129245600Y-127005476D01*
X129245600Y-127005476D02*
X129346013Y-126970046D01*
X129346013Y-126970046D02*
X129379092Y-126935792D01*
X129379092Y-126935792D02*
X129410995Y-126834205D01*
X129410995Y-126834205D02*
X129409820Y-126766871D01*
X129409820Y-126766871D02*
X129374390Y-126666459D01*
X129374390Y-126666459D02*
X129237373Y-126534143D01*
X129237373Y-126534143D02*
X129201944Y-126433731D01*
X129201944Y-126433731D02*
X129200768Y-126366398D01*
X129200768Y-126366398D02*
X129232672Y-126264810D01*
X129232672Y-126264810D02*
X129364988Y-126127793D01*
X129364988Y-126127793D02*
X129465400Y-126092364D01*
X129465400Y-126092364D02*
X129532733Y-126091188D01*
X129532733Y-126091188D02*
X129634321Y-126123092D01*
X129634321Y-126123092D02*
X129771338Y-126255408D01*
X129771338Y-126255408D02*
X129806768Y-126355820D01*
X129806768Y-126355820D02*
X129807943Y-126423153D01*
X129807943Y-126423153D02*
X129776039Y-126524741D01*
X129776039Y-126524741D02*
X129643723Y-126661758D01*
X129643723Y-126661758D02*
X129543311Y-126697187D01*
X129543311Y-126697187D02*
X129475978Y-126698363D01*
X129475978Y-126698363D02*
X129374390Y-126666459D01*
X130379688Y-126379497D02*
X130550959Y-126544891D01*
X130550959Y-126544891D02*
X129558590Y-127572520D01*
X129558590Y-127572520D02*
X129387319Y-127407125D01*
X158176850Y-76336523D02*
X158407872Y-76394123D01*
X158407872Y-76394123D02*
X158753475Y-75007986D01*
X158753475Y-75007986D02*
X158522452Y-74950386D01*
X157379603Y-75794209D02*
X157934058Y-75932450D01*
X157656831Y-75863329D02*
X157898753Y-74893034D01*
X157898753Y-74893034D02*
X157956601Y-75054688D01*
X157956601Y-75054688D02*
X158025970Y-75170137D01*
X158025970Y-75170137D02*
X158106859Y-75239382D01*
X156975531Y-76037000D02*
X156744508Y-75979400D01*
X156744508Y-75979400D02*
X157090111Y-74593263D01*
X157090111Y-74593263D02*
X157321134Y-74650863D01*
X122076523Y-95443149D02*
X122134123Y-95212127D01*
X122134123Y-95212127D02*
X120747986Y-94866524D01*
X120747986Y-94866524D02*
X120690386Y-95097547D01*
X120575433Y-95952269D02*
X120690634Y-95490224D01*
X120690634Y-95490224D02*
X121164200Y-95559220D01*
X121164200Y-95559220D02*
X121106475Y-95593904D01*
X121106475Y-95593904D02*
X121037230Y-95674793D01*
X121037230Y-95674793D02*
X120979630Y-95905816D01*
X120979630Y-95905816D02*
X121002794Y-96009745D01*
X121002794Y-96009745D02*
X121037479Y-96067470D01*
X121037479Y-96067470D02*
X121118368Y-96136715D01*
X121118368Y-96136715D02*
X121349391Y-96194315D01*
X121349391Y-96194315D02*
X121453320Y-96171151D01*
X121453320Y-96171151D02*
X121511044Y-96136466D01*
X121511044Y-96136466D02*
X121580289Y-96055577D01*
X121580289Y-96055577D02*
X121637890Y-95824555D01*
X121637890Y-95824555D02*
X121614725Y-95720625D01*
X121614725Y-95720625D02*
X121580041Y-95662901D01*
X121303807Y-97164487D02*
X121442048Y-96610032D01*
X121372928Y-96887259D02*
X120402632Y-96645338D01*
X120402632Y-96645338D02*
X120564286Y-96587489D01*
X120564286Y-96587489D02*
X120679735Y-96518120D01*
X120679735Y-96518120D02*
X120748980Y-96437231D01*
X120333760Y-97315242D02*
X120276035Y-97349926D01*
X120276035Y-97349926D02*
X120206790Y-97430815D01*
X120206790Y-97430815D02*
X120149190Y-97661838D01*
X120149190Y-97661838D02*
X120172354Y-97765767D01*
X120172354Y-97765767D02*
X120207039Y-97823492D01*
X120207039Y-97823492D02*
X120287928Y-97892737D01*
X120287928Y-97892737D02*
X120380337Y-97915777D01*
X120380337Y-97915777D02*
X120530471Y-97904132D01*
X120530471Y-97904132D02*
X121223166Y-97487919D01*
X121223166Y-97487919D02*
X121073405Y-98088578D01*
X121316197Y-98492651D02*
X121258596Y-98723673D01*
X121258596Y-98723673D02*
X119872459Y-98378071D01*
X119872459Y-98378071D02*
X119930060Y-98147048D01*
X141483149Y-132643476D02*
X141252127Y-132585876D01*
X141252127Y-132585876D02*
X140906524Y-133972013D01*
X140906524Y-133972013D02*
X141137547Y-134029613D01*
X141946065Y-134133046D02*
X141761246Y-134086965D01*
X141761246Y-134086965D02*
X141680357Y-134017721D01*
X141680357Y-134017721D02*
X141645673Y-133959996D01*
X141645673Y-133959996D02*
X141587824Y-133798342D01*
X141587824Y-133798342D02*
X141587700Y-133602004D01*
X141587700Y-133602004D02*
X141679861Y-133232367D01*
X141679861Y-133232367D02*
X141749105Y-133151478D01*
X141749105Y-133151478D02*
X141806830Y-133116794D01*
X141806830Y-133116794D02*
X141910759Y-133093629D01*
X141910759Y-133093629D02*
X142095577Y-133139710D01*
X142095577Y-133139710D02*
X142176466Y-133208955D01*
X142176466Y-133208955D02*
X142211151Y-133266679D01*
X142211151Y-133266679D02*
X142234315Y-133370608D01*
X142234315Y-133370608D02*
X142176715Y-133601631D01*
X142176715Y-133601631D02*
X142107470Y-133682520D01*
X142107470Y-133682520D02*
X142049745Y-133717205D01*
X142049745Y-133717205D02*
X141945816Y-133740369D01*
X141945816Y-133740369D02*
X141760998Y-133694289D01*
X141760998Y-133694289D02*
X141680109Y-133625044D01*
X141680109Y-133625044D02*
X141645424Y-133567319D01*
X141645424Y-133567319D02*
X141622260Y-133463390D01*
X142950796Y-134040016D02*
X143112078Y-133393152D01*
X142627613Y-134352052D02*
X142569391Y-133601383D01*
X142569391Y-133601383D02*
X143170051Y-133751144D01*
X143608559Y-133173401D02*
X143839582Y-133231001D01*
X143839582Y-133231001D02*
X143493980Y-134617138D01*
X143493980Y-134617138D02*
X143262957Y-134559537D01*
X171311094Y-84303715D02*
X171482365Y-84469110D01*
X171482365Y-84469110D02*
X172474734Y-83441481D01*
X172474734Y-83441481D02*
X172303463Y-83276086D01*
X171931367Y-83181551D02*
X171930191Y-83114217D01*
X171930191Y-83114217D02*
X171894762Y-83013805D01*
X171894762Y-83013805D02*
X171723490Y-82848410D01*
X171723490Y-82848410D02*
X171621903Y-82816507D01*
X171621903Y-82816507D02*
X171554570Y-82817682D01*
X171554570Y-82817682D02*
X171454157Y-82853111D01*
X171454157Y-82853111D02*
X171387999Y-82921620D01*
X171387999Y-82921620D02*
X171323017Y-83057462D01*
X171323017Y-83057462D02*
X171337121Y-83865461D01*
X171337121Y-83865461D02*
X170891815Y-83435434D01*
X170420482Y-83443661D02*
X170249211Y-83278266D01*
X170249211Y-83278266D02*
X171241580Y-82250638D01*
X171241580Y-82250638D02*
X171412851Y-82416033D01*
%TO.C,G\u002A\u002A\u002A*%
G36*
X127139333Y-118808331D02*
G01*
X127140496Y-118810123D01*
X127165709Y-118866072D01*
X127162828Y-118902080D01*
X127135776Y-118925649D01*
X127076962Y-118974611D01*
X127001683Y-119036042D01*
X126932781Y-119088971D01*
X126869380Y-119131788D01*
X126833591Y-119148582D01*
X126831782Y-119148589D01*
X126790607Y-119130539D01*
X126750003Y-119090353D01*
X126724549Y-119046358D01*
X126728826Y-119016883D01*
X126731889Y-119014761D01*
X126772207Y-118984805D01*
X126840851Y-118932404D01*
X126924864Y-118867435D01*
X127092587Y-118736987D01*
X127139333Y-118808331D01*
G37*
G36*
X125520343Y-117080115D02*
G01*
X125599388Y-117104541D01*
X125698564Y-117142319D01*
X125735221Y-117157617D01*
X125823106Y-117196313D01*
X125882135Y-117225386D01*
X125901108Y-117239464D01*
X125898118Y-117242084D01*
X125863116Y-117270212D01*
X125798615Y-117320949D01*
X125715681Y-117385575D01*
X125691360Y-117404336D01*
X125611343Y-117464290D01*
X125551687Y-117506284D01*
X125523829Y-117522175D01*
X125514433Y-117505962D01*
X125500884Y-117448458D01*
X125487115Y-117364255D01*
X125475066Y-117269078D01*
X125466678Y-117178650D01*
X125463890Y-117108696D01*
X125468643Y-117074941D01*
X125474405Y-117072843D01*
X125520343Y-117080115D01*
G37*
G36*
X125712958Y-115797769D02*
G01*
X125751686Y-115845141D01*
X125788964Y-115934047D01*
X125835713Y-116069347D01*
X125938363Y-116367521D01*
X125849502Y-116398139D01*
X125833076Y-116403923D01*
X125620186Y-116497784D01*
X125393578Y-116628117D01*
X125167311Y-116785228D01*
X124955444Y-116959425D01*
X124772037Y-117141014D01*
X124732336Y-117184685D01*
X124663694Y-117258746D01*
X124614432Y-117309929D01*
X124593228Y-117329103D01*
X124568193Y-117316368D01*
X124509523Y-117278739D01*
X124428957Y-117224096D01*
X124337768Y-117160411D01*
X124247227Y-117095658D01*
X124168607Y-117037811D01*
X124113182Y-116994843D01*
X124092223Y-116974728D01*
X124110420Y-116942051D01*
X124159844Y-116879582D01*
X124232272Y-116796366D01*
X124319485Y-116701358D01*
X124413261Y-116603512D01*
X124505378Y-116511784D01*
X124587616Y-116435129D01*
X124764615Y-116290075D01*
X124983591Y-116133839D01*
X125208475Y-115994023D01*
X125419121Y-115883981D01*
X125478906Y-115856288D01*
X125587486Y-115808201D01*
X125661864Y-115787076D01*
X125712958Y-115797769D01*
G37*
G36*
X128041727Y-115782359D02*
G01*
X128128295Y-115811668D01*
X128238549Y-115857411D01*
X128362418Y-115915247D01*
X128489831Y-115980834D01*
X128610718Y-116049830D01*
X128731802Y-116126291D01*
X128944753Y-116278828D01*
X129153339Y-116454470D01*
X129373116Y-116665784D01*
X129432025Y-116725344D01*
X129512128Y-116810895D01*
X129554750Y-116874929D01*
X129558866Y-116928756D01*
X129523450Y-116983684D01*
X129447476Y-117051021D01*
X129329919Y-117142075D01*
X129280730Y-117179331D01*
X129195091Y-117241218D01*
X129130346Y-117284080D01*
X129097666Y-117300306D01*
X129074189Y-117286530D01*
X129019082Y-117240180D01*
X128942472Y-117168840D01*
X128853248Y-117080502D01*
X128613598Y-116864191D01*
X128314635Y-116649165D01*
X127987622Y-116463288D01*
X127958794Y-116448678D01*
X127871568Y-116401534D01*
X127810609Y-116364004D01*
X127787677Y-116343153D01*
X127789417Y-116331937D01*
X127804648Y-116276004D01*
X127831699Y-116189090D01*
X127865853Y-116085130D01*
X127902393Y-115978062D01*
X127936601Y-115881820D01*
X127963757Y-115810343D01*
X127979146Y-115777565D01*
X127988915Y-115773825D01*
X128041727Y-115782359D01*
G37*
G36*
X127228986Y-115598127D02*
G01*
X127403766Y-115618735D01*
X127445411Y-115626514D01*
X127553021Y-115650138D01*
X127659867Y-115677544D01*
X127752650Y-115704924D01*
X127818072Y-115728474D01*
X127842834Y-115744387D01*
X127835028Y-115777488D01*
X127813742Y-115848779D01*
X127783777Y-115943300D01*
X127749942Y-116046400D01*
X127717047Y-116143432D01*
X127689903Y-116219747D01*
X127673317Y-116260695D01*
X127671851Y-116263455D01*
X127653801Y-116290230D01*
X127627851Y-116303783D01*
X127582517Y-116304410D01*
X127506319Y-116292406D01*
X127387775Y-116268069D01*
X127287220Y-116251436D01*
X127104649Y-116235014D01*
X126897238Y-116228340D01*
X126682555Y-116231432D01*
X126478169Y-116244308D01*
X126301647Y-116266985D01*
X126261405Y-116273808D01*
X126159703Y-116288552D01*
X126084139Y-116295868D01*
X126048725Y-116294246D01*
X126038179Y-116281919D01*
X126011151Y-116226122D01*
X125978579Y-116139552D01*
X125944604Y-116035951D01*
X125913366Y-115929057D01*
X125889007Y-115832613D01*
X125875667Y-115760357D01*
X125877487Y-115726031D01*
X125904273Y-115713790D01*
X125976487Y-115693103D01*
X126080695Y-115668899D01*
X126204621Y-115644246D01*
X126333025Y-115624291D01*
X126552300Y-115602189D01*
X126786132Y-115590218D01*
X127017402Y-115588743D01*
X127228986Y-115598127D01*
G37*
G36*
X130352497Y-119121987D02*
G01*
X128925299Y-119122909D01*
X127498100Y-119123831D01*
X127415364Y-119266076D01*
X127408336Y-119277951D01*
X127319510Y-119393804D01*
X127211081Y-119471994D01*
X127181246Y-119486412D01*
X127024794Y-119529921D01*
X126863481Y-119528618D01*
X126715291Y-119482135D01*
X126635715Y-119430847D01*
X126543255Y-119348894D01*
X126466978Y-119259321D01*
X126423105Y-119178957D01*
X126419339Y-119168678D01*
X126411617Y-119158006D01*
X126396345Y-119149098D01*
X126369197Y-119141795D01*
X126325843Y-119135938D01*
X126261956Y-119131366D01*
X126173208Y-119127922D01*
X126055271Y-119125444D01*
X125903816Y-119123775D01*
X125714516Y-119122754D01*
X125483042Y-119122222D01*
X125205068Y-119122019D01*
X124876263Y-119121987D01*
X123347503Y-119121987D01*
X123347503Y-118997883D01*
X123349185Y-118945245D01*
X123361605Y-118890020D01*
X123388871Y-118873779D01*
X123389954Y-118873765D01*
X123420531Y-118850814D01*
X123430239Y-118780866D01*
X123430946Y-118753392D01*
X123442910Y-118632015D01*
X123467285Y-118478676D01*
X123500981Y-118309341D01*
X123540908Y-118139976D01*
X123583977Y-117986546D01*
X123606826Y-117918720D01*
X123659585Y-117781874D01*
X123724310Y-117630038D01*
X123794782Y-117476557D01*
X123864784Y-117334778D01*
X123928099Y-117218044D01*
X123978510Y-117139702D01*
X124028717Y-117074137D01*
X124255863Y-117233302D01*
X124319732Y-117279052D01*
X124406790Y-117345109D01*
X124469076Y-117397117D01*
X124496128Y-117426657D01*
X124493619Y-117454398D01*
X124468403Y-117518347D01*
X124424857Y-117598000D01*
X124370161Y-117694818D01*
X124280838Y-117884002D01*
X124199990Y-118091485D01*
X124136971Y-118294626D01*
X124135992Y-118298363D01*
X124111250Y-118406081D01*
X124088972Y-118525752D01*
X124070945Y-118644192D01*
X124058957Y-118748217D01*
X124054796Y-118824643D01*
X124060251Y-118860287D01*
X124069435Y-118861833D01*
X124125919Y-118864605D01*
X124228717Y-118867131D01*
X124372052Y-118869347D01*
X124550145Y-118871187D01*
X124757219Y-118872582D01*
X124987495Y-118873469D01*
X125235195Y-118873779D01*
X126396648Y-118873779D01*
X126425587Y-118797110D01*
X126428018Y-118790365D01*
X126433530Y-118764780D01*
X126430164Y-118735616D01*
X126414261Y-118697235D01*
X126382165Y-118643998D01*
X126330219Y-118570264D01*
X126254765Y-118470395D01*
X126152147Y-118338752D01*
X126018707Y-118169694D01*
X125918087Y-118041775D01*
X125809704Y-117902088D01*
X125717467Y-117781118D01*
X125645956Y-117684950D01*
X125599753Y-117619672D01*
X125583438Y-117591368D01*
X125602098Y-117564049D01*
X125652913Y-117514239D01*
X125722728Y-117453592D01*
X125761027Y-117422944D01*
X125872314Y-117422944D01*
X125882813Y-117454802D01*
X125910511Y-117504655D01*
X125958269Y-117576694D01*
X126028949Y-117675110D01*
X126125414Y-117804093D01*
X126250527Y-117967833D01*
X126407149Y-118170521D01*
X126421269Y-118188746D01*
X126542619Y-118346476D01*
X126651540Y-118489967D01*
X126743713Y-118613383D01*
X126814821Y-118710890D01*
X126860545Y-118776651D01*
X126876566Y-118804832D01*
X126872023Y-118815998D01*
X126835769Y-118857190D01*
X126775338Y-118908462D01*
X126675106Y-118984514D01*
X126598202Y-118894673D01*
X126521297Y-118804832D01*
X126520176Y-118959331D01*
X126537772Y-119104989D01*
X126601822Y-119237962D01*
X126715851Y-119350008D01*
X126722477Y-119354780D01*
X126840896Y-119406683D01*
X126974289Y-119416024D01*
X127108001Y-119385961D01*
X127227376Y-119319653D01*
X127317759Y-119220260D01*
X127344924Y-119167419D01*
X127379071Y-119027648D01*
X127371137Y-118882826D01*
X127320981Y-118753141D01*
X127320446Y-118752280D01*
X127255365Y-118679637D01*
X127162690Y-118612075D01*
X127063108Y-118562254D01*
X126977309Y-118542834D01*
X126976429Y-118542835D01*
X126948354Y-118547606D01*
X126951229Y-118570265D01*
X126986515Y-118623634D01*
X127011121Y-118662092D01*
X127026272Y-118706768D01*
X127008332Y-118717055D01*
X126964322Y-118692282D01*
X126901266Y-118631778D01*
X126867672Y-118592414D01*
X126801121Y-118511630D01*
X126711029Y-118400589D01*
X126603126Y-118266394D01*
X126483147Y-118116149D01*
X126356820Y-117956960D01*
X126239349Y-117809982D01*
X126128212Y-117673978D01*
X126032128Y-117559532D01*
X125955796Y-117472141D01*
X125903917Y-117417303D01*
X125881189Y-117400515D01*
X125876150Y-117404892D01*
X125872314Y-117422944D01*
X125761027Y-117422944D01*
X125798351Y-117393077D01*
X125866589Y-117343662D01*
X125914249Y-117316318D01*
X125920844Y-117316516D01*
X125958434Y-117343351D01*
X126023607Y-117410456D01*
X126117415Y-117519033D01*
X126240908Y-117670283D01*
X126395140Y-117865407D01*
X126439496Y-117922130D01*
X126564628Y-118081409D01*
X126662167Y-118203469D01*
X126736784Y-118293253D01*
X126793150Y-118355709D01*
X126835937Y-118395780D01*
X126869816Y-118418414D01*
X126899459Y-118428555D01*
X126929537Y-118431148D01*
X126957321Y-118432197D01*
X127121997Y-118465110D01*
X127268136Y-118538318D01*
X127384603Y-118644574D01*
X127460261Y-118776627D01*
X127495391Y-118873779D01*
X128555612Y-118873779D01*
X129615833Y-118873779D01*
X129599968Y-118673833D01*
X129597467Y-118647367D01*
X129577927Y-118515573D01*
X129547438Y-118365834D01*
X129511439Y-118225679D01*
X129510916Y-118223897D01*
X129466931Y-118091345D01*
X129410450Y-117945597D01*
X129347430Y-117799769D01*
X129283825Y-117666975D01*
X129225593Y-117560330D01*
X129178689Y-117492950D01*
X129155936Y-117462829D01*
X129140237Y-117423724D01*
X129140247Y-117423592D01*
X129162776Y-117398757D01*
X129222247Y-117350508D01*
X129309690Y-117285748D01*
X129416136Y-117211379D01*
X129690831Y-117024441D01*
X129774974Y-117156222D01*
X129834974Y-117256520D01*
X129943488Y-117467002D01*
X130045200Y-117699237D01*
X130130474Y-117932188D01*
X130158183Y-118023802D01*
X130199958Y-118185466D01*
X130237882Y-118358024D01*
X130268834Y-118525580D01*
X130289693Y-118672241D01*
X130297340Y-118782113D01*
X130297459Y-118790623D01*
X130306313Y-118849626D01*
X130324919Y-118873779D01*
X130333161Y-118879473D01*
X130347020Y-118923870D01*
X130352497Y-118997883D01*
X130352497Y-119027648D01*
X130352497Y-119121987D01*
G37*
G36*
X165721501Y-80522245D02*
G01*
X165721501Y-80933249D01*
X164817294Y-80933249D01*
X163913087Y-80933249D01*
X163913087Y-83275967D01*
X163913087Y-85618686D01*
X163378783Y-85618686D01*
X162844479Y-85618686D01*
X162844479Y-83275967D01*
X162844479Y-80933249D01*
X161940272Y-80933249D01*
X161036065Y-80933249D01*
X161036065Y-80522245D01*
X161036065Y-80111242D01*
X163378783Y-80111242D01*
X165721501Y-80111242D01*
X165721501Y-80522245D01*
G37*
G36*
X160214058Y-82864964D02*
G01*
X160214058Y-85618686D01*
X158200142Y-85618686D01*
X156186226Y-85618686D01*
X156186226Y-85207682D01*
X156186226Y-84796679D01*
X157706938Y-84796679D01*
X159227650Y-84796679D01*
X159227650Y-84015773D01*
X159227650Y-83234867D01*
X157912440Y-83234867D01*
X156597230Y-83234867D01*
X156597230Y-82823864D01*
X156597230Y-82412860D01*
X157912440Y-82412860D01*
X159227650Y-82412860D01*
X159227650Y-81673054D01*
X159227650Y-80933249D01*
X157748039Y-80933249D01*
X156268427Y-80933249D01*
X156268427Y-80522245D01*
X156268427Y-80111242D01*
X158241243Y-80111242D01*
X160214058Y-80111242D01*
X160214058Y-82864964D01*
G37*
G36*
X144958387Y-81919656D02*
G01*
X145208552Y-82343978D01*
X145475902Y-82791698D01*
X145707055Y-83172590D01*
X145890438Y-83467809D01*
X146014479Y-83658511D01*
X146067603Y-83725848D01*
X146108981Y-83674892D01*
X146224614Y-83499647D01*
X146401723Y-83217650D01*
X146628643Y-82847752D01*
X146893708Y-82408804D01*
X147185256Y-81919656D01*
X148253864Y-80115687D01*
X148685417Y-80113464D01*
X149116971Y-80111242D01*
X149116971Y-82864964D01*
X149116971Y-85618686D01*
X148625370Y-85618686D01*
X148133769Y-85618686D01*
X148111616Y-83830821D01*
X148089463Y-82042957D01*
X147198455Y-83502019D01*
X147091601Y-83677448D01*
X146772398Y-84199838D01*
X146519204Y-84586598D01*
X146312429Y-84837544D01*
X146132485Y-84952488D01*
X145959782Y-84931246D01*
X145774732Y-84773631D01*
X145557746Y-84479458D01*
X145289233Y-84048541D01*
X144949606Y-83480695D01*
X144061631Y-82000310D01*
X144039508Y-83809498D01*
X144017385Y-85618686D01*
X143512816Y-85618686D01*
X143008246Y-85618686D01*
X143062033Y-84200724D01*
X143068019Y-84034690D01*
X143086819Y-83397185D01*
X143102051Y-82704690D01*
X143112279Y-82030274D01*
X143116072Y-81447003D01*
X143116324Y-80111242D01*
X143507270Y-80111242D01*
X143898216Y-80111242D01*
X144958387Y-81919656D01*
G37*
G36*
X137463413Y-80130016D02*
G01*
X138113564Y-80316641D01*
X138670981Y-80625093D01*
X139124303Y-81044668D01*
X139462171Y-81564665D01*
X139673222Y-82174379D01*
X139746097Y-82863109D01*
X139725180Y-83235197D01*
X139574116Y-83888970D01*
X139285406Y-84462733D01*
X138868818Y-84943597D01*
X138334120Y-85318671D01*
X137691081Y-85575064D01*
X137326629Y-85645754D01*
X136777927Y-85664840D01*
X136217275Y-85600154D01*
X135686923Y-85460489D01*
X135229121Y-85254637D01*
X134886120Y-84991389D01*
X134698500Y-84791676D01*
X134999500Y-84490676D01*
X135132776Y-84360711D01*
X135262113Y-84261170D01*
X135352987Y-84254422D01*
X135449211Y-84324256D01*
X135512524Y-84377374D01*
X135889067Y-84594234D01*
X136348257Y-84739839D01*
X136827974Y-84793068D01*
X136882373Y-84792562D01*
X137419893Y-84718894D01*
X137876600Y-84511522D01*
X138281565Y-84157740D01*
X138292065Y-84145994D01*
X138581505Y-83705538D01*
X138733690Y-83216622D01*
X138754740Y-82709003D01*
X138650775Y-82212435D01*
X138427914Y-81756676D01*
X138092276Y-81371481D01*
X137649980Y-81086607D01*
X137297102Y-80977184D01*
X136803445Y-80940082D01*
X136295635Y-81004244D01*
X135826587Y-81161997D01*
X135449211Y-81405672D01*
X135380707Y-81460966D01*
X135292876Y-81480142D01*
X135180412Y-81411642D01*
X134999500Y-81239252D01*
X134698500Y-80938252D01*
X134886120Y-80738539D01*
X135030666Y-80620079D01*
X135287183Y-80459472D01*
X135580954Y-80309502D01*
X135808826Y-80213663D01*
X136086657Y-80129976D01*
X136389568Y-80088298D01*
X136786874Y-80075160D01*
X137463413Y-80130016D01*
G37*
G36*
X155005721Y-83970435D02*
G01*
X155233274Y-84483919D01*
X155423415Y-84916563D01*
X155568569Y-85251125D01*
X155661161Y-85470363D01*
X155693615Y-85557035D01*
X155643973Y-85584210D01*
X155469846Y-85609090D01*
X155213770Y-85618686D01*
X154734517Y-85618686D01*
X154437870Y-84959070D01*
X154141223Y-84299455D01*
X152767036Y-84322015D01*
X151392850Y-84344575D01*
X151131146Y-84961080D01*
X150869442Y-85577585D01*
X150352706Y-85602328D01*
X150085554Y-85611351D01*
X149930286Y-85600100D01*
X149875675Y-85558880D01*
X149889150Y-85479027D01*
X149920946Y-85402498D01*
X150014803Y-85186772D01*
X150161367Y-84854272D01*
X150352503Y-84423327D01*
X150580078Y-83912268D01*
X150781689Y-83460919D01*
X151771333Y-83460919D01*
X151771735Y-83487089D01*
X151841809Y-83523597D01*
X152017968Y-83547195D01*
X152319603Y-83559884D01*
X152766105Y-83563669D01*
X152817891Y-83563587D01*
X153202132Y-83557482D01*
X153514958Y-83543096D01*
X153725380Y-83522413D01*
X153802408Y-83497412D01*
X153775025Y-83407090D01*
X153693303Y-83196435D01*
X153571674Y-82901088D01*
X153424749Y-82554734D01*
X153267135Y-82191058D01*
X153113442Y-81843742D01*
X152978279Y-81546473D01*
X152876255Y-81332934D01*
X152821978Y-81236810D01*
X152821919Y-81236751D01*
X152770909Y-81287301D01*
X152668324Y-81466185D01*
X152525293Y-81749839D01*
X152352948Y-82114702D01*
X152162420Y-82537211D01*
X151964838Y-82993804D01*
X151771333Y-83460919D01*
X150781689Y-83460919D01*
X150835959Y-83339425D01*
X151112013Y-82723126D01*
X152281696Y-80115269D01*
X152777450Y-80113256D01*
X153273205Y-80111242D01*
X154483706Y-82803313D01*
X154748334Y-83393354D01*
X154794745Y-83497412D01*
X155005721Y-83970435D01*
G37*
G36*
X171871129Y-88317682D02*
G01*
X171999750Y-88358457D01*
X172126190Y-88445945D01*
X172217569Y-88558301D01*
X172234649Y-88605812D01*
X172269468Y-88723030D01*
X172317776Y-88896794D01*
X172376525Y-89115887D01*
X172442664Y-89369095D01*
X172513142Y-89645199D01*
X172612439Y-90031836D01*
X172701560Y-90361245D01*
X172778626Y-90622417D01*
X172845828Y-90820485D01*
X172905360Y-90960578D01*
X172959412Y-91047829D01*
X173010176Y-91087367D01*
X173059845Y-91084324D01*
X173110610Y-91043832D01*
X173156093Y-90968622D01*
X173211648Y-90814496D01*
X173264826Y-90604885D01*
X173313391Y-90353286D01*
X173355105Y-90073195D01*
X173387731Y-89778110D01*
X173409031Y-89481528D01*
X173416768Y-89196945D01*
X173423153Y-89060223D01*
X173466824Y-88850674D01*
X173549631Y-88701565D01*
X173668953Y-88618909D01*
X173701173Y-88609176D01*
X173808331Y-88607544D01*
X173901519Y-88668270D01*
X173995356Y-88799439D01*
X174003144Y-88813656D01*
X174052624Y-88967100D01*
X174082853Y-89195817D01*
X174093744Y-89497681D01*
X174085212Y-89870564D01*
X174057168Y-90312341D01*
X174052394Y-90374393D01*
X174035009Y-90638304D01*
X174021224Y-90907572D01*
X174012335Y-91153863D01*
X174009644Y-91348841D01*
X174009464Y-91526312D01*
X174005083Y-91648110D01*
X173994235Y-91715708D01*
X173974716Y-91742335D01*
X173944325Y-91741222D01*
X173894842Y-91727119D01*
X173704262Y-91679632D01*
X173538204Y-91655014D01*
X173362152Y-91649795D01*
X173141592Y-91660504D01*
X173071111Y-91664931D01*
X172834665Y-91670094D01*
X172621932Y-91654379D01*
X172389772Y-91615187D01*
X172217332Y-91583024D01*
X172069345Y-91566008D01*
X171970576Y-91573851D01*
X171905938Y-91608127D01*
X171860340Y-91670410D01*
X171851584Y-91688641D01*
X171846031Y-91761803D01*
X171898230Y-91849623D01*
X172013528Y-91947708D01*
X172206231Y-92029164D01*
X172458790Y-92079031D01*
X172763105Y-92095012D01*
X172910408Y-92092968D01*
X173049022Y-92083388D01*
X173160205Y-92059602D01*
X173273382Y-92014729D01*
X173417982Y-91941889D01*
X173462077Y-91919095D01*
X173609097Y-91850501D01*
X173701932Y-91823250D01*
X173750143Y-91834245D01*
X173755749Y-91877056D01*
X173706005Y-91948171D01*
X173595266Y-92055575D01*
X173582562Y-92067003D01*
X173488341Y-92158051D01*
X173453989Y-92211421D01*
X173483530Y-92230261D01*
X173580990Y-92217719D01*
X173750390Y-92176945D01*
X173930557Y-92135353D01*
X174074650Y-92117958D01*
X174153095Y-92133655D01*
X174169775Y-92182496D01*
X174135715Y-92224141D01*
X174031306Y-92283895D01*
X173866842Y-92349710D01*
X173836180Y-92360643D01*
X173704398Y-92412321D01*
X173611805Y-92456343D01*
X173576842Y-92484159D01*
X173581282Y-92489527D01*
X173640963Y-92503640D01*
X173755696Y-92513612D01*
X173906842Y-92517557D01*
X173961048Y-92517981D01*
X174160373Y-92528153D01*
X174282983Y-92552261D01*
X174330669Y-92590876D01*
X174305220Y-92644567D01*
X174305125Y-92644661D01*
X174238561Y-92672737D01*
X174112050Y-92695245D01*
X173945555Y-92708629D01*
X173930964Y-92709256D01*
X173737198Y-92720176D01*
X173615947Y-92734270D01*
X173560167Y-92753912D01*
X173562814Y-92781473D01*
X173616842Y-92819326D01*
X173664109Y-92842674D01*
X173787092Y-92892229D01*
X173926842Y-92939271D01*
X174000053Y-92964268D01*
X174100017Y-93014093D01*
X174136842Y-93059783D01*
X174136373Y-93066370D01*
X174093051Y-93106430D01*
X173984138Y-93114455D01*
X173816428Y-93090747D01*
X173596715Y-93035611D01*
X173518659Y-93014769D01*
X173336062Y-92981939D01*
X173189583Y-92978502D01*
X173092188Y-93003928D01*
X173056842Y-93057687D01*
X173061248Y-93084770D01*
X173092107Y-93176336D01*
X173142751Y-93291630D01*
X173187050Y-93399388D01*
X173208627Y-93520482D01*
X173184172Y-93584873D01*
X173124408Y-93587473D01*
X173040061Y-93523193D01*
X172941853Y-93386945D01*
X172882383Y-93293571D01*
X172763314Y-93130942D01*
X172642347Y-92987837D01*
X172465466Y-92798730D01*
X171982725Y-93119531D01*
X171837684Y-93217356D01*
X171633773Y-93363229D01*
X171489409Y-93481279D01*
X171397739Y-93578117D01*
X171351908Y-93660354D01*
X171345064Y-93734600D01*
X171345218Y-93735659D01*
X171386456Y-93812313D01*
X171474976Y-93829200D01*
X171605608Y-93786908D01*
X171773182Y-93686022D01*
X171861819Y-93625593D01*
X172040261Y-93514729D01*
X172214385Y-93418761D01*
X172371647Y-93343442D01*
X172499505Y-93294527D01*
X172585418Y-93277772D01*
X172616842Y-93298931D01*
X172616171Y-93307262D01*
X172581006Y-93392901D01*
X172494766Y-93531243D01*
X172360682Y-93717472D01*
X172181988Y-93946773D01*
X172180062Y-93949174D01*
X172055316Y-94107210D01*
X171946027Y-94250189D01*
X171863918Y-94362480D01*
X171820710Y-94428455D01*
X171797553Y-94489079D01*
X171797946Y-94592613D01*
X171843531Y-94668357D01*
X171920223Y-94698927D01*
X172013934Y-94666936D01*
X172025341Y-94657863D01*
X172093397Y-94590527D01*
X172189444Y-94484020D01*
X172296524Y-94356945D01*
X172387877Y-94246970D01*
X172543215Y-94068759D01*
X172688234Y-93912527D01*
X172813021Y-93788397D01*
X172907664Y-93706495D01*
X172962252Y-93676945D01*
X172965446Y-93677109D01*
X172987284Y-93704070D01*
X172980213Y-93780975D01*
X172942702Y-93913318D01*
X172873221Y-94106594D01*
X172770240Y-94366298D01*
X172744123Y-94431305D01*
X172666455Y-94646593D01*
X172629049Y-94801730D01*
X172631748Y-94903786D01*
X172674397Y-94959833D01*
X172756842Y-94976945D01*
X172781538Y-94976229D01*
X172824997Y-94966591D01*
X172866553Y-94937359D01*
X172913770Y-94878157D01*
X172974211Y-94778606D01*
X173055443Y-94628328D01*
X173165029Y-94416945D01*
X173223580Y-94303017D01*
X173316821Y-94120916D01*
X173393435Y-93970432D01*
X173446734Y-93864722D01*
X173470029Y-93816945D01*
X173488536Y-93801846D01*
X173541843Y-93829232D01*
X173560770Y-93858579D01*
X173581613Y-93944934D01*
X173593236Y-94090190D01*
X173596842Y-94304751D01*
X173597772Y-94457939D01*
X173603060Y-94600470D01*
X173615161Y-94690139D01*
X173636461Y-94742339D01*
X173669348Y-94772463D01*
X173684049Y-94780368D01*
X173762865Y-94779385D01*
X173831673Y-94699933D01*
X173889995Y-94542840D01*
X173937351Y-94308934D01*
X173974730Y-94086475D01*
X174019924Y-93885929D01*
X174075514Y-93720609D01*
X174149719Y-93566689D01*
X174250756Y-93400344D01*
X174341030Y-93248765D01*
X174434339Y-93068279D01*
X174502050Y-92911469D01*
X174531535Y-92837239D01*
X174599865Y-92711589D01*
X174664487Y-92654518D01*
X174710104Y-92627979D01*
X174805474Y-92554867D01*
X174930359Y-92448677D01*
X175069537Y-92321909D01*
X175186654Y-92213940D01*
X175475289Y-91970742D01*
X175727438Y-91795518D01*
X175945539Y-91687243D01*
X176132029Y-91644894D01*
X176289343Y-91667443D01*
X176419919Y-91753868D01*
X176501200Y-91854600D01*
X176539466Y-91960829D01*
X176527291Y-92075424D01*
X176461174Y-92205162D01*
X176337618Y-92356821D01*
X176153125Y-92537177D01*
X175904197Y-92753006D01*
X175755568Y-92878647D01*
X175623761Y-92996317D01*
X175512836Y-93106748D01*
X175409912Y-93224811D01*
X175302109Y-93365379D01*
X175176545Y-93543327D01*
X175020338Y-93773525D01*
X174798197Y-94091512D01*
X174550359Y-94410114D01*
X174313672Y-94668337D01*
X174078914Y-94874098D01*
X173836861Y-95035318D01*
X173578290Y-95159915D01*
X173293978Y-95255810D01*
X173228671Y-95271755D01*
X172991986Y-95301316D01*
X172689999Y-95303055D01*
X172673346Y-95302452D01*
X172475921Y-95291105D01*
X172329462Y-95270675D01*
X172206919Y-95235734D01*
X172081244Y-95180850D01*
X171986486Y-95128275D01*
X171747775Y-94939095D01*
X171518835Y-94675510D01*
X171302305Y-94341382D01*
X171100823Y-93940573D01*
X170917029Y-93476945D01*
X170869166Y-93345988D01*
X170795000Y-93157800D01*
X170725171Y-92995837D01*
X170670057Y-92884969D01*
X170617898Y-92810244D01*
X170516990Y-92685172D01*
X170381082Y-92527427D01*
X170221197Y-92349771D01*
X170048357Y-92164969D01*
X169886029Y-91992805D01*
X169729881Y-91823173D01*
X169598504Y-91676287D01*
X169502221Y-91563695D01*
X169451350Y-91496945D01*
X169400597Y-91387742D01*
X169380535Y-91242110D01*
X169413105Y-91117170D01*
X169492808Y-91029817D01*
X169614142Y-90996945D01*
X169652219Y-90999035D01*
X169724686Y-91017508D01*
X169807365Y-91061671D01*
X169911619Y-91139467D01*
X170048808Y-91258840D01*
X170230295Y-91427733D01*
X170364644Y-91546767D01*
X170547747Y-91686690D01*
X170726963Y-91801761D01*
X170892544Y-91887767D01*
X171034749Y-91940499D01*
X171143830Y-91955747D01*
X171210045Y-91929299D01*
X171223647Y-91856945D01*
X171215318Y-91831358D01*
X171174467Y-91736284D01*
X171103950Y-91584588D01*
X171008257Y-91385404D01*
X170891879Y-91147870D01*
X170759308Y-90881121D01*
X170615034Y-90594293D01*
X170463548Y-90296522D01*
X170309341Y-89996945D01*
X170270877Y-89920674D01*
X170186360Y-89723597D01*
X170150307Y-89570950D01*
X170160853Y-89449730D01*
X170216133Y-89346932D01*
X170241677Y-89317586D01*
X170360747Y-89241774D01*
X170494001Y-89236958D01*
X170631928Y-89299378D01*
X170765020Y-89425276D01*
X170883769Y-89610891D01*
X170903473Y-89648818D01*
X170994773Y-89812381D01*
X171116669Y-90018853D01*
X171258018Y-90250387D01*
X171407674Y-90489136D01*
X171554493Y-90717255D01*
X171687331Y-90916896D01*
X171795043Y-91070212D01*
X171816953Y-91099443D01*
X171906185Y-91207588D01*
X171977809Y-91277866D01*
X172017980Y-91296241D01*
X172020375Y-91294627D01*
X172052580Y-91226121D01*
X172063210Y-91089483D01*
X172053402Y-90892826D01*
X172024293Y-90644266D01*
X171977017Y-90351918D01*
X171912713Y-90023898D01*
X171832515Y-89668321D01*
X171737559Y-89293301D01*
X171734119Y-89280367D01*
X171660263Y-88967655D01*
X171623261Y-88721666D01*
X171623637Y-88538000D01*
X171661920Y-88412258D01*
X171738634Y-88340040D01*
X171854305Y-88316945D01*
X171871129Y-88317682D01*
G37*
G36*
X128049560Y-91852923D02*
G01*
X128056489Y-91860566D01*
X128124205Y-91976522D01*
X128121868Y-92090896D01*
X128049480Y-92201186D01*
X127963129Y-92287537D01*
X126868635Y-92287537D01*
X126646095Y-92287054D01*
X126333567Y-92284281D01*
X126080389Y-92279122D01*
X125889307Y-92271667D01*
X125763066Y-92262003D01*
X125704410Y-92250218D01*
X125645330Y-92199174D01*
X125600034Y-92097042D01*
X125595867Y-91979558D01*
X125632548Y-91870656D01*
X125709794Y-91794273D01*
X125711993Y-91793286D01*
X125771302Y-91783929D01*
X125893299Y-91775808D01*
X126071012Y-91769131D01*
X126297468Y-91764105D01*
X126565693Y-91760938D01*
X126868716Y-91759836D01*
X127963290Y-91759836D01*
X128049560Y-91852923D01*
G37*
G36*
X126968883Y-92604221D02*
G01*
X127264942Y-92605267D01*
X127500989Y-92608352D01*
X127684450Y-92614440D01*
X127822751Y-92624494D01*
X127923318Y-92639479D01*
X127993578Y-92660359D01*
X128040956Y-92688096D01*
X128072878Y-92723656D01*
X128096771Y-92768002D01*
X128129907Y-92862437D01*
X128121992Y-92945883D01*
X128062917Y-93039164D01*
X127990004Y-93131858D01*
X126854658Y-93131858D01*
X126703840Y-93131833D01*
X126420498Y-93131441D01*
X126196508Y-93130223D01*
X126024309Y-93127732D01*
X125896338Y-93123521D01*
X125805033Y-93117144D01*
X125742831Y-93108154D01*
X125702171Y-93096105D01*
X125675490Y-93080550D01*
X125655226Y-93061044D01*
X125631825Y-93030824D01*
X125591837Y-92914058D01*
X125610829Y-92791865D01*
X125686915Y-92686540D01*
X125782691Y-92604157D01*
X126834475Y-92604157D01*
X126968883Y-92604221D01*
G37*
G36*
X128129056Y-90393963D02*
G01*
X128131093Y-90558017D01*
X128131666Y-90800083D01*
X128127193Y-90986034D01*
X128124124Y-91025311D01*
X128116339Y-91124948D01*
X128097770Y-91225907D01*
X128070153Y-91297990D01*
X128032152Y-91350276D01*
X127982434Y-91391847D01*
X127952275Y-91402840D01*
X127854024Y-91417803D01*
X127703458Y-91429826D01*
X127511589Y-91438919D01*
X127289429Y-91445090D01*
X127047991Y-91448346D01*
X126798286Y-91448695D01*
X126551326Y-91446147D01*
X126318124Y-91440708D01*
X126109691Y-91432387D01*
X125937040Y-91421192D01*
X125811184Y-91407130D01*
X125743133Y-91390210D01*
X125718750Y-91376231D01*
X125667316Y-91331733D01*
X125628359Y-91266918D01*
X125600529Y-91173468D01*
X125583854Y-91053051D01*
X126103612Y-91053051D01*
X126135101Y-91133764D01*
X126236211Y-91205695D01*
X126294392Y-91229398D01*
X126375319Y-91247953D01*
X126486231Y-91259544D01*
X126640564Y-91265514D01*
X126851759Y-91267206D01*
X127044236Y-91265860D01*
X127203756Y-91260388D01*
X127318482Y-91249432D01*
X127401852Y-91231649D01*
X127467306Y-91205695D01*
X127507034Y-91183685D01*
X127585964Y-91109115D01*
X127595385Y-91025311D01*
X127535653Y-90930852D01*
X127490732Y-90889839D01*
X127334861Y-90802320D01*
X127139439Y-90745926D01*
X126921575Y-90720659D01*
X126698376Y-90726518D01*
X126486953Y-90763503D01*
X126304412Y-90831614D01*
X126167864Y-90930852D01*
X126141390Y-90962135D01*
X126103612Y-91053051D01*
X125583854Y-91053051D01*
X125582471Y-91043065D01*
X125572831Y-90867391D01*
X125570257Y-90638128D01*
X125573395Y-90346958D01*
X125577253Y-90120852D01*
X126442265Y-90120852D01*
X126466893Y-90264214D01*
X126561523Y-90403418D01*
X126637270Y-90469697D01*
X126784195Y-90537947D01*
X126934215Y-90540739D01*
X127075667Y-90478985D01*
X127196888Y-90353601D01*
X127225003Y-90302402D01*
X127254156Y-90160246D01*
X127231470Y-90011850D01*
X127162516Y-89879234D01*
X127052866Y-89784416D01*
X127039228Y-89777929D01*
X126938974Y-89751082D01*
X126823359Y-89742147D01*
X126735761Y-89751559D01*
X126651932Y-89789955D01*
X126563524Y-89872855D01*
X126487628Y-89976162D01*
X126442265Y-90120852D01*
X125577253Y-90120852D01*
X125585277Y-89650536D01*
X125682821Y-89553039D01*
X125780366Y-89455542D01*
X126851759Y-89455542D01*
X127923151Y-89455542D01*
X128020696Y-89553010D01*
X128118241Y-89650478D01*
X128125656Y-90160246D01*
X128129056Y-90393963D01*
G37*
G36*
X129048967Y-91460806D02*
G01*
X129048948Y-91710437D01*
X129048751Y-92150365D01*
X129048234Y-92527747D01*
X129047263Y-92847760D01*
X129045709Y-93115582D01*
X129043440Y-93336391D01*
X129040325Y-93515364D01*
X129036232Y-93657680D01*
X129031031Y-93768515D01*
X129024589Y-93853049D01*
X129016777Y-93916457D01*
X129007462Y-93963920D01*
X128996513Y-94000613D01*
X128983799Y-94031715D01*
X128962671Y-94069131D01*
X128926669Y-94132889D01*
X128786112Y-94275203D01*
X128597895Y-94365936D01*
X128552941Y-94375346D01*
X128436505Y-94389765D01*
X128274637Y-94403463D01*
X128082295Y-94415241D01*
X127874436Y-94423901D01*
X127278830Y-94442849D01*
X127100474Y-94622569D01*
X126922119Y-94802288D01*
X127170732Y-94827406D01*
X127209867Y-94831597D01*
X127399463Y-94860714D01*
X127530086Y-94897079D01*
X127599477Y-94938470D01*
X127605383Y-94982666D01*
X127545546Y-95027445D01*
X127417710Y-95070587D01*
X127396166Y-95074561D01*
X127299312Y-95082977D01*
X127154085Y-95088715D01*
X126976207Y-95091291D01*
X126781399Y-95090219D01*
X126664112Y-95087755D01*
X126435833Y-95077226D01*
X126270672Y-95059238D01*
X126163725Y-95032776D01*
X126110090Y-94996828D01*
X126104864Y-94950380D01*
X126112746Y-94937332D01*
X126176673Y-94897081D01*
X126285550Y-94861086D01*
X126420219Y-94834682D01*
X126561523Y-94823204D01*
X126617667Y-94820908D01*
X126702170Y-94804833D01*
X126728629Y-94771824D01*
X126728138Y-94766478D01*
X126695170Y-94707903D01*
X126623912Y-94630708D01*
X126533217Y-94551549D01*
X126441935Y-94487086D01*
X126368920Y-94453977D01*
X126345195Y-94450721D01*
X126252827Y-94443556D01*
X126111810Y-94435972D01*
X125936517Y-94428692D01*
X125741321Y-94422439D01*
X125505880Y-94412595D01*
X125267553Y-94390420D01*
X125083039Y-94353772D01*
X124943382Y-94298894D01*
X124839623Y-94222028D01*
X124762806Y-94119417D01*
X124736475Y-94060286D01*
X126662313Y-94060286D01*
X126673853Y-94158341D01*
X126736456Y-94238035D01*
X126797303Y-94274157D01*
X126851759Y-94292800D01*
X126895780Y-94279112D01*
X126967061Y-94238035D01*
X127027678Y-94166704D01*
X127046113Y-94069131D01*
X127019084Y-93973060D01*
X126953107Y-93899795D01*
X126854698Y-93870639D01*
X126764749Y-93895076D01*
X126694918Y-93965365D01*
X126662313Y-94060286D01*
X124736475Y-94060286D01*
X124703975Y-93987303D01*
X124699440Y-93966341D01*
X124690612Y-93874103D01*
X124682625Y-93722146D01*
X124675495Y-93517656D01*
X124669937Y-93295661D01*
X125092756Y-93295661D01*
X125191320Y-93424877D01*
X125213917Y-93452673D01*
X125308660Y-93547203D01*
X125402400Y-93615621D01*
X125410552Y-93619914D01*
X125447956Y-93635382D01*
X125497635Y-93647920D01*
X125566851Y-93657879D01*
X125662862Y-93665612D01*
X125792931Y-93671468D01*
X125964318Y-93675799D01*
X126184282Y-93678956D01*
X126460086Y-93681290D01*
X126798989Y-93683152D01*
X127083691Y-93683812D01*
X127364562Y-93683088D01*
X127618598Y-93681043D01*
X127837095Y-93677806D01*
X128011347Y-93673508D01*
X128132650Y-93668280D01*
X128192301Y-93662252D01*
X128290984Y-93627951D01*
X128443319Y-93519389D01*
X128556897Y-93352117D01*
X128562261Y-93340756D01*
X128576979Y-93305872D01*
X128589335Y-93266117D01*
X128599534Y-93215535D01*
X128607783Y-93148174D01*
X128614289Y-93058080D01*
X128619258Y-92939300D01*
X128622897Y-92785881D01*
X128625411Y-92591869D01*
X128627007Y-92351310D01*
X128627891Y-92058252D01*
X128628271Y-91706740D01*
X128628352Y-91290822D01*
X128628352Y-89378659D01*
X128547657Y-89223610D01*
X128453486Y-89090281D01*
X128311532Y-88989407D01*
X128296532Y-88981828D01*
X128255327Y-88962725D01*
X128211251Y-88947364D01*
X128156804Y-88935337D01*
X128084488Y-88926236D01*
X127986804Y-88919653D01*
X127856253Y-88915182D01*
X127685337Y-88912413D01*
X127466558Y-88910941D01*
X127192415Y-88910356D01*
X126855412Y-88910251D01*
X126556244Y-88910386D01*
X126272975Y-88911079D01*
X126046114Y-88912695D01*
X125868210Y-88915593D01*
X125731814Y-88920133D01*
X125629475Y-88926677D01*
X125553742Y-88935584D01*
X125497167Y-88947215D01*
X125452299Y-88961930D01*
X125411689Y-88980090D01*
X125386184Y-88993800D01*
X125271795Y-89079086D01*
X125180706Y-89179807D01*
X125092756Y-89309687D01*
X125092756Y-91302674D01*
X125092756Y-93295661D01*
X124669937Y-93295661D01*
X124669240Y-93267818D01*
X124663876Y-92979819D01*
X124659421Y-92660843D01*
X124655893Y-92318076D01*
X124653307Y-91958703D01*
X124651682Y-91589910D01*
X124651034Y-91218883D01*
X124651380Y-90852806D01*
X124652738Y-90498865D01*
X124655125Y-90164246D01*
X124658558Y-89856134D01*
X124663053Y-89581715D01*
X124668629Y-89348173D01*
X124675302Y-89162696D01*
X124683089Y-89032467D01*
X124692008Y-88964672D01*
X124707771Y-88918019D01*
X124801774Y-88762686D01*
X124940334Y-88636896D01*
X125103445Y-88560309D01*
X125112590Y-88558150D01*
X125192642Y-88548154D01*
X125328742Y-88540250D01*
X125523271Y-88534401D01*
X125778609Y-88530566D01*
X126097139Y-88528709D01*
X126481243Y-88528790D01*
X126933300Y-88530772D01*
X128615995Y-88540861D01*
X128765655Y-88639933D01*
X128881371Y-88738371D01*
X128982141Y-88886193D01*
X128990802Y-88906289D01*
X129002639Y-88940156D01*
X129012756Y-88982096D01*
X129021286Y-89037301D01*
X129028364Y-89110961D01*
X129034125Y-89208266D01*
X129038704Y-89334407D01*
X129042235Y-89494575D01*
X129044853Y-89693960D01*
X129046693Y-89937752D01*
X129047890Y-90231142D01*
X129048578Y-90579321D01*
X129048892Y-90987478D01*
X129048940Y-91290822D01*
X129048967Y-91460806D01*
G37*
G36*
X170132813Y-115919066D02*
G01*
X170099722Y-116065574D01*
X170075042Y-116261997D01*
X170061926Y-116481524D01*
X170061578Y-116703545D01*
X170075198Y-116907446D01*
X170144574Y-117310611D01*
X170270395Y-117713674D01*
X170451402Y-118090865D01*
X170689460Y-118445405D01*
X170986437Y-118780518D01*
X171344197Y-119099427D01*
X171565320Y-119276815D01*
X171744002Y-119183338D01*
X171763369Y-119173042D01*
X171972422Y-119045052D01*
X172199296Y-118879952D01*
X172426415Y-118691345D01*
X172636204Y-118492831D01*
X172869737Y-118254912D01*
X173277401Y-118656392D01*
X173685064Y-119057872D01*
X173603691Y-119131557D01*
X173555409Y-119173753D01*
X173294857Y-119363478D01*
X172992279Y-119532761D01*
X172664977Y-119673920D01*
X172330256Y-119779273D01*
X172005418Y-119841138D01*
X171697011Y-119856937D01*
X171321123Y-119824512D01*
X170953282Y-119739169D01*
X170611235Y-119603928D01*
X170557564Y-119576461D01*
X170369365Y-119463738D01*
X170201799Y-119338844D01*
X170068224Y-119212567D01*
X169981999Y-119095697D01*
X169975456Y-119075961D01*
X169998638Y-119087695D01*
X170054008Y-119141384D01*
X170067644Y-119155510D01*
X170237522Y-119290529D01*
X170436568Y-119376121D01*
X170675029Y-119416831D01*
X170802415Y-119422442D01*
X170944202Y-119421044D01*
X171055057Y-119412038D01*
X171203709Y-119389746D01*
X171051364Y-119269325D01*
X170806100Y-119045494D01*
X170559009Y-118751794D01*
X170344377Y-118421557D01*
X170170744Y-118068076D01*
X170046645Y-117704649D01*
X170038187Y-117671000D01*
X169999710Y-117460798D01*
X169973474Y-117215400D01*
X169960072Y-116954274D01*
X169960100Y-116696889D01*
X169974153Y-116462712D01*
X170002826Y-116271211D01*
X170008054Y-116248093D01*
X170041386Y-116118524D01*
X170075948Y-116008180D01*
X170105036Y-115938854D01*
X170109277Y-115931664D01*
X170133268Y-115899286D01*
X170132813Y-115919066D01*
G37*
G36*
X173346899Y-114450974D02*
G01*
X173362703Y-114466777D01*
X173336817Y-114486109D01*
X173271865Y-114499307D01*
X173240917Y-114500986D01*
X173119645Y-114522787D01*
X172962429Y-114565742D01*
X172785223Y-114624692D01*
X172603982Y-114694479D01*
X172434661Y-114769946D01*
X172210814Y-114889930D01*
X171851528Y-115138329D01*
X171533274Y-115434323D01*
X171258610Y-115774990D01*
X171030097Y-116157407D01*
X170850294Y-116578652D01*
X170807715Y-116686538D01*
X170763034Y-116777301D01*
X170727526Y-116826981D01*
X170715054Y-116839538D01*
X170709186Y-116867645D01*
X170731346Y-116910056D01*
X170787716Y-116976626D01*
X170884476Y-117077210D01*
X171007755Y-117192768D01*
X171249571Y-117383923D01*
X171527313Y-117568976D01*
X171824222Y-117737102D01*
X172123538Y-117877478D01*
X172123650Y-117879491D01*
X172105477Y-117917497D01*
X172062841Y-117993351D01*
X172003161Y-118093727D01*
X171982278Y-118128891D01*
X171920436Y-118239417D01*
X171853888Y-118365291D01*
X171789749Y-118492235D01*
X171735128Y-118605969D01*
X171697141Y-118692214D01*
X171682897Y-118736691D01*
X171674623Y-118767318D01*
X171651640Y-118832015D01*
X171620383Y-118914227D01*
X171457492Y-118813999D01*
X171332202Y-118725128D01*
X171179561Y-118598120D01*
X171016588Y-118448470D01*
X170857948Y-118290229D01*
X170718307Y-118137451D01*
X170612330Y-118004186D01*
X170531557Y-117885338D01*
X170358717Y-117579453D01*
X170236874Y-117267654D01*
X170160643Y-116934028D01*
X170124640Y-116562657D01*
X170119153Y-116389137D01*
X170121532Y-116228342D01*
X170134487Y-116097220D01*
X170159092Y-115977535D01*
X170212129Y-115797053D01*
X170277420Y-115624854D01*
X170345212Y-115489923D01*
X170409792Y-115405304D01*
X170431634Y-115385753D01*
X170456072Y-115367757D01*
X170448307Y-115389848D01*
X170408108Y-115459488D01*
X170325804Y-115647654D01*
X170293232Y-115870106D01*
X170321310Y-116111107D01*
X170350093Y-116218866D01*
X170394327Y-116352358D01*
X170437798Y-116455608D01*
X170504890Y-116587119D01*
X170609461Y-116331656D01*
X170610587Y-116328910D01*
X170786646Y-115972769D01*
X171013226Y-115643299D01*
X171296818Y-115331045D01*
X171329428Y-115299655D01*
X171658088Y-115026541D01*
X172014534Y-114802284D01*
X172389579Y-114631925D01*
X172774036Y-114520504D01*
X172854825Y-114504375D01*
X173022509Y-114475328D01*
X173166970Y-114456147D01*
X173278378Y-114447730D01*
X173346899Y-114450974D01*
G37*
G36*
X173671790Y-114514900D02*
G01*
X173810868Y-114527738D01*
X173939490Y-114546737D01*
X174039817Y-114569727D01*
X174094005Y-114594538D01*
X174095405Y-114601802D01*
X174058526Y-114603623D01*
X173982041Y-114590116D01*
X173915793Y-114579520D01*
X173731586Y-114584865D01*
X173535152Y-114631501D01*
X173348392Y-114715109D01*
X173298383Y-114746387D01*
X173202407Y-114815394D01*
X173103959Y-114894465D01*
X173016711Y-114971842D01*
X172954335Y-115035766D01*
X172930504Y-115074481D01*
X172958182Y-115086444D01*
X173033535Y-115096197D01*
X173139847Y-115101244D01*
X173222413Y-115103901D01*
X173633998Y-115154728D01*
X174033421Y-115266069D01*
X174415495Y-115435264D01*
X174775030Y-115659651D01*
X175106837Y-115936568D01*
X175405727Y-116263354D01*
X175482314Y-116365004D01*
X175595391Y-116534595D01*
X175700981Y-116713801D01*
X175790993Y-116887704D01*
X175857339Y-117041387D01*
X175891927Y-117159931D01*
X175892727Y-117164866D01*
X175894274Y-117201899D01*
X175878349Y-117193977D01*
X175841439Y-117136910D01*
X175780030Y-117026511D01*
X175712003Y-116906682D01*
X175459506Y-116542885D01*
X175164467Y-116225276D01*
X174830295Y-115955972D01*
X174460397Y-115737093D01*
X174058182Y-115570757D01*
X173627057Y-115459082D01*
X173170429Y-115404187D01*
X173159772Y-115403594D01*
X172994897Y-115391914D01*
X172883436Y-115377615D01*
X172815368Y-115358888D01*
X172780675Y-115333930D01*
X172765592Y-115320590D01*
X172741769Y-115327586D01*
X172709055Y-115370398D01*
X172661989Y-115456681D01*
X172595113Y-115594087D01*
X172578114Y-115630644D01*
X172475292Y-115884805D01*
X172385335Y-116161672D01*
X172315725Y-116435892D01*
X172273947Y-116682113D01*
X172266663Y-116743254D01*
X172252692Y-116847641D01*
X172241255Y-116918256D01*
X172227660Y-116985945D01*
X171979271Y-116925567D01*
X171940337Y-116916681D01*
X171776904Y-116886775D01*
X171592125Y-116861317D01*
X171418981Y-116845048D01*
X171415722Y-116844837D01*
X171266500Y-116832951D01*
X171171626Y-116819274D01*
X171121639Y-116801789D01*
X171107079Y-116778476D01*
X171111139Y-116745606D01*
X171135483Y-116650917D01*
X171176828Y-116522520D01*
X171229410Y-116376160D01*
X171287464Y-116227581D01*
X171345226Y-116092530D01*
X171396930Y-115986752D01*
X171579069Y-115689991D01*
X171797772Y-115403568D01*
X172034423Y-115154148D01*
X172277588Y-114955125D01*
X172522657Y-114808469D01*
X172822772Y-114674499D01*
X173137527Y-114573678D01*
X173442343Y-114515286D01*
X173540099Y-114510393D01*
X173671790Y-114514900D01*
G37*
G36*
X173482700Y-115696995D02*
G01*
X173694420Y-115720628D01*
X173907400Y-115754085D01*
X174106474Y-115795672D01*
X174276480Y-115843692D01*
X174513420Y-115936143D01*
X174786535Y-116073068D01*
X175024129Y-116225818D01*
X175118760Y-116300659D01*
X175308784Y-116476371D01*
X175489730Y-116674158D01*
X175645997Y-116876278D01*
X175761984Y-117064986D01*
X175786558Y-117111911D01*
X175841691Y-117210927D01*
X175883589Y-117277417D01*
X175904684Y-117298972D01*
X175917671Y-117314872D01*
X175926950Y-117373458D01*
X175927127Y-117376234D01*
X175932277Y-117452963D01*
X175940279Y-117568268D01*
X175949480Y-117698300D01*
X175954994Y-117776486D01*
X175959929Y-117856745D01*
X175959068Y-117878034D01*
X175951779Y-117843369D01*
X175937430Y-117755762D01*
X175871474Y-117535576D01*
X175745835Y-117331218D01*
X175564002Y-117150382D01*
X175328809Y-116996602D01*
X175237325Y-116948831D01*
X175163849Y-116912464D01*
X175130299Y-116898552D01*
X175129740Y-116915464D01*
X175144879Y-116978000D01*
X175173901Y-117070803D01*
X175205003Y-117174418D01*
X175261315Y-117459492D01*
X175289473Y-117773784D01*
X175289131Y-118097097D01*
X175259945Y-118409231D01*
X175201568Y-118689987D01*
X175165108Y-118809682D01*
X175027299Y-119163504D01*
X174852577Y-119500533D01*
X174648383Y-119809073D01*
X174422157Y-120077426D01*
X174181338Y-120293898D01*
X174153194Y-120315171D01*
X174060451Y-120383569D01*
X173992023Y-120431419D01*
X173961064Y-120449433D01*
X173960520Y-120449273D01*
X173976980Y-120425675D01*
X174028385Y-120369833D01*
X174104482Y-120292936D01*
X174132372Y-120265035D01*
X174381358Y-119973764D01*
X174601603Y-119640014D01*
X174782986Y-119280995D01*
X174915389Y-118913917D01*
X174940369Y-118816633D01*
X174990867Y-118499347D01*
X175006782Y-118151344D01*
X174988695Y-117789521D01*
X174937186Y-117430772D01*
X174852835Y-117091995D01*
X174828160Y-117009082D01*
X174812641Y-116934879D01*
X174817494Y-116889906D01*
X174841889Y-116856293D01*
X174859719Y-116833825D01*
X174853109Y-116812116D01*
X174803859Y-116792514D01*
X174701746Y-116768627D01*
X174608177Y-116754388D01*
X174460818Y-116741265D01*
X174289141Y-116732557D01*
X174114132Y-116729655D01*
X174098349Y-116729712D01*
X173867289Y-116734802D01*
X173662324Y-116749789D01*
X173454369Y-116777637D01*
X173214340Y-116821307D01*
X173130291Y-116837932D01*
X173107393Y-116563037D01*
X173105598Y-116542938D01*
X173083438Y-116368615D01*
X173050228Y-116176261D01*
X173012439Y-116003973D01*
X172940384Y-115719803D01*
X173007421Y-115701806D01*
X173123686Y-115685983D01*
X173287401Y-115684881D01*
X173482700Y-115696995D01*
G37*
G36*
X174542564Y-117156054D02*
G01*
X174575166Y-117218835D01*
X174615901Y-117327117D01*
X174660432Y-117466590D01*
X174704426Y-117622943D01*
X174743546Y-117781868D01*
X174773458Y-117929053D01*
X174802512Y-118173848D01*
X174808959Y-118484863D01*
X174786344Y-118794249D01*
X174735600Y-119073866D01*
X174713613Y-119152946D01*
X174631995Y-119379817D01*
X174524646Y-119613698D01*
X174399619Y-119840727D01*
X174264966Y-120047039D01*
X174128739Y-120218771D01*
X173998991Y-120342059D01*
X173971555Y-120364684D01*
X173921602Y-120420139D01*
X173911452Y-120457935D01*
X173917469Y-120470668D01*
X173902462Y-120473005D01*
X173902081Y-120472787D01*
X173860383Y-120479021D01*
X173781286Y-120511599D01*
X173681587Y-120563632D01*
X173579016Y-120617079D01*
X173485762Y-120656480D01*
X173426348Y-120670935D01*
X173399698Y-120669389D01*
X173392227Y-120660342D01*
X173442343Y-120637737D01*
X173579745Y-120567282D01*
X173753111Y-120419498D01*
X173893911Y-120221306D01*
X173999335Y-119976969D01*
X174066574Y-119690750D01*
X174087401Y-119555869D01*
X173881975Y-119693623D01*
X173809030Y-119740211D01*
X173540646Y-119882736D01*
X173237486Y-120007009D01*
X172921616Y-120103609D01*
X172837104Y-120123693D01*
X172735728Y-120142400D01*
X172629433Y-120153835D01*
X172503479Y-120158942D01*
X172343123Y-120158660D01*
X172133625Y-120153933D01*
X171946011Y-120147887D01*
X171781942Y-120139499D01*
X171653452Y-120127591D01*
X171545496Y-120110244D01*
X171443029Y-120085539D01*
X171331008Y-120051558D01*
X171244410Y-120022482D01*
X171015851Y-119934821D01*
X170805640Y-119839085D01*
X170628529Y-119742365D01*
X170499270Y-119651752D01*
X170387305Y-119556757D01*
X170595240Y-119655543D01*
X170814468Y-119752790D01*
X171126011Y-119861942D01*
X171434347Y-119930450D01*
X171759634Y-119962356D01*
X172122034Y-119961703D01*
X172166901Y-119959792D01*
X172361234Y-119947609D01*
X172517541Y-119928778D01*
X172657439Y-119900004D01*
X172802545Y-119857994D01*
X173007074Y-119783728D01*
X173229039Y-119688586D01*
X173447940Y-119582356D01*
X173644270Y-119474507D01*
X173798518Y-119374511D01*
X173863299Y-119331251D01*
X173952865Y-119284120D01*
X174016410Y-119265806D01*
X174041339Y-119264699D01*
X174069093Y-119250087D01*
X174075247Y-119205274D01*
X174065054Y-119113854D01*
X174038034Y-118955608D01*
X173945309Y-118600676D01*
X173809250Y-118233345D01*
X173635711Y-117870566D01*
X173513633Y-117642959D01*
X173757900Y-117541660D01*
X173783509Y-117530792D01*
X173937596Y-117458597D01*
X174106521Y-117370859D01*
X174258086Y-117284154D01*
X174321726Y-117246442D01*
X174425555Y-117190312D01*
X174501885Y-117156186D01*
X174537557Y-117150365D01*
X174542564Y-117156054D01*
G37*
G36*
X148147962Y-123753743D02*
G01*
X148692180Y-123919621D01*
X149191068Y-124209087D01*
X149440245Y-124400931D01*
X149609379Y-124584419D01*
X149631577Y-124741157D01*
X149508623Y-124902106D01*
X149242303Y-125098227D01*
X148773157Y-125409722D01*
X148416795Y-125151575D01*
X148361788Y-125112466D01*
X148124112Y-124974185D01*
X147882743Y-124909469D01*
X147554543Y-124893428D01*
X147454207Y-124894225D01*
X147178019Y-124915480D01*
X146993291Y-124979348D01*
X146838026Y-125104054D01*
X146720903Y-125241025D01*
X146633811Y-125426622D01*
X146630541Y-125631816D01*
X146719340Y-125871353D01*
X146908458Y-126159982D01*
X147206144Y-126512450D01*
X147620646Y-126943504D01*
X148160213Y-127467891D01*
X149459156Y-128704815D01*
X149459156Y-129158919D01*
X149459156Y-129613022D01*
X147270980Y-129613022D01*
X145082805Y-129613022D01*
X145082805Y-129055252D01*
X145082805Y-128497482D01*
X146291401Y-128497482D01*
X147499997Y-128497482D01*
X146595266Y-127633683D01*
X146594040Y-127632513D01*
X146106477Y-127147465D01*
X145744846Y-126736212D01*
X145494790Y-126373786D01*
X145341953Y-126035221D01*
X145271979Y-125695551D01*
X145270511Y-125329808D01*
X145283985Y-125194510D01*
X145421303Y-124680978D01*
X145688675Y-124276647D01*
X146087721Y-123980211D01*
X146620062Y-123790367D01*
X147287317Y-123705809D01*
X147517428Y-123700616D01*
X148147962Y-123753743D01*
G37*
G36*
X158314418Y-123730374D02*
G01*
X158786785Y-123814714D01*
X159155778Y-123943943D01*
X159355616Y-124059121D01*
X159620975Y-124244794D01*
X159860187Y-124442284D01*
X160033133Y-124617853D01*
X160099696Y-124737763D01*
X160037323Y-124812850D01*
X159866775Y-124950998D01*
X159625985Y-125120391D01*
X159152274Y-125434917D01*
X158960951Y-125260707D01*
X158926274Y-125229660D01*
X158640338Y-125026249D01*
X158330531Y-124922479D01*
X157926669Y-124893428D01*
X157623531Y-124913412D01*
X157313376Y-125014951D01*
X157135780Y-125209910D01*
X157079156Y-125506672D01*
X157116797Y-125794665D01*
X157208140Y-126060994D01*
X157214095Y-126071538D01*
X157328854Y-126218661D01*
X157545395Y-126457145D01*
X157842115Y-126764550D01*
X158197416Y-127118433D01*
X158589694Y-127496351D01*
X159842264Y-128683395D01*
X159842264Y-129148209D01*
X159842264Y-129613022D01*
X157654088Y-129613022D01*
X155465913Y-129613022D01*
X155465913Y-129055252D01*
X155465913Y-128497482D01*
X156686862Y-128497482D01*
X157907812Y-128497482D01*
X156957881Y-127575016D01*
X156774201Y-127394064D01*
X156310353Y-126900726D01*
X155976171Y-126470927D01*
X155761059Y-126081978D01*
X155654422Y-125711190D01*
X155645662Y-125335873D01*
X155724184Y-124933338D01*
X155866733Y-124618279D01*
X156158988Y-124260294D01*
X156540249Y-123966413D01*
X156965563Y-123778458D01*
X157313556Y-123715552D01*
X157802175Y-123695721D01*
X158314418Y-123730374D01*
G37*
G36*
X154902228Y-126970383D02*
G01*
X154888786Y-127366119D01*
X154856116Y-127666157D01*
X154797716Y-127919392D01*
X154707086Y-128174718D01*
X154497050Y-128577840D01*
X154168028Y-128999761D01*
X153783500Y-129340483D01*
X153385565Y-129556003D01*
X153110753Y-129628452D01*
X152617070Y-129684280D01*
X152104380Y-129673739D01*
X151657287Y-129594925D01*
X151570057Y-129564003D01*
X151219526Y-129358291D01*
X150824416Y-129014854D01*
X150769262Y-128959303D01*
X150461293Y-128601760D01*
X150245998Y-128236596D01*
X150109454Y-127823819D01*
X150037738Y-127323436D01*
X150016926Y-126695455D01*
X150019249Y-126593841D01*
X151388177Y-126593841D01*
X151408887Y-127108011D01*
X151497801Y-127588905D01*
X151654918Y-127995120D01*
X151880238Y-128285252D01*
X151921525Y-128318135D01*
X152254445Y-128475316D01*
X152605153Y-128484338D01*
X152939155Y-128357340D01*
X153221954Y-128106458D01*
X153419055Y-127743829D01*
X153431264Y-127703879D01*
X153480912Y-127436803D01*
X153515769Y-127078676D01*
X153528925Y-126695455D01*
X153528246Y-126612437D01*
X153509728Y-126229076D01*
X153471027Y-125885305D01*
X153419055Y-125647081D01*
X153398918Y-125592585D01*
X153188366Y-125244188D01*
X152896727Y-125009160D01*
X152558496Y-124899637D01*
X152208168Y-124927758D01*
X151880238Y-125105658D01*
X151735264Y-125265727D01*
X151551365Y-125631295D01*
X151435669Y-126087802D01*
X151388177Y-126593841D01*
X150019249Y-126593841D01*
X150026761Y-126265244D01*
X150086583Y-125708769D01*
X150211582Y-125252181D01*
X150414213Y-124855459D01*
X150706935Y-124478581D01*
X150962766Y-124224333D01*
X151436721Y-123905073D01*
X151967581Y-123737083D01*
X152584347Y-123708467D01*
X152784732Y-123724312D01*
X153326729Y-123835074D01*
X153780311Y-124054582D01*
X154192782Y-124403271D01*
X154382309Y-124619601D01*
X154625901Y-125009183D01*
X154787145Y-125462884D01*
X154876338Y-126013907D01*
X154903781Y-126695455D01*
X154902228Y-126970383D01*
G37*
G36*
X144567940Y-124333236D02*
G01*
X144567940Y-124888585D01*
X143394578Y-124912459D01*
X142221216Y-124936333D01*
X142793902Y-125590153D01*
X142843138Y-125646440D01*
X143087814Y-125933216D01*
X143241410Y-126139385D01*
X143325012Y-126304816D01*
X143359709Y-126469383D01*
X143366588Y-126672956D01*
X143366588Y-127101939D01*
X142720642Y-127143394D01*
X142503951Y-127160092D01*
X142211514Y-127202807D01*
X142014201Y-127272870D01*
X141862534Y-127384164D01*
X141772821Y-127484320D01*
X141655461Y-127776847D01*
X141703676Y-128107489D01*
X141851687Y-128288421D01*
X142131825Y-128419219D01*
X142505462Y-128486748D01*
X142937716Y-128488167D01*
X143393705Y-128420636D01*
X143838548Y-128281315D01*
X144092461Y-128177735D01*
X144290376Y-128099065D01*
X144373630Y-128068825D01*
X144418044Y-128136633D01*
X144517401Y-128318787D01*
X144649700Y-128575268D01*
X144905552Y-129082109D01*
X144715293Y-129204989D01*
X144515755Y-129309210D01*
X144209222Y-129438502D01*
X143874180Y-129560145D01*
X143581115Y-129646689D01*
X143505890Y-129656874D01*
X143269430Y-129668815D01*
X142935718Y-129673286D01*
X142551386Y-129669265D01*
X142244073Y-129660283D01*
X141920296Y-129637558D01*
X141678454Y-129593312D01*
X141466045Y-129516723D01*
X141230568Y-129396967D01*
X141155058Y-129354472D01*
X140758325Y-129070868D01*
X140500968Y-128743439D01*
X140361967Y-128335555D01*
X140320305Y-127810582D01*
X140320373Y-127760713D01*
X140329239Y-127425854D01*
X140362917Y-127198512D01*
X140435543Y-127021630D01*
X140561256Y-126838152D01*
X140783539Y-126608049D01*
X141071913Y-126394722D01*
X141364565Y-126240161D01*
X141604048Y-126180590D01*
X141666039Y-126174499D01*
X141736183Y-126128814D01*
X141704722Y-126076670D01*
X141579980Y-125917104D01*
X141382338Y-125680739D01*
X141135507Y-125396484D01*
X140993243Y-125234761D01*
X140773771Y-124975706D01*
X140638610Y-124786466D01*
X140567345Y-124627969D01*
X140539557Y-124461141D01*
X140534832Y-124246909D01*
X140534832Y-123777887D01*
X142551386Y-123777887D01*
X144567940Y-123777887D01*
X144567940Y-124333236D01*
G37*
G36*
X175842513Y-101775360D02*
G01*
X175956924Y-101837158D01*
X176088799Y-101956988D01*
X176182378Y-102105015D01*
X176237993Y-102272002D01*
X176255976Y-102448710D01*
X176236658Y-102625904D01*
X176180370Y-102794345D01*
X176087444Y-102944797D01*
X175958212Y-103068024D01*
X175793005Y-103154786D01*
X175753395Y-103167411D01*
X175581213Y-103188365D01*
X175415780Y-103158108D01*
X175264291Y-103082614D01*
X175133941Y-102967858D01*
X175031926Y-102819817D01*
X174965440Y-102644466D01*
X174941679Y-102447780D01*
X174945099Y-102373052D01*
X174986629Y-102184232D01*
X175069427Y-102020651D01*
X175186067Y-101887854D01*
X175329122Y-101791382D01*
X175491166Y-101736780D01*
X175664772Y-101729592D01*
X175842513Y-101775360D01*
G37*
G36*
X174366013Y-105734733D02*
G01*
X174384336Y-105752235D01*
X174540788Y-105896086D01*
X174720877Y-106054060D01*
X174903752Y-106208180D01*
X175068562Y-106340467D01*
X175152358Y-106406243D01*
X175266063Y-106498468D01*
X175355808Y-106574965D01*
X175414007Y-106629192D01*
X175433067Y-106654608D01*
X175417627Y-106668280D01*
X175358443Y-106712702D01*
X175259552Y-106784089D01*
X175125840Y-106878995D01*
X174962194Y-106993975D01*
X174773503Y-107125582D01*
X174564652Y-107270372D01*
X174340530Y-107424897D01*
X174162738Y-107546738D01*
X173950700Y-107690901D01*
X173757671Y-107820871D01*
X173588504Y-107933447D01*
X173448056Y-108025427D01*
X173341181Y-108093609D01*
X173272733Y-108134790D01*
X173247568Y-108145769D01*
X173250754Y-108126402D01*
X173268500Y-108055685D01*
X173300168Y-107938933D01*
X173344125Y-107781915D01*
X173398734Y-107590398D01*
X173462362Y-107370149D01*
X173533374Y-107126937D01*
X173610135Y-106866529D01*
X173665062Y-106681000D01*
X173740287Y-106426754D01*
X173809882Y-106191367D01*
X173872009Y-105981059D01*
X173924832Y-105802049D01*
X173966515Y-105660558D01*
X173995222Y-105562805D01*
X174009117Y-105515010D01*
X174036539Y-105418227D01*
X174366013Y-105734733D01*
G37*
G36*
X172755889Y-101371136D02*
G01*
X172807177Y-101524942D01*
X172973277Y-101525816D01*
X173139377Y-101526691D01*
X173011824Y-101636968D01*
X173001883Y-101645567D01*
X172935042Y-101706397D01*
X172903862Y-101750274D01*
X172900333Y-101796191D01*
X172916447Y-101863141D01*
X172922660Y-101886231D01*
X172941231Y-101966076D01*
X172948787Y-102017386D01*
X172945650Y-102035684D01*
X172926376Y-102038926D01*
X172880531Y-102014859D01*
X172797945Y-101959585D01*
X172747147Y-101927402D01*
X172690048Y-101909999D01*
X172630191Y-101926424D01*
X172546235Y-101978261D01*
X172515805Y-101998396D01*
X172458176Y-102032823D01*
X172431678Y-102042811D01*
X172431612Y-102030933D01*
X172443163Y-101976659D01*
X172465856Y-101895031D01*
X172486595Y-101822408D01*
X172492838Y-101767817D01*
X172474669Y-101729285D01*
X172428161Y-101684925D01*
X172417617Y-101675798D01*
X172361011Y-101632044D01*
X172326401Y-101613757D01*
X172316392Y-101608481D01*
X172304429Y-101568887D01*
X172305931Y-101558079D01*
X172337902Y-101532668D01*
X172418027Y-101524942D01*
X172483288Y-101520122D01*
X172549434Y-101492725D01*
X172603010Y-101431030D01*
X172657425Y-101323769D01*
X172704602Y-101217330D01*
X172755889Y-101371136D01*
G37*
G36*
X172742044Y-102277626D02*
G01*
X172777420Y-102330477D01*
X172824730Y-102410530D01*
X172967379Y-102611570D01*
X173170792Y-102806660D01*
X173426383Y-102982887D01*
X173732076Y-103139031D01*
X174085791Y-103273870D01*
X174485450Y-103386184D01*
X174608614Y-103414569D01*
X174778481Y-103450063D01*
X174952605Y-103481623D01*
X175135927Y-103509643D01*
X175333386Y-103534516D01*
X175549920Y-103556636D01*
X175790471Y-103576397D01*
X176059976Y-103594193D01*
X176363376Y-103610416D01*
X176705609Y-103625461D01*
X177091616Y-103639722D01*
X177526335Y-103653592D01*
X178014706Y-103667464D01*
X179345167Y-103703516D01*
X179245156Y-103788175D01*
X179242220Y-103790640D01*
X179191954Y-103831295D01*
X179101846Y-103902850D01*
X178977669Y-104000769D01*
X178825195Y-104120518D01*
X178650196Y-104257564D01*
X178458444Y-104407373D01*
X178255710Y-104565410D01*
X178236753Y-104580174D01*
X178033534Y-104738816D01*
X177840924Y-104889819D01*
X177664871Y-105028474D01*
X177511327Y-105150069D01*
X177386239Y-105249896D01*
X177295559Y-105323243D01*
X177245235Y-105365400D01*
X177124194Y-105472814D01*
X177253452Y-105923157D01*
X177257629Y-105937701D01*
X177301904Y-106091007D01*
X177358799Y-106286888D01*
X177424754Y-106513148D01*
X177496209Y-106757589D01*
X177569603Y-107008016D01*
X177641377Y-107252231D01*
X177672493Y-107358104D01*
X177733703Y-107567410D01*
X177788261Y-107755350D01*
X177834171Y-107914961D01*
X177869437Y-108039280D01*
X177892061Y-108121343D01*
X177900046Y-108154188D01*
X177899234Y-108158335D01*
X177893898Y-108159881D01*
X177880366Y-108154935D01*
X177854999Y-108141063D01*
X177814159Y-108115828D01*
X177754208Y-108076794D01*
X177671507Y-108021523D01*
X177562418Y-107947581D01*
X177423303Y-107852530D01*
X177250523Y-107733935D01*
X177040442Y-107589358D01*
X176789419Y-107416365D01*
X176493817Y-107212517D01*
X176294118Y-107074687D01*
X176016532Y-106882571D01*
X175779413Y-106717517D01*
X175577892Y-106575909D01*
X175407098Y-106454132D01*
X175262160Y-106348569D01*
X175138209Y-106255605D01*
X175030374Y-106171625D01*
X174933785Y-106093014D01*
X174843571Y-106016156D01*
X174754863Y-105937435D01*
X174662791Y-105853236D01*
X174355315Y-105556937D01*
X174003537Y-105178468D01*
X173701348Y-104800949D01*
X173444436Y-104417803D01*
X173228487Y-104022456D01*
X173049188Y-103608331D01*
X172902228Y-103168853D01*
X172899261Y-103158531D01*
X172870961Y-103050006D01*
X172840135Y-102917320D01*
X172809024Y-102772080D01*
X172779868Y-102625894D01*
X172754907Y-102490372D01*
X172736380Y-102377122D01*
X172726529Y-102297751D01*
X172727593Y-102263870D01*
X172742044Y-102277626D01*
G37*
G36*
X125566274Y-105433216D02*
G01*
X125566274Y-106099543D01*
X125337534Y-106099543D01*
X125108795Y-106099543D01*
X125108795Y-105652010D01*
X125108795Y-105204477D01*
X124343016Y-105204477D01*
X123577237Y-105204477D01*
X123577237Y-105652010D01*
X123577237Y-106099543D01*
X123348498Y-106099543D01*
X123119758Y-106099543D01*
X123119758Y-105433216D01*
X123119758Y-104766889D01*
X124343016Y-104766889D01*
X125566274Y-104766889D01*
X125566274Y-105433216D01*
G37*
G36*
X124343439Y-103536588D02*
G01*
X124380932Y-103558199D01*
X124444147Y-103598359D01*
X124528668Y-103654035D01*
X124630081Y-103722193D01*
X124743971Y-103799799D01*
X124865925Y-103883821D01*
X124991527Y-103971225D01*
X125116362Y-104058977D01*
X125236017Y-104144044D01*
X125346076Y-104223392D01*
X125442126Y-104293988D01*
X125556328Y-104379027D01*
X125377315Y-104390186D01*
X125365084Y-104390843D01*
X125299461Y-104393083D01*
X125199932Y-104395302D01*
X125071030Y-104397445D01*
X124917292Y-104399458D01*
X124743252Y-104401285D01*
X124553444Y-104402871D01*
X124352403Y-104404162D01*
X124144665Y-104405103D01*
X124064176Y-104405388D01*
X123845311Y-104406099D01*
X123662196Y-104406503D01*
X123511798Y-104406499D01*
X123391085Y-104405988D01*
X123297027Y-104404869D01*
X123226590Y-104403043D01*
X123176744Y-104400409D01*
X123144457Y-104396867D01*
X123126696Y-104392317D01*
X123120430Y-104386660D01*
X123122627Y-104379794D01*
X123130256Y-104371620D01*
X123134858Y-104367564D01*
X123170138Y-104340196D01*
X123231062Y-104295448D01*
X123313162Y-104236428D01*
X123411967Y-104166241D01*
X123523009Y-104087995D01*
X123641820Y-104004796D01*
X123763929Y-103919750D01*
X123884868Y-103835964D01*
X124000169Y-103756546D01*
X124105361Y-103684601D01*
X124195976Y-103623235D01*
X124267544Y-103575557D01*
X124315598Y-103544671D01*
X124335668Y-103533686D01*
X124343439Y-103536588D01*
G37*
G36*
X126388585Y-101843995D02*
G01*
X126389592Y-101844814D01*
X126628361Y-102039005D01*
X126666388Y-102069932D01*
X126827887Y-102232056D01*
X126915863Y-102320373D01*
X126921016Y-102326150D01*
X127061755Y-102490867D01*
X127101308Y-102537159D01*
X127252533Y-102734451D01*
X127281649Y-102778345D01*
X127379153Y-102925335D01*
X127457395Y-103066262D01*
X127485633Y-103117123D01*
X127576436Y-103317125D01*
X127612556Y-103414938D01*
X127656025Y-103532652D01*
X127672888Y-103583997D01*
X127715612Y-103727830D01*
X127723350Y-103753880D01*
X127761709Y-103916162D01*
X127789323Y-104080248D01*
X127794880Y-104133692D01*
X127807549Y-104255544D01*
X127817745Y-104451453D01*
X127818516Y-104500903D01*
X127821268Y-104677382D01*
X127821304Y-104701913D01*
X127820585Y-104751971D01*
X127818461Y-104899829D01*
X127817904Y-104938634D01*
X127806521Y-105145529D01*
X127791463Y-105279112D01*
X127785588Y-105331233D01*
X127753540Y-105504378D01*
X127728031Y-105600884D01*
X127708811Y-105673597D01*
X127649834Y-105847523D01*
X127606120Y-105956979D01*
X127575044Y-106034789D01*
X127510170Y-106180335D01*
X127438933Y-106317138D01*
X127384716Y-106421255D01*
X127261744Y-106614010D01*
X127241614Y-106645563D01*
X127074239Y-106863202D01*
X127070914Y-106866907D01*
X126875968Y-107084115D01*
X126814394Y-107144451D01*
X126669072Y-107286852D01*
X126613258Y-107333244D01*
X126429064Y-107486344D01*
X126384797Y-107523138D01*
X126243780Y-107617878D01*
X126088359Y-107722295D01*
X125777924Y-107885253D01*
X125451658Y-108012944D01*
X125107728Y-108106296D01*
X124744299Y-108166243D01*
X124504141Y-108183600D01*
X124204390Y-108179864D01*
X123896584Y-108151219D01*
X123589508Y-108099204D01*
X123291946Y-108025360D01*
X123012682Y-107931227D01*
X122760501Y-107818347D01*
X122581328Y-107719108D01*
X122430167Y-107618518D01*
X123505427Y-107618518D01*
X123517164Y-107670131D01*
X123520952Y-107676146D01*
X123557945Y-107702907D01*
X123605452Y-107711427D01*
X123643538Y-107697403D01*
X123651581Y-107683706D01*
X123652312Y-107677372D01*
X123883469Y-107677372D01*
X123894136Y-107728038D01*
X123916377Y-107754295D01*
X123954433Y-107770334D01*
X123998203Y-107756798D01*
X124036957Y-107722892D01*
X124264457Y-107722892D01*
X124275408Y-107762809D01*
X124281387Y-107769237D01*
X124326359Y-107790237D01*
X124375939Y-107783709D01*
X124416027Y-107754589D01*
X124432523Y-107707813D01*
X124431054Y-107700223D01*
X124632793Y-107700223D01*
X124636486Y-107707813D01*
X124655295Y-107746466D01*
X124693101Y-107766480D01*
X124747114Y-107765895D01*
X124791038Y-107739910D01*
X124791229Y-107739679D01*
X124806156Y-107705285D01*
X124793646Y-107659790D01*
X124764899Y-107618494D01*
X125000565Y-107618494D01*
X125019296Y-107663740D01*
X125027865Y-107675374D01*
X125070962Y-107705285D01*
X125072357Y-107706253D01*
X125118186Y-107704637D01*
X125154005Y-107674016D01*
X125168466Y-107617878D01*
X125158830Y-107582105D01*
X125124241Y-107550561D01*
X125077288Y-107538734D01*
X125031594Y-107549300D01*
X125000784Y-107584936D01*
X125000565Y-107618494D01*
X124764899Y-107618494D01*
X124760600Y-107612318D01*
X124717760Y-107597676D01*
X124670466Y-107621827D01*
X124646845Y-107649351D01*
X124632793Y-107700223D01*
X124431054Y-107700223D01*
X124429372Y-107691533D01*
X124401972Y-107654015D01*
X124359808Y-107627970D01*
X124319318Y-107625370D01*
X124303994Y-107634548D01*
X124275979Y-107673898D01*
X124274349Y-107680828D01*
X124264457Y-107722892D01*
X124036957Y-107722892D01*
X124037803Y-107722152D01*
X124054606Y-107680828D01*
X124039373Y-107641526D01*
X124000273Y-107606237D01*
X123953307Y-107591321D01*
X123930011Y-107596708D01*
X123897508Y-107628789D01*
X123894709Y-107638476D01*
X123883469Y-107677372D01*
X123652312Y-107677372D01*
X123656801Y-107638476D01*
X123648173Y-107587814D01*
X123627917Y-107552332D01*
X123594830Y-107536101D01*
X123552607Y-107542625D01*
X123520024Y-107573056D01*
X123505427Y-107618518D01*
X122430167Y-107618518D01*
X122306237Y-107536049D01*
X123143378Y-107536049D01*
X123168766Y-107563420D01*
X123172105Y-107565855D01*
X123206738Y-107587040D01*
X123234399Y-107585394D01*
X123274455Y-107560358D01*
X123294385Y-107542860D01*
X123305097Y-107520271D01*
X125372752Y-107520271D01*
X125387475Y-107561744D01*
X125412485Y-107582198D01*
X125460060Y-107590761D01*
X125505196Y-107573599D01*
X125535687Y-107536774D01*
X125539325Y-107486344D01*
X125528879Y-107460018D01*
X125492145Y-107425198D01*
X125445730Y-107417549D01*
X125402400Y-107437224D01*
X125374922Y-107484376D01*
X125374156Y-107497052D01*
X125372752Y-107520271D01*
X123305097Y-107520271D01*
X123316107Y-107497052D01*
X123307197Y-107453110D01*
X123272219Y-107422266D01*
X123215733Y-107415753D01*
X123182682Y-107430320D01*
X123150447Y-107478886D01*
X123143886Y-107499848D01*
X123143378Y-107536049D01*
X122306237Y-107536049D01*
X122272986Y-107513922D01*
X122051261Y-107330573D01*
X122801201Y-107330573D01*
X122806054Y-107375997D01*
X122839985Y-107411608D01*
X122864512Y-107423726D01*
X122884739Y-107430628D01*
X122904000Y-107424088D01*
X122946647Y-107391398D01*
X122967583Y-107347149D01*
X122967060Y-107329829D01*
X125715345Y-107329829D01*
X125721594Y-107347149D01*
X125735349Y-107385275D01*
X125767682Y-107421189D01*
X125807646Y-107428140D01*
X125851601Y-107395824D01*
X125860674Y-107384726D01*
X125881165Y-107333244D01*
X125870499Y-107288765D01*
X125834146Y-107261269D01*
X125777575Y-107260737D01*
X125731276Y-107285903D01*
X125715345Y-107329829D01*
X122967060Y-107329829D01*
X122966225Y-107302156D01*
X122941991Y-107267230D01*
X122894297Y-107253185D01*
X122862175Y-107258581D01*
X122821287Y-107287409D01*
X122801201Y-107330573D01*
X122051261Y-107330573D01*
X121988865Y-107278976D01*
X121856774Y-107144723D01*
X122484127Y-107144723D01*
X122507135Y-107189536D01*
X122511392Y-107193431D01*
X122556447Y-107211817D01*
X122605406Y-107206350D01*
X122639339Y-107178596D01*
X122642474Y-107159891D01*
X126028155Y-107159891D01*
X126053204Y-107185747D01*
X126053327Y-107185837D01*
X126101324Y-107207431D01*
X126153053Y-107212869D01*
X126189505Y-107200144D01*
X126197158Y-107184659D01*
X126202765Y-107144451D01*
X126195983Y-107107338D01*
X126165197Y-107068433D01*
X126120589Y-107053359D01*
X126074439Y-107064986D01*
X126039030Y-107106186D01*
X126030052Y-107127939D01*
X126029874Y-107130937D01*
X126028155Y-107159891D01*
X122642474Y-107159891D01*
X122647328Y-107130937D01*
X122629987Y-107079915D01*
X122592887Y-107047174D01*
X122560694Y-107042078D01*
X122517854Y-107059460D01*
X122490016Y-107097520D01*
X122484127Y-107144723D01*
X121856774Y-107144723D01*
X121730866Y-107016754D01*
X121625465Y-106885213D01*
X122184911Y-106885213D01*
X122188852Y-106912073D01*
X122208779Y-106950851D01*
X122233888Y-106968143D01*
X122283772Y-106969805D01*
X122333628Y-106935449D01*
X122354002Y-106910008D01*
X122355117Y-106901307D01*
X126327296Y-106901307D01*
X126342212Y-106945142D01*
X126364847Y-106962311D01*
X126411614Y-106974720D01*
X126458302Y-106962959D01*
X126491300Y-106924009D01*
X126493351Y-106866907D01*
X126475984Y-106831850D01*
X126431111Y-106803398D01*
X126374464Y-106807394D01*
X126363908Y-106813034D01*
X126336040Y-106850814D01*
X126330310Y-106883905D01*
X126327296Y-106901307D01*
X122355117Y-106901307D01*
X122357348Y-106883905D01*
X122336252Y-106845942D01*
X122326190Y-106832455D01*
X122281170Y-106801248D01*
X122235155Y-106801574D01*
X122199337Y-106830531D01*
X122184911Y-106885213D01*
X121625465Y-106885213D01*
X121500888Y-106729741D01*
X121419591Y-106604044D01*
X121926336Y-106604044D01*
X121933835Y-106638881D01*
X121962711Y-106683227D01*
X121965533Y-106685770D01*
X122000467Y-106711316D01*
X122028385Y-106708543D01*
X122065569Y-106676364D01*
X122066461Y-106675470D01*
X122098862Y-106635586D01*
X122098842Y-106625710D01*
X126589128Y-106625710D01*
X126595144Y-106635586D01*
X126619240Y-106675141D01*
X126620663Y-106676560D01*
X126660807Y-106709341D01*
X126691730Y-106710220D01*
X126726777Y-106679770D01*
X126738252Y-106665628D01*
X126759604Y-106614010D01*
X126748698Y-106570565D01*
X126706891Y-106544527D01*
X126679056Y-106540049D01*
X126624769Y-106549620D01*
X126592883Y-106581022D01*
X126589128Y-106625710D01*
X122098842Y-106625710D01*
X122098798Y-106604317D01*
X122066370Y-106567692D01*
X122029536Y-106546032D01*
X121980833Y-106542586D01*
X121942118Y-106563043D01*
X121926336Y-106604044D01*
X121419591Y-106604044D01*
X121300831Y-106420424D01*
X121251579Y-106324068D01*
X121692055Y-106324068D01*
X121716257Y-106356759D01*
X121717049Y-106357627D01*
X121767146Y-106391541D01*
X121815608Y-106392118D01*
X121852194Y-106362755D01*
X121866665Y-106306850D01*
X121863799Y-106282186D01*
X121837997Y-106238188D01*
X121795438Y-106217868D01*
X121748483Y-106224729D01*
X121709496Y-106262280D01*
X121693033Y-106294680D01*
X121692055Y-106324068D01*
X121251579Y-106324068D01*
X121132595Y-106091286D01*
X121081419Y-105959471D01*
X121512754Y-105959471D01*
X121516479Y-106005540D01*
X121552845Y-106048690D01*
X121594239Y-106074034D01*
X121621100Y-106075011D01*
X121646873Y-106051020D01*
X121662764Y-106020936D01*
X121665775Y-105970373D01*
X121647622Y-105926287D01*
X121611968Y-105904085D01*
X121584974Y-105903218D01*
X121537106Y-105921643D01*
X121512754Y-105959471D01*
X121081419Y-105959471D01*
X120998080Y-105744813D01*
X120967215Y-105632044D01*
X121369529Y-105632044D01*
X121393274Y-105677868D01*
X121431174Y-105697854D01*
X121484917Y-105697473D01*
X121528314Y-105672159D01*
X121536324Y-105659518D01*
X121542936Y-105610777D01*
X121525592Y-105562400D01*
X121489453Y-105532892D01*
X121453600Y-105528662D01*
X121406856Y-105546642D01*
X121376444Y-105584702D01*
X121369529Y-105632044D01*
X120967215Y-105632044D01*
X120899184Y-105383490D01*
X120885379Y-105297374D01*
X120882093Y-105262445D01*
X121293811Y-105262445D01*
X121309058Y-105303235D01*
X121349516Y-105319026D01*
X121403661Y-105315973D01*
X121439125Y-105287597D01*
X121445588Y-105232154D01*
X121445404Y-105230590D01*
X121429947Y-105185653D01*
X121393174Y-105168142D01*
X121342038Y-105173139D01*
X121303455Y-105206618D01*
X121293811Y-105262445D01*
X120882093Y-105262445D01*
X120873845Y-105174779D01*
X120865551Y-105027985D01*
X120861732Y-104904725D01*
X121239675Y-104904725D01*
X121268286Y-104941546D01*
X121315620Y-104952120D01*
X121368119Y-104932630D01*
X121376520Y-104926177D01*
X121405745Y-104882259D01*
X121402777Y-104836800D01*
X121371651Y-104801181D01*
X121316402Y-104786779D01*
X121309973Y-104787105D01*
X121266313Y-104808344D01*
X121239724Y-104852403D01*
X121239675Y-104904725D01*
X120861732Y-104904725D01*
X120860500Y-104864955D01*
X120859291Y-104750077D01*
X121986007Y-104750077D01*
X122000065Y-104754798D01*
X122048033Y-104759627D01*
X122123937Y-104763456D01*
X122221411Y-104765979D01*
X122334089Y-104766889D01*
X122682170Y-104766889D01*
X122682170Y-104882259D01*
X122682170Y-105232154D01*
X122682170Y-105610777D01*
X122682170Y-105661955D01*
X122682170Y-105970373D01*
X122682170Y-106306850D01*
X122682170Y-106557022D01*
X123348498Y-106557022D01*
X124014825Y-106557022D01*
X124014825Y-106099543D01*
X124014825Y-105642065D01*
X124343016Y-105642065D01*
X124671207Y-105642065D01*
X124671207Y-106099543D01*
X124671207Y-106557022D01*
X125337534Y-106557022D01*
X126003862Y-106557022D01*
X126003862Y-106308575D01*
X126813816Y-106308575D01*
X126840733Y-106359594D01*
X126881988Y-106389063D01*
X126929645Y-106395362D01*
X126964790Y-106370469D01*
X126978490Y-106317138D01*
X126978444Y-106314238D01*
X126963787Y-106264287D01*
X126930404Y-106225728D01*
X126889244Y-106207161D01*
X126851252Y-106217184D01*
X126822154Y-106253624D01*
X126813816Y-106308575D01*
X126003862Y-106308575D01*
X126003862Y-105963065D01*
X126986422Y-105963065D01*
X127013602Y-106017743D01*
X127045320Y-106054374D01*
X127070658Y-106073910D01*
X127093025Y-106070823D01*
X127124160Y-106042928D01*
X127147790Y-106000409D01*
X127154129Y-105956979D01*
X127148920Y-105936174D01*
X127125999Y-105913995D01*
X127075500Y-105904563D01*
X127036995Y-105905083D01*
X126994938Y-105924199D01*
X126986422Y-105963065D01*
X126003862Y-105963065D01*
X126003862Y-105661955D01*
X126003862Y-105595120D01*
X127143817Y-105595120D01*
X127153180Y-105650465D01*
X127188182Y-105691650D01*
X127235721Y-105699228D01*
X127285370Y-105670480D01*
X127303871Y-105647849D01*
X127313882Y-105600884D01*
X127284311Y-105552921D01*
X127248000Y-105529157D01*
X127200895Y-105527274D01*
X127162945Y-105551659D01*
X127143817Y-105595120D01*
X126003862Y-105595120D01*
X126003862Y-105237904D01*
X127232444Y-105237904D01*
X127240115Y-105289011D01*
X127252685Y-105302740D01*
X127295702Y-105320559D01*
X127346008Y-105324206D01*
X127382927Y-105310559D01*
X127398020Y-105279112D01*
X127392005Y-105232549D01*
X127366554Y-105188418D01*
X127329331Y-105159116D01*
X127288002Y-105157038D01*
X127251819Y-105187131D01*
X127232444Y-105237904D01*
X126003862Y-105237904D01*
X126003862Y-104904725D01*
X127286347Y-104904725D01*
X127290186Y-104914158D01*
X127323852Y-104945743D01*
X127371404Y-104954901D01*
X127417322Y-104941546D01*
X127446081Y-104905594D01*
X127447699Y-104899829D01*
X127444538Y-104846166D01*
X127414355Y-104803912D01*
X127366352Y-104786779D01*
X127361073Y-104786969D01*
X127314455Y-104807219D01*
X127286402Y-104851108D01*
X127286347Y-104904725D01*
X126003862Y-104904725D01*
X126003862Y-104766889D01*
X126351943Y-104766889D01*
X126449764Y-104766285D01*
X126549592Y-104764229D01*
X126628679Y-104760976D01*
X126680680Y-104756799D01*
X126699249Y-104751971D01*
X126690218Y-104739246D01*
X126656517Y-104708469D01*
X126606561Y-104669381D01*
X126590622Y-104657748D01*
X126533402Y-104616544D01*
X126449634Y-104556660D01*
X126343443Y-104481016D01*
X126321193Y-104465201D01*
X127280219Y-104465201D01*
X127283782Y-104502791D01*
X127308165Y-104549735D01*
X127342938Y-104579394D01*
X127382575Y-104582533D01*
X127426096Y-104548014D01*
X127436387Y-104535929D01*
X127451524Y-104500903D01*
X127438981Y-104457258D01*
X127428741Y-104437780D01*
X127400403Y-104414322D01*
X127351291Y-104412585D01*
X127333425Y-104414858D01*
X127294907Y-104430515D01*
X127280219Y-104465201D01*
X126321193Y-104465201D01*
X126218953Y-104392531D01*
X126080289Y-104294125D01*
X125931576Y-104188717D01*
X125839896Y-104123804D01*
X127224500Y-104123804D01*
X127248300Y-104171603D01*
X127278103Y-104196126D01*
X127315731Y-104209958D01*
X127338784Y-104206413D01*
X127377009Y-104178319D01*
X127394881Y-104133692D01*
X127388923Y-104086431D01*
X127355655Y-104050433D01*
X127311200Y-104037333D01*
X127263798Y-104047812D01*
X127232282Y-104079588D01*
X127224500Y-104123804D01*
X125839896Y-104123804D01*
X125776939Y-104079228D01*
X125620502Y-103968577D01*
X125466391Y-103859684D01*
X125318730Y-103755468D01*
X125296339Y-103739687D01*
X127142807Y-103739687D01*
X127146876Y-103790113D01*
X127152197Y-103803275D01*
X127185199Y-103834055D01*
X127230909Y-103832875D01*
X127279773Y-103799089D01*
X127299746Y-103772770D01*
X127309044Y-103727830D01*
X127282297Y-103694182D01*
X127221841Y-103676758D01*
X127208446Y-103675724D01*
X127167677Y-103682297D01*
X127147918Y-103711566D01*
X127142807Y-103739687D01*
X125296339Y-103739687D01*
X125181644Y-103658850D01*
X125059257Y-103572748D01*
X124955695Y-103500083D01*
X124875083Y-103443774D01*
X124847409Y-103424515D01*
X127003140Y-103424515D01*
X127021650Y-103456634D01*
X127029119Y-103460858D01*
X127076843Y-103472976D01*
X127122949Y-103467392D01*
X127149755Y-103445626D01*
X127157224Y-103414938D01*
X127151249Y-103360896D01*
X127125471Y-103318703D01*
X127087048Y-103297655D01*
X127043133Y-103307055D01*
X127021404Y-103329958D01*
X127003891Y-103376491D01*
X127003140Y-103424515D01*
X124847409Y-103424515D01*
X124591646Y-103246524D01*
X124591646Y-103062074D01*
X126808030Y-103062074D01*
X126828357Y-103107377D01*
X126837192Y-103119336D01*
X126881795Y-103150470D01*
X126927863Y-103149906D01*
X126963920Y-103120790D01*
X126978490Y-103066262D01*
X126973723Y-103036606D01*
X126945071Y-102996079D01*
X126901304Y-102976913D01*
X126854978Y-102982909D01*
X126818653Y-103017870D01*
X126816772Y-103021492D01*
X126808030Y-103062074D01*
X124591646Y-103062074D01*
X124591646Y-102823230D01*
X124591646Y-102771391D01*
X126582225Y-102771391D01*
X126604551Y-102813655D01*
X126622665Y-102825657D01*
X126676000Y-102835489D01*
X126734833Y-102824350D01*
X126746653Y-102815413D01*
X126758682Y-102778345D01*
X126752347Y-102730905D01*
X126728439Y-102689766D01*
X126695761Y-102664318D01*
X126662191Y-102664921D01*
X126620463Y-102698290D01*
X126597867Y-102724714D01*
X126582225Y-102771391D01*
X124591646Y-102771391D01*
X124591646Y-102490169D01*
X126326482Y-102490169D01*
X126352668Y-102539969D01*
X126357429Y-102545199D01*
X126388211Y-102572893D01*
X126415587Y-102573377D01*
X126456914Y-102547985D01*
X126471798Y-102535977D01*
X126499303Y-102490867D01*
X126493638Y-102446753D01*
X126458621Y-102413240D01*
X126398070Y-102399935D01*
X126360464Y-102408896D01*
X126330356Y-102442543D01*
X126326482Y-102490169D01*
X124591646Y-102490169D01*
X124591646Y-102399935D01*
X123984989Y-102399935D01*
X123378333Y-102399935D01*
X123378333Y-102475892D01*
X123378333Y-102698290D01*
X123378333Y-102756185D01*
X123378333Y-102996646D01*
X123736360Y-102996646D01*
X124094386Y-102996646D01*
X124094039Y-103087794D01*
X124093913Y-103120961D01*
X124093440Y-103245276D01*
X123846335Y-103418288D01*
X123641407Y-103561770D01*
X123499354Y-103661332D01*
X123367370Y-103754097D01*
X123271450Y-103821514D01*
X123055358Y-103973943D01*
X122853162Y-104117124D01*
X122851535Y-104118281D01*
X122666946Y-104249561D01*
X122498797Y-104369757D01*
X122350797Y-104476216D01*
X122288541Y-104521374D01*
X122225031Y-104567441D01*
X122123585Y-104641936D01*
X122048543Y-104698205D01*
X122001989Y-104734750D01*
X121986007Y-104750077D01*
X120859291Y-104750077D01*
X120858697Y-104693650D01*
X120860145Y-104522030D01*
X120860540Y-104508252D01*
X121235317Y-104508252D01*
X121266548Y-104554957D01*
X121295526Y-104577035D01*
X121336269Y-104584672D01*
X121377930Y-104556619D01*
X121403183Y-104521374D01*
X121401768Y-104478334D01*
X121360795Y-104437743D01*
X121357934Y-104435917D01*
X121304631Y-104418817D01*
X121261600Y-104431176D01*
X121236082Y-104463990D01*
X121235317Y-104508252D01*
X120860540Y-104508252D01*
X120864849Y-104358058D01*
X120872811Y-104209695D01*
X120878984Y-104141061D01*
X121289944Y-104141061D01*
X121313713Y-104186090D01*
X121344507Y-104205509D01*
X121393399Y-104203470D01*
X121436948Y-104167103D01*
X121454052Y-104118281D01*
X121437380Y-104071790D01*
X121388363Y-104040594D01*
X121361447Y-104037156D01*
X121319892Y-104054741D01*
X121294031Y-104093327D01*
X121289944Y-104141061D01*
X120878984Y-104141061D01*
X120884035Y-104084902D01*
X120898526Y-103991641D01*
X120947582Y-103791257D01*
X120956933Y-103762921D01*
X121372897Y-103762921D01*
X121400726Y-103813791D01*
X121401062Y-103814162D01*
X121437191Y-103845758D01*
X121468441Y-103845158D01*
X121508638Y-103812151D01*
X121515060Y-103805393D01*
X121543438Y-103754097D01*
X121536796Y-103710330D01*
X121499334Y-103681861D01*
X121435252Y-103676454D01*
X121408792Y-103683648D01*
X121376504Y-103715886D01*
X121372897Y-103762921D01*
X120956933Y-103762921D01*
X121064586Y-103436696D01*
X121081926Y-103397932D01*
X121511481Y-103397932D01*
X121539895Y-103442759D01*
X121562199Y-103460642D01*
X121611811Y-103474664D01*
X121653494Y-103458476D01*
X121677221Y-103418288D01*
X121672966Y-103360314D01*
X121672241Y-103358186D01*
X121641061Y-103310605D01*
X121597175Y-103299361D01*
X121546939Y-103326176D01*
X121521499Y-103354614D01*
X121511481Y-103397932D01*
X121081926Y-103397932D01*
X121215807Y-103098639D01*
X121230053Y-103073952D01*
X121691950Y-103073952D01*
X121724026Y-103122851D01*
X121764890Y-103149239D01*
X121811843Y-103149825D01*
X121848121Y-103113472D01*
X121857551Y-103087794D01*
X121854695Y-103035018D01*
X121827196Y-102993549D01*
X121781563Y-102976756D01*
X121726571Y-102990150D01*
X121694213Y-103026127D01*
X121691950Y-103073952D01*
X121230053Y-103073952D01*
X121399624Y-102780091D01*
X121408196Y-102768277D01*
X121928751Y-102768277D01*
X121950205Y-102813655D01*
X121993546Y-102835497D01*
X122038284Y-102827710D01*
X122074051Y-102798488D01*
X122090641Y-102756185D01*
X122077847Y-102709158D01*
X122051112Y-102679669D01*
X122002836Y-102661453D01*
X121955216Y-102679193D01*
X121932460Y-102715018D01*
X121928751Y-102768277D01*
X121408196Y-102768277D01*
X121614412Y-102484057D01*
X121620259Y-102477578D01*
X122182218Y-102477578D01*
X122200133Y-102530673D01*
X122228888Y-102557469D01*
X122275443Y-102561578D01*
X122324543Y-102528798D01*
X122326782Y-102526376D01*
X122355886Y-102475892D01*
X122346648Y-102433258D01*
X122299721Y-102401807D01*
X122285616Y-102397514D01*
X122232806Y-102400845D01*
X122195724Y-102430918D01*
X122182218Y-102477578D01*
X121620259Y-102477578D01*
X121826379Y-102249190D01*
X122483693Y-102249190D01*
X122507135Y-102296505D01*
X122521064Y-102307103D01*
X122562828Y-102320373D01*
X122592843Y-102314220D01*
X122629139Y-102278345D01*
X122636551Y-102243647D01*
X126029218Y-102243647D01*
X126054015Y-102288124D01*
X126078123Y-102307376D01*
X126109707Y-102319769D01*
X126157690Y-102306626D01*
X126191101Y-102273604D01*
X126202959Y-102232056D01*
X126190251Y-102193297D01*
X126149961Y-102168646D01*
X126124314Y-102164550D01*
X126071103Y-102173472D01*
X126037159Y-102202634D01*
X126034509Y-102216319D01*
X126029218Y-102243647D01*
X122636551Y-102243647D01*
X122642389Y-102216319D01*
X122642359Y-102213255D01*
X122628016Y-102163541D01*
X122589946Y-102144567D01*
X122531724Y-102158209D01*
X122527398Y-102160336D01*
X122491427Y-102198289D01*
X122483693Y-102249190D01*
X121826379Y-102249190D01*
X121858549Y-102213545D01*
X121881232Y-102191155D01*
X122072172Y-102020149D01*
X122800559Y-102020149D01*
X122809815Y-102067114D01*
X122839985Y-102100880D01*
X122865977Y-102112795D01*
X122898529Y-102121470D01*
X122913603Y-102116382D01*
X122942769Y-102086433D01*
X122964069Y-102044816D01*
X122965703Y-102023050D01*
X125717613Y-102023050D01*
X125734387Y-102073078D01*
X125765068Y-102107833D01*
X125807388Y-102118723D01*
X125853263Y-102090214D01*
X125855570Y-102087844D01*
X125881153Y-102039005D01*
X125873226Y-101991930D01*
X125836860Y-101956466D01*
X125777130Y-101942456D01*
X125755944Y-101946754D01*
X125726269Y-101976449D01*
X125720179Y-102009237D01*
X125717613Y-102023050D01*
X122965703Y-102023050D01*
X122966740Y-102009237D01*
X122943261Y-101977998D01*
X122893663Y-101952795D01*
X122840542Y-101952640D01*
X122812156Y-101976219D01*
X122800559Y-102020149D01*
X122072172Y-102020149D01*
X122163250Y-101938580D01*
X122301424Y-101837165D01*
X123143602Y-101837165D01*
X123144523Y-101882647D01*
X123176023Y-101929429D01*
X123210644Y-101954878D01*
X123247661Y-101956823D01*
X123288156Y-101923307D01*
X123310714Y-101881451D01*
X125371482Y-101881451D01*
X125403744Y-101929429D01*
X125437677Y-101954530D01*
X125474893Y-101957095D01*
X125515208Y-101924046D01*
X125535521Y-101893304D01*
X125541263Y-101844814D01*
X125518945Y-101806759D01*
X125475695Y-101788376D01*
X125418640Y-101798901D01*
X125416689Y-101799809D01*
X125376115Y-101835456D01*
X125371700Y-101879291D01*
X125371482Y-101881451D01*
X123310714Y-101881451D01*
X123311878Y-101879291D01*
X123299983Y-101836027D01*
X123250193Y-101800128D01*
X123210439Y-101790288D01*
X123167495Y-101803029D01*
X123143602Y-101837165D01*
X122301424Y-101837165D01*
X122415876Y-101753162D01*
X123499041Y-101753162D01*
X123521544Y-101799246D01*
X123550470Y-101814855D01*
X123599765Y-101823114D01*
X123623556Y-101820334D01*
X123661055Y-101794813D01*
X123670263Y-101749498D01*
X123648044Y-101692853D01*
X123644628Y-101689054D01*
X123879506Y-101689054D01*
X123893192Y-101720912D01*
X123920925Y-101749498D01*
X123928833Y-101757649D01*
X123952302Y-101771320D01*
X123980183Y-101772267D01*
X124013367Y-101745011D01*
X124035322Y-101719481D01*
X124052732Y-101671294D01*
X124047768Y-101661985D01*
X124255916Y-101661985D01*
X124261254Y-101671294D01*
X124284766Y-101712297D01*
X124327872Y-101738965D01*
X124376604Y-101736823D01*
X124413979Y-101701256D01*
X124423409Y-101675577D01*
X124423189Y-101671510D01*
X124641371Y-101671510D01*
X124642060Y-101675577D01*
X124648020Y-101710756D01*
X124684667Y-101757503D01*
X124708291Y-101771337D01*
X124736066Y-101772268D01*
X124760981Y-101751773D01*
X125012334Y-101751773D01*
X125016519Y-101793234D01*
X125016836Y-101794020D01*
X125044034Y-101815406D01*
X125089326Y-101822779D01*
X125134344Y-101815949D01*
X125160718Y-101794725D01*
X125165872Y-101769066D01*
X125165067Y-101720136D01*
X125162708Y-101708165D01*
X125142309Y-101679578D01*
X125094560Y-101667755D01*
X125063513Y-101666316D01*
X125033105Y-101677296D01*
X125029354Y-101685929D01*
X125017826Y-101712463D01*
X125012334Y-101751773D01*
X124760981Y-101751773D01*
X124769201Y-101745011D01*
X124775935Y-101737923D01*
X124805070Y-101685929D01*
X124798989Y-101641807D01*
X124761716Y-101613225D01*
X124697273Y-101607856D01*
X124676263Y-101611243D01*
X124648060Y-101628989D01*
X124641371Y-101671510D01*
X124423189Y-101671510D01*
X124420553Y-101622802D01*
X124393054Y-101581333D01*
X124347420Y-101564539D01*
X124295167Y-101577059D01*
X124260955Y-101613198D01*
X124255916Y-101661985D01*
X124047768Y-101661985D01*
X124031150Y-101630824D01*
X123970647Y-101598308D01*
X123959351Y-101595793D01*
X123918565Y-101607605D01*
X123887775Y-101642849D01*
X123879506Y-101689054D01*
X123644628Y-101689054D01*
X123614041Y-101655033D01*
X123574259Y-101648234D01*
X123530594Y-101680475D01*
X123514663Y-101701054D01*
X123499041Y-101753162D01*
X122415876Y-101753162D01*
X122456052Y-101723674D01*
X122761114Y-101545872D01*
X123079914Y-101404607D01*
X123413928Y-101299314D01*
X123764634Y-101229427D01*
X124133509Y-101194381D01*
X124522029Y-101193611D01*
X124659000Y-101200686D01*
X124870005Y-101219569D01*
X125060707Y-101248683D01*
X125243015Y-101290023D01*
X125428838Y-101345586D01*
X125440564Y-101349488D01*
X125770137Y-101480144D01*
X126087990Y-101646189D01*
X126274719Y-101769066D01*
X126388585Y-101843995D01*
G37*
%TD*%
%LPC*%
D11*
X160957965Y-109383172D02*
X160957965Y-111268670D01*
X153425250Y-103735985D01*
X155310748Y-103735985D01*
X160957965Y-109383172D01*
G36*
X160957965Y-109383172D02*
G01*
X160957965Y-111268670D01*
X153425250Y-103735985D01*
X155310748Y-103735985D01*
X160957965Y-109383172D01*
G37*
X153354343Y-113177727D02*
X153178542Y-113190413D01*
X153003233Y-113207747D01*
X152828507Y-113229713D01*
X152654454Y-113256295D01*
X152481166Y-113287477D01*
X152308734Y-113323245D01*
X152137248Y-113363581D01*
X151966800Y-113408471D01*
X151914871Y-113423759D01*
X151863240Y-113439385D01*
X151812002Y-113455377D01*
X151761249Y-113471764D01*
X150379886Y-112090416D01*
X150379886Y-110204918D01*
X153354343Y-113177727D01*
G36*
X153354343Y-113177727D02*
G01*
X153178542Y-113190413D01*
X153003233Y-113207747D01*
X152828507Y-113229713D01*
X152654454Y-113256295D01*
X152481166Y-113287477D01*
X152308734Y-113323245D01*
X152137248Y-113363581D01*
X151966800Y-113408471D01*
X151914871Y-113423759D01*
X151863240Y-113439385D01*
X151812002Y-113455377D01*
X151761249Y-113471764D01*
X150379886Y-112090416D01*
X150379886Y-110204918D01*
X153354343Y-113177727D01*
G37*
X146192157Y-103166039D02*
X144305118Y-103166039D01*
X139231921Y-98092888D01*
X139231921Y-96207390D01*
X146192157Y-103166039D01*
G36*
X146192157Y-103166039D02*
G01*
X144305118Y-103166039D01*
X139231921Y-98092888D01*
X139231921Y-96207390D01*
X146192157Y-103166039D01*
G37*
D12*
X165471864Y-113135305D02*
X165455293Y-113726274D01*
X165404489Y-114295856D01*
X165317819Y-114841740D01*
X165260523Y-115105074D01*
X165193649Y-115361617D01*
X165116991Y-115611082D01*
X165030346Y-115853178D01*
X164933508Y-116087617D01*
X164826275Y-116314112D01*
X164708442Y-116532372D01*
X164579804Y-116742109D01*
X164440158Y-116943035D01*
X164289299Y-117134860D01*
X164127022Y-117317297D01*
X163953125Y-117490056D01*
X163767402Y-117652848D01*
X163569649Y-117805386D01*
X163359663Y-117947379D01*
X163137238Y-118078541D01*
X162902171Y-118198580D01*
X162654258Y-118307210D01*
X162393294Y-118404141D01*
X162119075Y-118489085D01*
X161831397Y-118561752D01*
X161530056Y-118621855D01*
X161214847Y-118669104D01*
X160885566Y-118703211D01*
X160542009Y-118723887D01*
X160183972Y-118730843D01*
X159786334Y-118717709D01*
X159389105Y-118697321D01*
X158992381Y-118669690D01*
X158596262Y-118634826D01*
X158200846Y-118592740D01*
X157806230Y-118543441D01*
X157412514Y-118486940D01*
X157019794Y-118423247D01*
X156631617Y-118359818D01*
X156242441Y-118303505D01*
X155852364Y-118254316D01*
X155461486Y-118212260D01*
X155069906Y-118177346D01*
X154677721Y-118149584D01*
X154285032Y-118128983D01*
X153891937Y-118115551D01*
X153766957Y-118111691D01*
X153642302Y-118112999D01*
X153518124Y-118119431D01*
X153394573Y-118130944D01*
X153271802Y-118147495D01*
X153149961Y-118169041D01*
X153029202Y-118195538D01*
X152909678Y-118226942D01*
X152791538Y-118263211D01*
X152674935Y-118304302D01*
X152560020Y-118350171D01*
X152446944Y-118400775D01*
X152335860Y-118456070D01*
X152226917Y-118516013D01*
X152120269Y-118580562D01*
X152016066Y-118649672D01*
X151912103Y-118736268D01*
X151811989Y-118831231D01*
X151716119Y-118934918D01*
X151624887Y-119047687D01*
X151538687Y-119169895D01*
X151457913Y-119301897D01*
X151382961Y-119444051D01*
X151314224Y-119596714D01*
X151252096Y-119760242D01*
X151196973Y-119934992D01*
X151149248Y-120121322D01*
X151109316Y-120319587D01*
X151077572Y-120530146D01*
X151054409Y-120753353D01*
X151040222Y-120989567D01*
X151035405Y-121239144D01*
X149146727Y-121239144D01*
X149145521Y-121112663D01*
X149141934Y-120989567D01*
X149136015Y-120869811D01*
X149127811Y-120753352D01*
X149117371Y-120640144D01*
X149104743Y-120530143D01*
X149089975Y-120423304D01*
X149073116Y-120319583D01*
X149054212Y-120218935D01*
X149033313Y-120121315D01*
X149010467Y-120026680D01*
X148985721Y-119934984D01*
X148959124Y-119846182D01*
X148930724Y-119760231D01*
X148900570Y-119677086D01*
X148868708Y-119596701D01*
X148835188Y-119519033D01*
X148800057Y-119444037D01*
X148763363Y-119371668D01*
X148725156Y-119301882D01*
X148685482Y-119234634D01*
X148644390Y-119169880D01*
X148601928Y-119107574D01*
X148558145Y-119047673D01*
X148466805Y-118934906D01*
X148370755Y-118831221D01*
X148270380Y-118736262D01*
X148166066Y-118649672D01*
X148061860Y-118580562D01*
X147955210Y-118516013D01*
X147846266Y-118456070D01*
X147735181Y-118400775D01*
X147622105Y-118350171D01*
X147507190Y-118304302D01*
X147390587Y-118263211D01*
X147272448Y-118226942D01*
X147152924Y-118195538D01*
X147032167Y-118169041D01*
X146910327Y-118147495D01*
X146787557Y-118130944D01*
X146664007Y-118119431D01*
X146539829Y-118112999D01*
X146415175Y-118111691D01*
X146290195Y-118115551D01*
X145897362Y-118128994D01*
X145504940Y-118149603D01*
X145113026Y-118177368D01*
X144721716Y-118212281D01*
X144331107Y-118254331D01*
X143941296Y-118303510D01*
X143552379Y-118359807D01*
X143164453Y-118423214D01*
X142771484Y-118487195D01*
X142377511Y-118543980D01*
X141982634Y-118593559D01*
X141586950Y-118635922D01*
X141190561Y-118671057D01*
X140793563Y-118698954D01*
X140396058Y-118719602D01*
X139998143Y-118732992D01*
X139640108Y-118726029D01*
X139296552Y-118705336D01*
X138967273Y-118671200D01*
X138652065Y-118623913D01*
X138350725Y-118563762D01*
X138063048Y-118491038D01*
X137788830Y-118406030D01*
X137527867Y-118309028D01*
X137279954Y-118200321D01*
X137044888Y-118080198D01*
X136822465Y-117948950D01*
X136612479Y-117806865D01*
X136414727Y-117654233D01*
X136229004Y-117491344D01*
X136055107Y-117318487D01*
X135892832Y-117135951D01*
X135741973Y-116944027D01*
X135602327Y-116743003D01*
X135473689Y-116533169D01*
X135355856Y-116314814D01*
X135248623Y-116088229D01*
X135151786Y-115853702D01*
X135065141Y-115611523D01*
X134988483Y-115361981D01*
X134864313Y-114841969D01*
X134777643Y-114295980D01*
X134726839Y-113726331D01*
X134710268Y-113135338D01*
X134710268Y-112323464D01*
X136833981Y-112323464D01*
X136833981Y-112776415D01*
X136837578Y-112943332D01*
X136849399Y-113108139D01*
X136869246Y-113270633D01*
X136896922Y-113430612D01*
X136932229Y-113587874D01*
X136974972Y-113742217D01*
X137024951Y-113893440D01*
X137081970Y-114041340D01*
X137145832Y-114185714D01*
X137216339Y-114326362D01*
X137293294Y-114463081D01*
X137376500Y-114595668D01*
X137465759Y-114723923D01*
X137560875Y-114847643D01*
X137661649Y-114966625D01*
X137767885Y-115080669D01*
X137879385Y-115189571D01*
X137995952Y-115293130D01*
X138117388Y-115391144D01*
X138243497Y-115483411D01*
X138374081Y-115569729D01*
X138508943Y-115649895D01*
X138647886Y-115723708D01*
X138790711Y-115790966D01*
X138937223Y-115851466D01*
X139087223Y-115905008D01*
X139240515Y-115951387D01*
X139396900Y-115990404D01*
X139556182Y-116021855D01*
X139718164Y-116045538D01*
X139882648Y-116061252D01*
X140049437Y-116068795D01*
X140259345Y-116069858D01*
X140468185Y-116066650D01*
X140675962Y-116059169D01*
X140882678Y-116047411D01*
X141052898Y-116036611D01*
X141223711Y-116023401D01*
X141394918Y-116007786D01*
X141566318Y-115989773D01*
X141918072Y-115947879D01*
X142269319Y-115901863D01*
X142619999Y-115851730D01*
X142970053Y-115797487D01*
X143333858Y-115737126D01*
X143698724Y-115684374D01*
X144064531Y-115639244D01*
X144431159Y-115601745D01*
X144798488Y-115571886D01*
X145166400Y-115549680D01*
X145534775Y-115535134D01*
X145903493Y-115528261D01*
X146108602Y-115528261D01*
X146328649Y-115532525D01*
X146465393Y-115541085D01*
X146651267Y-115553875D01*
X146813641Y-115570962D01*
X146963193Y-115588082D01*
X147045444Y-115600475D01*
X147127493Y-115614061D01*
X147209328Y-115628839D01*
X147290934Y-115644806D01*
X147372300Y-115661959D01*
X147453413Y-115680296D01*
X147534258Y-115699815D01*
X147614824Y-115720513D01*
X147656825Y-115731836D01*
X147699224Y-115743751D01*
X147720447Y-115750119D01*
X147741619Y-115756862D01*
X147762691Y-115764055D01*
X147783611Y-115771773D01*
X147870362Y-115799769D01*
X147956364Y-115829869D01*
X148041580Y-115862057D01*
X148125970Y-115896320D01*
X148209495Y-115932642D01*
X148292116Y-115971010D01*
X148373795Y-116011408D01*
X148454494Y-116053823D01*
X148482895Y-116069014D01*
X148511123Y-116084523D01*
X148539174Y-116100349D01*
X148567046Y-116116488D01*
X148594735Y-116132940D01*
X148622241Y-116149700D01*
X148649560Y-116166767D01*
X148676689Y-116184139D01*
X148740417Y-116227171D01*
X148803079Y-116271684D01*
X148864650Y-116317658D01*
X148925104Y-116365074D01*
X148984418Y-116413910D01*
X149042564Y-116464147D01*
X149099518Y-116515764D01*
X149155254Y-116568743D01*
X149169113Y-116581583D01*
X149182830Y-116594572D01*
X149196406Y-116607710D01*
X149209837Y-116620994D01*
X149223124Y-116634422D01*
X149236265Y-116647994D01*
X149249259Y-116661707D01*
X149262105Y-116675560D01*
X149293161Y-116709163D01*
X149323673Y-116743248D01*
X149353635Y-116777809D01*
X149383041Y-116812842D01*
X149411883Y-116848341D01*
X149440157Y-116884300D01*
X149467857Y-116920714D01*
X149494975Y-116957576D01*
X149508281Y-116975205D01*
X149521373Y-116992990D01*
X149534249Y-117010930D01*
X149546909Y-117029020D01*
X149559353Y-117047259D01*
X149571580Y-117065642D01*
X149583590Y-117084168D01*
X149595381Y-117102831D01*
X149620519Y-117140791D01*
X149645046Y-117179134D01*
X149668958Y-117217855D01*
X149692250Y-117256948D01*
X149714917Y-117296405D01*
X149736955Y-117336222D01*
X149758358Y-117376391D01*
X149779123Y-117416906D01*
X149791910Y-117440156D01*
X149804363Y-117463580D01*
X149816483Y-117487173D01*
X149828269Y-117510933D01*
X149870986Y-117607076D01*
X149883886Y-117635116D01*
X149896377Y-117663338D01*
X149908458Y-117691737D01*
X149920131Y-117720305D01*
X149967162Y-117842095D01*
X149984338Y-117890881D01*
X150000960Y-117939852D01*
X150017024Y-117989004D01*
X150032530Y-118038333D01*
X150047475Y-118087835D01*
X150061859Y-118137506D01*
X150075679Y-118187343D01*
X150088934Y-118237340D01*
X150101959Y-118186359D01*
X150115434Y-118135929D01*
X150129411Y-118086000D01*
X150143940Y-118036520D01*
X150159071Y-117987440D01*
X150174853Y-117938710D01*
X150191338Y-117890278D01*
X150208576Y-117842095D01*
X150230477Y-117779589D01*
X150236204Y-117764092D01*
X150242232Y-117748946D01*
X150248660Y-117734301D01*
X150252056Y-117727213D01*
X150255589Y-117720305D01*
X150306867Y-117607076D01*
X150349584Y-117510933D01*
X150394449Y-117416906D01*
X150415549Y-117376413D01*
X150437267Y-117336260D01*
X150459599Y-117296453D01*
X150482541Y-117256998D01*
X150506090Y-117217902D01*
X150530242Y-117179172D01*
X150554993Y-117140813D01*
X150580339Y-117102831D01*
X150592131Y-117084168D01*
X150604142Y-117065642D01*
X150616372Y-117047259D01*
X150628817Y-117029020D01*
X150641479Y-117010930D01*
X150654355Y-116992990D01*
X150667444Y-116975205D01*
X150680745Y-116957576D01*
X150707869Y-116920714D01*
X150735573Y-116884300D01*
X150763850Y-116848341D01*
X150792695Y-116812842D01*
X150822101Y-116777809D01*
X150852064Y-116743248D01*
X150882576Y-116709163D01*
X150913632Y-116675560D01*
X150926477Y-116661696D01*
X150939469Y-116647975D01*
X150952607Y-116634398D01*
X150965891Y-116620968D01*
X150979320Y-116607686D01*
X150992893Y-116594553D01*
X151006608Y-116581572D01*
X151020467Y-116568743D01*
X151076273Y-116516095D01*
X151133275Y-116464789D01*
X151191447Y-116414846D01*
X151250767Y-116366286D01*
X151311209Y-116319130D01*
X151372750Y-116273398D01*
X151435366Y-116229110D01*
X151499031Y-116186287D01*
X151526470Y-116168845D01*
X151554257Y-116151758D01*
X151582343Y-116134975D01*
X151610679Y-116118444D01*
X151667900Y-116085935D01*
X151725524Y-116053823D01*
X151805696Y-116011495D01*
X151886843Y-115971157D01*
X151968927Y-115932824D01*
X152051912Y-115896513D01*
X152135760Y-115862239D01*
X152220433Y-115830020D01*
X152305896Y-115799870D01*
X152392110Y-115771807D01*
X152434500Y-115757872D01*
X152477122Y-115744674D01*
X152519967Y-115732219D01*
X152563028Y-115720513D01*
X152565177Y-115720513D01*
X152646007Y-115699802D01*
X152727117Y-115680272D01*
X152808494Y-115661924D01*
X152890126Y-115644764D01*
X152971999Y-115628793D01*
X153054101Y-115614014D01*
X153136418Y-115600432D01*
X153218939Y-115588048D01*
X153368491Y-115570962D01*
X153528717Y-115553875D01*
X153551865Y-115551230D01*
X153575045Y-115548883D01*
X153598252Y-115546836D01*
X153621484Y-115545088D01*
X153644737Y-115543639D01*
X153668008Y-115542488D01*
X153691294Y-115541637D01*
X153714591Y-115541085D01*
X153851335Y-115532525D01*
X153877968Y-115531117D01*
X153904950Y-115530060D01*
X153959762Y-115528794D01*
X154015377Y-115528328D01*
X154071399Y-115528261D01*
X154276508Y-115528261D01*
X154645226Y-115535123D01*
X155013602Y-115549661D01*
X155381517Y-115571863D01*
X155748848Y-115601719D01*
X156115477Y-115639220D01*
X156481284Y-115684356D01*
X156846147Y-115737115D01*
X157209947Y-115797487D01*
X157388979Y-115826796D01*
X157567016Y-115854106D01*
X157743857Y-115879811D01*
X157919301Y-115904305D01*
X158262826Y-115949113D01*
X158607065Y-115987909D01*
X158951928Y-116020689D01*
X159297322Y-116047445D01*
X159504032Y-116059202D01*
X159711811Y-116066680D01*
X159920661Y-116069877D01*
X160130580Y-116068795D01*
X160297412Y-116061247D01*
X160461935Y-116045520D01*
X160623950Y-116021814D01*
X160783261Y-115990332D01*
X160939669Y-115951278D01*
X161092978Y-115904853D01*
X161242990Y-115851260D01*
X161389506Y-115790702D01*
X161532330Y-115723381D01*
X161671265Y-115649499D01*
X161806112Y-115569260D01*
X161936674Y-115482866D01*
X162062753Y-115390519D01*
X162184153Y-115292422D01*
X162300675Y-115188777D01*
X162412122Y-115079788D01*
X162518297Y-114965655D01*
X162619001Y-114846583D01*
X162714038Y-114722774D01*
X162803210Y-114594429D01*
X162886319Y-114461752D01*
X162963167Y-114324946D01*
X163033558Y-114184212D01*
X163097294Y-114039753D01*
X163154177Y-113891773D01*
X163204010Y-113740472D01*
X163246595Y-113586055D01*
X163281734Y-113428723D01*
X163309231Y-113268679D01*
X163328887Y-113106125D01*
X163340505Y-112941265D01*
X163343887Y-112774300D01*
X163343887Y-112325612D01*
X165471864Y-112323430D01*
X165471864Y-113135305D01*
G36*
X165471864Y-113135305D02*
G01*
X165455293Y-113726274D01*
X165404489Y-114295856D01*
X165317819Y-114841740D01*
X165260523Y-115105074D01*
X165193649Y-115361617D01*
X165116991Y-115611082D01*
X165030346Y-115853178D01*
X164933508Y-116087617D01*
X164826275Y-116314112D01*
X164708442Y-116532372D01*
X164579804Y-116742109D01*
X164440158Y-116943035D01*
X164289299Y-117134860D01*
X164127022Y-117317297D01*
X163953125Y-117490056D01*
X163767402Y-117652848D01*
X163569649Y-117805386D01*
X163359663Y-117947379D01*
X163137238Y-118078541D01*
X162902171Y-118198580D01*
X162654258Y-118307210D01*
X162393294Y-118404141D01*
X162119075Y-118489085D01*
X161831397Y-118561752D01*
X161530056Y-118621855D01*
X161214847Y-118669104D01*
X160885566Y-118703211D01*
X160542009Y-118723887D01*
X160183972Y-118730843D01*
X159786334Y-118717709D01*
X159389105Y-118697321D01*
X158992381Y-118669690D01*
X158596262Y-118634826D01*
X158200846Y-118592740D01*
X157806230Y-118543441D01*
X157412514Y-118486940D01*
X157019794Y-118423247D01*
X156631617Y-118359818D01*
X156242441Y-118303505D01*
X155852364Y-118254316D01*
X155461486Y-118212260D01*
X155069906Y-118177346D01*
X154677721Y-118149584D01*
X154285032Y-118128983D01*
X153891937Y-118115551D01*
X153766957Y-118111691D01*
X153642302Y-118112999D01*
X153518124Y-118119431D01*
X153394573Y-118130944D01*
X153271802Y-118147495D01*
X153149961Y-118169041D01*
X153029202Y-118195538D01*
X152909678Y-118226942D01*
X152791538Y-118263211D01*
X152674935Y-118304302D01*
X152560020Y-118350171D01*
X152446944Y-118400775D01*
X152335860Y-118456070D01*
X152226917Y-118516013D01*
X152120269Y-118580562D01*
X152016066Y-118649672D01*
X151912103Y-118736268D01*
X151811989Y-118831231D01*
X151716119Y-118934918D01*
X151624887Y-119047687D01*
X151538687Y-119169895D01*
X151457913Y-119301897D01*
X151382961Y-119444051D01*
X151314224Y-119596714D01*
X151252096Y-119760242D01*
X151196973Y-119934992D01*
X151149248Y-120121322D01*
X151109316Y-120319587D01*
X151077572Y-120530146D01*
X151054409Y-120753353D01*
X151040222Y-120989567D01*
X151035405Y-121239144D01*
X149146727Y-121239144D01*
X149145521Y-121112663D01*
X149141934Y-120989567D01*
X149136015Y-120869811D01*
X149127811Y-120753352D01*
X149117371Y-120640144D01*
X149104743Y-120530143D01*
X149089975Y-120423304D01*
X149073116Y-120319583D01*
X149054212Y-120218935D01*
X149033313Y-120121315D01*
X149010467Y-120026680D01*
X148985721Y-119934984D01*
X148959124Y-119846182D01*
X148930724Y-119760231D01*
X148900570Y-119677086D01*
X148868708Y-119596701D01*
X148835188Y-119519033D01*
X148800057Y-119444037D01*
X148763363Y-119371668D01*
X148725156Y-119301882D01*
X148685482Y-119234634D01*
X148644390Y-119169880D01*
X148601928Y-119107574D01*
X148558145Y-119047673D01*
X148466805Y-118934906D01*
X148370755Y-118831221D01*
X148270380Y-118736262D01*
X148166066Y-118649672D01*
X148061860Y-118580562D01*
X147955210Y-118516013D01*
X147846266Y-118456070D01*
X147735181Y-118400775D01*
X147622105Y-118350171D01*
X147507190Y-118304302D01*
X147390587Y-118263211D01*
X147272448Y-118226942D01*
X147152924Y-118195538D01*
X147032167Y-118169041D01*
X146910327Y-118147495D01*
X146787557Y-118130944D01*
X146664007Y-118119431D01*
X146539829Y-118112999D01*
X146415175Y-118111691D01*
X146290195Y-118115551D01*
X145897362Y-118128994D01*
X145504940Y-118149603D01*
X145113026Y-118177368D01*
X144721716Y-118212281D01*
X144331107Y-118254331D01*
X143941296Y-118303510D01*
X143552379Y-118359807D01*
X143164453Y-118423214D01*
X142771484Y-118487195D01*
X142377511Y-118543980D01*
X141982634Y-118593559D01*
X141586950Y-118635922D01*
X141190561Y-118671057D01*
X140793563Y-118698954D01*
X140396058Y-118719602D01*
X139998143Y-118732992D01*
X139640108Y-118726029D01*
X139296552Y-118705336D01*
X138967273Y-118671200D01*
X138652065Y-118623913D01*
X138350725Y-118563762D01*
X138063048Y-118491038D01*
X137788830Y-118406030D01*
X137527867Y-118309028D01*
X137279954Y-118200321D01*
X137044888Y-118080198D01*
X136822465Y-117948950D01*
X136612479Y-117806865D01*
X136414727Y-117654233D01*
X136229004Y-117491344D01*
X136055107Y-117318487D01*
X135892832Y-117135951D01*
X135741973Y-116944027D01*
X135602327Y-116743003D01*
X135473689Y-116533169D01*
X135355856Y-116314814D01*
X135248623Y-116088229D01*
X135151786Y-115853702D01*
X135065141Y-115611523D01*
X134988483Y-115361981D01*
X134864313Y-114841969D01*
X134777643Y-114295980D01*
X134726839Y-113726331D01*
X134710268Y-113135338D01*
X134710268Y-112323464D01*
X136833981Y-112323464D01*
X136833981Y-112776415D01*
X136837578Y-112943332D01*
X136849399Y-113108139D01*
X136869246Y-113270633D01*
X136896922Y-113430612D01*
X136932229Y-113587874D01*
X136974972Y-113742217D01*
X137024951Y-113893440D01*
X137081970Y-114041340D01*
X137145832Y-114185714D01*
X137216339Y-114326362D01*
X137293294Y-114463081D01*
X137376500Y-114595668D01*
X137465759Y-114723923D01*
X137560875Y-114847643D01*
X137661649Y-114966625D01*
X137767885Y-115080669D01*
X137879385Y-115189571D01*
X137995952Y-115293130D01*
X138117388Y-115391144D01*
X138243497Y-115483411D01*
X138374081Y-115569729D01*
X138508943Y-115649895D01*
X138647886Y-115723708D01*
X138790711Y-115790966D01*
X138937223Y-115851466D01*
X139087223Y-115905008D01*
X139240515Y-115951387D01*
X139396900Y-115990404D01*
X139556182Y-116021855D01*
X139718164Y-116045538D01*
X139882648Y-116061252D01*
X140049437Y-116068795D01*
X140259345Y-116069858D01*
X140468185Y-116066650D01*
X140675962Y-116059169D01*
X140882678Y-116047411D01*
X141052898Y-116036611D01*
X141223711Y-116023401D01*
X141394918Y-116007786D01*
X141566318Y-115989773D01*
X141918072Y-115947879D01*
X142269319Y-115901863D01*
X142619999Y-115851730D01*
X142970053Y-115797487D01*
X143333858Y-115737126D01*
X143698724Y-115684374D01*
X144064531Y-115639244D01*
X144431159Y-115601745D01*
X144798488Y-115571886D01*
X145166400Y-115549680D01*
X145534775Y-115535134D01*
X145903493Y-115528261D01*
X146108602Y-115528261D01*
X146328649Y-115532525D01*
X146465393Y-115541085D01*
X146651267Y-115553875D01*
X146813641Y-115570962D01*
X146963193Y-115588082D01*
X147045444Y-115600475D01*
X147127493Y-115614061D01*
X147209328Y-115628839D01*
X147290934Y-115644806D01*
X147372300Y-115661959D01*
X147453413Y-115680296D01*
X147534258Y-115699815D01*
X147614824Y-115720513D01*
X147656825Y-115731836D01*
X147699224Y-115743751D01*
X147720447Y-115750119D01*
X147741619Y-115756862D01*
X147762691Y-115764055D01*
X147783611Y-115771773D01*
X147870362Y-115799769D01*
X147956364Y-115829869D01*
X148041580Y-115862057D01*
X148125970Y-115896320D01*
X148209495Y-115932642D01*
X148292116Y-115971010D01*
X148373795Y-116011408D01*
X148454494Y-116053823D01*
X148482895Y-116069014D01*
X148511123Y-116084523D01*
X148539174Y-116100349D01*
X148567046Y-116116488D01*
X148594735Y-116132940D01*
X148622241Y-116149700D01*
X148649560Y-116166767D01*
X148676689Y-116184139D01*
X148740417Y-116227171D01*
X148803079Y-116271684D01*
X148864650Y-116317658D01*
X148925104Y-116365074D01*
X148984418Y-116413910D01*
X149042564Y-116464147D01*
X149099518Y-116515764D01*
X149155254Y-116568743D01*
X149169113Y-116581583D01*
X149182830Y-116594572D01*
X149196406Y-116607710D01*
X149209837Y-116620994D01*
X149223124Y-116634422D01*
X149236265Y-116647994D01*
X149249259Y-116661707D01*
X149262105Y-116675560D01*
X149293161Y-116709163D01*
X149323673Y-116743248D01*
X149353635Y-116777809D01*
X149383041Y-116812842D01*
X149411883Y-116848341D01*
X149440157Y-116884300D01*
X149467857Y-116920714D01*
X149494975Y-116957576D01*
X149508281Y-116975205D01*
X149521373Y-116992990D01*
X149534249Y-117010930D01*
X149546909Y-117029020D01*
X149559353Y-117047259D01*
X149571580Y-117065642D01*
X149583590Y-117084168D01*
X149595381Y-117102831D01*
X149620519Y-117140791D01*
X149645046Y-117179134D01*
X149668958Y-117217855D01*
X149692250Y-117256948D01*
X149714917Y-117296405D01*
X149736955Y-117336222D01*
X149758358Y-117376391D01*
X149779123Y-117416906D01*
X149791910Y-117440156D01*
X149804363Y-117463580D01*
X149816483Y-117487173D01*
X149828269Y-117510933D01*
X149870986Y-117607076D01*
X149883886Y-117635116D01*
X149896377Y-117663338D01*
X149908458Y-117691737D01*
X149920131Y-117720305D01*
X149967162Y-117842095D01*
X149984338Y-117890881D01*
X150000960Y-117939852D01*
X150017024Y-117989004D01*
X150032530Y-118038333D01*
X150047475Y-118087835D01*
X150061859Y-118137506D01*
X150075679Y-118187343D01*
X150088934Y-118237340D01*
X150101959Y-118186359D01*
X150115434Y-118135929D01*
X150129411Y-118086000D01*
X150143940Y-118036520D01*
X150159071Y-117987440D01*
X150174853Y-117938710D01*
X150191338Y-117890278D01*
X150208576Y-117842095D01*
X150230477Y-117779589D01*
X150236204Y-117764092D01*
X150242232Y-117748946D01*
X150248660Y-117734301D01*
X150252056Y-117727213D01*
X150255589Y-117720305D01*
X150306867Y-117607076D01*
X150349584Y-117510933D01*
X150394449Y-117416906D01*
X150415549Y-117376413D01*
X150437267Y-117336260D01*
X150459599Y-117296453D01*
X150482541Y-117256998D01*
X150506090Y-117217902D01*
X150530242Y-117179172D01*
X150554993Y-117140813D01*
X150580339Y-117102831D01*
X150592131Y-117084168D01*
X150604142Y-117065642D01*
X150616372Y-117047259D01*
X150628817Y-117029020D01*
X150641479Y-117010930D01*
X150654355Y-116992990D01*
X150667444Y-116975205D01*
X150680745Y-116957576D01*
X150707869Y-116920714D01*
X150735573Y-116884300D01*
X150763850Y-116848341D01*
X150792695Y-116812842D01*
X150822101Y-116777809D01*
X150852064Y-116743248D01*
X150882576Y-116709163D01*
X150913632Y-116675560D01*
X150926477Y-116661696D01*
X150939469Y-116647975D01*
X150952607Y-116634398D01*
X150965891Y-116620968D01*
X150979320Y-116607686D01*
X150992893Y-116594553D01*
X151006608Y-116581572D01*
X151020467Y-116568743D01*
X151076273Y-116516095D01*
X151133275Y-116464789D01*
X151191447Y-116414846D01*
X151250767Y-116366286D01*
X151311209Y-116319130D01*
X151372750Y-116273398D01*
X151435366Y-116229110D01*
X151499031Y-116186287D01*
X151526470Y-116168845D01*
X151554257Y-116151758D01*
X151582343Y-116134975D01*
X151610679Y-116118444D01*
X151667900Y-116085935D01*
X151725524Y-116053823D01*
X151805696Y-116011495D01*
X151886843Y-115971157D01*
X151968927Y-115932824D01*
X152051912Y-115896513D01*
X152135760Y-115862239D01*
X152220433Y-115830020D01*
X152305896Y-115799870D01*
X152392110Y-115771807D01*
X152434500Y-115757872D01*
X152477122Y-115744674D01*
X152519967Y-115732219D01*
X152563028Y-115720513D01*
X152565177Y-115720513D01*
X152646007Y-115699802D01*
X152727117Y-115680272D01*
X152808494Y-115661924D01*
X152890126Y-115644764D01*
X152971999Y-115628793D01*
X153054101Y-115614014D01*
X153136418Y-115600432D01*
X153218939Y-115588048D01*
X153368491Y-115570962D01*
X153528717Y-115553875D01*
X153551865Y-115551230D01*
X153575045Y-115548883D01*
X153598252Y-115546836D01*
X153621484Y-115545088D01*
X153644737Y-115543639D01*
X153668008Y-115542488D01*
X153691294Y-115541637D01*
X153714591Y-115541085D01*
X153851335Y-115532525D01*
X153877968Y-115531117D01*
X153904950Y-115530060D01*
X153959762Y-115528794D01*
X154015377Y-115528328D01*
X154071399Y-115528261D01*
X154276508Y-115528261D01*
X154645226Y-115535123D01*
X155013602Y-115549661D01*
X155381517Y-115571863D01*
X155748848Y-115601719D01*
X156115477Y-115639220D01*
X156481284Y-115684356D01*
X156846147Y-115737115D01*
X157209947Y-115797487D01*
X157388979Y-115826796D01*
X157567016Y-115854106D01*
X157743857Y-115879811D01*
X157919301Y-115904305D01*
X158262826Y-115949113D01*
X158607065Y-115987909D01*
X158951928Y-116020689D01*
X159297322Y-116047445D01*
X159504032Y-116059202D01*
X159711811Y-116066680D01*
X159920661Y-116069877D01*
X160130580Y-116068795D01*
X160297412Y-116061247D01*
X160461935Y-116045520D01*
X160623950Y-116021814D01*
X160783261Y-115990332D01*
X160939669Y-115951278D01*
X161092978Y-115904853D01*
X161242990Y-115851260D01*
X161389506Y-115790702D01*
X161532330Y-115723381D01*
X161671265Y-115649499D01*
X161806112Y-115569260D01*
X161936674Y-115482866D01*
X162062753Y-115390519D01*
X162184153Y-115292422D01*
X162300675Y-115188777D01*
X162412122Y-115079788D01*
X162518297Y-114965655D01*
X162619001Y-114846583D01*
X162714038Y-114722774D01*
X162803210Y-114594429D01*
X162886319Y-114461752D01*
X162963167Y-114324946D01*
X163033558Y-114184212D01*
X163097294Y-114039753D01*
X163154177Y-113891773D01*
X163204010Y-113740472D01*
X163246595Y-113586055D01*
X163281734Y-113428723D01*
X163309231Y-113268679D01*
X163328887Y-113106125D01*
X163340505Y-112941265D01*
X163343887Y-112774300D01*
X163343887Y-112325612D01*
X165471864Y-112323430D01*
X165471864Y-113135305D01*
G37*
D13*
G36*
X203927367Y-105023074D02*
G01*
X203927357Y-105023471D01*
X203927357Y-105022677D01*
X203927367Y-105023074D01*
G37*
D11*
X149809970Y-101084771D02*
X149809970Y-102969750D01*
X139408694Y-92570519D01*
X141295733Y-92570519D01*
X149809970Y-101084771D01*
G36*
X149809970Y-101084771D02*
G01*
X149809970Y-102969750D01*
X139408694Y-92570519D01*
X141295733Y-92570519D01*
X149809970Y-101084771D01*
G37*
X160957950Y-106533104D02*
X160957950Y-108417046D01*
X156275317Y-103735985D01*
X158160815Y-103735985D01*
X160957950Y-106533104D01*
G36*
X160957950Y-106533104D02*
G01*
X160957950Y-108417046D01*
X156275317Y-103735985D01*
X158160815Y-103735985D01*
X160957950Y-106533104D01*
G37*
X149809985Y-98235192D02*
X149809985Y-100120659D01*
X142260318Y-92570519D01*
X144145816Y-92570519D01*
X149809985Y-98235192D01*
G36*
X149809985Y-98235192D02*
G01*
X149809985Y-100120659D01*
X142260318Y-92570519D01*
X144145816Y-92570519D01*
X149809985Y-98235192D01*
G37*
D14*
X144352389Y-105200066D02*
X144523972Y-105202754D01*
X144689921Y-105210726D01*
X144850249Y-105223848D01*
X145004968Y-105241985D01*
X145154090Y-105265001D01*
X145297628Y-105292762D01*
X145435592Y-105325132D01*
X145567997Y-105361977D01*
X145694854Y-105403160D01*
X145816175Y-105448547D01*
X145931973Y-105498003D01*
X146042259Y-105551393D01*
X146147046Y-105608581D01*
X146246347Y-105669433D01*
X146340173Y-105733813D01*
X146428536Y-105801587D01*
X146511450Y-105872618D01*
X146588926Y-105946772D01*
X146660975Y-106023915D01*
X146727612Y-106103909D01*
X146788847Y-106186622D01*
X146844694Y-106271917D01*
X146895163Y-106359659D01*
X146940268Y-106449714D01*
X146980021Y-106541945D01*
X147014434Y-106636219D01*
X147043519Y-106732399D01*
X147067288Y-106830352D01*
X147085754Y-106929941D01*
X147098929Y-107031031D01*
X147106825Y-107133488D01*
X147109454Y-107237175D01*
X147098545Y-107455543D01*
X147066747Y-107655725D01*
X147015451Y-107838697D01*
X146946051Y-108005438D01*
X146859939Y-108156924D01*
X146758508Y-108294131D01*
X146643151Y-108418037D01*
X146515260Y-108529619D01*
X146376228Y-108629853D01*
X146227448Y-108719717D01*
X146070311Y-108800187D01*
X145906211Y-108872240D01*
X145562693Y-108995005D01*
X145208034Y-109095826D01*
X144509856Y-109262897D01*
X144188620Y-109344779D01*
X143900807Y-109435977D01*
X143772916Y-109487513D01*
X143657559Y-109544309D01*
X143556128Y-109607342D01*
X143470016Y-109677589D01*
X143400616Y-109756027D01*
X143349321Y-109843633D01*
X143317522Y-109941383D01*
X143306613Y-110050255D01*
X143310924Y-110124351D01*
X143324021Y-110195750D01*
X143346152Y-110264165D01*
X143377562Y-110329309D01*
X143418500Y-110390893D01*
X143469212Y-110448631D01*
X143529945Y-110502236D01*
X143600946Y-110551419D01*
X143682461Y-110595893D01*
X143774738Y-110635371D01*
X143878024Y-110669564D01*
X143992565Y-110698187D01*
X144118609Y-110720951D01*
X144256403Y-110737568D01*
X144406192Y-110747751D01*
X144568225Y-110751214D01*
X144712647Y-110747383D01*
X144856466Y-110738166D01*
X144999539Y-110723607D01*
X145141724Y-110703750D01*
X145282876Y-110678642D01*
X145422854Y-110648327D01*
X145561514Y-110612851D01*
X145698714Y-110572258D01*
X145834311Y-110526595D01*
X145968162Y-110475905D01*
X146100123Y-110420234D01*
X146230053Y-110359628D01*
X146357808Y-110294131D01*
X146483245Y-110223789D01*
X146606222Y-110148647D01*
X146726596Y-110068749D01*
X147239417Y-111206703D01*
X147090663Y-111299846D01*
X146937757Y-111387711D01*
X146781976Y-111469561D01*
X146623498Y-111545344D01*
X146462504Y-111615010D01*
X146299174Y-111678508D01*
X146133687Y-111735786D01*
X145966224Y-111786793D01*
X145796964Y-111831479D01*
X145626089Y-111869791D01*
X145453776Y-111901680D01*
X145280208Y-111927094D01*
X145105563Y-111945981D01*
X144930021Y-111958291D01*
X144753763Y-111963973D01*
X144576968Y-111962975D01*
X144404612Y-111960260D01*
X144237881Y-111952210D01*
X144076768Y-111938967D01*
X143921260Y-111920674D01*
X143771349Y-111897471D01*
X143627023Y-111869503D01*
X143488273Y-111836910D01*
X143355089Y-111799836D01*
X143227460Y-111758421D01*
X143105376Y-111712809D01*
X142988827Y-111663142D01*
X142877804Y-111609561D01*
X142772295Y-111552209D01*
X142672290Y-111491228D01*
X142577781Y-111426760D01*
X142488755Y-111358948D01*
X142405204Y-111287934D01*
X142327117Y-111213859D01*
X142254483Y-111136866D01*
X142187294Y-111057098D01*
X142125537Y-110974695D01*
X142069205Y-110889802D01*
X142018285Y-110802559D01*
X141972769Y-110713109D01*
X141932645Y-110621593D01*
X141897904Y-110528156D01*
X141868536Y-110432937D01*
X141844530Y-110336080D01*
X141825877Y-110237727D01*
X141812565Y-110138020D01*
X141804586Y-110037101D01*
X141801929Y-109935112D01*
X141812838Y-109719335D01*
X141844636Y-109521535D01*
X141895932Y-109340748D01*
X141965332Y-109176009D01*
X142051444Y-109026352D01*
X142152874Y-108890812D01*
X142268232Y-108768424D01*
X142396122Y-108658224D01*
X142535155Y-108559245D01*
X142683935Y-108470522D01*
X142841072Y-108391091D01*
X143005171Y-108319986D01*
X143348690Y-108198894D01*
X143703349Y-108099526D01*
X144401527Y-107935073D01*
X144722763Y-107854547D01*
X145010576Y-107764858D01*
X145138467Y-107714165D01*
X145253824Y-107658286D01*
X145355255Y-107596256D01*
X145441366Y-107527109D01*
X145510766Y-107449881D01*
X145562062Y-107363607D01*
X145593861Y-107267321D01*
X145604770Y-107160058D01*
X145600672Y-107083913D01*
X145588178Y-107009910D01*
X145566984Y-106938431D01*
X145536789Y-106869857D01*
X145497289Y-106804572D01*
X145473955Y-106773282D01*
X145448182Y-106742958D01*
X145419931Y-106713647D01*
X145389165Y-106685397D01*
X145355846Y-106658256D01*
X145319936Y-106632271D01*
X145240192Y-106583964D01*
X145149631Y-106540856D01*
X145047950Y-106503332D01*
X144934846Y-106471773D01*
X144810017Y-106446561D01*
X144673161Y-106428079D01*
X144523974Y-106416709D01*
X144362155Y-106412835D01*
X144242594Y-106416950D01*
X144123448Y-106424917D01*
X144004808Y-106436712D01*
X143886762Y-106452309D01*
X143769401Y-106471682D01*
X143652813Y-106494806D01*
X143537088Y-106521655D01*
X143422315Y-106552205D01*
X143308583Y-106586429D01*
X143195983Y-106624302D01*
X143084603Y-106665799D01*
X142974532Y-106710895D01*
X142865861Y-106759563D01*
X142758679Y-106811779D01*
X142653074Y-106867516D01*
X142549136Y-106926751D01*
X142080981Y-105779229D01*
X142211559Y-105707370D01*
X142344229Y-105640120D01*
X142478870Y-105577510D01*
X142615356Y-105519571D01*
X142753567Y-105466334D01*
X142893377Y-105417831D01*
X143034665Y-105374093D01*
X143177306Y-105335152D01*
X143321178Y-105301039D01*
X143466157Y-105271785D01*
X143612121Y-105247422D01*
X143758946Y-105227981D01*
X143906508Y-105213494D01*
X144054685Y-105203991D01*
X144203353Y-105199505D01*
X144352389Y-105200066D01*
G36*
X144352389Y-105200066D02*
G01*
X144523972Y-105202754D01*
X144689921Y-105210726D01*
X144850249Y-105223848D01*
X145004968Y-105241985D01*
X145154090Y-105265001D01*
X145297628Y-105292762D01*
X145435592Y-105325132D01*
X145567997Y-105361977D01*
X145694854Y-105403160D01*
X145816175Y-105448547D01*
X145931973Y-105498003D01*
X146042259Y-105551393D01*
X146147046Y-105608581D01*
X146246347Y-105669433D01*
X146340173Y-105733813D01*
X146428536Y-105801587D01*
X146511450Y-105872618D01*
X146588926Y-105946772D01*
X146660975Y-106023915D01*
X146727612Y-106103909D01*
X146788847Y-106186622D01*
X146844694Y-106271917D01*
X146895163Y-106359659D01*
X146940268Y-106449714D01*
X146980021Y-106541945D01*
X147014434Y-106636219D01*
X147043519Y-106732399D01*
X147067288Y-106830352D01*
X147085754Y-106929941D01*
X147098929Y-107031031D01*
X147106825Y-107133488D01*
X147109454Y-107237175D01*
X147098545Y-107455543D01*
X147066747Y-107655725D01*
X147015451Y-107838697D01*
X146946051Y-108005438D01*
X146859939Y-108156924D01*
X146758508Y-108294131D01*
X146643151Y-108418037D01*
X146515260Y-108529619D01*
X146376228Y-108629853D01*
X146227448Y-108719717D01*
X146070311Y-108800187D01*
X145906211Y-108872240D01*
X145562693Y-108995005D01*
X145208034Y-109095826D01*
X144509856Y-109262897D01*
X144188620Y-109344779D01*
X143900807Y-109435977D01*
X143772916Y-109487513D01*
X143657559Y-109544309D01*
X143556128Y-109607342D01*
X143470016Y-109677589D01*
X143400616Y-109756027D01*
X143349321Y-109843633D01*
X143317522Y-109941383D01*
X143306613Y-110050255D01*
X143310924Y-110124351D01*
X143324021Y-110195750D01*
X143346152Y-110264165D01*
X143377562Y-110329309D01*
X143418500Y-110390893D01*
X143469212Y-110448631D01*
X143529945Y-110502236D01*
X143600946Y-110551419D01*
X143682461Y-110595893D01*
X143774738Y-110635371D01*
X143878024Y-110669564D01*
X143992565Y-110698187D01*
X144118609Y-110720951D01*
X144256403Y-110737568D01*
X144406192Y-110747751D01*
X144568225Y-110751214D01*
X144712647Y-110747383D01*
X144856466Y-110738166D01*
X144999539Y-110723607D01*
X145141724Y-110703750D01*
X145282876Y-110678642D01*
X145422854Y-110648327D01*
X145561514Y-110612851D01*
X145698714Y-110572258D01*
X145834311Y-110526595D01*
X145968162Y-110475905D01*
X146100123Y-110420234D01*
X146230053Y-110359628D01*
X146357808Y-110294131D01*
X146483245Y-110223789D01*
X146606222Y-110148647D01*
X146726596Y-110068749D01*
X147239417Y-111206703D01*
X147090663Y-111299846D01*
X146937757Y-111387711D01*
X146781976Y-111469561D01*
X146623498Y-111545344D01*
X146462504Y-111615010D01*
X146299174Y-111678508D01*
X146133687Y-111735786D01*
X145966224Y-111786793D01*
X145796964Y-111831479D01*
X145626089Y-111869791D01*
X145453776Y-111901680D01*
X145280208Y-111927094D01*
X145105563Y-111945981D01*
X144930021Y-111958291D01*
X144753763Y-111963973D01*
X144576968Y-111962975D01*
X144404612Y-111960260D01*
X144237881Y-111952210D01*
X144076768Y-111938967D01*
X143921260Y-111920674D01*
X143771349Y-111897471D01*
X143627023Y-111869503D01*
X143488273Y-111836910D01*
X143355089Y-111799836D01*
X143227460Y-111758421D01*
X143105376Y-111712809D01*
X142988827Y-111663142D01*
X142877804Y-111609561D01*
X142772295Y-111552209D01*
X142672290Y-111491228D01*
X142577781Y-111426760D01*
X142488755Y-111358948D01*
X142405204Y-111287934D01*
X142327117Y-111213859D01*
X142254483Y-111136866D01*
X142187294Y-111057098D01*
X142125537Y-110974695D01*
X142069205Y-110889802D01*
X142018285Y-110802559D01*
X141972769Y-110713109D01*
X141932645Y-110621593D01*
X141897904Y-110528156D01*
X141868536Y-110432937D01*
X141844530Y-110336080D01*
X141825877Y-110237727D01*
X141812565Y-110138020D01*
X141804586Y-110037101D01*
X141801929Y-109935112D01*
X141812838Y-109719335D01*
X141844636Y-109521535D01*
X141895932Y-109340748D01*
X141965332Y-109176009D01*
X142051444Y-109026352D01*
X142152874Y-108890812D01*
X142268232Y-108768424D01*
X142396122Y-108658224D01*
X142535155Y-108559245D01*
X142683935Y-108470522D01*
X142841072Y-108391091D01*
X143005171Y-108319986D01*
X143348690Y-108198894D01*
X143703349Y-108099526D01*
X144401527Y-107935073D01*
X144722763Y-107854547D01*
X145010576Y-107764858D01*
X145138467Y-107714165D01*
X145253824Y-107658286D01*
X145355255Y-107596256D01*
X145441366Y-107527109D01*
X145510766Y-107449881D01*
X145562062Y-107363607D01*
X145593861Y-107267321D01*
X145604770Y-107160058D01*
X145600672Y-107083913D01*
X145588178Y-107009910D01*
X145566984Y-106938431D01*
X145536789Y-106869857D01*
X145497289Y-106804572D01*
X145473955Y-106773282D01*
X145448182Y-106742958D01*
X145419931Y-106713647D01*
X145389165Y-106685397D01*
X145355846Y-106658256D01*
X145319936Y-106632271D01*
X145240192Y-106583964D01*
X145149631Y-106540856D01*
X145047950Y-106503332D01*
X144934846Y-106471773D01*
X144810017Y-106446561D01*
X144673161Y-106428079D01*
X144523974Y-106416709D01*
X144362155Y-106412835D01*
X144242594Y-106416950D01*
X144123448Y-106424917D01*
X144004808Y-106436712D01*
X143886762Y-106452309D01*
X143769401Y-106471682D01*
X143652813Y-106494806D01*
X143537088Y-106521655D01*
X143422315Y-106552205D01*
X143308583Y-106586429D01*
X143195983Y-106624302D01*
X143084603Y-106665799D01*
X142974532Y-106710895D01*
X142865861Y-106759563D01*
X142758679Y-106811779D01*
X142653074Y-106867516D01*
X142549136Y-106926751D01*
X142080981Y-105779229D01*
X142211559Y-105707370D01*
X142344229Y-105640120D01*
X142478870Y-105577510D01*
X142615356Y-105519571D01*
X142753567Y-105466334D01*
X142893377Y-105417831D01*
X143034665Y-105374093D01*
X143177306Y-105335152D01*
X143321178Y-105301039D01*
X143466157Y-105271785D01*
X143612121Y-105247422D01*
X143758946Y-105227981D01*
X143906508Y-105213494D01*
X144054685Y-105203991D01*
X144203353Y-105199505D01*
X144352389Y-105200066D01*
G37*
D11*
X159493335Y-113618859D02*
X159425918Y-113629903D01*
X159358291Y-113639392D01*
X159290481Y-113647322D01*
X159222516Y-113653691D01*
X159154423Y-113658496D01*
X159086229Y-113661736D01*
X159017962Y-113663406D01*
X158949649Y-113663506D01*
X158833140Y-113661964D01*
X158715705Y-113657654D01*
X158598006Y-113651050D01*
X158480706Y-113642624D01*
X158249951Y-113622204D01*
X158028735Y-113600182D01*
X157903922Y-113586927D01*
X157779111Y-113572442D01*
X157654108Y-113556674D01*
X157528720Y-113539574D01*
X150379886Y-106390770D01*
X150379886Y-104505272D01*
X159493335Y-113618859D01*
G36*
X159493335Y-113618859D02*
G01*
X159425918Y-113629903D01*
X159358291Y-113639392D01*
X159290481Y-113647322D01*
X159222516Y-113653691D01*
X159154423Y-113658496D01*
X159086229Y-113661736D01*
X159017962Y-113663406D01*
X158949649Y-113663506D01*
X158833140Y-113661964D01*
X158715705Y-113657654D01*
X158598006Y-113651050D01*
X158480706Y-113642624D01*
X158249951Y-113622204D01*
X158028735Y-113600182D01*
X157903922Y-113586927D01*
X157779111Y-113572442D01*
X157654108Y-113556674D01*
X157528720Y-113539574D01*
X150379886Y-106390770D01*
X150379886Y-104505272D01*
X159493335Y-113618859D01*
G37*
X149040683Y-103166070D02*
X147155200Y-103166070D01*
X139231921Y-95242821D01*
X139231921Y-93357293D01*
X149040683Y-103166070D01*
G36*
X149040683Y-103166070D02*
G01*
X147155200Y-103166070D01*
X139231921Y-95242821D01*
X139231921Y-93357293D01*
X149040683Y-103166070D01*
G37*
X160957965Y-105568505D02*
X159125415Y-103735985D01*
X160957965Y-103735985D01*
X160957965Y-105568505D01*
G36*
X160957965Y-105568505D02*
G01*
X159125415Y-103735985D01*
X160957965Y-103735985D01*
X160957965Y-105568505D01*
G37*
X146995364Y-92571007D02*
X149809970Y-95385643D01*
X149809970Y-97270592D01*
X145109866Y-92570519D01*
X146995364Y-92571007D01*
G36*
X146995364Y-92571007D02*
G01*
X149809970Y-95385643D01*
X149809970Y-97270592D01*
X145109866Y-92570519D01*
X146995364Y-92571007D01*
G37*
D12*
X136833965Y-110407024D02*
X134710251Y-110407024D01*
X134710251Y-94699328D01*
X136833965Y-94699328D01*
X136833965Y-110407024D01*
G36*
X136833965Y-110407024D02*
G01*
X134710251Y-110407024D01*
X134710251Y-94699328D01*
X136833965Y-94699328D01*
X136833965Y-110407024D01*
G37*
X165469716Y-110407024D02*
X163346019Y-110407024D01*
X163346019Y-94699328D01*
X165469716Y-94699328D01*
X165469716Y-110407024D01*
G36*
X165469716Y-110407024D02*
G01*
X163346019Y-110407024D01*
X163346019Y-94699328D01*
X165469716Y-94699328D01*
X165469716Y-110407024D01*
G37*
D11*
X160923526Y-112198815D02*
X160904256Y-112284802D01*
X160880975Y-112369417D01*
X160853764Y-112452536D01*
X160822706Y-112534034D01*
X160787880Y-112613786D01*
X160749368Y-112691667D01*
X160707252Y-112767554D01*
X160661613Y-112841321D01*
X160612531Y-112912843D01*
X160560088Y-112981998D01*
X160504366Y-113048658D01*
X160445445Y-113112701D01*
X160383406Y-113174002D01*
X160318332Y-113232435D01*
X160250303Y-113287877D01*
X160179400Y-113340203D01*
X150575168Y-103735985D01*
X152461703Y-103735985D01*
X160923526Y-112198815D01*
G36*
X160923526Y-112198815D02*
G01*
X160904256Y-112284802D01*
X160880975Y-112369417D01*
X160853764Y-112452536D01*
X160822706Y-112534034D01*
X160787880Y-112613786D01*
X160749368Y-112691667D01*
X160707252Y-112767554D01*
X160661613Y-112841321D01*
X160612531Y-112912843D01*
X160560088Y-112981998D01*
X160504366Y-113048658D01*
X160445445Y-113112701D01*
X160383406Y-113174002D01*
X160318332Y-113232435D01*
X160250303Y-113287877D01*
X160179400Y-113340203D01*
X150575168Y-103735985D01*
X152461703Y-103735985D01*
X160923526Y-112198815D01*
G37*
X151085986Y-113759087D02*
X150992829Y-113809103D01*
X150900987Y-113861401D01*
X150810503Y-113915952D01*
X150721417Y-113972729D01*
X150633772Y-114031705D01*
X150547607Y-114092853D01*
X150462964Y-114156144D01*
X150379886Y-114221550D01*
X150379886Y-113054986D01*
X151085986Y-113759087D01*
G36*
X151085986Y-113759087D02*
G01*
X150992829Y-113809103D01*
X150900987Y-113861401D01*
X150810503Y-113915952D01*
X150721417Y-113972729D01*
X150633772Y-114031705D01*
X150547607Y-114092853D01*
X150462964Y-114156144D01*
X150379886Y-114221550D01*
X150379886Y-113054986D01*
X151085986Y-113759087D01*
G37*
X149809985Y-94420525D02*
X147959964Y-92570519D01*
X149809985Y-92570519D01*
X149809985Y-94420525D01*
G36*
X149809985Y-94420525D02*
G01*
X147959964Y-92570519D01*
X149809985Y-92570519D01*
X149809985Y-94420525D01*
G37*
D13*
G36*
X186456042Y-107602749D02*
G01*
X186455861Y-107603152D01*
X186455861Y-107602618D01*
X186456042Y-107602749D01*
G37*
D14*
X161485736Y-103735894D02*
X161485736Y-111850426D01*
X161485234Y-111902866D01*
X161484576Y-111929086D01*
X161483621Y-111955304D01*
X161482347Y-111981517D01*
X161480734Y-112007724D01*
X161478763Y-112033923D01*
X161476413Y-112060112D01*
X161460136Y-112192366D01*
X161436604Y-112322764D01*
X161405973Y-112451045D01*
X161368399Y-112576949D01*
X161324037Y-112700213D01*
X161273043Y-112820579D01*
X161215574Y-112937784D01*
X161151786Y-113051568D01*
X161081834Y-113161669D01*
X161005873Y-113267828D01*
X160924062Y-113369782D01*
X160836554Y-113467272D01*
X160743506Y-113560036D01*
X160645074Y-113647814D01*
X160541414Y-113730344D01*
X160432681Y-113807366D01*
X160348420Y-113856898D01*
X160262579Y-113903134D01*
X160175256Y-113946048D01*
X160086548Y-113985614D01*
X159996553Y-114021809D01*
X159905369Y-114054607D01*
X159813093Y-114083982D01*
X159719823Y-114109910D01*
X159625656Y-114132365D01*
X159530690Y-114151322D01*
X159435022Y-114166757D01*
X159338750Y-114178644D01*
X159241971Y-114186957D01*
X159144784Y-114191673D01*
X159047285Y-114192765D01*
X158949573Y-114190209D01*
X158827208Y-114187397D01*
X158704904Y-114183034D01*
X158582673Y-114177123D01*
X158460532Y-114169663D01*
X158338496Y-114160655D01*
X158216579Y-114150100D01*
X158094796Y-114137999D01*
X157973163Y-114124352D01*
X157600202Y-114081438D01*
X157228365Y-114031515D01*
X156486404Y-113921177D01*
X155743955Y-113814404D01*
X155371511Y-113768938D01*
X154997699Y-113732262D01*
X154737954Y-113712758D01*
X154477578Y-113697876D01*
X154347200Y-113692409D01*
X154216719Y-113688386D01*
X154086154Y-113685901D01*
X153955524Y-113685051D01*
X153721798Y-113685583D01*
X153488448Y-113694257D01*
X153255684Y-113711046D01*
X153023717Y-113735924D01*
X152792758Y-113768865D01*
X152563017Y-113809841D01*
X152334706Y-113858826D01*
X152108035Y-113915795D01*
X151959665Y-113959106D01*
X151813633Y-114008322D01*
X151670098Y-114063337D01*
X151529219Y-114124043D01*
X151391155Y-114190334D01*
X151256067Y-114262102D01*
X151124113Y-114339242D01*
X150995452Y-114421647D01*
X150870244Y-114509209D01*
X150748649Y-114601822D01*
X150630825Y-114699379D01*
X150516932Y-114801774D01*
X150407129Y-114908899D01*
X150301575Y-115020648D01*
X150200431Y-115136915D01*
X150103854Y-115257592D01*
X150101045Y-115261628D01*
X150099779Y-115263430D01*
X150098561Y-115265118D01*
X150097362Y-115266716D01*
X150096149Y-115268248D01*
X150094890Y-115269735D01*
X150093555Y-115271203D01*
X150082675Y-115257592D01*
X149986099Y-115136915D01*
X149884954Y-115020648D01*
X149779401Y-114908899D01*
X149669597Y-114801774D01*
X149555704Y-114699379D01*
X149437880Y-114601822D01*
X149316284Y-114509209D01*
X149191075Y-114421647D01*
X149062414Y-114339242D01*
X148930459Y-114262102D01*
X148795369Y-114190334D01*
X148657304Y-114124043D01*
X148516423Y-114063337D01*
X148372886Y-114008322D01*
X148226851Y-113959106D01*
X148078479Y-113915795D01*
X147851496Y-113858755D01*
X147622869Y-113809716D01*
X147392809Y-113768706D01*
X147161529Y-113735753D01*
X146929240Y-113710883D01*
X146696154Y-113694124D01*
X146462484Y-113685505D01*
X146228442Y-113685051D01*
X146097961Y-113685940D01*
X145967466Y-113688519D01*
X145836994Y-113692659D01*
X145706582Y-113698231D01*
X145446085Y-113713157D01*
X145186267Y-113732262D01*
X144812455Y-113769074D01*
X144440011Y-113814563D01*
X143697562Y-113921189D01*
X142955600Y-114031374D01*
X142583764Y-114081311D01*
X142210803Y-114124352D01*
X142089171Y-114137999D01*
X141967390Y-114150100D01*
X141845475Y-114160655D01*
X141723441Y-114169663D01*
X141601303Y-114177123D01*
X141479075Y-114183034D01*
X141356772Y-114187397D01*
X141234408Y-114190209D01*
X141136699Y-114192754D01*
X141039203Y-114191653D01*
X140942018Y-114186930D01*
X140845242Y-114178609D01*
X140748972Y-114166718D01*
X140653306Y-114151279D01*
X140558341Y-114132320D01*
X140464175Y-114109864D01*
X140370905Y-114083937D01*
X140278629Y-114054564D01*
X140187444Y-114021770D01*
X140097448Y-113985580D01*
X140008738Y-113946020D01*
X139921412Y-113903114D01*
X139835566Y-113856887D01*
X139751300Y-113807366D01*
X139642565Y-113730344D01*
X139538903Y-113647814D01*
X139440470Y-113560036D01*
X139347421Y-113467272D01*
X139259912Y-113369782D01*
X139178100Y-113267828D01*
X139102140Y-113161669D01*
X139032188Y-113051568D01*
X138968399Y-112937784D01*
X138910930Y-112820579D01*
X138859936Y-112700213D01*
X138815574Y-112576949D01*
X138777998Y-112451045D01*
X138747366Y-112322764D01*
X138723832Y-112192366D01*
X138707553Y-112060112D01*
X138705255Y-112033893D01*
X138703309Y-112007672D01*
X138701700Y-111981452D01*
X138700414Y-111955235D01*
X138699438Y-111929022D01*
X138698757Y-111902815D01*
X138698230Y-111850426D01*
X138698230Y-103736016D01*
X139231845Y-103736016D01*
X139231906Y-111850945D01*
X139232022Y-111872492D01*
X139232363Y-111893603D01*
X139233676Y-111934674D01*
X139235755Y-111974468D01*
X139238513Y-112013299D01*
X139251137Y-112115850D01*
X139269380Y-112216963D01*
X139293123Y-112316436D01*
X139322245Y-112414068D01*
X139356625Y-112509656D01*
X139396143Y-112602999D01*
X139440678Y-112693894D01*
X139490109Y-112782139D01*
X139544317Y-112867533D01*
X139603180Y-112949874D01*
X139666577Y-113028960D01*
X139734389Y-113104589D01*
X139806494Y-113176558D01*
X139882773Y-113244666D01*
X139963104Y-113308712D01*
X140047366Y-113368493D01*
X140115314Y-113407660D01*
X140184512Y-113444159D01*
X140254879Y-113477970D01*
X140326338Y-113509073D01*
X140398809Y-113537449D01*
X140472213Y-113563078D01*
X140546470Y-113585940D01*
X140621501Y-113606015D01*
X140697228Y-113623284D01*
X140773570Y-113637727D01*
X140850450Y-113649324D01*
X140927787Y-113658055D01*
X141005503Y-113663902D01*
X141083518Y-113666843D01*
X141161754Y-113666861D01*
X141240130Y-113663933D01*
X141356491Y-113662401D01*
X141473856Y-113658115D01*
X141591546Y-113651545D01*
X141708880Y-113643158D01*
X141939762Y-113622812D01*
X142161059Y-113600823D01*
X142495789Y-113562296D01*
X142831628Y-113517693D01*
X143497195Y-113420006D01*
X143902202Y-113359652D01*
X144312556Y-113301548D01*
X144727248Y-113249619D01*
X144935904Y-113227196D01*
X145145267Y-113207787D01*
X145436409Y-113185890D01*
X145713054Y-113169732D01*
X145977271Y-113159730D01*
X146105365Y-113157169D01*
X146231128Y-113156304D01*
X146483072Y-113157113D01*
X146734608Y-113166686D01*
X146985507Y-113184993D01*
X147235541Y-113212006D01*
X147484485Y-113247697D01*
X147732109Y-113292037D01*
X147978187Y-113344996D01*
X148222491Y-113406548D01*
X148330316Y-113438381D01*
X148437196Y-113472855D01*
X148543085Y-113509947D01*
X148647937Y-113549632D01*
X148751705Y-113591888D01*
X148854344Y-113636690D01*
X148955806Y-113684014D01*
X149056045Y-113733838D01*
X149155015Y-113786136D01*
X149252669Y-113840886D01*
X149348961Y-113898064D01*
X149443845Y-113957645D01*
X149537274Y-114019607D01*
X149629202Y-114083925D01*
X149719582Y-114150576D01*
X149808368Y-114219536D01*
X149808368Y-103736016D01*
X150379840Y-103736016D01*
X150379886Y-114221550D01*
X150468706Y-114152634D01*
X150559114Y-114086021D01*
X150651065Y-114021735D01*
X150744512Y-113959801D01*
X150839408Y-113900241D01*
X150935708Y-113843078D01*
X151033366Y-113788338D01*
X151132335Y-113736043D01*
X151232569Y-113686216D01*
X151334023Y-113638881D01*
X151436649Y-113594063D01*
X151540402Y-113551784D01*
X151645237Y-113512067D01*
X151751105Y-113474938D01*
X151857963Y-113440418D01*
X151965762Y-113408532D01*
X152210071Y-113346990D01*
X152456153Y-113294038D01*
X152703779Y-113249704D01*
X152952724Y-113214016D01*
X153202758Y-113187005D01*
X153453654Y-113168699D01*
X153705186Y-113159127D01*
X153957126Y-113158318D01*
X154082895Y-113159056D01*
X154211005Y-113161307D01*
X154341728Y-113165129D01*
X154475335Y-113170578D01*
X154612097Y-113177713D01*
X154752285Y-113186591D01*
X154896170Y-113197268D01*
X155044025Y-113209801D01*
X155253045Y-113229186D01*
X155461446Y-113251604D01*
X155875835Y-113303551D01*
X156286080Y-113361679D01*
X156691073Y-113422020D01*
X157357791Y-113519799D01*
X157693344Y-113564353D01*
X158027209Y-113602837D01*
X158248425Y-113624826D01*
X158479180Y-113645173D01*
X158596480Y-113653559D01*
X158714179Y-113660129D01*
X158831614Y-113664415D01*
X158948123Y-113665947D01*
X159026440Y-113668896D01*
X159104617Y-113668898D01*
X159182573Y-113665971D01*
X159260231Y-113660137D01*
X159337510Y-113651415D01*
X159414331Y-113639823D01*
X159490614Y-113625383D01*
X159566279Y-113608113D01*
X159641249Y-113588033D01*
X159715442Y-113565163D01*
X159788779Y-113539522D01*
X159861181Y-113511130D01*
X159932569Y-113480007D01*
X160002863Y-113446172D01*
X160071983Y-113409645D01*
X160139850Y-113370446D01*
X160224564Y-113310568D01*
X160305315Y-113246383D01*
X160381981Y-113178095D01*
X160454440Y-113105909D01*
X160522570Y-113030030D01*
X160586248Y-112950662D01*
X160645353Y-112868010D01*
X160699761Y-112782280D01*
X160749352Y-112693677D01*
X160794002Y-112602404D01*
X160833589Y-112508666D01*
X160867992Y-112412670D01*
X160897088Y-112314618D01*
X160920755Y-112214718D01*
X160938870Y-112113172D01*
X160951312Y-112010186D01*
X160954054Y-111972664D01*
X160956130Y-111933381D01*
X160956888Y-111913139D01*
X160957445Y-111892529D01*
X160957787Y-111871576D01*
X160957904Y-111850304D01*
X160957904Y-103735894D01*
X150379840Y-103735894D01*
X150379840Y-103736016D01*
X149808368Y-103736016D01*
X139231845Y-103736016D01*
X138698230Y-103736016D01*
X138698230Y-103166039D01*
X139231906Y-103166039D01*
X149809970Y-103166039D01*
X149809970Y-92571038D01*
X150379886Y-92571038D01*
X150379886Y-103166039D01*
X160957950Y-103166039D01*
X160957950Y-92571038D01*
X150379886Y-92571038D01*
X149809970Y-92571038D01*
X139231906Y-92571038D01*
X139231906Y-103166039D01*
X138698230Y-103166039D01*
X138698230Y-92042748D01*
X161485736Y-92042748D01*
X161485736Y-92571038D01*
X161485736Y-103735894D01*
G36*
X161485736Y-103735894D02*
G01*
X161485736Y-111850426D01*
X161485234Y-111902866D01*
X161484576Y-111929086D01*
X161483621Y-111955304D01*
X161482347Y-111981517D01*
X161480734Y-112007724D01*
X161478763Y-112033923D01*
X161476413Y-112060112D01*
X161460136Y-112192366D01*
X161436604Y-112322764D01*
X161405973Y-112451045D01*
X161368399Y-112576949D01*
X161324037Y-112700213D01*
X161273043Y-112820579D01*
X161215574Y-112937784D01*
X161151786Y-113051568D01*
X161081834Y-113161669D01*
X161005873Y-113267828D01*
X160924062Y-113369782D01*
X160836554Y-113467272D01*
X160743506Y-113560036D01*
X160645074Y-113647814D01*
X160541414Y-113730344D01*
X160432681Y-113807366D01*
X160348420Y-113856898D01*
X160262579Y-113903134D01*
X160175256Y-113946048D01*
X160086548Y-113985614D01*
X159996553Y-114021809D01*
X159905369Y-114054607D01*
X159813093Y-114083982D01*
X159719823Y-114109910D01*
X159625656Y-114132365D01*
X159530690Y-114151322D01*
X159435022Y-114166757D01*
X159338750Y-114178644D01*
X159241971Y-114186957D01*
X159144784Y-114191673D01*
X159047285Y-114192765D01*
X158949573Y-114190209D01*
X158827208Y-114187397D01*
X158704904Y-114183034D01*
X158582673Y-114177123D01*
X158460532Y-114169663D01*
X158338496Y-114160655D01*
X158216579Y-114150100D01*
X158094796Y-114137999D01*
X157973163Y-114124352D01*
X157600202Y-114081438D01*
X157228365Y-114031515D01*
X156486404Y-113921177D01*
X155743955Y-113814404D01*
X155371511Y-113768938D01*
X154997699Y-113732262D01*
X154737954Y-113712758D01*
X154477578Y-113697876D01*
X154347200Y-113692409D01*
X154216719Y-113688386D01*
X154086154Y-113685901D01*
X153955524Y-113685051D01*
X153721798Y-113685583D01*
X153488448Y-113694257D01*
X153255684Y-113711046D01*
X153023717Y-113735924D01*
X152792758Y-113768865D01*
X152563017Y-113809841D01*
X152334706Y-113858826D01*
X152108035Y-113915795D01*
X151959665Y-113959106D01*
X151813633Y-114008322D01*
X151670098Y-114063337D01*
X151529219Y-114124043D01*
X151391155Y-114190334D01*
X151256067Y-114262102D01*
X151124113Y-114339242D01*
X150995452Y-114421647D01*
X150870244Y-114509209D01*
X150748649Y-114601822D01*
X150630825Y-114699379D01*
X150516932Y-114801774D01*
X150407129Y-114908899D01*
X150301575Y-115020648D01*
X150200431Y-115136915D01*
X150103854Y-115257592D01*
X150101045Y-115261628D01*
X150099779Y-115263430D01*
X150098561Y-115265118D01*
X150097362Y-115266716D01*
X150096149Y-115268248D01*
X150094890Y-115269735D01*
X150093555Y-115271203D01*
X150082675Y-115257592D01*
X149986099Y-115136915D01*
X149884954Y-115020648D01*
X149779401Y-114908899D01*
X149669597Y-114801774D01*
X149555704Y-114699379D01*
X149437880Y-114601822D01*
X149316284Y-114509209D01*
X149191075Y-114421647D01*
X149062414Y-114339242D01*
X148930459Y-114262102D01*
X148795369Y-114190334D01*
X148657304Y-114124043D01*
X148516423Y-114063337D01*
X148372886Y-114008322D01*
X148226851Y-113959106D01*
X148078479Y-113915795D01*
X147851496Y-113858755D01*
X147622869Y-113809716D01*
X147392809Y-113768706D01*
X147161529Y-113735753D01*
X146929240Y-113710883D01*
X146696154Y-113694124D01*
X146462484Y-113685505D01*
X146228442Y-113685051D01*
X146097961Y-113685940D01*
X145967466Y-113688519D01*
X145836994Y-113692659D01*
X145706582Y-113698231D01*
X145446085Y-113713157D01*
X145186267Y-113732262D01*
X144812455Y-113769074D01*
X144440011Y-113814563D01*
X143697562Y-113921189D01*
X142955600Y-114031374D01*
X142583764Y-114081311D01*
X142210803Y-114124352D01*
X142089171Y-114137999D01*
X141967390Y-114150100D01*
X141845475Y-114160655D01*
X141723441Y-114169663D01*
X141601303Y-114177123D01*
X141479075Y-114183034D01*
X141356772Y-114187397D01*
X141234408Y-114190209D01*
X141136699Y-114192754D01*
X141039203Y-114191653D01*
X140942018Y-114186930D01*
X140845242Y-114178609D01*
X140748972Y-114166718D01*
X140653306Y-114151279D01*
X140558341Y-114132320D01*
X140464175Y-114109864D01*
X140370905Y-114083937D01*
X140278629Y-114054564D01*
X140187444Y-114021770D01*
X140097448Y-113985580D01*
X140008738Y-113946020D01*
X139921412Y-113903114D01*
X139835566Y-113856887D01*
X139751300Y-113807366D01*
X139642565Y-113730344D01*
X139538903Y-113647814D01*
X139440470Y-113560036D01*
X139347421Y-113467272D01*
X139259912Y-113369782D01*
X139178100Y-113267828D01*
X139102140Y-113161669D01*
X139032188Y-113051568D01*
X138968399Y-112937784D01*
X138910930Y-112820579D01*
X138859936Y-112700213D01*
X138815574Y-112576949D01*
X138777998Y-112451045D01*
X138747366Y-112322764D01*
X138723832Y-112192366D01*
X138707553Y-112060112D01*
X138705255Y-112033893D01*
X138703309Y-112007672D01*
X138701700Y-111981452D01*
X138700414Y-111955235D01*
X138699438Y-111929022D01*
X138698757Y-111902815D01*
X138698230Y-111850426D01*
X138698230Y-103736016D01*
X139231845Y-103736016D01*
X139231906Y-111850945D01*
X139232022Y-111872492D01*
X139232363Y-111893603D01*
X139233676Y-111934674D01*
X139235755Y-111974468D01*
X139238513Y-112013299D01*
X139251137Y-112115850D01*
X139269380Y-112216963D01*
X139293123Y-112316436D01*
X139322245Y-112414068D01*
X139356625Y-112509656D01*
X139396143Y-112602999D01*
X139440678Y-112693894D01*
X139490109Y-112782139D01*
X139544317Y-112867533D01*
X139603180Y-112949874D01*
X139666577Y-113028960D01*
X139734389Y-113104589D01*
X139806494Y-113176558D01*
X139882773Y-113244666D01*
X139963104Y-113308712D01*
X140047366Y-113368493D01*
X140115314Y-113407660D01*
X140184512Y-113444159D01*
X140254879Y-113477970D01*
X140326338Y-113509073D01*
X140398809Y-113537449D01*
X140472213Y-113563078D01*
X140546470Y-113585940D01*
X140621501Y-113606015D01*
X140697228Y-113623284D01*
X140773570Y-113637727D01*
X140850450Y-113649324D01*
X140927787Y-113658055D01*
X141005503Y-113663902D01*
X141083518Y-113666843D01*
X141161754Y-113666861D01*
X141240130Y-113663933D01*
X141356491Y-113662401D01*
X141473856Y-113658115D01*
X141591546Y-113651545D01*
X141708880Y-113643158D01*
X141939762Y-113622812D01*
X142161059Y-113600823D01*
X142495789Y-113562296D01*
X142831628Y-113517693D01*
X143497195Y-113420006D01*
X143902202Y-113359652D01*
X144312556Y-113301548D01*
X144727248Y-113249619D01*
X144935904Y-113227196D01*
X145145267Y-113207787D01*
X145436409Y-113185890D01*
X145713054Y-113169732D01*
X145977271Y-113159730D01*
X146105365Y-113157169D01*
X146231128Y-113156304D01*
X146483072Y-113157113D01*
X146734608Y-113166686D01*
X146985507Y-113184993D01*
X147235541Y-113212006D01*
X147484485Y-113247697D01*
X147732109Y-113292037D01*
X147978187Y-113344996D01*
X148222491Y-113406548D01*
X148330316Y-113438381D01*
X148437196Y-113472855D01*
X148543085Y-113509947D01*
X148647937Y-113549632D01*
X148751705Y-113591888D01*
X148854344Y-113636690D01*
X148955806Y-113684014D01*
X149056045Y-113733838D01*
X149155015Y-113786136D01*
X149252669Y-113840886D01*
X149348961Y-113898064D01*
X149443845Y-113957645D01*
X149537274Y-114019607D01*
X149629202Y-114083925D01*
X149719582Y-114150576D01*
X149808368Y-114219536D01*
X149808368Y-103736016D01*
X150379840Y-103736016D01*
X150379886Y-114221550D01*
X150468706Y-114152634D01*
X150559114Y-114086021D01*
X150651065Y-114021735D01*
X150744512Y-113959801D01*
X150839408Y-113900241D01*
X150935708Y-113843078D01*
X151033366Y-113788338D01*
X151132335Y-113736043D01*
X151232569Y-113686216D01*
X151334023Y-113638881D01*
X151436649Y-113594063D01*
X151540402Y-113551784D01*
X151645237Y-113512067D01*
X151751105Y-113474938D01*
X151857963Y-113440418D01*
X151965762Y-113408532D01*
X152210071Y-113346990D01*
X152456153Y-113294038D01*
X152703779Y-113249704D01*
X152952724Y-113214016D01*
X153202758Y-113187005D01*
X153453654Y-113168699D01*
X153705186Y-113159127D01*
X153957126Y-113158318D01*
X154082895Y-113159056D01*
X154211005Y-113161307D01*
X154341728Y-113165129D01*
X154475335Y-113170578D01*
X154612097Y-113177713D01*
X154752285Y-113186591D01*
X154896170Y-113197268D01*
X155044025Y-113209801D01*
X155253045Y-113229186D01*
X155461446Y-113251604D01*
X155875835Y-113303551D01*
X156286080Y-113361679D01*
X156691073Y-113422020D01*
X157357791Y-113519799D01*
X157693344Y-113564353D01*
X158027209Y-113602837D01*
X158248425Y-113624826D01*
X158479180Y-113645173D01*
X158596480Y-113653559D01*
X158714179Y-113660129D01*
X158831614Y-113664415D01*
X158948123Y-113665947D01*
X159026440Y-113668896D01*
X159104617Y-113668898D01*
X159182573Y-113665971D01*
X159260231Y-113660137D01*
X159337510Y-113651415D01*
X159414331Y-113639823D01*
X159490614Y-113625383D01*
X159566279Y-113608113D01*
X159641249Y-113588033D01*
X159715442Y-113565163D01*
X159788779Y-113539522D01*
X159861181Y-113511130D01*
X159932569Y-113480007D01*
X160002863Y-113446172D01*
X160071983Y-113409645D01*
X160139850Y-113370446D01*
X160224564Y-113310568D01*
X160305315Y-113246383D01*
X160381981Y-113178095D01*
X160454440Y-113105909D01*
X160522570Y-113030030D01*
X160586248Y-112950662D01*
X160645353Y-112868010D01*
X160699761Y-112782280D01*
X160749352Y-112693677D01*
X160794002Y-112602404D01*
X160833589Y-112508666D01*
X160867992Y-112412670D01*
X160897088Y-112314618D01*
X160920755Y-112214718D01*
X160938870Y-112113172D01*
X160951312Y-112010186D01*
X160954054Y-111972664D01*
X160956130Y-111933381D01*
X160956888Y-111913139D01*
X160957445Y-111892529D01*
X160957787Y-111871576D01*
X160957904Y-111850304D01*
X160957904Y-103735894D01*
X150379840Y-103735894D01*
X150379840Y-103736016D01*
X149808368Y-103736016D01*
X139231845Y-103736016D01*
X138698230Y-103736016D01*
X138698230Y-103166039D01*
X139231906Y-103166039D01*
X149809970Y-103166039D01*
X149809970Y-92571038D01*
X150379886Y-92571038D01*
X150379886Y-103166039D01*
X160957950Y-103166039D01*
X160957950Y-92571038D01*
X150379886Y-92571038D01*
X149809970Y-92571038D01*
X139231906Y-92571038D01*
X139231906Y-103166039D01*
X138698230Y-103166039D01*
X138698230Y-92042748D01*
X161485736Y-92042748D01*
X161485736Y-92571038D01*
X161485736Y-103735894D01*
G37*
D11*
X156400714Y-113374688D02*
X156066021Y-113325812D01*
X155727765Y-113280060D01*
X155386811Y-113239333D01*
X155215593Y-113221447D01*
X155044025Y-113205529D01*
X154848809Y-113190380D01*
X154660529Y-113178429D01*
X154478606Y-113169248D01*
X154302463Y-113162407D01*
X150379886Y-109239281D01*
X150379886Y-107355370D01*
X156400714Y-113374688D01*
G36*
X156400714Y-113374688D02*
G01*
X156066021Y-113325812D01*
X155727765Y-113280060D01*
X155386811Y-113239333D01*
X155215593Y-113221447D01*
X155044025Y-113205529D01*
X154848809Y-113190380D01*
X154660529Y-113178429D01*
X154478606Y-113169248D01*
X154302463Y-113162407D01*
X150379886Y-109239281D01*
X150379886Y-107355370D01*
X156400714Y-113374688D01*
G37*
X140490466Y-103165551D02*
X139231921Y-103165551D01*
X139231921Y-101907006D01*
X140490466Y-103165551D01*
G36*
X140490466Y-103165551D02*
G01*
X139231921Y-103165551D01*
X139231921Y-101907006D01*
X140490466Y-103165551D01*
G37*
X143340533Y-103165551D02*
X141455035Y-103165551D01*
X139231921Y-100942406D01*
X139231921Y-99056908D01*
X143340533Y-103165551D01*
G36*
X143340533Y-103165551D02*
G01*
X141455035Y-103165551D01*
X139231921Y-100942406D01*
X139231921Y-99056908D01*
X143340533Y-103165551D01*
G37*
D14*
X155238788Y-94485314D02*
X155428248Y-94489422D01*
X155614459Y-94501643D01*
X155797239Y-94521822D01*
X155976406Y-94549801D01*
X156151781Y-94585426D01*
X156323180Y-94628541D01*
X156490423Y-94678990D01*
X156653328Y-94736618D01*
X156811714Y-94801268D01*
X156965401Y-94872785D01*
X157114205Y-94951013D01*
X157257947Y-95035797D01*
X157396445Y-95126980D01*
X157529517Y-95224407D01*
X157656982Y-95327923D01*
X157778659Y-95437371D01*
X157894366Y-95552596D01*
X158003923Y-95673441D01*
X158107147Y-95799753D01*
X158203858Y-95931373D01*
X158293874Y-96068148D01*
X158377014Y-96209920D01*
X158453097Y-96356535D01*
X158521940Y-96507837D01*
X158583364Y-96663669D01*
X158637186Y-96823877D01*
X158683225Y-96988304D01*
X158721300Y-97156794D01*
X158751229Y-97329193D01*
X158772832Y-97505344D01*
X158785927Y-97685091D01*
X158790332Y-97868279D01*
X158790332Y-97868310D01*
X158787364Y-98041763D01*
X158775524Y-98214017D01*
X158754945Y-98384762D01*
X158725755Y-98553689D01*
X158688086Y-98720490D01*
X158642069Y-98884855D01*
X158587833Y-99046475D01*
X158525510Y-99205040D01*
X158455230Y-99360243D01*
X158377123Y-99511773D01*
X158291320Y-99659323D01*
X158197952Y-99802581D01*
X158097149Y-99941241D01*
X157989042Y-100074991D01*
X157873761Y-100203525D01*
X157751437Y-100326531D01*
X157622935Y-100443065D01*
X157489235Y-100552311D01*
X157350653Y-100654151D01*
X157207504Y-100748470D01*
X157060103Y-100835152D01*
X156908763Y-100914079D01*
X156753801Y-100985136D01*
X156595531Y-101048207D01*
X156434267Y-101103175D01*
X156270324Y-101149924D01*
X156104018Y-101188337D01*
X155935663Y-101218299D01*
X155765574Y-101239693D01*
X155594066Y-101252403D01*
X155421453Y-101256312D01*
X155248050Y-101251305D01*
X155055071Y-101254425D01*
X154863356Y-101246547D01*
X154673326Y-101227851D01*
X154485402Y-101198520D01*
X154300002Y-101158735D01*
X154117549Y-101108680D01*
X153938461Y-101048535D01*
X153763160Y-100978482D01*
X153592065Y-100898703D01*
X153425598Y-100809381D01*
X153264178Y-100710697D01*
X153108226Y-100602833D01*
X152958163Y-100485971D01*
X152814407Y-100360292D01*
X152677381Y-100225979D01*
X152547504Y-100083214D01*
X153519290Y-99185936D01*
X153596746Y-99276584D01*
X153678763Y-99362171D01*
X153765088Y-99442579D01*
X153855467Y-99517686D01*
X153949645Y-99587373D01*
X154047370Y-99651520D01*
X154148386Y-99710007D01*
X154252440Y-99762715D01*
X154359279Y-99809522D01*
X154468648Y-99850310D01*
X154580293Y-99884959D01*
X154693960Y-99913347D01*
X154809396Y-99935356D01*
X154926347Y-99950866D01*
X155044558Y-99959756D01*
X155163775Y-99961907D01*
X155269065Y-99963926D01*
X155373801Y-99960445D01*
X155477788Y-99951539D01*
X155580830Y-99937285D01*
X155682730Y-99917759D01*
X155783292Y-99893036D01*
X155882320Y-99863194D01*
X155979617Y-99828309D01*
X156074987Y-99788455D01*
X156168234Y-99743711D01*
X156259162Y-99694151D01*
X156347574Y-99639853D01*
X156433274Y-99580892D01*
X156516065Y-99517344D01*
X156595752Y-99449286D01*
X156672137Y-99376793D01*
X156744612Y-99300393D01*
X156812651Y-99220692D01*
X156876180Y-99137886D01*
X156935120Y-99052172D01*
X156989397Y-98963746D01*
X157038934Y-98872805D01*
X157083655Y-98779545D01*
X157123485Y-98684163D01*
X157158346Y-98586855D01*
X157188162Y-98487817D01*
X157212859Y-98387247D01*
X157232358Y-98285340D01*
X157246586Y-98182294D01*
X157255464Y-98078304D01*
X157258917Y-97973567D01*
X157256869Y-97868279D01*
X157258914Y-97762992D01*
X157255459Y-97658256D01*
X157246578Y-97554267D01*
X157232350Y-97451222D01*
X157212848Y-97349318D01*
X157188151Y-97248750D01*
X157158333Y-97149716D01*
X157123471Y-97052411D01*
X157083641Y-96957031D01*
X157038920Y-96863774D01*
X156989382Y-96772836D01*
X156935105Y-96684412D01*
X156876164Y-96598700D01*
X156812636Y-96515895D01*
X156744597Y-96436195D01*
X156672122Y-96359795D01*
X156595736Y-96287303D01*
X156516050Y-96219244D01*
X156433258Y-96155697D01*
X156347559Y-96096735D01*
X156259147Y-96042437D01*
X156168219Y-95992877D01*
X156074972Y-95948133D01*
X155979602Y-95908280D01*
X155882305Y-95873394D01*
X155783277Y-95843552D01*
X155682715Y-95818830D01*
X155580815Y-95799304D01*
X155477773Y-95785049D01*
X155373786Y-95776144D01*
X155269049Y-95772662D01*
X155163760Y-95774682D01*
X155044965Y-95776972D01*
X154927154Y-95785883D01*
X154810574Y-95801301D01*
X154695471Y-95823110D01*
X154582092Y-95851194D01*
X154470684Y-95885439D01*
X154361493Y-95925730D01*
X154254767Y-95971951D01*
X154150753Y-96023988D01*
X154049696Y-96081724D01*
X153951844Y-96145047D01*
X153857443Y-96213839D01*
X153766740Y-96287986D01*
X153679983Y-96367372D01*
X153597417Y-96451884D01*
X153519290Y-96541405D01*
X152547504Y-95644158D01*
X152677527Y-95502842D01*
X152814558Y-95369886D01*
X152958186Y-95245466D01*
X153108000Y-95129761D01*
X153263590Y-95022946D01*
X153424544Y-94925198D01*
X153590452Y-94836694D01*
X153760903Y-94757611D01*
X153935487Y-94688125D01*
X154113793Y-94628415D01*
X154295410Y-94578655D01*
X154479928Y-94539023D01*
X154666935Y-94509697D01*
X154856021Y-94490852D01*
X155046776Y-94482665D01*
X155238788Y-94485314D01*
G36*
X155238788Y-94485314D02*
G01*
X155428248Y-94489422D01*
X155614459Y-94501643D01*
X155797239Y-94521822D01*
X155976406Y-94549801D01*
X156151781Y-94585426D01*
X156323180Y-94628541D01*
X156490423Y-94678990D01*
X156653328Y-94736618D01*
X156811714Y-94801268D01*
X156965401Y-94872785D01*
X157114205Y-94951013D01*
X157257947Y-95035797D01*
X157396445Y-95126980D01*
X157529517Y-95224407D01*
X157656982Y-95327923D01*
X157778659Y-95437371D01*
X157894366Y-95552596D01*
X158003923Y-95673441D01*
X158107147Y-95799753D01*
X158203858Y-95931373D01*
X158293874Y-96068148D01*
X158377014Y-96209920D01*
X158453097Y-96356535D01*
X158521940Y-96507837D01*
X158583364Y-96663669D01*
X158637186Y-96823877D01*
X158683225Y-96988304D01*
X158721300Y-97156794D01*
X158751229Y-97329193D01*
X158772832Y-97505344D01*
X158785927Y-97685091D01*
X158790332Y-97868279D01*
X158790332Y-97868310D01*
X158787364Y-98041763D01*
X158775524Y-98214017D01*
X158754945Y-98384762D01*
X158725755Y-98553689D01*
X158688086Y-98720490D01*
X158642069Y-98884855D01*
X158587833Y-99046475D01*
X158525510Y-99205040D01*
X158455230Y-99360243D01*
X158377123Y-99511773D01*
X158291320Y-99659323D01*
X158197952Y-99802581D01*
X158097149Y-99941241D01*
X157989042Y-100074991D01*
X157873761Y-100203525D01*
X157751437Y-100326531D01*
X157622935Y-100443065D01*
X157489235Y-100552311D01*
X157350653Y-100654151D01*
X157207504Y-100748470D01*
X157060103Y-100835152D01*
X156908763Y-100914079D01*
X156753801Y-100985136D01*
X156595531Y-101048207D01*
X156434267Y-101103175D01*
X156270324Y-101149924D01*
X156104018Y-101188337D01*
X155935663Y-101218299D01*
X155765574Y-101239693D01*
X155594066Y-101252403D01*
X155421453Y-101256312D01*
X155248050Y-101251305D01*
X155055071Y-101254425D01*
X154863356Y-101246547D01*
X154673326Y-101227851D01*
X154485402Y-101198520D01*
X154300002Y-101158735D01*
X154117549Y-101108680D01*
X153938461Y-101048535D01*
X153763160Y-100978482D01*
X153592065Y-100898703D01*
X153425598Y-100809381D01*
X153264178Y-100710697D01*
X153108226Y-100602833D01*
X152958163Y-100485971D01*
X152814407Y-100360292D01*
X152677381Y-100225979D01*
X152547504Y-100083214D01*
X153519290Y-99185936D01*
X153596746Y-99276584D01*
X153678763Y-99362171D01*
X153765088Y-99442579D01*
X153855467Y-99517686D01*
X153949645Y-99587373D01*
X154047370Y-99651520D01*
X154148386Y-99710007D01*
X154252440Y-99762715D01*
X154359279Y-99809522D01*
X154468648Y-99850310D01*
X154580293Y-99884959D01*
X154693960Y-99913347D01*
X154809396Y-99935356D01*
X154926347Y-99950866D01*
X155044558Y-99959756D01*
X155163775Y-99961907D01*
X155269065Y-99963926D01*
X155373801Y-99960445D01*
X155477788Y-99951539D01*
X155580830Y-99937285D01*
X155682730Y-99917759D01*
X155783292Y-99893036D01*
X155882320Y-99863194D01*
X155979617Y-99828309D01*
X156074987Y-99788455D01*
X156168234Y-99743711D01*
X156259162Y-99694151D01*
X156347574Y-99639853D01*
X156433274Y-99580892D01*
X156516065Y-99517344D01*
X156595752Y-99449286D01*
X156672137Y-99376793D01*
X156744612Y-99300393D01*
X156812651Y-99220692D01*
X156876180Y-99137886D01*
X156935120Y-99052172D01*
X156989397Y-98963746D01*
X157038934Y-98872805D01*
X157083655Y-98779545D01*
X157123485Y-98684163D01*
X157158346Y-98586855D01*
X157188162Y-98487817D01*
X157212859Y-98387247D01*
X157232358Y-98285340D01*
X157246586Y-98182294D01*
X157255464Y-98078304D01*
X157258917Y-97973567D01*
X157256869Y-97868279D01*
X157258914Y-97762992D01*
X157255459Y-97658256D01*
X157246578Y-97554267D01*
X157232350Y-97451222D01*
X157212848Y-97349318D01*
X157188151Y-97248750D01*
X157158333Y-97149716D01*
X157123471Y-97052411D01*
X157083641Y-96957031D01*
X157038920Y-96863774D01*
X156989382Y-96772836D01*
X156935105Y-96684412D01*
X156876164Y-96598700D01*
X156812636Y-96515895D01*
X156744597Y-96436195D01*
X156672122Y-96359795D01*
X156595736Y-96287303D01*
X156516050Y-96219244D01*
X156433258Y-96155697D01*
X156347559Y-96096735D01*
X156259147Y-96042437D01*
X156168219Y-95992877D01*
X156074972Y-95948133D01*
X155979602Y-95908280D01*
X155882305Y-95873394D01*
X155783277Y-95843552D01*
X155682715Y-95818830D01*
X155580815Y-95799304D01*
X155477773Y-95785049D01*
X155373786Y-95776144D01*
X155269049Y-95772662D01*
X155163760Y-95774682D01*
X155044965Y-95776972D01*
X154927154Y-95785883D01*
X154810574Y-95801301D01*
X154695471Y-95823110D01*
X154582092Y-95851194D01*
X154470684Y-95885439D01*
X154361493Y-95925730D01*
X154254767Y-95971951D01*
X154150753Y-96023988D01*
X154049696Y-96081724D01*
X153951844Y-96145047D01*
X153857443Y-96213839D01*
X153766740Y-96287986D01*
X153679983Y-96367372D01*
X153597417Y-96451884D01*
X153519290Y-96541405D01*
X152547504Y-95644158D01*
X152677527Y-95502842D01*
X152814558Y-95369886D01*
X152958186Y-95245466D01*
X153108000Y-95129761D01*
X153263590Y-95022946D01*
X153424544Y-94925198D01*
X153590452Y-94836694D01*
X153760903Y-94757611D01*
X153935487Y-94688125D01*
X154113793Y-94628415D01*
X154295410Y-94578655D01*
X154479928Y-94539023D01*
X154666935Y-94509697D01*
X154856021Y-94490852D01*
X155046776Y-94482665D01*
X155238788Y-94485314D01*
G37*
D12*
X165467584Y-92782854D02*
X163346036Y-92782854D01*
X163346036Y-90261764D01*
X136829685Y-90261764D01*
X136829685Y-92782854D01*
X134708136Y-92782854D01*
X134708136Y-88138067D01*
X165467584Y-88138067D01*
X165467584Y-92782854D01*
G36*
X165467584Y-92782854D02*
G01*
X163346036Y-92782854D01*
X163346036Y-90261764D01*
X136829685Y-90261764D01*
X136829685Y-92782854D01*
X134708136Y-92782854D01*
X134708136Y-88138067D01*
X165467584Y-88138067D01*
X165467584Y-92782854D01*
G37*
D15*
%TO.C,D3*%
X181135947Y-96224287D03*
%TD*%
%TO.C,D7*%
X141705194Y-135702786D03*
%TD*%
%TO.C,D1*%
X158343024Y-73458931D03*
%TD*%
%TO.C,D11*%
X127231188Y-81815504D03*
%TD*%
%TO.C,D9*%
X118912272Y-112937432D03*
%TD*%
D16*
%TO.C,BT1*%
X173990000Y-111038605D03*
X173990000Y-98338605D03*
%TD*%
D15*
%TO.C,D10*%
X118902183Y-96261944D03*
%TD*%
%TO.C,D2*%
X172789464Y-81787936D03*
%TD*%
%TO.C,D8*%
X127258755Y-127373780D03*
%TD*%
%TO.C,D5*%
X172817030Y-127346215D03*
%TD*%
%TO.C,D4*%
X181146035Y-112899772D03*
%TD*%
%TO.C,D6*%
X158380682Y-135692694D03*
%TD*%
%TO.C,D12*%
X141667537Y-73469024D03*
%TD*%
%LPD*%
M02*
