%TF.GenerationSoftware,KiCad,Pcbnew,7.0.7*%
%TF.CreationDate,2023-10-30T19:25:37-07:00*%
%TF.ProjectId,CodeStackOrnament2023,436f6465-5374-4616-936b-4f726e616d65,rev?*%
%TF.SameCoordinates,Original*%
%TF.FileFunction,Drillmap*%
%TF.FilePolarity,Positive*%
%FSLAX45Y45*%
G04 Gerber Fmt 4.5, Leading zero omitted, Abs format (unit mm)*
G04 Created by KiCad (PCBNEW 7.0.7) date 2023-10-30 19:25:37*
%MOMM*%
%LPD*%
G01*
G04 APERTURE LIST*
%ADD10C,0.100000*%
%ADD11C,0.200000*%
%ADD12C,0.210000*%
G04 APERTURE END LIST*
D10*
X15220872Y-7476366D02*
G75*
G03*
X15220872Y-7476366I-211872J0D01*
G01*
X18509000Y-10468861D02*
G75*
G03*
X18509000Y-10468861I-3500000J0D01*
G01*
D11*
D12*
X11785218Y-9521194D02*
X11995218Y-9731194D01*
X11995218Y-9521194D02*
X11785218Y-9731194D01*
X11786227Y-11188743D02*
X11996227Y-11398743D01*
X11996227Y-11188743D02*
X11786227Y-11398743D01*
X12618119Y-8076550D02*
X12828119Y-8286550D01*
X12828119Y-8076550D02*
X12618119Y-8286550D01*
X12620875Y-12632378D02*
X12830875Y-12842378D01*
X12830875Y-12632378D02*
X12620875Y-12842378D01*
X14061754Y-7241902D02*
X14271754Y-7451902D01*
X14271754Y-7241902D02*
X14061754Y-7451902D01*
X14065519Y-13465279D02*
X14275519Y-13675279D01*
X14275519Y-13465279D02*
X14065519Y-13675279D01*
X15729302Y-7240893D02*
X15939302Y-7450893D01*
X15939302Y-7240893D02*
X15729302Y-7450893D01*
X15733068Y-13464269D02*
X15943068Y-13674269D01*
X15943068Y-13464269D02*
X15733068Y-13674269D01*
X17173946Y-8073794D02*
X17383946Y-8283794D01*
X17383946Y-8073794D02*
X17173946Y-8283794D01*
X17176703Y-12629621D02*
X17386703Y-12839621D01*
X17386703Y-12629621D02*
X17176703Y-12839621D01*
X18008595Y-9517429D02*
X18218595Y-9727429D01*
X18218595Y-9517429D02*
X18008595Y-9727429D01*
X18009604Y-11184977D02*
X18219604Y-11394977D01*
X18219604Y-11184977D02*
X18009604Y-11394977D01*
D11*
X11764777Y-14285344D02*
X11764777Y-14085344D01*
X11764777Y-14085344D02*
X11812396Y-14085344D01*
X11812396Y-14085344D02*
X11840967Y-14094868D01*
X11840967Y-14094868D02*
X11860015Y-14113916D01*
X11860015Y-14113916D02*
X11869539Y-14132963D01*
X11869539Y-14132963D02*
X11879062Y-14171058D01*
X11879062Y-14171058D02*
X11879062Y-14199630D01*
X11879062Y-14199630D02*
X11869539Y-14237725D01*
X11869539Y-14237725D02*
X11860015Y-14256773D01*
X11860015Y-14256773D02*
X11840967Y-14275820D01*
X11840967Y-14275820D02*
X11812396Y-14285344D01*
X11812396Y-14285344D02*
X11764777Y-14285344D01*
X11964777Y-14285344D02*
X11964777Y-14152011D01*
X11964777Y-14190106D02*
X11974301Y-14171058D01*
X11974301Y-14171058D02*
X11983824Y-14161535D01*
X11983824Y-14161535D02*
X12002872Y-14152011D01*
X12002872Y-14152011D02*
X12021920Y-14152011D01*
X12088586Y-14285344D02*
X12088586Y-14152011D01*
X12088586Y-14085344D02*
X12079062Y-14094868D01*
X12079062Y-14094868D02*
X12088586Y-14104392D01*
X12088586Y-14104392D02*
X12098110Y-14094868D01*
X12098110Y-14094868D02*
X12088586Y-14085344D01*
X12088586Y-14085344D02*
X12088586Y-14104392D01*
X12212396Y-14285344D02*
X12193348Y-14275820D01*
X12193348Y-14275820D02*
X12183824Y-14256773D01*
X12183824Y-14256773D02*
X12183824Y-14085344D01*
X12317158Y-14285344D02*
X12298110Y-14275820D01*
X12298110Y-14275820D02*
X12288586Y-14256773D01*
X12288586Y-14256773D02*
X12288586Y-14085344D01*
X12545729Y-14285344D02*
X12545729Y-14085344D01*
X12545729Y-14085344D02*
X12612396Y-14228201D01*
X12612396Y-14228201D02*
X12679062Y-14085344D01*
X12679062Y-14085344D02*
X12679062Y-14285344D01*
X12860015Y-14285344D02*
X12860015Y-14180582D01*
X12860015Y-14180582D02*
X12850491Y-14161535D01*
X12850491Y-14161535D02*
X12831443Y-14152011D01*
X12831443Y-14152011D02*
X12793348Y-14152011D01*
X12793348Y-14152011D02*
X12774301Y-14161535D01*
X12860015Y-14275820D02*
X12840967Y-14285344D01*
X12840967Y-14285344D02*
X12793348Y-14285344D01*
X12793348Y-14285344D02*
X12774301Y-14275820D01*
X12774301Y-14275820D02*
X12764777Y-14256773D01*
X12764777Y-14256773D02*
X12764777Y-14237725D01*
X12764777Y-14237725D02*
X12774301Y-14218678D01*
X12774301Y-14218678D02*
X12793348Y-14209154D01*
X12793348Y-14209154D02*
X12840967Y-14209154D01*
X12840967Y-14209154D02*
X12860015Y-14199630D01*
X12955253Y-14152011D02*
X12955253Y-14352011D01*
X12955253Y-14161535D02*
X12974301Y-14152011D01*
X12974301Y-14152011D02*
X13012396Y-14152011D01*
X13012396Y-14152011D02*
X13031443Y-14161535D01*
X13031443Y-14161535D02*
X13040967Y-14171058D01*
X13040967Y-14171058D02*
X13050491Y-14190106D01*
X13050491Y-14190106D02*
X13050491Y-14247249D01*
X13050491Y-14247249D02*
X13040967Y-14266297D01*
X13040967Y-14266297D02*
X13031443Y-14275820D01*
X13031443Y-14275820D02*
X13012396Y-14285344D01*
X13012396Y-14285344D02*
X12974301Y-14285344D01*
X12974301Y-14285344D02*
X12955253Y-14275820D01*
X13136205Y-14266297D02*
X13145729Y-14275820D01*
X13145729Y-14275820D02*
X13136205Y-14285344D01*
X13136205Y-14285344D02*
X13126682Y-14275820D01*
X13126682Y-14275820D02*
X13136205Y-14266297D01*
X13136205Y-14266297D02*
X13136205Y-14285344D01*
X13136205Y-14161535D02*
X13145729Y-14171058D01*
X13145729Y-14171058D02*
X13136205Y-14180582D01*
X13136205Y-14180582D02*
X13126682Y-14171058D01*
X13126682Y-14171058D02*
X13136205Y-14161535D01*
X13136205Y-14161535D02*
X13136205Y-14180582D01*
X11304000Y-14513860D02*
X11504000Y-14713860D01*
X11504000Y-14513860D02*
X11304000Y-14713860D01*
X11755253Y-14524392D02*
X11764777Y-14514868D01*
X11764777Y-14514868D02*
X11783824Y-14505344D01*
X11783824Y-14505344D02*
X11831443Y-14505344D01*
X11831443Y-14505344D02*
X11850491Y-14514868D01*
X11850491Y-14514868D02*
X11860015Y-14524392D01*
X11860015Y-14524392D02*
X11869539Y-14543439D01*
X11869539Y-14543439D02*
X11869539Y-14562487D01*
X11869539Y-14562487D02*
X11860015Y-14591058D01*
X11860015Y-14591058D02*
X11745729Y-14705344D01*
X11745729Y-14705344D02*
X11869539Y-14705344D01*
X11955253Y-14686297D02*
X11964777Y-14695820D01*
X11964777Y-14695820D02*
X11955253Y-14705344D01*
X11955253Y-14705344D02*
X11945729Y-14695820D01*
X11945729Y-14695820D02*
X11955253Y-14686297D01*
X11955253Y-14686297D02*
X11955253Y-14705344D01*
X12155253Y-14705344D02*
X12040967Y-14705344D01*
X12098110Y-14705344D02*
X12098110Y-14505344D01*
X12098110Y-14505344D02*
X12079062Y-14533916D01*
X12079062Y-14533916D02*
X12060015Y-14552963D01*
X12060015Y-14552963D02*
X12040967Y-14562487D01*
X12279062Y-14505344D02*
X12298110Y-14505344D01*
X12298110Y-14505344D02*
X12317158Y-14514868D01*
X12317158Y-14514868D02*
X12326682Y-14524392D01*
X12326682Y-14524392D02*
X12336205Y-14543439D01*
X12336205Y-14543439D02*
X12345729Y-14581535D01*
X12345729Y-14581535D02*
X12345729Y-14629154D01*
X12345729Y-14629154D02*
X12336205Y-14667249D01*
X12336205Y-14667249D02*
X12326682Y-14686297D01*
X12326682Y-14686297D02*
X12317158Y-14695820D01*
X12317158Y-14695820D02*
X12298110Y-14705344D01*
X12298110Y-14705344D02*
X12279062Y-14705344D01*
X12279062Y-14705344D02*
X12260015Y-14695820D01*
X12260015Y-14695820D02*
X12250491Y-14686297D01*
X12250491Y-14686297D02*
X12240967Y-14667249D01*
X12240967Y-14667249D02*
X12231443Y-14629154D01*
X12231443Y-14629154D02*
X12231443Y-14581535D01*
X12231443Y-14581535D02*
X12240967Y-14543439D01*
X12240967Y-14543439D02*
X12250491Y-14524392D01*
X12250491Y-14524392D02*
X12260015Y-14514868D01*
X12260015Y-14514868D02*
X12279062Y-14505344D01*
X12469539Y-14505344D02*
X12488586Y-14505344D01*
X12488586Y-14505344D02*
X12507634Y-14514868D01*
X12507634Y-14514868D02*
X12517158Y-14524392D01*
X12517158Y-14524392D02*
X12526682Y-14543439D01*
X12526682Y-14543439D02*
X12536205Y-14581535D01*
X12536205Y-14581535D02*
X12536205Y-14629154D01*
X12536205Y-14629154D02*
X12526682Y-14667249D01*
X12526682Y-14667249D02*
X12517158Y-14686297D01*
X12517158Y-14686297D02*
X12507634Y-14695820D01*
X12507634Y-14695820D02*
X12488586Y-14705344D01*
X12488586Y-14705344D02*
X12469539Y-14705344D01*
X12469539Y-14705344D02*
X12450491Y-14695820D01*
X12450491Y-14695820D02*
X12440967Y-14686297D01*
X12440967Y-14686297D02*
X12431443Y-14667249D01*
X12431443Y-14667249D02*
X12421920Y-14629154D01*
X12421920Y-14629154D02*
X12421920Y-14581535D01*
X12421920Y-14581535D02*
X12431443Y-14543439D01*
X12431443Y-14543439D02*
X12440967Y-14524392D01*
X12440967Y-14524392D02*
X12450491Y-14514868D01*
X12450491Y-14514868D02*
X12469539Y-14505344D01*
X12621920Y-14705344D02*
X12621920Y-14572011D01*
X12621920Y-14591058D02*
X12631443Y-14581535D01*
X12631443Y-14581535D02*
X12650491Y-14572011D01*
X12650491Y-14572011D02*
X12679063Y-14572011D01*
X12679063Y-14572011D02*
X12698110Y-14581535D01*
X12698110Y-14581535D02*
X12707634Y-14600582D01*
X12707634Y-14600582D02*
X12707634Y-14705344D01*
X12707634Y-14600582D02*
X12717158Y-14581535D01*
X12717158Y-14581535D02*
X12736205Y-14572011D01*
X12736205Y-14572011D02*
X12764777Y-14572011D01*
X12764777Y-14572011D02*
X12783824Y-14581535D01*
X12783824Y-14581535D02*
X12793348Y-14600582D01*
X12793348Y-14600582D02*
X12793348Y-14705344D01*
X12888586Y-14705344D02*
X12888586Y-14572011D01*
X12888586Y-14591058D02*
X12898110Y-14581535D01*
X12898110Y-14581535D02*
X12917158Y-14572011D01*
X12917158Y-14572011D02*
X12945729Y-14572011D01*
X12945729Y-14572011D02*
X12964777Y-14581535D01*
X12964777Y-14581535D02*
X12974301Y-14600582D01*
X12974301Y-14600582D02*
X12974301Y-14705344D01*
X12974301Y-14600582D02*
X12983824Y-14581535D01*
X12983824Y-14581535D02*
X13002872Y-14572011D01*
X13002872Y-14572011D02*
X13031443Y-14572011D01*
X13031443Y-14572011D02*
X13050491Y-14581535D01*
X13050491Y-14581535D02*
X13060015Y-14600582D01*
X13060015Y-14600582D02*
X13060015Y-14705344D01*
X13450491Y-14495820D02*
X13279063Y-14752963D01*
X13707634Y-14505344D02*
X13726682Y-14505344D01*
X13726682Y-14505344D02*
X13745729Y-14514868D01*
X13745729Y-14514868D02*
X13755253Y-14524392D01*
X13755253Y-14524392D02*
X13764777Y-14543439D01*
X13764777Y-14543439D02*
X13774301Y-14581535D01*
X13774301Y-14581535D02*
X13774301Y-14629154D01*
X13774301Y-14629154D02*
X13764777Y-14667249D01*
X13764777Y-14667249D02*
X13755253Y-14686297D01*
X13755253Y-14686297D02*
X13745729Y-14695820D01*
X13745729Y-14695820D02*
X13726682Y-14705344D01*
X13726682Y-14705344D02*
X13707634Y-14705344D01*
X13707634Y-14705344D02*
X13688586Y-14695820D01*
X13688586Y-14695820D02*
X13679063Y-14686297D01*
X13679063Y-14686297D02*
X13669539Y-14667249D01*
X13669539Y-14667249D02*
X13660015Y-14629154D01*
X13660015Y-14629154D02*
X13660015Y-14581535D01*
X13660015Y-14581535D02*
X13669539Y-14543439D01*
X13669539Y-14543439D02*
X13679063Y-14524392D01*
X13679063Y-14524392D02*
X13688586Y-14514868D01*
X13688586Y-14514868D02*
X13707634Y-14505344D01*
X13860015Y-14686297D02*
X13869539Y-14695820D01*
X13869539Y-14695820D02*
X13860015Y-14705344D01*
X13860015Y-14705344D02*
X13850491Y-14695820D01*
X13850491Y-14695820D02*
X13860015Y-14686297D01*
X13860015Y-14686297D02*
X13860015Y-14705344D01*
X13993348Y-14505344D02*
X14012396Y-14505344D01*
X14012396Y-14505344D02*
X14031444Y-14514868D01*
X14031444Y-14514868D02*
X14040967Y-14524392D01*
X14040967Y-14524392D02*
X14050491Y-14543439D01*
X14050491Y-14543439D02*
X14060015Y-14581535D01*
X14060015Y-14581535D02*
X14060015Y-14629154D01*
X14060015Y-14629154D02*
X14050491Y-14667249D01*
X14050491Y-14667249D02*
X14040967Y-14686297D01*
X14040967Y-14686297D02*
X14031444Y-14695820D01*
X14031444Y-14695820D02*
X14012396Y-14705344D01*
X14012396Y-14705344D02*
X13993348Y-14705344D01*
X13993348Y-14705344D02*
X13974301Y-14695820D01*
X13974301Y-14695820D02*
X13964777Y-14686297D01*
X13964777Y-14686297D02*
X13955253Y-14667249D01*
X13955253Y-14667249D02*
X13945729Y-14629154D01*
X13945729Y-14629154D02*
X13945729Y-14581535D01*
X13945729Y-14581535D02*
X13955253Y-14543439D01*
X13955253Y-14543439D02*
X13964777Y-14524392D01*
X13964777Y-14524392D02*
X13974301Y-14514868D01*
X13974301Y-14514868D02*
X13993348Y-14505344D01*
X14174301Y-14591058D02*
X14155253Y-14581535D01*
X14155253Y-14581535D02*
X14145729Y-14572011D01*
X14145729Y-14572011D02*
X14136206Y-14552963D01*
X14136206Y-14552963D02*
X14136206Y-14543439D01*
X14136206Y-14543439D02*
X14145729Y-14524392D01*
X14145729Y-14524392D02*
X14155253Y-14514868D01*
X14155253Y-14514868D02*
X14174301Y-14505344D01*
X14174301Y-14505344D02*
X14212396Y-14505344D01*
X14212396Y-14505344D02*
X14231444Y-14514868D01*
X14231444Y-14514868D02*
X14240967Y-14524392D01*
X14240967Y-14524392D02*
X14250491Y-14543439D01*
X14250491Y-14543439D02*
X14250491Y-14552963D01*
X14250491Y-14552963D02*
X14240967Y-14572011D01*
X14240967Y-14572011D02*
X14231444Y-14581535D01*
X14231444Y-14581535D02*
X14212396Y-14591058D01*
X14212396Y-14591058D02*
X14174301Y-14591058D01*
X14174301Y-14591058D02*
X14155253Y-14600582D01*
X14155253Y-14600582D02*
X14145729Y-14610106D01*
X14145729Y-14610106D02*
X14136206Y-14629154D01*
X14136206Y-14629154D02*
X14136206Y-14667249D01*
X14136206Y-14667249D02*
X14145729Y-14686297D01*
X14145729Y-14686297D02*
X14155253Y-14695820D01*
X14155253Y-14695820D02*
X14174301Y-14705344D01*
X14174301Y-14705344D02*
X14212396Y-14705344D01*
X14212396Y-14705344D02*
X14231444Y-14695820D01*
X14231444Y-14695820D02*
X14240967Y-14686297D01*
X14240967Y-14686297D02*
X14250491Y-14667249D01*
X14250491Y-14667249D02*
X14250491Y-14629154D01*
X14250491Y-14629154D02*
X14240967Y-14610106D01*
X14240967Y-14610106D02*
X14231444Y-14600582D01*
X14231444Y-14600582D02*
X14212396Y-14591058D01*
X14326682Y-14524392D02*
X14336206Y-14514868D01*
X14336206Y-14514868D02*
X14355253Y-14505344D01*
X14355253Y-14505344D02*
X14402872Y-14505344D01*
X14402872Y-14505344D02*
X14421920Y-14514868D01*
X14421920Y-14514868D02*
X14431444Y-14524392D01*
X14431444Y-14524392D02*
X14440967Y-14543439D01*
X14440967Y-14543439D02*
X14440967Y-14562487D01*
X14440967Y-14562487D02*
X14431444Y-14591058D01*
X14431444Y-14591058D02*
X14317158Y-14705344D01*
X14317158Y-14705344D02*
X14440967Y-14705344D01*
X14507634Y-14505344D02*
X14640967Y-14505344D01*
X14640967Y-14505344D02*
X14555253Y-14705344D01*
X14707634Y-14505344D02*
X14707634Y-14543439D01*
X14783825Y-14505344D02*
X14783825Y-14543439D01*
X15079063Y-14781535D02*
X15069539Y-14772011D01*
X15069539Y-14772011D02*
X15050491Y-14743439D01*
X15050491Y-14743439D02*
X15040968Y-14724392D01*
X15040968Y-14724392D02*
X15031444Y-14695820D01*
X15031444Y-14695820D02*
X15021920Y-14648201D01*
X15021920Y-14648201D02*
X15021920Y-14610106D01*
X15021920Y-14610106D02*
X15031444Y-14562487D01*
X15031444Y-14562487D02*
X15040968Y-14533916D01*
X15040968Y-14533916D02*
X15050491Y-14514868D01*
X15050491Y-14514868D02*
X15069539Y-14486297D01*
X15069539Y-14486297D02*
X15079063Y-14476773D01*
X15260015Y-14705344D02*
X15145729Y-14705344D01*
X15202872Y-14705344D02*
X15202872Y-14505344D01*
X15202872Y-14505344D02*
X15183825Y-14533916D01*
X15183825Y-14533916D02*
X15164777Y-14552963D01*
X15164777Y-14552963D02*
X15145729Y-14562487D01*
X15336206Y-14524392D02*
X15345729Y-14514868D01*
X15345729Y-14514868D02*
X15364777Y-14505344D01*
X15364777Y-14505344D02*
X15412396Y-14505344D01*
X15412396Y-14505344D02*
X15431444Y-14514868D01*
X15431444Y-14514868D02*
X15440968Y-14524392D01*
X15440968Y-14524392D02*
X15450491Y-14543439D01*
X15450491Y-14543439D02*
X15450491Y-14562487D01*
X15450491Y-14562487D02*
X15440968Y-14591058D01*
X15440968Y-14591058D02*
X15326682Y-14705344D01*
X15326682Y-14705344D02*
X15450491Y-14705344D01*
X15688587Y-14705344D02*
X15688587Y-14505344D01*
X15774301Y-14705344D02*
X15774301Y-14600582D01*
X15774301Y-14600582D02*
X15764777Y-14581535D01*
X15764777Y-14581535D02*
X15745730Y-14572011D01*
X15745730Y-14572011D02*
X15717158Y-14572011D01*
X15717158Y-14572011D02*
X15698110Y-14581535D01*
X15698110Y-14581535D02*
X15688587Y-14591058D01*
X15898110Y-14705344D02*
X15879063Y-14695820D01*
X15879063Y-14695820D02*
X15869539Y-14686297D01*
X15869539Y-14686297D02*
X15860015Y-14667249D01*
X15860015Y-14667249D02*
X15860015Y-14610106D01*
X15860015Y-14610106D02*
X15869539Y-14591058D01*
X15869539Y-14591058D02*
X15879063Y-14581535D01*
X15879063Y-14581535D02*
X15898110Y-14572011D01*
X15898110Y-14572011D02*
X15926682Y-14572011D01*
X15926682Y-14572011D02*
X15945730Y-14581535D01*
X15945730Y-14581535D02*
X15955253Y-14591058D01*
X15955253Y-14591058D02*
X15964777Y-14610106D01*
X15964777Y-14610106D02*
X15964777Y-14667249D01*
X15964777Y-14667249D02*
X15955253Y-14686297D01*
X15955253Y-14686297D02*
X15945730Y-14695820D01*
X15945730Y-14695820D02*
X15926682Y-14705344D01*
X15926682Y-14705344D02*
X15898110Y-14705344D01*
X16079063Y-14705344D02*
X16060015Y-14695820D01*
X16060015Y-14695820D02*
X16050491Y-14676773D01*
X16050491Y-14676773D02*
X16050491Y-14505344D01*
X16231444Y-14695820D02*
X16212396Y-14705344D01*
X16212396Y-14705344D02*
X16174301Y-14705344D01*
X16174301Y-14705344D02*
X16155253Y-14695820D01*
X16155253Y-14695820D02*
X16145730Y-14676773D01*
X16145730Y-14676773D02*
X16145730Y-14600582D01*
X16145730Y-14600582D02*
X16155253Y-14581535D01*
X16155253Y-14581535D02*
X16174301Y-14572011D01*
X16174301Y-14572011D02*
X16212396Y-14572011D01*
X16212396Y-14572011D02*
X16231444Y-14581535D01*
X16231444Y-14581535D02*
X16240968Y-14600582D01*
X16240968Y-14600582D02*
X16240968Y-14619630D01*
X16240968Y-14619630D02*
X16145730Y-14638678D01*
X16317158Y-14695820D02*
X16336206Y-14705344D01*
X16336206Y-14705344D02*
X16374301Y-14705344D01*
X16374301Y-14705344D02*
X16393349Y-14695820D01*
X16393349Y-14695820D02*
X16402872Y-14676773D01*
X16402872Y-14676773D02*
X16402872Y-14667249D01*
X16402872Y-14667249D02*
X16393349Y-14648201D01*
X16393349Y-14648201D02*
X16374301Y-14638678D01*
X16374301Y-14638678D02*
X16345730Y-14638678D01*
X16345730Y-14638678D02*
X16326682Y-14629154D01*
X16326682Y-14629154D02*
X16317158Y-14610106D01*
X16317158Y-14610106D02*
X16317158Y-14600582D01*
X16317158Y-14600582D02*
X16326682Y-14581535D01*
X16326682Y-14581535D02*
X16345730Y-14572011D01*
X16345730Y-14572011D02*
X16374301Y-14572011D01*
X16374301Y-14572011D02*
X16393349Y-14581535D01*
X16469539Y-14781535D02*
X16479063Y-14772011D01*
X16479063Y-14772011D02*
X16498111Y-14743439D01*
X16498111Y-14743439D02*
X16507634Y-14724392D01*
X16507634Y-14724392D02*
X16517158Y-14695820D01*
X16517158Y-14695820D02*
X16526682Y-14648201D01*
X16526682Y-14648201D02*
X16526682Y-14610106D01*
X16526682Y-14610106D02*
X16517158Y-14562487D01*
X16517158Y-14562487D02*
X16507634Y-14533916D01*
X16507634Y-14533916D02*
X16498111Y-14514868D01*
X16498111Y-14514868D02*
X16479063Y-14486297D01*
X16479063Y-14486297D02*
X16469539Y-14476773D01*
X16831444Y-14781535D02*
X16821920Y-14772011D01*
X16821920Y-14772011D02*
X16802873Y-14743439D01*
X16802873Y-14743439D02*
X16793349Y-14724392D01*
X16793349Y-14724392D02*
X16783825Y-14695820D01*
X16783825Y-14695820D02*
X16774301Y-14648201D01*
X16774301Y-14648201D02*
X16774301Y-14610106D01*
X16774301Y-14610106D02*
X16783825Y-14562487D01*
X16783825Y-14562487D02*
X16793349Y-14533916D01*
X16793349Y-14533916D02*
X16802873Y-14514868D01*
X16802873Y-14514868D02*
X16821920Y-14486297D01*
X16821920Y-14486297D02*
X16831444Y-14476773D01*
X16907634Y-14572011D02*
X16907634Y-14705344D01*
X16907634Y-14591058D02*
X16917158Y-14581535D01*
X16917158Y-14581535D02*
X16936206Y-14572011D01*
X16936206Y-14572011D02*
X16964777Y-14572011D01*
X16964777Y-14572011D02*
X16983825Y-14581535D01*
X16983825Y-14581535D02*
X16993349Y-14600582D01*
X16993349Y-14600582D02*
X16993349Y-14705344D01*
X17117158Y-14705344D02*
X17098111Y-14695820D01*
X17098111Y-14695820D02*
X17088587Y-14686297D01*
X17088587Y-14686297D02*
X17079063Y-14667249D01*
X17079063Y-14667249D02*
X17079063Y-14610106D01*
X17079063Y-14610106D02*
X17088587Y-14591058D01*
X17088587Y-14591058D02*
X17098111Y-14581535D01*
X17098111Y-14581535D02*
X17117158Y-14572011D01*
X17117158Y-14572011D02*
X17145730Y-14572011D01*
X17145730Y-14572011D02*
X17164777Y-14581535D01*
X17164777Y-14581535D02*
X17174301Y-14591058D01*
X17174301Y-14591058D02*
X17183825Y-14610106D01*
X17183825Y-14610106D02*
X17183825Y-14667249D01*
X17183825Y-14667249D02*
X17174301Y-14686297D01*
X17174301Y-14686297D02*
X17164777Y-14695820D01*
X17164777Y-14695820D02*
X17145730Y-14705344D01*
X17145730Y-14705344D02*
X17117158Y-14705344D01*
X17240968Y-14572011D02*
X17317158Y-14572011D01*
X17269539Y-14505344D02*
X17269539Y-14676773D01*
X17269539Y-14676773D02*
X17279063Y-14695820D01*
X17279063Y-14695820D02*
X17298111Y-14705344D01*
X17298111Y-14705344D02*
X17317158Y-14705344D01*
X17536206Y-14572011D02*
X17536206Y-14772011D01*
X17536206Y-14581535D02*
X17555254Y-14572011D01*
X17555254Y-14572011D02*
X17593349Y-14572011D01*
X17593349Y-14572011D02*
X17612396Y-14581535D01*
X17612396Y-14581535D02*
X17621920Y-14591058D01*
X17621920Y-14591058D02*
X17631444Y-14610106D01*
X17631444Y-14610106D02*
X17631444Y-14667249D01*
X17631444Y-14667249D02*
X17621920Y-14686297D01*
X17621920Y-14686297D02*
X17612396Y-14695820D01*
X17612396Y-14695820D02*
X17593349Y-14705344D01*
X17593349Y-14705344D02*
X17555254Y-14705344D01*
X17555254Y-14705344D02*
X17536206Y-14695820D01*
X17745730Y-14705344D02*
X17726682Y-14695820D01*
X17726682Y-14695820D02*
X17717158Y-14676773D01*
X17717158Y-14676773D02*
X17717158Y-14505344D01*
X17907635Y-14705344D02*
X17907635Y-14600582D01*
X17907635Y-14600582D02*
X17898111Y-14581535D01*
X17898111Y-14581535D02*
X17879063Y-14572011D01*
X17879063Y-14572011D02*
X17840968Y-14572011D01*
X17840968Y-14572011D02*
X17821920Y-14581535D01*
X17907635Y-14695820D02*
X17888587Y-14705344D01*
X17888587Y-14705344D02*
X17840968Y-14705344D01*
X17840968Y-14705344D02*
X17821920Y-14695820D01*
X17821920Y-14695820D02*
X17812396Y-14676773D01*
X17812396Y-14676773D02*
X17812396Y-14657725D01*
X17812396Y-14657725D02*
X17821920Y-14638678D01*
X17821920Y-14638678D02*
X17840968Y-14629154D01*
X17840968Y-14629154D02*
X17888587Y-14629154D01*
X17888587Y-14629154D02*
X17907635Y-14619630D01*
X17974301Y-14572011D02*
X18050492Y-14572011D01*
X18002873Y-14505344D02*
X18002873Y-14676773D01*
X18002873Y-14676773D02*
X18012396Y-14695820D01*
X18012396Y-14695820D02*
X18031444Y-14705344D01*
X18031444Y-14705344D02*
X18050492Y-14705344D01*
X18193349Y-14695820D02*
X18174301Y-14705344D01*
X18174301Y-14705344D02*
X18136206Y-14705344D01*
X18136206Y-14705344D02*
X18117158Y-14695820D01*
X18117158Y-14695820D02*
X18107635Y-14676773D01*
X18107635Y-14676773D02*
X18107635Y-14600582D01*
X18107635Y-14600582D02*
X18117158Y-14581535D01*
X18117158Y-14581535D02*
X18136206Y-14572011D01*
X18136206Y-14572011D02*
X18174301Y-14572011D01*
X18174301Y-14572011D02*
X18193349Y-14581535D01*
X18193349Y-14581535D02*
X18202873Y-14600582D01*
X18202873Y-14600582D02*
X18202873Y-14619630D01*
X18202873Y-14619630D02*
X18107635Y-14638678D01*
X18374301Y-14705344D02*
X18374301Y-14505344D01*
X18374301Y-14695820D02*
X18355254Y-14705344D01*
X18355254Y-14705344D02*
X18317158Y-14705344D01*
X18317158Y-14705344D02*
X18298111Y-14695820D01*
X18298111Y-14695820D02*
X18288587Y-14686297D01*
X18288587Y-14686297D02*
X18279063Y-14667249D01*
X18279063Y-14667249D02*
X18279063Y-14610106D01*
X18279063Y-14610106D02*
X18288587Y-14591058D01*
X18288587Y-14591058D02*
X18298111Y-14581535D01*
X18298111Y-14581535D02*
X18317158Y-14572011D01*
X18317158Y-14572011D02*
X18355254Y-14572011D01*
X18355254Y-14572011D02*
X18374301Y-14581535D01*
X18450492Y-14781535D02*
X18460016Y-14772011D01*
X18460016Y-14772011D02*
X18479063Y-14743439D01*
X18479063Y-14743439D02*
X18488587Y-14724392D01*
X18488587Y-14724392D02*
X18498111Y-14695820D01*
X18498111Y-14695820D02*
X18507635Y-14648201D01*
X18507635Y-14648201D02*
X18507635Y-14610106D01*
X18507635Y-14610106D02*
X18498111Y-14562487D01*
X18498111Y-14562487D02*
X18488587Y-14533916D01*
X18488587Y-14533916D02*
X18479063Y-14514868D01*
X18479063Y-14514868D02*
X18460016Y-14486297D01*
X18460016Y-14486297D02*
X18450492Y-14476773D01*
M02*
