%TF.GenerationSoftware,KiCad,Pcbnew,7.0.7*%
%TF.CreationDate,2023-11-12T19:42:32-08:00*%
%TF.ProjectId,CodeStackOrnament2023,436f6465-5374-4616-936b-4f726e616d65,rev?*%
%TF.SameCoordinates,Original*%
%TF.FileFunction,Soldermask,Bot*%
%TF.FilePolarity,Negative*%
%FSLAX46Y46*%
G04 Gerber Fmt 4.6, Leading zero omitted, Abs format (unit mm)*
G04 Created by KiCad (PCBNEW 7.0.7) date 2023-11-12 19:42:32*
%MOMM*%
%LPD*%
G01*
G04 APERTURE LIST*
%ADD10C,0.200000*%
%ADD11C,0.565287*%
%ADD12C,0.000000*%
%ADD13C,0.513897*%
%ADD14C,2.100000*%
%ADD15C,1.734000*%
G04 APERTURE END LIST*
D10*
X160957965Y-109383172D02*
X160957965Y-111268670D01*
X153425250Y-103735985D01*
X155310748Y-103735985D01*
X160957965Y-109383172D01*
G36*
X160957965Y-109383172D02*
G01*
X160957965Y-111268670D01*
X153425250Y-103735985D01*
X155310748Y-103735985D01*
X160957965Y-109383172D01*
G37*
X153354343Y-113177727D02*
X153178542Y-113190413D01*
X153003233Y-113207747D01*
X152828507Y-113229713D01*
X152654454Y-113256295D01*
X152481166Y-113287477D01*
X152308734Y-113323245D01*
X152137248Y-113363581D01*
X151966800Y-113408471D01*
X151914871Y-113423759D01*
X151863240Y-113439385D01*
X151812002Y-113455377D01*
X151761249Y-113471764D01*
X150379886Y-112090416D01*
X150379886Y-110204918D01*
X153354343Y-113177727D01*
G36*
X153354343Y-113177727D02*
G01*
X153178542Y-113190413D01*
X153003233Y-113207747D01*
X152828507Y-113229713D01*
X152654454Y-113256295D01*
X152481166Y-113287477D01*
X152308734Y-113323245D01*
X152137248Y-113363581D01*
X151966800Y-113408471D01*
X151914871Y-113423759D01*
X151863240Y-113439385D01*
X151812002Y-113455377D01*
X151761249Y-113471764D01*
X150379886Y-112090416D01*
X150379886Y-110204918D01*
X153354343Y-113177727D01*
G37*
X146192157Y-103166039D02*
X144305118Y-103166039D01*
X139231921Y-98092888D01*
X139231921Y-96207390D01*
X146192157Y-103166039D01*
G36*
X146192157Y-103166039D02*
G01*
X144305118Y-103166039D01*
X139231921Y-98092888D01*
X139231921Y-96207390D01*
X146192157Y-103166039D01*
G37*
D11*
X165471864Y-113135305D02*
X165455293Y-113726274D01*
X165404489Y-114295856D01*
X165317819Y-114841740D01*
X165260523Y-115105074D01*
X165193649Y-115361617D01*
X165116991Y-115611082D01*
X165030346Y-115853178D01*
X164933508Y-116087617D01*
X164826275Y-116314112D01*
X164708442Y-116532372D01*
X164579804Y-116742109D01*
X164440158Y-116943035D01*
X164289299Y-117134860D01*
X164127022Y-117317297D01*
X163953125Y-117490056D01*
X163767402Y-117652848D01*
X163569649Y-117805386D01*
X163359663Y-117947379D01*
X163137238Y-118078541D01*
X162902171Y-118198580D01*
X162654258Y-118307210D01*
X162393294Y-118404141D01*
X162119075Y-118489085D01*
X161831397Y-118561752D01*
X161530056Y-118621855D01*
X161214847Y-118669104D01*
X160885566Y-118703211D01*
X160542009Y-118723887D01*
X160183972Y-118730843D01*
X159786334Y-118717709D01*
X159389105Y-118697321D01*
X158992381Y-118669690D01*
X158596262Y-118634826D01*
X158200846Y-118592740D01*
X157806230Y-118543441D01*
X157412514Y-118486940D01*
X157019794Y-118423247D01*
X156631617Y-118359818D01*
X156242441Y-118303505D01*
X155852364Y-118254316D01*
X155461486Y-118212260D01*
X155069906Y-118177346D01*
X154677721Y-118149584D01*
X154285032Y-118128983D01*
X153891937Y-118115551D01*
X153766957Y-118111691D01*
X153642302Y-118112999D01*
X153518124Y-118119431D01*
X153394573Y-118130944D01*
X153271802Y-118147495D01*
X153149961Y-118169041D01*
X153029202Y-118195538D01*
X152909678Y-118226942D01*
X152791538Y-118263211D01*
X152674935Y-118304302D01*
X152560020Y-118350171D01*
X152446944Y-118400775D01*
X152335860Y-118456070D01*
X152226917Y-118516013D01*
X152120269Y-118580562D01*
X152016066Y-118649672D01*
X151912103Y-118736268D01*
X151811989Y-118831231D01*
X151716119Y-118934918D01*
X151624887Y-119047687D01*
X151538687Y-119169895D01*
X151457913Y-119301897D01*
X151382961Y-119444051D01*
X151314224Y-119596714D01*
X151252096Y-119760242D01*
X151196973Y-119934992D01*
X151149248Y-120121322D01*
X151109316Y-120319587D01*
X151077572Y-120530146D01*
X151054409Y-120753353D01*
X151040222Y-120989567D01*
X151035405Y-121239144D01*
X149146727Y-121239144D01*
X149145521Y-121112663D01*
X149141934Y-120989567D01*
X149136015Y-120869811D01*
X149127811Y-120753352D01*
X149117371Y-120640144D01*
X149104743Y-120530143D01*
X149089975Y-120423304D01*
X149073116Y-120319583D01*
X149054212Y-120218935D01*
X149033313Y-120121315D01*
X149010467Y-120026680D01*
X148985721Y-119934984D01*
X148959124Y-119846182D01*
X148930724Y-119760231D01*
X148900570Y-119677086D01*
X148868708Y-119596701D01*
X148835188Y-119519033D01*
X148800057Y-119444037D01*
X148763363Y-119371668D01*
X148725156Y-119301882D01*
X148685482Y-119234634D01*
X148644390Y-119169880D01*
X148601928Y-119107574D01*
X148558145Y-119047673D01*
X148466805Y-118934906D01*
X148370755Y-118831221D01*
X148270380Y-118736262D01*
X148166066Y-118649672D01*
X148061860Y-118580562D01*
X147955210Y-118516013D01*
X147846266Y-118456070D01*
X147735181Y-118400775D01*
X147622105Y-118350171D01*
X147507190Y-118304302D01*
X147390587Y-118263211D01*
X147272448Y-118226942D01*
X147152924Y-118195538D01*
X147032167Y-118169041D01*
X146910327Y-118147495D01*
X146787557Y-118130944D01*
X146664007Y-118119431D01*
X146539829Y-118112999D01*
X146415175Y-118111691D01*
X146290195Y-118115551D01*
X145897362Y-118128994D01*
X145504940Y-118149603D01*
X145113026Y-118177368D01*
X144721716Y-118212281D01*
X144331107Y-118254331D01*
X143941296Y-118303510D01*
X143552379Y-118359807D01*
X143164453Y-118423214D01*
X142771484Y-118487195D01*
X142377511Y-118543980D01*
X141982634Y-118593559D01*
X141586950Y-118635922D01*
X141190561Y-118671057D01*
X140793563Y-118698954D01*
X140396058Y-118719602D01*
X139998143Y-118732992D01*
X139640108Y-118726029D01*
X139296552Y-118705336D01*
X138967273Y-118671200D01*
X138652065Y-118623913D01*
X138350725Y-118563762D01*
X138063048Y-118491038D01*
X137788830Y-118406030D01*
X137527867Y-118309028D01*
X137279954Y-118200321D01*
X137044888Y-118080198D01*
X136822465Y-117948950D01*
X136612479Y-117806865D01*
X136414727Y-117654233D01*
X136229004Y-117491344D01*
X136055107Y-117318487D01*
X135892832Y-117135951D01*
X135741973Y-116944027D01*
X135602327Y-116743003D01*
X135473689Y-116533169D01*
X135355856Y-116314814D01*
X135248623Y-116088229D01*
X135151786Y-115853702D01*
X135065141Y-115611523D01*
X134988483Y-115361981D01*
X134864313Y-114841969D01*
X134777643Y-114295980D01*
X134726839Y-113726331D01*
X134710268Y-113135338D01*
X134710268Y-112323464D01*
X136833981Y-112323464D01*
X136833981Y-112776415D01*
X136837578Y-112943332D01*
X136849399Y-113108139D01*
X136869246Y-113270633D01*
X136896922Y-113430612D01*
X136932229Y-113587874D01*
X136974972Y-113742217D01*
X137024951Y-113893440D01*
X137081970Y-114041340D01*
X137145832Y-114185714D01*
X137216339Y-114326362D01*
X137293294Y-114463081D01*
X137376500Y-114595668D01*
X137465759Y-114723923D01*
X137560875Y-114847643D01*
X137661649Y-114966625D01*
X137767885Y-115080669D01*
X137879385Y-115189571D01*
X137995952Y-115293130D01*
X138117388Y-115391144D01*
X138243497Y-115483411D01*
X138374081Y-115569729D01*
X138508943Y-115649895D01*
X138647886Y-115723708D01*
X138790711Y-115790966D01*
X138937223Y-115851466D01*
X139087223Y-115905008D01*
X139240515Y-115951387D01*
X139396900Y-115990404D01*
X139556182Y-116021855D01*
X139718164Y-116045538D01*
X139882648Y-116061252D01*
X140049437Y-116068795D01*
X140259345Y-116069858D01*
X140468185Y-116066650D01*
X140675962Y-116059169D01*
X140882678Y-116047411D01*
X141052898Y-116036611D01*
X141223711Y-116023401D01*
X141394918Y-116007786D01*
X141566318Y-115989773D01*
X141918072Y-115947879D01*
X142269319Y-115901863D01*
X142619999Y-115851730D01*
X142970053Y-115797487D01*
X143333858Y-115737126D01*
X143698724Y-115684374D01*
X144064531Y-115639244D01*
X144431159Y-115601745D01*
X144798488Y-115571886D01*
X145166400Y-115549680D01*
X145534775Y-115535134D01*
X145903493Y-115528261D01*
X146108602Y-115528261D01*
X146328649Y-115532525D01*
X146465393Y-115541085D01*
X146651267Y-115553875D01*
X146813641Y-115570962D01*
X146963193Y-115588082D01*
X147045444Y-115600475D01*
X147127493Y-115614061D01*
X147209328Y-115628839D01*
X147290934Y-115644806D01*
X147372300Y-115661959D01*
X147453413Y-115680296D01*
X147534258Y-115699815D01*
X147614824Y-115720513D01*
X147656825Y-115731836D01*
X147699224Y-115743751D01*
X147720447Y-115750119D01*
X147741619Y-115756862D01*
X147762691Y-115764055D01*
X147783611Y-115771773D01*
X147870362Y-115799769D01*
X147956364Y-115829869D01*
X148041580Y-115862057D01*
X148125970Y-115896320D01*
X148209495Y-115932642D01*
X148292116Y-115971010D01*
X148373795Y-116011408D01*
X148454494Y-116053823D01*
X148482895Y-116069014D01*
X148511123Y-116084523D01*
X148539174Y-116100349D01*
X148567046Y-116116488D01*
X148594735Y-116132940D01*
X148622241Y-116149700D01*
X148649560Y-116166767D01*
X148676689Y-116184139D01*
X148740417Y-116227171D01*
X148803079Y-116271684D01*
X148864650Y-116317658D01*
X148925104Y-116365074D01*
X148984418Y-116413910D01*
X149042564Y-116464147D01*
X149099518Y-116515764D01*
X149155254Y-116568743D01*
X149169113Y-116581583D01*
X149182830Y-116594572D01*
X149196406Y-116607710D01*
X149209837Y-116620994D01*
X149223124Y-116634422D01*
X149236265Y-116647994D01*
X149249259Y-116661707D01*
X149262105Y-116675560D01*
X149293161Y-116709163D01*
X149323673Y-116743248D01*
X149353635Y-116777809D01*
X149383041Y-116812842D01*
X149411883Y-116848341D01*
X149440157Y-116884300D01*
X149467857Y-116920714D01*
X149494975Y-116957576D01*
X149508281Y-116975205D01*
X149521373Y-116992990D01*
X149534249Y-117010930D01*
X149546909Y-117029020D01*
X149559353Y-117047259D01*
X149571580Y-117065642D01*
X149583590Y-117084168D01*
X149595381Y-117102831D01*
X149620519Y-117140791D01*
X149645046Y-117179134D01*
X149668958Y-117217855D01*
X149692250Y-117256948D01*
X149714917Y-117296405D01*
X149736955Y-117336222D01*
X149758358Y-117376391D01*
X149779123Y-117416906D01*
X149791910Y-117440156D01*
X149804363Y-117463580D01*
X149816483Y-117487173D01*
X149828269Y-117510933D01*
X149870986Y-117607076D01*
X149883886Y-117635116D01*
X149896377Y-117663338D01*
X149908458Y-117691737D01*
X149920131Y-117720305D01*
X149967162Y-117842095D01*
X149984338Y-117890881D01*
X150000960Y-117939852D01*
X150017024Y-117989004D01*
X150032530Y-118038333D01*
X150047475Y-118087835D01*
X150061859Y-118137506D01*
X150075679Y-118187343D01*
X150088934Y-118237340D01*
X150101959Y-118186359D01*
X150115434Y-118135929D01*
X150129411Y-118086000D01*
X150143940Y-118036520D01*
X150159071Y-117987440D01*
X150174853Y-117938710D01*
X150191338Y-117890278D01*
X150208576Y-117842095D01*
X150230477Y-117779589D01*
X150236204Y-117764092D01*
X150242232Y-117748946D01*
X150248660Y-117734301D01*
X150252056Y-117727213D01*
X150255589Y-117720305D01*
X150306867Y-117607076D01*
X150349584Y-117510933D01*
X150394449Y-117416906D01*
X150415549Y-117376413D01*
X150437267Y-117336260D01*
X150459599Y-117296453D01*
X150482541Y-117256998D01*
X150506090Y-117217902D01*
X150530242Y-117179172D01*
X150554993Y-117140813D01*
X150580339Y-117102831D01*
X150592131Y-117084168D01*
X150604142Y-117065642D01*
X150616372Y-117047259D01*
X150628817Y-117029020D01*
X150641479Y-117010930D01*
X150654355Y-116992990D01*
X150667444Y-116975205D01*
X150680745Y-116957576D01*
X150707869Y-116920714D01*
X150735573Y-116884300D01*
X150763850Y-116848341D01*
X150792695Y-116812842D01*
X150822101Y-116777809D01*
X150852064Y-116743248D01*
X150882576Y-116709163D01*
X150913632Y-116675560D01*
X150926477Y-116661696D01*
X150939469Y-116647975D01*
X150952607Y-116634398D01*
X150965891Y-116620968D01*
X150979320Y-116607686D01*
X150992893Y-116594553D01*
X151006608Y-116581572D01*
X151020467Y-116568743D01*
X151076273Y-116516095D01*
X151133275Y-116464789D01*
X151191447Y-116414846D01*
X151250767Y-116366286D01*
X151311209Y-116319130D01*
X151372750Y-116273398D01*
X151435366Y-116229110D01*
X151499031Y-116186287D01*
X151526470Y-116168845D01*
X151554257Y-116151758D01*
X151582343Y-116134975D01*
X151610679Y-116118444D01*
X151667900Y-116085935D01*
X151725524Y-116053823D01*
X151805696Y-116011495D01*
X151886843Y-115971157D01*
X151968927Y-115932824D01*
X152051912Y-115896513D01*
X152135760Y-115862239D01*
X152220433Y-115830020D01*
X152305896Y-115799870D01*
X152392110Y-115771807D01*
X152434500Y-115757872D01*
X152477122Y-115744674D01*
X152519967Y-115732219D01*
X152563028Y-115720513D01*
X152565177Y-115720513D01*
X152646007Y-115699802D01*
X152727117Y-115680272D01*
X152808494Y-115661924D01*
X152890126Y-115644764D01*
X152971999Y-115628793D01*
X153054101Y-115614014D01*
X153136418Y-115600432D01*
X153218939Y-115588048D01*
X153368491Y-115570962D01*
X153528717Y-115553875D01*
X153551865Y-115551230D01*
X153575045Y-115548883D01*
X153598252Y-115546836D01*
X153621484Y-115545088D01*
X153644737Y-115543639D01*
X153668008Y-115542488D01*
X153691294Y-115541637D01*
X153714591Y-115541085D01*
X153851335Y-115532525D01*
X153877968Y-115531117D01*
X153904950Y-115530060D01*
X153959762Y-115528794D01*
X154015377Y-115528328D01*
X154071399Y-115528261D01*
X154276508Y-115528261D01*
X154645226Y-115535123D01*
X155013602Y-115549661D01*
X155381517Y-115571863D01*
X155748848Y-115601719D01*
X156115477Y-115639220D01*
X156481284Y-115684356D01*
X156846147Y-115737115D01*
X157209947Y-115797487D01*
X157388979Y-115826796D01*
X157567016Y-115854106D01*
X157743857Y-115879811D01*
X157919301Y-115904305D01*
X158262826Y-115949113D01*
X158607065Y-115987909D01*
X158951928Y-116020689D01*
X159297322Y-116047445D01*
X159504032Y-116059202D01*
X159711811Y-116066680D01*
X159920661Y-116069877D01*
X160130580Y-116068795D01*
X160297412Y-116061247D01*
X160461935Y-116045520D01*
X160623950Y-116021814D01*
X160783261Y-115990332D01*
X160939669Y-115951278D01*
X161092978Y-115904853D01*
X161242990Y-115851260D01*
X161389506Y-115790702D01*
X161532330Y-115723381D01*
X161671265Y-115649499D01*
X161806112Y-115569260D01*
X161936674Y-115482866D01*
X162062753Y-115390519D01*
X162184153Y-115292422D01*
X162300675Y-115188777D01*
X162412122Y-115079788D01*
X162518297Y-114965655D01*
X162619001Y-114846583D01*
X162714038Y-114722774D01*
X162803210Y-114594429D01*
X162886319Y-114461752D01*
X162963167Y-114324946D01*
X163033558Y-114184212D01*
X163097294Y-114039753D01*
X163154177Y-113891773D01*
X163204010Y-113740472D01*
X163246595Y-113586055D01*
X163281734Y-113428723D01*
X163309231Y-113268679D01*
X163328887Y-113106125D01*
X163340505Y-112941265D01*
X163343887Y-112774300D01*
X163343887Y-112325612D01*
X165471864Y-112323430D01*
X165471864Y-113135305D01*
G36*
X165471864Y-113135305D02*
G01*
X165455293Y-113726274D01*
X165404489Y-114295856D01*
X165317819Y-114841740D01*
X165260523Y-115105074D01*
X165193649Y-115361617D01*
X165116991Y-115611082D01*
X165030346Y-115853178D01*
X164933508Y-116087617D01*
X164826275Y-116314112D01*
X164708442Y-116532372D01*
X164579804Y-116742109D01*
X164440158Y-116943035D01*
X164289299Y-117134860D01*
X164127022Y-117317297D01*
X163953125Y-117490056D01*
X163767402Y-117652848D01*
X163569649Y-117805386D01*
X163359663Y-117947379D01*
X163137238Y-118078541D01*
X162902171Y-118198580D01*
X162654258Y-118307210D01*
X162393294Y-118404141D01*
X162119075Y-118489085D01*
X161831397Y-118561752D01*
X161530056Y-118621855D01*
X161214847Y-118669104D01*
X160885566Y-118703211D01*
X160542009Y-118723887D01*
X160183972Y-118730843D01*
X159786334Y-118717709D01*
X159389105Y-118697321D01*
X158992381Y-118669690D01*
X158596262Y-118634826D01*
X158200846Y-118592740D01*
X157806230Y-118543441D01*
X157412514Y-118486940D01*
X157019794Y-118423247D01*
X156631617Y-118359818D01*
X156242441Y-118303505D01*
X155852364Y-118254316D01*
X155461486Y-118212260D01*
X155069906Y-118177346D01*
X154677721Y-118149584D01*
X154285032Y-118128983D01*
X153891937Y-118115551D01*
X153766957Y-118111691D01*
X153642302Y-118112999D01*
X153518124Y-118119431D01*
X153394573Y-118130944D01*
X153271802Y-118147495D01*
X153149961Y-118169041D01*
X153029202Y-118195538D01*
X152909678Y-118226942D01*
X152791538Y-118263211D01*
X152674935Y-118304302D01*
X152560020Y-118350171D01*
X152446944Y-118400775D01*
X152335860Y-118456070D01*
X152226917Y-118516013D01*
X152120269Y-118580562D01*
X152016066Y-118649672D01*
X151912103Y-118736268D01*
X151811989Y-118831231D01*
X151716119Y-118934918D01*
X151624887Y-119047687D01*
X151538687Y-119169895D01*
X151457913Y-119301897D01*
X151382961Y-119444051D01*
X151314224Y-119596714D01*
X151252096Y-119760242D01*
X151196973Y-119934992D01*
X151149248Y-120121322D01*
X151109316Y-120319587D01*
X151077572Y-120530146D01*
X151054409Y-120753353D01*
X151040222Y-120989567D01*
X151035405Y-121239144D01*
X149146727Y-121239144D01*
X149145521Y-121112663D01*
X149141934Y-120989567D01*
X149136015Y-120869811D01*
X149127811Y-120753352D01*
X149117371Y-120640144D01*
X149104743Y-120530143D01*
X149089975Y-120423304D01*
X149073116Y-120319583D01*
X149054212Y-120218935D01*
X149033313Y-120121315D01*
X149010467Y-120026680D01*
X148985721Y-119934984D01*
X148959124Y-119846182D01*
X148930724Y-119760231D01*
X148900570Y-119677086D01*
X148868708Y-119596701D01*
X148835188Y-119519033D01*
X148800057Y-119444037D01*
X148763363Y-119371668D01*
X148725156Y-119301882D01*
X148685482Y-119234634D01*
X148644390Y-119169880D01*
X148601928Y-119107574D01*
X148558145Y-119047673D01*
X148466805Y-118934906D01*
X148370755Y-118831221D01*
X148270380Y-118736262D01*
X148166066Y-118649672D01*
X148061860Y-118580562D01*
X147955210Y-118516013D01*
X147846266Y-118456070D01*
X147735181Y-118400775D01*
X147622105Y-118350171D01*
X147507190Y-118304302D01*
X147390587Y-118263211D01*
X147272448Y-118226942D01*
X147152924Y-118195538D01*
X147032167Y-118169041D01*
X146910327Y-118147495D01*
X146787557Y-118130944D01*
X146664007Y-118119431D01*
X146539829Y-118112999D01*
X146415175Y-118111691D01*
X146290195Y-118115551D01*
X145897362Y-118128994D01*
X145504940Y-118149603D01*
X145113026Y-118177368D01*
X144721716Y-118212281D01*
X144331107Y-118254331D01*
X143941296Y-118303510D01*
X143552379Y-118359807D01*
X143164453Y-118423214D01*
X142771484Y-118487195D01*
X142377511Y-118543980D01*
X141982634Y-118593559D01*
X141586950Y-118635922D01*
X141190561Y-118671057D01*
X140793563Y-118698954D01*
X140396058Y-118719602D01*
X139998143Y-118732992D01*
X139640108Y-118726029D01*
X139296552Y-118705336D01*
X138967273Y-118671200D01*
X138652065Y-118623913D01*
X138350725Y-118563762D01*
X138063048Y-118491038D01*
X137788830Y-118406030D01*
X137527867Y-118309028D01*
X137279954Y-118200321D01*
X137044888Y-118080198D01*
X136822465Y-117948950D01*
X136612479Y-117806865D01*
X136414727Y-117654233D01*
X136229004Y-117491344D01*
X136055107Y-117318487D01*
X135892832Y-117135951D01*
X135741973Y-116944027D01*
X135602327Y-116743003D01*
X135473689Y-116533169D01*
X135355856Y-116314814D01*
X135248623Y-116088229D01*
X135151786Y-115853702D01*
X135065141Y-115611523D01*
X134988483Y-115361981D01*
X134864313Y-114841969D01*
X134777643Y-114295980D01*
X134726839Y-113726331D01*
X134710268Y-113135338D01*
X134710268Y-112323464D01*
X136833981Y-112323464D01*
X136833981Y-112776415D01*
X136837578Y-112943332D01*
X136849399Y-113108139D01*
X136869246Y-113270633D01*
X136896922Y-113430612D01*
X136932229Y-113587874D01*
X136974972Y-113742217D01*
X137024951Y-113893440D01*
X137081970Y-114041340D01*
X137145832Y-114185714D01*
X137216339Y-114326362D01*
X137293294Y-114463081D01*
X137376500Y-114595668D01*
X137465759Y-114723923D01*
X137560875Y-114847643D01*
X137661649Y-114966625D01*
X137767885Y-115080669D01*
X137879385Y-115189571D01*
X137995952Y-115293130D01*
X138117388Y-115391144D01*
X138243497Y-115483411D01*
X138374081Y-115569729D01*
X138508943Y-115649895D01*
X138647886Y-115723708D01*
X138790711Y-115790966D01*
X138937223Y-115851466D01*
X139087223Y-115905008D01*
X139240515Y-115951387D01*
X139396900Y-115990404D01*
X139556182Y-116021855D01*
X139718164Y-116045538D01*
X139882648Y-116061252D01*
X140049437Y-116068795D01*
X140259345Y-116069858D01*
X140468185Y-116066650D01*
X140675962Y-116059169D01*
X140882678Y-116047411D01*
X141052898Y-116036611D01*
X141223711Y-116023401D01*
X141394918Y-116007786D01*
X141566318Y-115989773D01*
X141918072Y-115947879D01*
X142269319Y-115901863D01*
X142619999Y-115851730D01*
X142970053Y-115797487D01*
X143333858Y-115737126D01*
X143698724Y-115684374D01*
X144064531Y-115639244D01*
X144431159Y-115601745D01*
X144798488Y-115571886D01*
X145166400Y-115549680D01*
X145534775Y-115535134D01*
X145903493Y-115528261D01*
X146108602Y-115528261D01*
X146328649Y-115532525D01*
X146465393Y-115541085D01*
X146651267Y-115553875D01*
X146813641Y-115570962D01*
X146963193Y-115588082D01*
X147045444Y-115600475D01*
X147127493Y-115614061D01*
X147209328Y-115628839D01*
X147290934Y-115644806D01*
X147372300Y-115661959D01*
X147453413Y-115680296D01*
X147534258Y-115699815D01*
X147614824Y-115720513D01*
X147656825Y-115731836D01*
X147699224Y-115743751D01*
X147720447Y-115750119D01*
X147741619Y-115756862D01*
X147762691Y-115764055D01*
X147783611Y-115771773D01*
X147870362Y-115799769D01*
X147956364Y-115829869D01*
X148041580Y-115862057D01*
X148125970Y-115896320D01*
X148209495Y-115932642D01*
X148292116Y-115971010D01*
X148373795Y-116011408D01*
X148454494Y-116053823D01*
X148482895Y-116069014D01*
X148511123Y-116084523D01*
X148539174Y-116100349D01*
X148567046Y-116116488D01*
X148594735Y-116132940D01*
X148622241Y-116149700D01*
X148649560Y-116166767D01*
X148676689Y-116184139D01*
X148740417Y-116227171D01*
X148803079Y-116271684D01*
X148864650Y-116317658D01*
X148925104Y-116365074D01*
X148984418Y-116413910D01*
X149042564Y-116464147D01*
X149099518Y-116515764D01*
X149155254Y-116568743D01*
X149169113Y-116581583D01*
X149182830Y-116594572D01*
X149196406Y-116607710D01*
X149209837Y-116620994D01*
X149223124Y-116634422D01*
X149236265Y-116647994D01*
X149249259Y-116661707D01*
X149262105Y-116675560D01*
X149293161Y-116709163D01*
X149323673Y-116743248D01*
X149353635Y-116777809D01*
X149383041Y-116812842D01*
X149411883Y-116848341D01*
X149440157Y-116884300D01*
X149467857Y-116920714D01*
X149494975Y-116957576D01*
X149508281Y-116975205D01*
X149521373Y-116992990D01*
X149534249Y-117010930D01*
X149546909Y-117029020D01*
X149559353Y-117047259D01*
X149571580Y-117065642D01*
X149583590Y-117084168D01*
X149595381Y-117102831D01*
X149620519Y-117140791D01*
X149645046Y-117179134D01*
X149668958Y-117217855D01*
X149692250Y-117256948D01*
X149714917Y-117296405D01*
X149736955Y-117336222D01*
X149758358Y-117376391D01*
X149779123Y-117416906D01*
X149791910Y-117440156D01*
X149804363Y-117463580D01*
X149816483Y-117487173D01*
X149828269Y-117510933D01*
X149870986Y-117607076D01*
X149883886Y-117635116D01*
X149896377Y-117663338D01*
X149908458Y-117691737D01*
X149920131Y-117720305D01*
X149967162Y-117842095D01*
X149984338Y-117890881D01*
X150000960Y-117939852D01*
X150017024Y-117989004D01*
X150032530Y-118038333D01*
X150047475Y-118087835D01*
X150061859Y-118137506D01*
X150075679Y-118187343D01*
X150088934Y-118237340D01*
X150101959Y-118186359D01*
X150115434Y-118135929D01*
X150129411Y-118086000D01*
X150143940Y-118036520D01*
X150159071Y-117987440D01*
X150174853Y-117938710D01*
X150191338Y-117890278D01*
X150208576Y-117842095D01*
X150230477Y-117779589D01*
X150236204Y-117764092D01*
X150242232Y-117748946D01*
X150248660Y-117734301D01*
X150252056Y-117727213D01*
X150255589Y-117720305D01*
X150306867Y-117607076D01*
X150349584Y-117510933D01*
X150394449Y-117416906D01*
X150415549Y-117376413D01*
X150437267Y-117336260D01*
X150459599Y-117296453D01*
X150482541Y-117256998D01*
X150506090Y-117217902D01*
X150530242Y-117179172D01*
X150554993Y-117140813D01*
X150580339Y-117102831D01*
X150592131Y-117084168D01*
X150604142Y-117065642D01*
X150616372Y-117047259D01*
X150628817Y-117029020D01*
X150641479Y-117010930D01*
X150654355Y-116992990D01*
X150667444Y-116975205D01*
X150680745Y-116957576D01*
X150707869Y-116920714D01*
X150735573Y-116884300D01*
X150763850Y-116848341D01*
X150792695Y-116812842D01*
X150822101Y-116777809D01*
X150852064Y-116743248D01*
X150882576Y-116709163D01*
X150913632Y-116675560D01*
X150926477Y-116661696D01*
X150939469Y-116647975D01*
X150952607Y-116634398D01*
X150965891Y-116620968D01*
X150979320Y-116607686D01*
X150992893Y-116594553D01*
X151006608Y-116581572D01*
X151020467Y-116568743D01*
X151076273Y-116516095D01*
X151133275Y-116464789D01*
X151191447Y-116414846D01*
X151250767Y-116366286D01*
X151311209Y-116319130D01*
X151372750Y-116273398D01*
X151435366Y-116229110D01*
X151499031Y-116186287D01*
X151526470Y-116168845D01*
X151554257Y-116151758D01*
X151582343Y-116134975D01*
X151610679Y-116118444D01*
X151667900Y-116085935D01*
X151725524Y-116053823D01*
X151805696Y-116011495D01*
X151886843Y-115971157D01*
X151968927Y-115932824D01*
X152051912Y-115896513D01*
X152135760Y-115862239D01*
X152220433Y-115830020D01*
X152305896Y-115799870D01*
X152392110Y-115771807D01*
X152434500Y-115757872D01*
X152477122Y-115744674D01*
X152519967Y-115732219D01*
X152563028Y-115720513D01*
X152565177Y-115720513D01*
X152646007Y-115699802D01*
X152727117Y-115680272D01*
X152808494Y-115661924D01*
X152890126Y-115644764D01*
X152971999Y-115628793D01*
X153054101Y-115614014D01*
X153136418Y-115600432D01*
X153218939Y-115588048D01*
X153368491Y-115570962D01*
X153528717Y-115553875D01*
X153551865Y-115551230D01*
X153575045Y-115548883D01*
X153598252Y-115546836D01*
X153621484Y-115545088D01*
X153644737Y-115543639D01*
X153668008Y-115542488D01*
X153691294Y-115541637D01*
X153714591Y-115541085D01*
X153851335Y-115532525D01*
X153877968Y-115531117D01*
X153904950Y-115530060D01*
X153959762Y-115528794D01*
X154015377Y-115528328D01*
X154071399Y-115528261D01*
X154276508Y-115528261D01*
X154645226Y-115535123D01*
X155013602Y-115549661D01*
X155381517Y-115571863D01*
X155748848Y-115601719D01*
X156115477Y-115639220D01*
X156481284Y-115684356D01*
X156846147Y-115737115D01*
X157209947Y-115797487D01*
X157388979Y-115826796D01*
X157567016Y-115854106D01*
X157743857Y-115879811D01*
X157919301Y-115904305D01*
X158262826Y-115949113D01*
X158607065Y-115987909D01*
X158951928Y-116020689D01*
X159297322Y-116047445D01*
X159504032Y-116059202D01*
X159711811Y-116066680D01*
X159920661Y-116069877D01*
X160130580Y-116068795D01*
X160297412Y-116061247D01*
X160461935Y-116045520D01*
X160623950Y-116021814D01*
X160783261Y-115990332D01*
X160939669Y-115951278D01*
X161092978Y-115904853D01*
X161242990Y-115851260D01*
X161389506Y-115790702D01*
X161532330Y-115723381D01*
X161671265Y-115649499D01*
X161806112Y-115569260D01*
X161936674Y-115482866D01*
X162062753Y-115390519D01*
X162184153Y-115292422D01*
X162300675Y-115188777D01*
X162412122Y-115079788D01*
X162518297Y-114965655D01*
X162619001Y-114846583D01*
X162714038Y-114722774D01*
X162803210Y-114594429D01*
X162886319Y-114461752D01*
X162963167Y-114324946D01*
X163033558Y-114184212D01*
X163097294Y-114039753D01*
X163154177Y-113891773D01*
X163204010Y-113740472D01*
X163246595Y-113586055D01*
X163281734Y-113428723D01*
X163309231Y-113268679D01*
X163328887Y-113106125D01*
X163340505Y-112941265D01*
X163343887Y-112774300D01*
X163343887Y-112325612D01*
X165471864Y-112323430D01*
X165471864Y-113135305D01*
G37*
D12*
G36*
X203927367Y-105023074D02*
G01*
X203927357Y-105023471D01*
X203927357Y-105022677D01*
X203927367Y-105023074D01*
G37*
D10*
X149809970Y-101084771D02*
X149809970Y-102969750D01*
X139408694Y-92570519D01*
X141295733Y-92570519D01*
X149809970Y-101084771D01*
G36*
X149809970Y-101084771D02*
G01*
X149809970Y-102969750D01*
X139408694Y-92570519D01*
X141295733Y-92570519D01*
X149809970Y-101084771D01*
G37*
X160957950Y-106533104D02*
X160957950Y-108417046D01*
X156275317Y-103735985D01*
X158160815Y-103735985D01*
X160957950Y-106533104D01*
G36*
X160957950Y-106533104D02*
G01*
X160957950Y-108417046D01*
X156275317Y-103735985D01*
X158160815Y-103735985D01*
X160957950Y-106533104D01*
G37*
X149809985Y-98235192D02*
X149809985Y-100120659D01*
X142260318Y-92570519D01*
X144145816Y-92570519D01*
X149809985Y-98235192D01*
G36*
X149809985Y-98235192D02*
G01*
X149809985Y-100120659D01*
X142260318Y-92570519D01*
X144145816Y-92570519D01*
X149809985Y-98235192D01*
G37*
D13*
X144352389Y-105200066D02*
X144523972Y-105202754D01*
X144689921Y-105210726D01*
X144850249Y-105223848D01*
X145004968Y-105241985D01*
X145154090Y-105265001D01*
X145297628Y-105292762D01*
X145435592Y-105325132D01*
X145567997Y-105361977D01*
X145694854Y-105403160D01*
X145816175Y-105448547D01*
X145931973Y-105498003D01*
X146042259Y-105551393D01*
X146147046Y-105608581D01*
X146246347Y-105669433D01*
X146340173Y-105733813D01*
X146428536Y-105801587D01*
X146511450Y-105872618D01*
X146588926Y-105946772D01*
X146660975Y-106023915D01*
X146727612Y-106103909D01*
X146788847Y-106186622D01*
X146844694Y-106271917D01*
X146895163Y-106359659D01*
X146940268Y-106449714D01*
X146980021Y-106541945D01*
X147014434Y-106636219D01*
X147043519Y-106732399D01*
X147067288Y-106830352D01*
X147085754Y-106929941D01*
X147098929Y-107031031D01*
X147106825Y-107133488D01*
X147109454Y-107237175D01*
X147098545Y-107455543D01*
X147066747Y-107655725D01*
X147015451Y-107838697D01*
X146946051Y-108005438D01*
X146859939Y-108156924D01*
X146758508Y-108294131D01*
X146643151Y-108418037D01*
X146515260Y-108529619D01*
X146376228Y-108629853D01*
X146227448Y-108719717D01*
X146070311Y-108800187D01*
X145906211Y-108872240D01*
X145562693Y-108995005D01*
X145208034Y-109095826D01*
X144509856Y-109262897D01*
X144188620Y-109344779D01*
X143900807Y-109435977D01*
X143772916Y-109487513D01*
X143657559Y-109544309D01*
X143556128Y-109607342D01*
X143470016Y-109677589D01*
X143400616Y-109756027D01*
X143349321Y-109843633D01*
X143317522Y-109941383D01*
X143306613Y-110050255D01*
X143310924Y-110124351D01*
X143324021Y-110195750D01*
X143346152Y-110264165D01*
X143377562Y-110329309D01*
X143418500Y-110390893D01*
X143469212Y-110448631D01*
X143529945Y-110502236D01*
X143600946Y-110551419D01*
X143682461Y-110595893D01*
X143774738Y-110635371D01*
X143878024Y-110669564D01*
X143992565Y-110698187D01*
X144118609Y-110720951D01*
X144256403Y-110737568D01*
X144406192Y-110747751D01*
X144568225Y-110751214D01*
X144712647Y-110747383D01*
X144856466Y-110738166D01*
X144999539Y-110723607D01*
X145141724Y-110703750D01*
X145282876Y-110678642D01*
X145422854Y-110648327D01*
X145561514Y-110612851D01*
X145698714Y-110572258D01*
X145834311Y-110526595D01*
X145968162Y-110475905D01*
X146100123Y-110420234D01*
X146230053Y-110359628D01*
X146357808Y-110294131D01*
X146483245Y-110223789D01*
X146606222Y-110148647D01*
X146726596Y-110068749D01*
X147239417Y-111206703D01*
X147090663Y-111299846D01*
X146937757Y-111387711D01*
X146781976Y-111469561D01*
X146623498Y-111545344D01*
X146462504Y-111615010D01*
X146299174Y-111678508D01*
X146133687Y-111735786D01*
X145966224Y-111786793D01*
X145796964Y-111831479D01*
X145626089Y-111869791D01*
X145453776Y-111901680D01*
X145280208Y-111927094D01*
X145105563Y-111945981D01*
X144930021Y-111958291D01*
X144753763Y-111963973D01*
X144576968Y-111962975D01*
X144404612Y-111960260D01*
X144237881Y-111952210D01*
X144076768Y-111938967D01*
X143921260Y-111920674D01*
X143771349Y-111897471D01*
X143627023Y-111869503D01*
X143488273Y-111836910D01*
X143355089Y-111799836D01*
X143227460Y-111758421D01*
X143105376Y-111712809D01*
X142988827Y-111663142D01*
X142877804Y-111609561D01*
X142772295Y-111552209D01*
X142672290Y-111491228D01*
X142577781Y-111426760D01*
X142488755Y-111358948D01*
X142405204Y-111287934D01*
X142327117Y-111213859D01*
X142254483Y-111136866D01*
X142187294Y-111057098D01*
X142125537Y-110974695D01*
X142069205Y-110889802D01*
X142018285Y-110802559D01*
X141972769Y-110713109D01*
X141932645Y-110621593D01*
X141897904Y-110528156D01*
X141868536Y-110432937D01*
X141844530Y-110336080D01*
X141825877Y-110237727D01*
X141812565Y-110138020D01*
X141804586Y-110037101D01*
X141801929Y-109935112D01*
X141812838Y-109719335D01*
X141844636Y-109521535D01*
X141895932Y-109340748D01*
X141965332Y-109176009D01*
X142051444Y-109026352D01*
X142152874Y-108890812D01*
X142268232Y-108768424D01*
X142396122Y-108658224D01*
X142535155Y-108559245D01*
X142683935Y-108470522D01*
X142841072Y-108391091D01*
X143005171Y-108319986D01*
X143348690Y-108198894D01*
X143703349Y-108099526D01*
X144401527Y-107935073D01*
X144722763Y-107854547D01*
X145010576Y-107764858D01*
X145138467Y-107714165D01*
X145253824Y-107658286D01*
X145355255Y-107596256D01*
X145441366Y-107527109D01*
X145510766Y-107449881D01*
X145562062Y-107363607D01*
X145593861Y-107267321D01*
X145604770Y-107160058D01*
X145600672Y-107083913D01*
X145588178Y-107009910D01*
X145566984Y-106938431D01*
X145536789Y-106869857D01*
X145497289Y-106804572D01*
X145473955Y-106773282D01*
X145448182Y-106742958D01*
X145419931Y-106713647D01*
X145389165Y-106685397D01*
X145355846Y-106658256D01*
X145319936Y-106632271D01*
X145240192Y-106583964D01*
X145149631Y-106540856D01*
X145047950Y-106503332D01*
X144934846Y-106471773D01*
X144810017Y-106446561D01*
X144673161Y-106428079D01*
X144523974Y-106416709D01*
X144362155Y-106412835D01*
X144242594Y-106416950D01*
X144123448Y-106424917D01*
X144004808Y-106436712D01*
X143886762Y-106452309D01*
X143769401Y-106471682D01*
X143652813Y-106494806D01*
X143537088Y-106521655D01*
X143422315Y-106552205D01*
X143308583Y-106586429D01*
X143195983Y-106624302D01*
X143084603Y-106665799D01*
X142974532Y-106710895D01*
X142865861Y-106759563D01*
X142758679Y-106811779D01*
X142653074Y-106867516D01*
X142549136Y-106926751D01*
X142080981Y-105779229D01*
X142211559Y-105707370D01*
X142344229Y-105640120D01*
X142478870Y-105577510D01*
X142615356Y-105519571D01*
X142753567Y-105466334D01*
X142893377Y-105417831D01*
X143034665Y-105374093D01*
X143177306Y-105335152D01*
X143321178Y-105301039D01*
X143466157Y-105271785D01*
X143612121Y-105247422D01*
X143758946Y-105227981D01*
X143906508Y-105213494D01*
X144054685Y-105203991D01*
X144203353Y-105199505D01*
X144352389Y-105200066D01*
G36*
X144352389Y-105200066D02*
G01*
X144523972Y-105202754D01*
X144689921Y-105210726D01*
X144850249Y-105223848D01*
X145004968Y-105241985D01*
X145154090Y-105265001D01*
X145297628Y-105292762D01*
X145435592Y-105325132D01*
X145567997Y-105361977D01*
X145694854Y-105403160D01*
X145816175Y-105448547D01*
X145931973Y-105498003D01*
X146042259Y-105551393D01*
X146147046Y-105608581D01*
X146246347Y-105669433D01*
X146340173Y-105733813D01*
X146428536Y-105801587D01*
X146511450Y-105872618D01*
X146588926Y-105946772D01*
X146660975Y-106023915D01*
X146727612Y-106103909D01*
X146788847Y-106186622D01*
X146844694Y-106271917D01*
X146895163Y-106359659D01*
X146940268Y-106449714D01*
X146980021Y-106541945D01*
X147014434Y-106636219D01*
X147043519Y-106732399D01*
X147067288Y-106830352D01*
X147085754Y-106929941D01*
X147098929Y-107031031D01*
X147106825Y-107133488D01*
X147109454Y-107237175D01*
X147098545Y-107455543D01*
X147066747Y-107655725D01*
X147015451Y-107838697D01*
X146946051Y-108005438D01*
X146859939Y-108156924D01*
X146758508Y-108294131D01*
X146643151Y-108418037D01*
X146515260Y-108529619D01*
X146376228Y-108629853D01*
X146227448Y-108719717D01*
X146070311Y-108800187D01*
X145906211Y-108872240D01*
X145562693Y-108995005D01*
X145208034Y-109095826D01*
X144509856Y-109262897D01*
X144188620Y-109344779D01*
X143900807Y-109435977D01*
X143772916Y-109487513D01*
X143657559Y-109544309D01*
X143556128Y-109607342D01*
X143470016Y-109677589D01*
X143400616Y-109756027D01*
X143349321Y-109843633D01*
X143317522Y-109941383D01*
X143306613Y-110050255D01*
X143310924Y-110124351D01*
X143324021Y-110195750D01*
X143346152Y-110264165D01*
X143377562Y-110329309D01*
X143418500Y-110390893D01*
X143469212Y-110448631D01*
X143529945Y-110502236D01*
X143600946Y-110551419D01*
X143682461Y-110595893D01*
X143774738Y-110635371D01*
X143878024Y-110669564D01*
X143992565Y-110698187D01*
X144118609Y-110720951D01*
X144256403Y-110737568D01*
X144406192Y-110747751D01*
X144568225Y-110751214D01*
X144712647Y-110747383D01*
X144856466Y-110738166D01*
X144999539Y-110723607D01*
X145141724Y-110703750D01*
X145282876Y-110678642D01*
X145422854Y-110648327D01*
X145561514Y-110612851D01*
X145698714Y-110572258D01*
X145834311Y-110526595D01*
X145968162Y-110475905D01*
X146100123Y-110420234D01*
X146230053Y-110359628D01*
X146357808Y-110294131D01*
X146483245Y-110223789D01*
X146606222Y-110148647D01*
X146726596Y-110068749D01*
X147239417Y-111206703D01*
X147090663Y-111299846D01*
X146937757Y-111387711D01*
X146781976Y-111469561D01*
X146623498Y-111545344D01*
X146462504Y-111615010D01*
X146299174Y-111678508D01*
X146133687Y-111735786D01*
X145966224Y-111786793D01*
X145796964Y-111831479D01*
X145626089Y-111869791D01*
X145453776Y-111901680D01*
X145280208Y-111927094D01*
X145105563Y-111945981D01*
X144930021Y-111958291D01*
X144753763Y-111963973D01*
X144576968Y-111962975D01*
X144404612Y-111960260D01*
X144237881Y-111952210D01*
X144076768Y-111938967D01*
X143921260Y-111920674D01*
X143771349Y-111897471D01*
X143627023Y-111869503D01*
X143488273Y-111836910D01*
X143355089Y-111799836D01*
X143227460Y-111758421D01*
X143105376Y-111712809D01*
X142988827Y-111663142D01*
X142877804Y-111609561D01*
X142772295Y-111552209D01*
X142672290Y-111491228D01*
X142577781Y-111426760D01*
X142488755Y-111358948D01*
X142405204Y-111287934D01*
X142327117Y-111213859D01*
X142254483Y-111136866D01*
X142187294Y-111057098D01*
X142125537Y-110974695D01*
X142069205Y-110889802D01*
X142018285Y-110802559D01*
X141972769Y-110713109D01*
X141932645Y-110621593D01*
X141897904Y-110528156D01*
X141868536Y-110432937D01*
X141844530Y-110336080D01*
X141825877Y-110237727D01*
X141812565Y-110138020D01*
X141804586Y-110037101D01*
X141801929Y-109935112D01*
X141812838Y-109719335D01*
X141844636Y-109521535D01*
X141895932Y-109340748D01*
X141965332Y-109176009D01*
X142051444Y-109026352D01*
X142152874Y-108890812D01*
X142268232Y-108768424D01*
X142396122Y-108658224D01*
X142535155Y-108559245D01*
X142683935Y-108470522D01*
X142841072Y-108391091D01*
X143005171Y-108319986D01*
X143348690Y-108198894D01*
X143703349Y-108099526D01*
X144401527Y-107935073D01*
X144722763Y-107854547D01*
X145010576Y-107764858D01*
X145138467Y-107714165D01*
X145253824Y-107658286D01*
X145355255Y-107596256D01*
X145441366Y-107527109D01*
X145510766Y-107449881D01*
X145562062Y-107363607D01*
X145593861Y-107267321D01*
X145604770Y-107160058D01*
X145600672Y-107083913D01*
X145588178Y-107009910D01*
X145566984Y-106938431D01*
X145536789Y-106869857D01*
X145497289Y-106804572D01*
X145473955Y-106773282D01*
X145448182Y-106742958D01*
X145419931Y-106713647D01*
X145389165Y-106685397D01*
X145355846Y-106658256D01*
X145319936Y-106632271D01*
X145240192Y-106583964D01*
X145149631Y-106540856D01*
X145047950Y-106503332D01*
X144934846Y-106471773D01*
X144810017Y-106446561D01*
X144673161Y-106428079D01*
X144523974Y-106416709D01*
X144362155Y-106412835D01*
X144242594Y-106416950D01*
X144123448Y-106424917D01*
X144004808Y-106436712D01*
X143886762Y-106452309D01*
X143769401Y-106471682D01*
X143652813Y-106494806D01*
X143537088Y-106521655D01*
X143422315Y-106552205D01*
X143308583Y-106586429D01*
X143195983Y-106624302D01*
X143084603Y-106665799D01*
X142974532Y-106710895D01*
X142865861Y-106759563D01*
X142758679Y-106811779D01*
X142653074Y-106867516D01*
X142549136Y-106926751D01*
X142080981Y-105779229D01*
X142211559Y-105707370D01*
X142344229Y-105640120D01*
X142478870Y-105577510D01*
X142615356Y-105519571D01*
X142753567Y-105466334D01*
X142893377Y-105417831D01*
X143034665Y-105374093D01*
X143177306Y-105335152D01*
X143321178Y-105301039D01*
X143466157Y-105271785D01*
X143612121Y-105247422D01*
X143758946Y-105227981D01*
X143906508Y-105213494D01*
X144054685Y-105203991D01*
X144203353Y-105199505D01*
X144352389Y-105200066D01*
G37*
D10*
X159493335Y-113618859D02*
X159425918Y-113629903D01*
X159358291Y-113639392D01*
X159290481Y-113647322D01*
X159222516Y-113653691D01*
X159154423Y-113658496D01*
X159086229Y-113661736D01*
X159017962Y-113663406D01*
X158949649Y-113663506D01*
X158833140Y-113661964D01*
X158715705Y-113657654D01*
X158598006Y-113651050D01*
X158480706Y-113642624D01*
X158249951Y-113622204D01*
X158028735Y-113600182D01*
X157903922Y-113586927D01*
X157779111Y-113572442D01*
X157654108Y-113556674D01*
X157528720Y-113539574D01*
X150379886Y-106390770D01*
X150379886Y-104505272D01*
X159493335Y-113618859D01*
G36*
X159493335Y-113618859D02*
G01*
X159425918Y-113629903D01*
X159358291Y-113639392D01*
X159290481Y-113647322D01*
X159222516Y-113653691D01*
X159154423Y-113658496D01*
X159086229Y-113661736D01*
X159017962Y-113663406D01*
X158949649Y-113663506D01*
X158833140Y-113661964D01*
X158715705Y-113657654D01*
X158598006Y-113651050D01*
X158480706Y-113642624D01*
X158249951Y-113622204D01*
X158028735Y-113600182D01*
X157903922Y-113586927D01*
X157779111Y-113572442D01*
X157654108Y-113556674D01*
X157528720Y-113539574D01*
X150379886Y-106390770D01*
X150379886Y-104505272D01*
X159493335Y-113618859D01*
G37*
X149040683Y-103166070D02*
X147155200Y-103166070D01*
X139231921Y-95242821D01*
X139231921Y-93357293D01*
X149040683Y-103166070D01*
G36*
X149040683Y-103166070D02*
G01*
X147155200Y-103166070D01*
X139231921Y-95242821D01*
X139231921Y-93357293D01*
X149040683Y-103166070D01*
G37*
X160957965Y-105568505D02*
X159125415Y-103735985D01*
X160957965Y-103735985D01*
X160957965Y-105568505D01*
G36*
X160957965Y-105568505D02*
G01*
X159125415Y-103735985D01*
X160957965Y-103735985D01*
X160957965Y-105568505D01*
G37*
X146995364Y-92571007D02*
X149809970Y-95385643D01*
X149809970Y-97270592D01*
X145109866Y-92570519D01*
X146995364Y-92571007D01*
G36*
X146995364Y-92571007D02*
G01*
X149809970Y-95385643D01*
X149809970Y-97270592D01*
X145109866Y-92570519D01*
X146995364Y-92571007D01*
G37*
D11*
X136833965Y-110407024D02*
X134710251Y-110407024D01*
X134710251Y-94699328D01*
X136833965Y-94699328D01*
X136833965Y-110407024D01*
G36*
X136833965Y-110407024D02*
G01*
X134710251Y-110407024D01*
X134710251Y-94699328D01*
X136833965Y-94699328D01*
X136833965Y-110407024D01*
G37*
X165469716Y-110407024D02*
X163346019Y-110407024D01*
X163346019Y-94699328D01*
X165469716Y-94699328D01*
X165469716Y-110407024D01*
G36*
X165469716Y-110407024D02*
G01*
X163346019Y-110407024D01*
X163346019Y-94699328D01*
X165469716Y-94699328D01*
X165469716Y-110407024D01*
G37*
D10*
X160923526Y-112198815D02*
X160904256Y-112284802D01*
X160880975Y-112369417D01*
X160853764Y-112452536D01*
X160822706Y-112534034D01*
X160787880Y-112613786D01*
X160749368Y-112691667D01*
X160707252Y-112767554D01*
X160661613Y-112841321D01*
X160612531Y-112912843D01*
X160560088Y-112981998D01*
X160504366Y-113048658D01*
X160445445Y-113112701D01*
X160383406Y-113174002D01*
X160318332Y-113232435D01*
X160250303Y-113287877D01*
X160179400Y-113340203D01*
X150575168Y-103735985D01*
X152461703Y-103735985D01*
X160923526Y-112198815D01*
G36*
X160923526Y-112198815D02*
G01*
X160904256Y-112284802D01*
X160880975Y-112369417D01*
X160853764Y-112452536D01*
X160822706Y-112534034D01*
X160787880Y-112613786D01*
X160749368Y-112691667D01*
X160707252Y-112767554D01*
X160661613Y-112841321D01*
X160612531Y-112912843D01*
X160560088Y-112981998D01*
X160504366Y-113048658D01*
X160445445Y-113112701D01*
X160383406Y-113174002D01*
X160318332Y-113232435D01*
X160250303Y-113287877D01*
X160179400Y-113340203D01*
X150575168Y-103735985D01*
X152461703Y-103735985D01*
X160923526Y-112198815D01*
G37*
X151085986Y-113759087D02*
X150992829Y-113809103D01*
X150900987Y-113861401D01*
X150810503Y-113915952D01*
X150721417Y-113972729D01*
X150633772Y-114031705D01*
X150547607Y-114092853D01*
X150462964Y-114156144D01*
X150379886Y-114221550D01*
X150379886Y-113054986D01*
X151085986Y-113759087D01*
G36*
X151085986Y-113759087D02*
G01*
X150992829Y-113809103D01*
X150900987Y-113861401D01*
X150810503Y-113915952D01*
X150721417Y-113972729D01*
X150633772Y-114031705D01*
X150547607Y-114092853D01*
X150462964Y-114156144D01*
X150379886Y-114221550D01*
X150379886Y-113054986D01*
X151085986Y-113759087D01*
G37*
X149809985Y-94420525D02*
X147959964Y-92570519D01*
X149809985Y-92570519D01*
X149809985Y-94420525D01*
G36*
X149809985Y-94420525D02*
G01*
X147959964Y-92570519D01*
X149809985Y-92570519D01*
X149809985Y-94420525D01*
G37*
D12*
G36*
X186456042Y-107602749D02*
G01*
X186455861Y-107603152D01*
X186455861Y-107602618D01*
X186456042Y-107602749D01*
G37*
D13*
X161485736Y-103735894D02*
X161485736Y-111850426D01*
X161485234Y-111902866D01*
X161484576Y-111929086D01*
X161483621Y-111955304D01*
X161482347Y-111981517D01*
X161480734Y-112007724D01*
X161478763Y-112033923D01*
X161476413Y-112060112D01*
X161460136Y-112192366D01*
X161436604Y-112322764D01*
X161405973Y-112451045D01*
X161368399Y-112576949D01*
X161324037Y-112700213D01*
X161273043Y-112820579D01*
X161215574Y-112937784D01*
X161151786Y-113051568D01*
X161081834Y-113161669D01*
X161005873Y-113267828D01*
X160924062Y-113369782D01*
X160836554Y-113467272D01*
X160743506Y-113560036D01*
X160645074Y-113647814D01*
X160541414Y-113730344D01*
X160432681Y-113807366D01*
X160348420Y-113856898D01*
X160262579Y-113903134D01*
X160175256Y-113946048D01*
X160086548Y-113985614D01*
X159996553Y-114021809D01*
X159905369Y-114054607D01*
X159813093Y-114083982D01*
X159719823Y-114109910D01*
X159625656Y-114132365D01*
X159530690Y-114151322D01*
X159435022Y-114166757D01*
X159338750Y-114178644D01*
X159241971Y-114186957D01*
X159144784Y-114191673D01*
X159047285Y-114192765D01*
X158949573Y-114190209D01*
X158827208Y-114187397D01*
X158704904Y-114183034D01*
X158582673Y-114177123D01*
X158460532Y-114169663D01*
X158338496Y-114160655D01*
X158216579Y-114150100D01*
X158094796Y-114137999D01*
X157973163Y-114124352D01*
X157600202Y-114081438D01*
X157228365Y-114031515D01*
X156486404Y-113921177D01*
X155743955Y-113814404D01*
X155371511Y-113768938D01*
X154997699Y-113732262D01*
X154737954Y-113712758D01*
X154477578Y-113697876D01*
X154347200Y-113692409D01*
X154216719Y-113688386D01*
X154086154Y-113685901D01*
X153955524Y-113685051D01*
X153721798Y-113685583D01*
X153488448Y-113694257D01*
X153255684Y-113711046D01*
X153023717Y-113735924D01*
X152792758Y-113768865D01*
X152563017Y-113809841D01*
X152334706Y-113858826D01*
X152108035Y-113915795D01*
X151959665Y-113959106D01*
X151813633Y-114008322D01*
X151670098Y-114063337D01*
X151529219Y-114124043D01*
X151391155Y-114190334D01*
X151256067Y-114262102D01*
X151124113Y-114339242D01*
X150995452Y-114421647D01*
X150870244Y-114509209D01*
X150748649Y-114601822D01*
X150630825Y-114699379D01*
X150516932Y-114801774D01*
X150407129Y-114908899D01*
X150301575Y-115020648D01*
X150200431Y-115136915D01*
X150103854Y-115257592D01*
X150101045Y-115261628D01*
X150099779Y-115263430D01*
X150098561Y-115265118D01*
X150097362Y-115266716D01*
X150096149Y-115268248D01*
X150094890Y-115269735D01*
X150093555Y-115271203D01*
X150082675Y-115257592D01*
X149986099Y-115136915D01*
X149884954Y-115020648D01*
X149779401Y-114908899D01*
X149669597Y-114801774D01*
X149555704Y-114699379D01*
X149437880Y-114601822D01*
X149316284Y-114509209D01*
X149191075Y-114421647D01*
X149062414Y-114339242D01*
X148930459Y-114262102D01*
X148795369Y-114190334D01*
X148657304Y-114124043D01*
X148516423Y-114063337D01*
X148372886Y-114008322D01*
X148226851Y-113959106D01*
X148078479Y-113915795D01*
X147851496Y-113858755D01*
X147622869Y-113809716D01*
X147392809Y-113768706D01*
X147161529Y-113735753D01*
X146929240Y-113710883D01*
X146696154Y-113694124D01*
X146462484Y-113685505D01*
X146228442Y-113685051D01*
X146097961Y-113685940D01*
X145967466Y-113688519D01*
X145836994Y-113692659D01*
X145706582Y-113698231D01*
X145446085Y-113713157D01*
X145186267Y-113732262D01*
X144812455Y-113769074D01*
X144440011Y-113814563D01*
X143697562Y-113921189D01*
X142955600Y-114031374D01*
X142583764Y-114081311D01*
X142210803Y-114124352D01*
X142089171Y-114137999D01*
X141967390Y-114150100D01*
X141845475Y-114160655D01*
X141723441Y-114169663D01*
X141601303Y-114177123D01*
X141479075Y-114183034D01*
X141356772Y-114187397D01*
X141234408Y-114190209D01*
X141136699Y-114192754D01*
X141039203Y-114191653D01*
X140942018Y-114186930D01*
X140845242Y-114178609D01*
X140748972Y-114166718D01*
X140653306Y-114151279D01*
X140558341Y-114132320D01*
X140464175Y-114109864D01*
X140370905Y-114083937D01*
X140278629Y-114054564D01*
X140187444Y-114021770D01*
X140097448Y-113985580D01*
X140008738Y-113946020D01*
X139921412Y-113903114D01*
X139835566Y-113856887D01*
X139751300Y-113807366D01*
X139642565Y-113730344D01*
X139538903Y-113647814D01*
X139440470Y-113560036D01*
X139347421Y-113467272D01*
X139259912Y-113369782D01*
X139178100Y-113267828D01*
X139102140Y-113161669D01*
X139032188Y-113051568D01*
X138968399Y-112937784D01*
X138910930Y-112820579D01*
X138859936Y-112700213D01*
X138815574Y-112576949D01*
X138777998Y-112451045D01*
X138747366Y-112322764D01*
X138723832Y-112192366D01*
X138707553Y-112060112D01*
X138705255Y-112033893D01*
X138703309Y-112007672D01*
X138701700Y-111981452D01*
X138700414Y-111955235D01*
X138699438Y-111929022D01*
X138698757Y-111902815D01*
X138698230Y-111850426D01*
X138698230Y-103736016D01*
X139231845Y-103736016D01*
X139231906Y-111850945D01*
X139232022Y-111872492D01*
X139232363Y-111893603D01*
X139233676Y-111934674D01*
X139235755Y-111974468D01*
X139238513Y-112013299D01*
X139251137Y-112115850D01*
X139269380Y-112216963D01*
X139293123Y-112316436D01*
X139322245Y-112414068D01*
X139356625Y-112509656D01*
X139396143Y-112602999D01*
X139440678Y-112693894D01*
X139490109Y-112782139D01*
X139544317Y-112867533D01*
X139603180Y-112949874D01*
X139666577Y-113028960D01*
X139734389Y-113104589D01*
X139806494Y-113176558D01*
X139882773Y-113244666D01*
X139963104Y-113308712D01*
X140047366Y-113368493D01*
X140115314Y-113407660D01*
X140184512Y-113444159D01*
X140254879Y-113477970D01*
X140326338Y-113509073D01*
X140398809Y-113537449D01*
X140472213Y-113563078D01*
X140546470Y-113585940D01*
X140621501Y-113606015D01*
X140697228Y-113623284D01*
X140773570Y-113637727D01*
X140850450Y-113649324D01*
X140927787Y-113658055D01*
X141005503Y-113663902D01*
X141083518Y-113666843D01*
X141161754Y-113666861D01*
X141240130Y-113663933D01*
X141356491Y-113662401D01*
X141473856Y-113658115D01*
X141591546Y-113651545D01*
X141708880Y-113643158D01*
X141939762Y-113622812D01*
X142161059Y-113600823D01*
X142495789Y-113562296D01*
X142831628Y-113517693D01*
X143497195Y-113420006D01*
X143902202Y-113359652D01*
X144312556Y-113301548D01*
X144727248Y-113249619D01*
X144935904Y-113227196D01*
X145145267Y-113207787D01*
X145436409Y-113185890D01*
X145713054Y-113169732D01*
X145977271Y-113159730D01*
X146105365Y-113157169D01*
X146231128Y-113156304D01*
X146483072Y-113157113D01*
X146734608Y-113166686D01*
X146985507Y-113184993D01*
X147235541Y-113212006D01*
X147484485Y-113247697D01*
X147732109Y-113292037D01*
X147978187Y-113344996D01*
X148222491Y-113406548D01*
X148330316Y-113438381D01*
X148437196Y-113472855D01*
X148543085Y-113509947D01*
X148647937Y-113549632D01*
X148751705Y-113591888D01*
X148854344Y-113636690D01*
X148955806Y-113684014D01*
X149056045Y-113733838D01*
X149155015Y-113786136D01*
X149252669Y-113840886D01*
X149348961Y-113898064D01*
X149443845Y-113957645D01*
X149537274Y-114019607D01*
X149629202Y-114083925D01*
X149719582Y-114150576D01*
X149808368Y-114219536D01*
X149808368Y-103736016D01*
X150379840Y-103736016D01*
X150379886Y-114221550D01*
X150468706Y-114152634D01*
X150559114Y-114086021D01*
X150651065Y-114021735D01*
X150744512Y-113959801D01*
X150839408Y-113900241D01*
X150935708Y-113843078D01*
X151033366Y-113788338D01*
X151132335Y-113736043D01*
X151232569Y-113686216D01*
X151334023Y-113638881D01*
X151436649Y-113594063D01*
X151540402Y-113551784D01*
X151645237Y-113512067D01*
X151751105Y-113474938D01*
X151857963Y-113440418D01*
X151965762Y-113408532D01*
X152210071Y-113346990D01*
X152456153Y-113294038D01*
X152703779Y-113249704D01*
X152952724Y-113214016D01*
X153202758Y-113187005D01*
X153453654Y-113168699D01*
X153705186Y-113159127D01*
X153957126Y-113158318D01*
X154082895Y-113159056D01*
X154211005Y-113161307D01*
X154341728Y-113165129D01*
X154475335Y-113170578D01*
X154612097Y-113177713D01*
X154752285Y-113186591D01*
X154896170Y-113197268D01*
X155044025Y-113209801D01*
X155253045Y-113229186D01*
X155461446Y-113251604D01*
X155875835Y-113303551D01*
X156286080Y-113361679D01*
X156691073Y-113422020D01*
X157357791Y-113519799D01*
X157693344Y-113564353D01*
X158027209Y-113602837D01*
X158248425Y-113624826D01*
X158479180Y-113645173D01*
X158596480Y-113653559D01*
X158714179Y-113660129D01*
X158831614Y-113664415D01*
X158948123Y-113665947D01*
X159026440Y-113668896D01*
X159104617Y-113668898D01*
X159182573Y-113665971D01*
X159260231Y-113660137D01*
X159337510Y-113651415D01*
X159414331Y-113639823D01*
X159490614Y-113625383D01*
X159566279Y-113608113D01*
X159641249Y-113588033D01*
X159715442Y-113565163D01*
X159788779Y-113539522D01*
X159861181Y-113511130D01*
X159932569Y-113480007D01*
X160002863Y-113446172D01*
X160071983Y-113409645D01*
X160139850Y-113370446D01*
X160224564Y-113310568D01*
X160305315Y-113246383D01*
X160381981Y-113178095D01*
X160454440Y-113105909D01*
X160522570Y-113030030D01*
X160586248Y-112950662D01*
X160645353Y-112868010D01*
X160699761Y-112782280D01*
X160749352Y-112693677D01*
X160794002Y-112602404D01*
X160833589Y-112508666D01*
X160867992Y-112412670D01*
X160897088Y-112314618D01*
X160920755Y-112214718D01*
X160938870Y-112113172D01*
X160951312Y-112010186D01*
X160954054Y-111972664D01*
X160956130Y-111933381D01*
X160956888Y-111913139D01*
X160957445Y-111892529D01*
X160957787Y-111871576D01*
X160957904Y-111850304D01*
X160957904Y-103735894D01*
X150379840Y-103735894D01*
X150379840Y-103736016D01*
X149808368Y-103736016D01*
X139231845Y-103736016D01*
X138698230Y-103736016D01*
X138698230Y-103166039D01*
X139231906Y-103166039D01*
X149809970Y-103166039D01*
X149809970Y-92571038D01*
X150379886Y-92571038D01*
X150379886Y-103166039D01*
X160957950Y-103166039D01*
X160957950Y-92571038D01*
X150379886Y-92571038D01*
X149809970Y-92571038D01*
X139231906Y-92571038D01*
X139231906Y-103166039D01*
X138698230Y-103166039D01*
X138698230Y-92042748D01*
X161485736Y-92042748D01*
X161485736Y-92571038D01*
X161485736Y-103735894D01*
G36*
X161485736Y-103735894D02*
G01*
X161485736Y-111850426D01*
X161485234Y-111902866D01*
X161484576Y-111929086D01*
X161483621Y-111955304D01*
X161482347Y-111981517D01*
X161480734Y-112007724D01*
X161478763Y-112033923D01*
X161476413Y-112060112D01*
X161460136Y-112192366D01*
X161436604Y-112322764D01*
X161405973Y-112451045D01*
X161368399Y-112576949D01*
X161324037Y-112700213D01*
X161273043Y-112820579D01*
X161215574Y-112937784D01*
X161151786Y-113051568D01*
X161081834Y-113161669D01*
X161005873Y-113267828D01*
X160924062Y-113369782D01*
X160836554Y-113467272D01*
X160743506Y-113560036D01*
X160645074Y-113647814D01*
X160541414Y-113730344D01*
X160432681Y-113807366D01*
X160348420Y-113856898D01*
X160262579Y-113903134D01*
X160175256Y-113946048D01*
X160086548Y-113985614D01*
X159996553Y-114021809D01*
X159905369Y-114054607D01*
X159813093Y-114083982D01*
X159719823Y-114109910D01*
X159625656Y-114132365D01*
X159530690Y-114151322D01*
X159435022Y-114166757D01*
X159338750Y-114178644D01*
X159241971Y-114186957D01*
X159144784Y-114191673D01*
X159047285Y-114192765D01*
X158949573Y-114190209D01*
X158827208Y-114187397D01*
X158704904Y-114183034D01*
X158582673Y-114177123D01*
X158460532Y-114169663D01*
X158338496Y-114160655D01*
X158216579Y-114150100D01*
X158094796Y-114137999D01*
X157973163Y-114124352D01*
X157600202Y-114081438D01*
X157228365Y-114031515D01*
X156486404Y-113921177D01*
X155743955Y-113814404D01*
X155371511Y-113768938D01*
X154997699Y-113732262D01*
X154737954Y-113712758D01*
X154477578Y-113697876D01*
X154347200Y-113692409D01*
X154216719Y-113688386D01*
X154086154Y-113685901D01*
X153955524Y-113685051D01*
X153721798Y-113685583D01*
X153488448Y-113694257D01*
X153255684Y-113711046D01*
X153023717Y-113735924D01*
X152792758Y-113768865D01*
X152563017Y-113809841D01*
X152334706Y-113858826D01*
X152108035Y-113915795D01*
X151959665Y-113959106D01*
X151813633Y-114008322D01*
X151670098Y-114063337D01*
X151529219Y-114124043D01*
X151391155Y-114190334D01*
X151256067Y-114262102D01*
X151124113Y-114339242D01*
X150995452Y-114421647D01*
X150870244Y-114509209D01*
X150748649Y-114601822D01*
X150630825Y-114699379D01*
X150516932Y-114801774D01*
X150407129Y-114908899D01*
X150301575Y-115020648D01*
X150200431Y-115136915D01*
X150103854Y-115257592D01*
X150101045Y-115261628D01*
X150099779Y-115263430D01*
X150098561Y-115265118D01*
X150097362Y-115266716D01*
X150096149Y-115268248D01*
X150094890Y-115269735D01*
X150093555Y-115271203D01*
X150082675Y-115257592D01*
X149986099Y-115136915D01*
X149884954Y-115020648D01*
X149779401Y-114908899D01*
X149669597Y-114801774D01*
X149555704Y-114699379D01*
X149437880Y-114601822D01*
X149316284Y-114509209D01*
X149191075Y-114421647D01*
X149062414Y-114339242D01*
X148930459Y-114262102D01*
X148795369Y-114190334D01*
X148657304Y-114124043D01*
X148516423Y-114063337D01*
X148372886Y-114008322D01*
X148226851Y-113959106D01*
X148078479Y-113915795D01*
X147851496Y-113858755D01*
X147622869Y-113809716D01*
X147392809Y-113768706D01*
X147161529Y-113735753D01*
X146929240Y-113710883D01*
X146696154Y-113694124D01*
X146462484Y-113685505D01*
X146228442Y-113685051D01*
X146097961Y-113685940D01*
X145967466Y-113688519D01*
X145836994Y-113692659D01*
X145706582Y-113698231D01*
X145446085Y-113713157D01*
X145186267Y-113732262D01*
X144812455Y-113769074D01*
X144440011Y-113814563D01*
X143697562Y-113921189D01*
X142955600Y-114031374D01*
X142583764Y-114081311D01*
X142210803Y-114124352D01*
X142089171Y-114137999D01*
X141967390Y-114150100D01*
X141845475Y-114160655D01*
X141723441Y-114169663D01*
X141601303Y-114177123D01*
X141479075Y-114183034D01*
X141356772Y-114187397D01*
X141234408Y-114190209D01*
X141136699Y-114192754D01*
X141039203Y-114191653D01*
X140942018Y-114186930D01*
X140845242Y-114178609D01*
X140748972Y-114166718D01*
X140653306Y-114151279D01*
X140558341Y-114132320D01*
X140464175Y-114109864D01*
X140370905Y-114083937D01*
X140278629Y-114054564D01*
X140187444Y-114021770D01*
X140097448Y-113985580D01*
X140008738Y-113946020D01*
X139921412Y-113903114D01*
X139835566Y-113856887D01*
X139751300Y-113807366D01*
X139642565Y-113730344D01*
X139538903Y-113647814D01*
X139440470Y-113560036D01*
X139347421Y-113467272D01*
X139259912Y-113369782D01*
X139178100Y-113267828D01*
X139102140Y-113161669D01*
X139032188Y-113051568D01*
X138968399Y-112937784D01*
X138910930Y-112820579D01*
X138859936Y-112700213D01*
X138815574Y-112576949D01*
X138777998Y-112451045D01*
X138747366Y-112322764D01*
X138723832Y-112192366D01*
X138707553Y-112060112D01*
X138705255Y-112033893D01*
X138703309Y-112007672D01*
X138701700Y-111981452D01*
X138700414Y-111955235D01*
X138699438Y-111929022D01*
X138698757Y-111902815D01*
X138698230Y-111850426D01*
X138698230Y-103736016D01*
X139231845Y-103736016D01*
X139231906Y-111850945D01*
X139232022Y-111872492D01*
X139232363Y-111893603D01*
X139233676Y-111934674D01*
X139235755Y-111974468D01*
X139238513Y-112013299D01*
X139251137Y-112115850D01*
X139269380Y-112216963D01*
X139293123Y-112316436D01*
X139322245Y-112414068D01*
X139356625Y-112509656D01*
X139396143Y-112602999D01*
X139440678Y-112693894D01*
X139490109Y-112782139D01*
X139544317Y-112867533D01*
X139603180Y-112949874D01*
X139666577Y-113028960D01*
X139734389Y-113104589D01*
X139806494Y-113176558D01*
X139882773Y-113244666D01*
X139963104Y-113308712D01*
X140047366Y-113368493D01*
X140115314Y-113407660D01*
X140184512Y-113444159D01*
X140254879Y-113477970D01*
X140326338Y-113509073D01*
X140398809Y-113537449D01*
X140472213Y-113563078D01*
X140546470Y-113585940D01*
X140621501Y-113606015D01*
X140697228Y-113623284D01*
X140773570Y-113637727D01*
X140850450Y-113649324D01*
X140927787Y-113658055D01*
X141005503Y-113663902D01*
X141083518Y-113666843D01*
X141161754Y-113666861D01*
X141240130Y-113663933D01*
X141356491Y-113662401D01*
X141473856Y-113658115D01*
X141591546Y-113651545D01*
X141708880Y-113643158D01*
X141939762Y-113622812D01*
X142161059Y-113600823D01*
X142495789Y-113562296D01*
X142831628Y-113517693D01*
X143497195Y-113420006D01*
X143902202Y-113359652D01*
X144312556Y-113301548D01*
X144727248Y-113249619D01*
X144935904Y-113227196D01*
X145145267Y-113207787D01*
X145436409Y-113185890D01*
X145713054Y-113169732D01*
X145977271Y-113159730D01*
X146105365Y-113157169D01*
X146231128Y-113156304D01*
X146483072Y-113157113D01*
X146734608Y-113166686D01*
X146985507Y-113184993D01*
X147235541Y-113212006D01*
X147484485Y-113247697D01*
X147732109Y-113292037D01*
X147978187Y-113344996D01*
X148222491Y-113406548D01*
X148330316Y-113438381D01*
X148437196Y-113472855D01*
X148543085Y-113509947D01*
X148647937Y-113549632D01*
X148751705Y-113591888D01*
X148854344Y-113636690D01*
X148955806Y-113684014D01*
X149056045Y-113733838D01*
X149155015Y-113786136D01*
X149252669Y-113840886D01*
X149348961Y-113898064D01*
X149443845Y-113957645D01*
X149537274Y-114019607D01*
X149629202Y-114083925D01*
X149719582Y-114150576D01*
X149808368Y-114219536D01*
X149808368Y-103736016D01*
X150379840Y-103736016D01*
X150379886Y-114221550D01*
X150468706Y-114152634D01*
X150559114Y-114086021D01*
X150651065Y-114021735D01*
X150744512Y-113959801D01*
X150839408Y-113900241D01*
X150935708Y-113843078D01*
X151033366Y-113788338D01*
X151132335Y-113736043D01*
X151232569Y-113686216D01*
X151334023Y-113638881D01*
X151436649Y-113594063D01*
X151540402Y-113551784D01*
X151645237Y-113512067D01*
X151751105Y-113474938D01*
X151857963Y-113440418D01*
X151965762Y-113408532D01*
X152210071Y-113346990D01*
X152456153Y-113294038D01*
X152703779Y-113249704D01*
X152952724Y-113214016D01*
X153202758Y-113187005D01*
X153453654Y-113168699D01*
X153705186Y-113159127D01*
X153957126Y-113158318D01*
X154082895Y-113159056D01*
X154211005Y-113161307D01*
X154341728Y-113165129D01*
X154475335Y-113170578D01*
X154612097Y-113177713D01*
X154752285Y-113186591D01*
X154896170Y-113197268D01*
X155044025Y-113209801D01*
X155253045Y-113229186D01*
X155461446Y-113251604D01*
X155875835Y-113303551D01*
X156286080Y-113361679D01*
X156691073Y-113422020D01*
X157357791Y-113519799D01*
X157693344Y-113564353D01*
X158027209Y-113602837D01*
X158248425Y-113624826D01*
X158479180Y-113645173D01*
X158596480Y-113653559D01*
X158714179Y-113660129D01*
X158831614Y-113664415D01*
X158948123Y-113665947D01*
X159026440Y-113668896D01*
X159104617Y-113668898D01*
X159182573Y-113665971D01*
X159260231Y-113660137D01*
X159337510Y-113651415D01*
X159414331Y-113639823D01*
X159490614Y-113625383D01*
X159566279Y-113608113D01*
X159641249Y-113588033D01*
X159715442Y-113565163D01*
X159788779Y-113539522D01*
X159861181Y-113511130D01*
X159932569Y-113480007D01*
X160002863Y-113446172D01*
X160071983Y-113409645D01*
X160139850Y-113370446D01*
X160224564Y-113310568D01*
X160305315Y-113246383D01*
X160381981Y-113178095D01*
X160454440Y-113105909D01*
X160522570Y-113030030D01*
X160586248Y-112950662D01*
X160645353Y-112868010D01*
X160699761Y-112782280D01*
X160749352Y-112693677D01*
X160794002Y-112602404D01*
X160833589Y-112508666D01*
X160867992Y-112412670D01*
X160897088Y-112314618D01*
X160920755Y-112214718D01*
X160938870Y-112113172D01*
X160951312Y-112010186D01*
X160954054Y-111972664D01*
X160956130Y-111933381D01*
X160956888Y-111913139D01*
X160957445Y-111892529D01*
X160957787Y-111871576D01*
X160957904Y-111850304D01*
X160957904Y-103735894D01*
X150379840Y-103735894D01*
X150379840Y-103736016D01*
X149808368Y-103736016D01*
X139231845Y-103736016D01*
X138698230Y-103736016D01*
X138698230Y-103166039D01*
X139231906Y-103166039D01*
X149809970Y-103166039D01*
X149809970Y-92571038D01*
X150379886Y-92571038D01*
X150379886Y-103166039D01*
X160957950Y-103166039D01*
X160957950Y-92571038D01*
X150379886Y-92571038D01*
X149809970Y-92571038D01*
X139231906Y-92571038D01*
X139231906Y-103166039D01*
X138698230Y-103166039D01*
X138698230Y-92042748D01*
X161485736Y-92042748D01*
X161485736Y-92571038D01*
X161485736Y-103735894D01*
G37*
D10*
X156400714Y-113374688D02*
X156066021Y-113325812D01*
X155727765Y-113280060D01*
X155386811Y-113239333D01*
X155215593Y-113221447D01*
X155044025Y-113205529D01*
X154848809Y-113190380D01*
X154660529Y-113178429D01*
X154478606Y-113169248D01*
X154302463Y-113162407D01*
X150379886Y-109239281D01*
X150379886Y-107355370D01*
X156400714Y-113374688D01*
G36*
X156400714Y-113374688D02*
G01*
X156066021Y-113325812D01*
X155727765Y-113280060D01*
X155386811Y-113239333D01*
X155215593Y-113221447D01*
X155044025Y-113205529D01*
X154848809Y-113190380D01*
X154660529Y-113178429D01*
X154478606Y-113169248D01*
X154302463Y-113162407D01*
X150379886Y-109239281D01*
X150379886Y-107355370D01*
X156400714Y-113374688D01*
G37*
X140490466Y-103165551D02*
X139231921Y-103165551D01*
X139231921Y-101907006D01*
X140490466Y-103165551D01*
G36*
X140490466Y-103165551D02*
G01*
X139231921Y-103165551D01*
X139231921Y-101907006D01*
X140490466Y-103165551D01*
G37*
X143340533Y-103165551D02*
X141455035Y-103165551D01*
X139231921Y-100942406D01*
X139231921Y-99056908D01*
X143340533Y-103165551D01*
G36*
X143340533Y-103165551D02*
G01*
X141455035Y-103165551D01*
X139231921Y-100942406D01*
X139231921Y-99056908D01*
X143340533Y-103165551D01*
G37*
D13*
X155238788Y-94485314D02*
X155428248Y-94489422D01*
X155614459Y-94501643D01*
X155797239Y-94521822D01*
X155976406Y-94549801D01*
X156151781Y-94585426D01*
X156323180Y-94628541D01*
X156490423Y-94678990D01*
X156653328Y-94736618D01*
X156811714Y-94801268D01*
X156965401Y-94872785D01*
X157114205Y-94951013D01*
X157257947Y-95035797D01*
X157396445Y-95126980D01*
X157529517Y-95224407D01*
X157656982Y-95327923D01*
X157778659Y-95437371D01*
X157894366Y-95552596D01*
X158003923Y-95673441D01*
X158107147Y-95799753D01*
X158203858Y-95931373D01*
X158293874Y-96068148D01*
X158377014Y-96209920D01*
X158453097Y-96356535D01*
X158521940Y-96507837D01*
X158583364Y-96663669D01*
X158637186Y-96823877D01*
X158683225Y-96988304D01*
X158721300Y-97156794D01*
X158751229Y-97329193D01*
X158772832Y-97505344D01*
X158785927Y-97685091D01*
X158790332Y-97868279D01*
X158790332Y-97868310D01*
X158787364Y-98041763D01*
X158775524Y-98214017D01*
X158754945Y-98384762D01*
X158725755Y-98553689D01*
X158688086Y-98720490D01*
X158642069Y-98884855D01*
X158587833Y-99046475D01*
X158525510Y-99205040D01*
X158455230Y-99360243D01*
X158377123Y-99511773D01*
X158291320Y-99659323D01*
X158197952Y-99802581D01*
X158097149Y-99941241D01*
X157989042Y-100074991D01*
X157873761Y-100203525D01*
X157751437Y-100326531D01*
X157622935Y-100443065D01*
X157489235Y-100552311D01*
X157350653Y-100654151D01*
X157207504Y-100748470D01*
X157060103Y-100835152D01*
X156908763Y-100914079D01*
X156753801Y-100985136D01*
X156595531Y-101048207D01*
X156434267Y-101103175D01*
X156270324Y-101149924D01*
X156104018Y-101188337D01*
X155935663Y-101218299D01*
X155765574Y-101239693D01*
X155594066Y-101252403D01*
X155421453Y-101256312D01*
X155248050Y-101251305D01*
X155055071Y-101254425D01*
X154863356Y-101246547D01*
X154673326Y-101227851D01*
X154485402Y-101198520D01*
X154300002Y-101158735D01*
X154117549Y-101108680D01*
X153938461Y-101048535D01*
X153763160Y-100978482D01*
X153592065Y-100898703D01*
X153425598Y-100809381D01*
X153264178Y-100710697D01*
X153108226Y-100602833D01*
X152958163Y-100485971D01*
X152814407Y-100360292D01*
X152677381Y-100225979D01*
X152547504Y-100083214D01*
X153519290Y-99185936D01*
X153596746Y-99276584D01*
X153678763Y-99362171D01*
X153765088Y-99442579D01*
X153855467Y-99517686D01*
X153949645Y-99587373D01*
X154047370Y-99651520D01*
X154148386Y-99710007D01*
X154252440Y-99762715D01*
X154359279Y-99809522D01*
X154468648Y-99850310D01*
X154580293Y-99884959D01*
X154693960Y-99913347D01*
X154809396Y-99935356D01*
X154926347Y-99950866D01*
X155044558Y-99959756D01*
X155163775Y-99961907D01*
X155269065Y-99963926D01*
X155373801Y-99960445D01*
X155477788Y-99951539D01*
X155580830Y-99937285D01*
X155682730Y-99917759D01*
X155783292Y-99893036D01*
X155882320Y-99863194D01*
X155979617Y-99828309D01*
X156074987Y-99788455D01*
X156168234Y-99743711D01*
X156259162Y-99694151D01*
X156347574Y-99639853D01*
X156433274Y-99580892D01*
X156516065Y-99517344D01*
X156595752Y-99449286D01*
X156672137Y-99376793D01*
X156744612Y-99300393D01*
X156812651Y-99220692D01*
X156876180Y-99137886D01*
X156935120Y-99052172D01*
X156989397Y-98963746D01*
X157038934Y-98872805D01*
X157083655Y-98779545D01*
X157123485Y-98684163D01*
X157158346Y-98586855D01*
X157188162Y-98487817D01*
X157212859Y-98387247D01*
X157232358Y-98285340D01*
X157246586Y-98182294D01*
X157255464Y-98078304D01*
X157258917Y-97973567D01*
X157256869Y-97868279D01*
X157258914Y-97762992D01*
X157255459Y-97658256D01*
X157246578Y-97554267D01*
X157232350Y-97451222D01*
X157212848Y-97349318D01*
X157188151Y-97248750D01*
X157158333Y-97149716D01*
X157123471Y-97052411D01*
X157083641Y-96957031D01*
X157038920Y-96863774D01*
X156989382Y-96772836D01*
X156935105Y-96684412D01*
X156876164Y-96598700D01*
X156812636Y-96515895D01*
X156744597Y-96436195D01*
X156672122Y-96359795D01*
X156595736Y-96287303D01*
X156516050Y-96219244D01*
X156433258Y-96155697D01*
X156347559Y-96096735D01*
X156259147Y-96042437D01*
X156168219Y-95992877D01*
X156074972Y-95948133D01*
X155979602Y-95908280D01*
X155882305Y-95873394D01*
X155783277Y-95843552D01*
X155682715Y-95818830D01*
X155580815Y-95799304D01*
X155477773Y-95785049D01*
X155373786Y-95776144D01*
X155269049Y-95772662D01*
X155163760Y-95774682D01*
X155044965Y-95776972D01*
X154927154Y-95785883D01*
X154810574Y-95801301D01*
X154695471Y-95823110D01*
X154582092Y-95851194D01*
X154470684Y-95885439D01*
X154361493Y-95925730D01*
X154254767Y-95971951D01*
X154150753Y-96023988D01*
X154049696Y-96081724D01*
X153951844Y-96145047D01*
X153857443Y-96213839D01*
X153766740Y-96287986D01*
X153679983Y-96367372D01*
X153597417Y-96451884D01*
X153519290Y-96541405D01*
X152547504Y-95644158D01*
X152677527Y-95502842D01*
X152814558Y-95369886D01*
X152958186Y-95245466D01*
X153108000Y-95129761D01*
X153263590Y-95022946D01*
X153424544Y-94925198D01*
X153590452Y-94836694D01*
X153760903Y-94757611D01*
X153935487Y-94688125D01*
X154113793Y-94628415D01*
X154295410Y-94578655D01*
X154479928Y-94539023D01*
X154666935Y-94509697D01*
X154856021Y-94490852D01*
X155046776Y-94482665D01*
X155238788Y-94485314D01*
G36*
X155238788Y-94485314D02*
G01*
X155428248Y-94489422D01*
X155614459Y-94501643D01*
X155797239Y-94521822D01*
X155976406Y-94549801D01*
X156151781Y-94585426D01*
X156323180Y-94628541D01*
X156490423Y-94678990D01*
X156653328Y-94736618D01*
X156811714Y-94801268D01*
X156965401Y-94872785D01*
X157114205Y-94951013D01*
X157257947Y-95035797D01*
X157396445Y-95126980D01*
X157529517Y-95224407D01*
X157656982Y-95327923D01*
X157778659Y-95437371D01*
X157894366Y-95552596D01*
X158003923Y-95673441D01*
X158107147Y-95799753D01*
X158203858Y-95931373D01*
X158293874Y-96068148D01*
X158377014Y-96209920D01*
X158453097Y-96356535D01*
X158521940Y-96507837D01*
X158583364Y-96663669D01*
X158637186Y-96823877D01*
X158683225Y-96988304D01*
X158721300Y-97156794D01*
X158751229Y-97329193D01*
X158772832Y-97505344D01*
X158785927Y-97685091D01*
X158790332Y-97868279D01*
X158790332Y-97868310D01*
X158787364Y-98041763D01*
X158775524Y-98214017D01*
X158754945Y-98384762D01*
X158725755Y-98553689D01*
X158688086Y-98720490D01*
X158642069Y-98884855D01*
X158587833Y-99046475D01*
X158525510Y-99205040D01*
X158455230Y-99360243D01*
X158377123Y-99511773D01*
X158291320Y-99659323D01*
X158197952Y-99802581D01*
X158097149Y-99941241D01*
X157989042Y-100074991D01*
X157873761Y-100203525D01*
X157751437Y-100326531D01*
X157622935Y-100443065D01*
X157489235Y-100552311D01*
X157350653Y-100654151D01*
X157207504Y-100748470D01*
X157060103Y-100835152D01*
X156908763Y-100914079D01*
X156753801Y-100985136D01*
X156595531Y-101048207D01*
X156434267Y-101103175D01*
X156270324Y-101149924D01*
X156104018Y-101188337D01*
X155935663Y-101218299D01*
X155765574Y-101239693D01*
X155594066Y-101252403D01*
X155421453Y-101256312D01*
X155248050Y-101251305D01*
X155055071Y-101254425D01*
X154863356Y-101246547D01*
X154673326Y-101227851D01*
X154485402Y-101198520D01*
X154300002Y-101158735D01*
X154117549Y-101108680D01*
X153938461Y-101048535D01*
X153763160Y-100978482D01*
X153592065Y-100898703D01*
X153425598Y-100809381D01*
X153264178Y-100710697D01*
X153108226Y-100602833D01*
X152958163Y-100485971D01*
X152814407Y-100360292D01*
X152677381Y-100225979D01*
X152547504Y-100083214D01*
X153519290Y-99185936D01*
X153596746Y-99276584D01*
X153678763Y-99362171D01*
X153765088Y-99442579D01*
X153855467Y-99517686D01*
X153949645Y-99587373D01*
X154047370Y-99651520D01*
X154148386Y-99710007D01*
X154252440Y-99762715D01*
X154359279Y-99809522D01*
X154468648Y-99850310D01*
X154580293Y-99884959D01*
X154693960Y-99913347D01*
X154809396Y-99935356D01*
X154926347Y-99950866D01*
X155044558Y-99959756D01*
X155163775Y-99961907D01*
X155269065Y-99963926D01*
X155373801Y-99960445D01*
X155477788Y-99951539D01*
X155580830Y-99937285D01*
X155682730Y-99917759D01*
X155783292Y-99893036D01*
X155882320Y-99863194D01*
X155979617Y-99828309D01*
X156074987Y-99788455D01*
X156168234Y-99743711D01*
X156259162Y-99694151D01*
X156347574Y-99639853D01*
X156433274Y-99580892D01*
X156516065Y-99517344D01*
X156595752Y-99449286D01*
X156672137Y-99376793D01*
X156744612Y-99300393D01*
X156812651Y-99220692D01*
X156876180Y-99137886D01*
X156935120Y-99052172D01*
X156989397Y-98963746D01*
X157038934Y-98872805D01*
X157083655Y-98779545D01*
X157123485Y-98684163D01*
X157158346Y-98586855D01*
X157188162Y-98487817D01*
X157212859Y-98387247D01*
X157232358Y-98285340D01*
X157246586Y-98182294D01*
X157255464Y-98078304D01*
X157258917Y-97973567D01*
X157256869Y-97868279D01*
X157258914Y-97762992D01*
X157255459Y-97658256D01*
X157246578Y-97554267D01*
X157232350Y-97451222D01*
X157212848Y-97349318D01*
X157188151Y-97248750D01*
X157158333Y-97149716D01*
X157123471Y-97052411D01*
X157083641Y-96957031D01*
X157038920Y-96863774D01*
X156989382Y-96772836D01*
X156935105Y-96684412D01*
X156876164Y-96598700D01*
X156812636Y-96515895D01*
X156744597Y-96436195D01*
X156672122Y-96359795D01*
X156595736Y-96287303D01*
X156516050Y-96219244D01*
X156433258Y-96155697D01*
X156347559Y-96096735D01*
X156259147Y-96042437D01*
X156168219Y-95992877D01*
X156074972Y-95948133D01*
X155979602Y-95908280D01*
X155882305Y-95873394D01*
X155783277Y-95843552D01*
X155682715Y-95818830D01*
X155580815Y-95799304D01*
X155477773Y-95785049D01*
X155373786Y-95776144D01*
X155269049Y-95772662D01*
X155163760Y-95774682D01*
X155044965Y-95776972D01*
X154927154Y-95785883D01*
X154810574Y-95801301D01*
X154695471Y-95823110D01*
X154582092Y-95851194D01*
X154470684Y-95885439D01*
X154361493Y-95925730D01*
X154254767Y-95971951D01*
X154150753Y-96023988D01*
X154049696Y-96081724D01*
X153951844Y-96145047D01*
X153857443Y-96213839D01*
X153766740Y-96287986D01*
X153679983Y-96367372D01*
X153597417Y-96451884D01*
X153519290Y-96541405D01*
X152547504Y-95644158D01*
X152677527Y-95502842D01*
X152814558Y-95369886D01*
X152958186Y-95245466D01*
X153108000Y-95129761D01*
X153263590Y-95022946D01*
X153424544Y-94925198D01*
X153590452Y-94836694D01*
X153760903Y-94757611D01*
X153935487Y-94688125D01*
X154113793Y-94628415D01*
X154295410Y-94578655D01*
X154479928Y-94539023D01*
X154666935Y-94509697D01*
X154856021Y-94490852D01*
X155046776Y-94482665D01*
X155238788Y-94485314D01*
G37*
D11*
X165467584Y-92782854D02*
X163346036Y-92782854D01*
X163346036Y-90261764D01*
X136829685Y-90261764D01*
X136829685Y-92782854D01*
X134708136Y-92782854D01*
X134708136Y-88138067D01*
X165467584Y-88138067D01*
X165467584Y-92782854D01*
G36*
X165467584Y-92782854D02*
G01*
X163346036Y-92782854D01*
X163346036Y-90261764D01*
X136829685Y-90261764D01*
X136829685Y-92782854D01*
X134708136Y-92782854D01*
X134708136Y-88138067D01*
X165467584Y-88138067D01*
X165467584Y-92782854D01*
G37*
D14*
%TO.C,D3*%
X181135947Y-96224287D03*
%TD*%
%TO.C,D7*%
X141705194Y-135702786D03*
%TD*%
%TO.C,D1*%
X158343024Y-73458931D03*
%TD*%
%TO.C,D11*%
X127231188Y-81815504D03*
%TD*%
%TO.C,D9*%
X118912272Y-112937432D03*
%TD*%
D15*
%TO.C,BT1*%
X173990000Y-111038605D03*
X173990000Y-98338605D03*
%TD*%
D14*
%TO.C,D10*%
X118902183Y-96261944D03*
%TD*%
%TO.C,D2*%
X172789464Y-81787936D03*
%TD*%
%TO.C,D8*%
X127258755Y-127373780D03*
%TD*%
%TO.C,D5*%
X172817030Y-127346215D03*
%TD*%
%TO.C,D4*%
X181146035Y-112899772D03*
%TD*%
%TO.C,D6*%
X158380682Y-135692694D03*
%TD*%
%TO.C,D12*%
X141667537Y-73469024D03*
%TD*%
M02*
