%TF.GenerationSoftware,KiCad,Pcbnew,7.0.7*%
%TF.CreationDate,2023-11-12T19:42:32-08:00*%
%TF.ProjectId,CodeStackOrnament2023,436f6465-5374-4616-936b-4f726e616d65,rev?*%
%TF.SameCoordinates,Original*%
%TF.FileFunction,Paste,Top*%
%TF.FilePolarity,Positive*%
%FSLAX46Y46*%
G04 Gerber Fmt 4.6, Leading zero omitted, Abs format (unit mm)*
G04 Created by KiCad (PCBNEW 7.0.7) date 2023-11-12 19:42:32*
%MOMM*%
%LPD*%
G01*
G04 APERTURE LIST*
G04 Aperture macros list*
%AMRoundRect*
0 Rectangle with rounded corners*
0 $1 Rounding radius*
0 $2 $3 $4 $5 $6 $7 $8 $9 X,Y pos of 4 corners*
0 Add a 4 corners polygon primitive as box body*
4,1,4,$2,$3,$4,$5,$6,$7,$8,$9,$2,$3,0*
0 Add four circle primitives for the rounded corners*
1,1,$1+$1,$2,$3*
1,1,$1+$1,$4,$5*
1,1,$1+$1,$6,$7*
1,1,$1+$1,$8,$9*
0 Add four rect primitives between the rounded corners*
20,1,$1+$1,$2,$3,$4,$5,0*
20,1,$1+$1,$4,$5,$6,$7,0*
20,1,$1+$1,$6,$7,$8,$9,0*
20,1,$1+$1,$8,$9,$2,$3,0*%
%AMRotRect*
0 Rectangle, with rotation*
0 The origin of the aperture is its center*
0 $1 length*
0 $2 width*
0 $3 Rotation angle, in degrees counterclockwise*
0 Add horizontal line*
21,1,$1,$2,0,0,$3*%
G04 Aperture macros list end*
%ADD10R,1.000000X0.700000*%
%ADD11RoundRect,0.050000X0.500000X0.250000X-0.500000X0.250000X-0.500000X-0.250000X0.500000X-0.250000X0*%
%ADD12RoundRect,0.250000X0.450000X-0.262500X0.450000X0.262500X-0.450000X0.262500X-0.450000X-0.262500X0*%
%ADD13RoundRect,0.250000X-0.475000X0.250000X-0.475000X-0.250000X0.475000X-0.250000X0.475000X0.250000X0*%
%ADD14RoundRect,0.250000X-0.250000X-0.475000X0.250000X-0.475000X0.250000X0.475000X-0.250000X0.475000X0*%
%ADD15RoundRect,0.250000X0.475000X-0.250000X0.475000X0.250000X-0.475000X0.250000X-0.475000X-0.250000X0*%
%ADD16RoundRect,0.250000X-0.450000X0.262500X-0.450000X-0.262500X0.450000X-0.262500X0.450000X0.262500X0*%
%ADD17RotRect,1.000000X1.600000X106.000000*%
%ADD18RotRect,1.000000X1.600000X346.000000*%
%ADD19RoundRect,0.250000X0.250000X0.475000X-0.250000X0.475000X-0.250000X-0.475000X0.250000X-0.475000X0*%
%ADD20RotRect,1.000000X1.600000X166.000000*%
%ADD21R,1.500000X0.550000*%
%ADD22RotRect,1.000000X1.600000X226.000000*%
%ADD23RotRect,1.000000X1.600000X286.000000*%
%ADD24RotRect,1.000000X1.600000X256.000000*%
%ADD25RotRect,1.000000X1.600000X136.000000*%
%ADD26RoundRect,0.150000X-0.625000X-0.150000X0.625000X-0.150000X0.625000X0.150000X-0.625000X0.150000X0*%
%ADD27R,1.800000X1.000000*%
%ADD28RotRect,1.000000X1.600000X316.000000*%
%ADD29RotRect,1.000000X1.600000X46.000000*%
%ADD30RotRect,1.000000X1.600000X76.000000*%
%ADD31RotRect,1.000000X1.600000X16.000000*%
%ADD32RotRect,1.000000X1.600000X196.000000*%
%ADD33R,2.500000X1.200000*%
G04 APERTURE END LIST*
D10*
%TO.C,SW2*%
X126920000Y-119400000D03*
X131420000Y-119400000D03*
X126920000Y-121550000D03*
X131420000Y-121550000D03*
%TD*%
D11*
%TO.C,U3*%
X128050000Y-125040000D03*
X128050000Y-123140000D03*
X130650000Y-123140000D03*
X130650000Y-124090000D03*
X130650000Y-125040000D03*
%TD*%
D12*
%TO.C,R3*%
X133650000Y-120612500D03*
X133650000Y-122437500D03*
%TD*%
D13*
%TO.C,C9*%
X133675000Y-126100000D03*
X133675000Y-124200000D03*
%TD*%
D14*
%TO.C,C8*%
X130000000Y-126770000D03*
X131900000Y-126770000D03*
%TD*%
D15*
%TO.C,C1*%
X145100000Y-123450000D03*
X145100000Y-121550000D03*
%TD*%
D16*
%TO.C,R2*%
X155170000Y-125387500D03*
X155170000Y-127212500D03*
%TD*%
D17*
%TO.C,D3*%
X181632094Y-97954558D03*
X180639800Y-94494016D03*
%TD*%
D14*
%TO.C,C5*%
X138320000Y-131050000D03*
X140220000Y-131050000D03*
%TD*%
%TO.C,C3*%
X147150000Y-129200000D03*
X149050000Y-129200000D03*
%TD*%
D18*
%TO.C,D7*%
X139958662Y-135267327D03*
X143451726Y-136138245D03*
%TD*%
D19*
%TO.C,C4*%
X152950000Y-129200000D03*
X151050000Y-129200000D03*
%TD*%
D16*
%TO.C,R1*%
X155200000Y-121587500D03*
X155200000Y-123412500D03*
%TD*%
D20*
%TO.C,D1*%
X160089556Y-73894390D03*
X156596492Y-73023472D03*
%TD*%
D21*
%TO.C,U2*%
X141900000Y-128821152D03*
X141900000Y-127551152D03*
X141900000Y-126281152D03*
X141900000Y-125011152D03*
X141900000Y-123741152D03*
X141900000Y-122471152D03*
X141900000Y-121201152D03*
X141900000Y-119931152D03*
X136500000Y-119931152D03*
X136500000Y-121201152D03*
X136500000Y-122471152D03*
X136500000Y-123741152D03*
X136500000Y-125011152D03*
X136500000Y-126281152D03*
X136500000Y-127551152D03*
X136500000Y-128821152D03*
%TD*%
D22*
%TO.C,D11*%
X128481573Y-80520692D03*
X125980803Y-83110316D03*
%TD*%
D23*
%TO.C,D9*%
X118416125Y-111207161D03*
X119408419Y-114667703D03*
%TD*%
D15*
%TO.C,C2*%
X145000000Y-127250000D03*
X145000000Y-125350000D03*
%TD*%
D24*
%TO.C,D10*%
X119337642Y-94515412D03*
X118466724Y-98008476D03*
%TD*%
D13*
%TO.C,C7*%
X157740000Y-123450000D03*
X157740000Y-125350000D03*
%TD*%
D25*
%TO.C,D2*%
X174084276Y-83038321D03*
X171494652Y-80537551D03*
%TD*%
D26*
%TO.C,U1*%
X147400000Y-122490000D03*
X147400000Y-123760000D03*
X147400000Y-125030000D03*
X147400000Y-126300000D03*
X152800000Y-126300000D03*
X152800000Y-125030000D03*
X152800000Y-123760000D03*
X152800000Y-122490000D03*
%TD*%
D27*
%TO.C,F1*%
X178930000Y-106083605D03*
X178930000Y-103283605D03*
%TD*%
D28*
%TO.C,D8*%
X125963943Y-126123395D03*
X128553567Y-128624165D03*
%TD*%
D29*
%TO.C,D5*%
X171566645Y-128641027D03*
X174067415Y-126051403D03*
%TD*%
D13*
%TO.C,C6*%
X160200000Y-123450000D03*
X160200000Y-125350000D03*
%TD*%
D30*
%TO.C,D4*%
X180710576Y-114646304D03*
X181581494Y-111153240D03*
%TD*%
D31*
%TO.C,D6*%
X156650411Y-136188841D03*
X160110953Y-135196547D03*
%TD*%
D32*
%TO.C,D12*%
X143397808Y-72972877D03*
X139937266Y-73965171D03*
%TD*%
D33*
%TO.C,SW1*%
X168680000Y-126790000D03*
X168680000Y-124290000D03*
X168680000Y-121790000D03*
X163180000Y-126790000D03*
X163180000Y-124290000D03*
X163180000Y-121790000D03*
%TD*%
M02*
