%TF.GenerationSoftware,KiCad,Pcbnew,7.0.7*%
%TF.CreationDate,2023-10-30T19:21:24-07:00*%
%TF.ProjectId,CodeStackOrnament2023,436f6465-5374-4616-936b-4f726e616d65,rev?*%
%TF.SameCoordinates,Original*%
%TF.FileFunction,Legend,Top*%
%TF.FilePolarity,Positive*%
%FSLAX46Y46*%
G04 Gerber Fmt 4.6, Leading zero omitted, Abs format (unit mm)*
G04 Created by KiCad (PCBNEW 7.0.7) date 2023-10-30 19:21:24*
%MOMM*%
%LPD*%
G01*
G04 APERTURE LIST*
G04 Aperture macros list*
%AMRoundRect*
0 Rectangle with rounded corners*
0 $1 Rounding radius*
0 $2 $3 $4 $5 $6 $7 $8 $9 X,Y pos of 4 corners*
0 Add a 4 corners polygon primitive as box body*
4,1,4,$2,$3,$4,$5,$6,$7,$8,$9,$2,$3,0*
0 Add four circle primitives for the rounded corners*
1,1,$1+$1,$2,$3*
1,1,$1+$1,$4,$5*
1,1,$1+$1,$6,$7*
1,1,$1+$1,$8,$9*
0 Add four rect primitives between the rounded corners*
20,1,$1+$1,$2,$3,$4,$5,0*
20,1,$1+$1,$4,$5,$6,$7,0*
20,1,$1+$1,$6,$7,$8,$9,0*
20,1,$1+$1,$8,$9,$2,$3,0*%
%AMRotRect*
0 Rectangle, with rotation*
0 The origin of the aperture is its center*
0 $1 length*
0 $2 width*
0 $3 Rotation angle, in degrees counterclockwise*
0 Add horizontal line*
21,1,$1,$2,0,0,$3*%
G04 Aperture macros list end*
%ADD10C,0.150000*%
%ADD11C,0.100000*%
%ADD12C,0.120000*%
%ADD13C,0.127000*%
%ADD14RoundRect,0.250000X0.475000X-0.250000X0.475000X0.250000X-0.475000X0.250000X-0.475000X-0.250000X0*%
%ADD15RoundRect,0.250000X-0.450000X0.262500X-0.450000X-0.262500X0.450000X-0.262500X0.450000X0.262500X0*%
%ADD16C,2.100000*%
%ADD17RotRect,1.000000X1.600000X106.000000*%
%ADD18RoundRect,0.250000X-0.250000X-0.475000X0.250000X-0.475000X0.250000X0.475000X-0.250000X0.475000X0*%
%ADD19RotRect,1.000000X1.600000X346.000000*%
%ADD20RoundRect,0.250000X0.250000X0.475000X-0.250000X0.475000X-0.250000X-0.475000X0.250000X-0.475000X0*%
%ADD21RotRect,1.000000X1.600000X166.000000*%
%ADD22RoundRect,0.102000X0.750000X-0.275000X0.750000X0.275000X-0.750000X0.275000X-0.750000X-0.275000X0*%
%ADD23RotRect,1.000000X1.600000X226.000000*%
%ADD24RotRect,1.000000X1.600000X286.000000*%
%ADD25C,1.734000*%
%ADD26RotRect,1.000000X1.600000X256.000000*%
%ADD27RoundRect,0.250000X-0.475000X0.250000X-0.475000X-0.250000X0.475000X-0.250000X0.475000X0.250000X0*%
%ADD28RotRect,1.000000X1.600000X136.000000*%
%ADD29RoundRect,0.150000X-0.625000X-0.150000X0.625000X-0.150000X0.625000X0.150000X-0.625000X0.150000X0*%
%ADD30RoundRect,0.102000X0.900000X-0.500000X0.900000X0.500000X-0.900000X0.500000X-0.900000X-0.500000X0*%
%ADD31RotRect,1.000000X1.600000X316.000000*%
%ADD32RotRect,1.000000X1.600000X46.000000*%
%ADD33RotRect,1.000000X1.600000X76.000000*%
%ADD34RotRect,1.000000X1.600000X16.000000*%
%ADD35RotRect,1.000000X1.600000X196.000000*%
%ADD36R,2.500000X1.200000*%
G04 APERTURE END LIST*
D10*
X145942493Y-104209819D02*
X145942493Y-104924104D01*
X145942493Y-104924104D02*
X145894874Y-105066961D01*
X145894874Y-105066961D02*
X145799636Y-105162200D01*
X145799636Y-105162200D02*
X145656779Y-105209819D01*
X145656779Y-105209819D02*
X145561541Y-105209819D01*
X146894874Y-105209819D02*
X146418684Y-105209819D01*
X146418684Y-105209819D02*
X146418684Y-104209819D01*
X147799636Y-105114580D02*
X147752017Y-105162200D01*
X147752017Y-105162200D02*
X147609160Y-105209819D01*
X147609160Y-105209819D02*
X147513922Y-105209819D01*
X147513922Y-105209819D02*
X147371065Y-105162200D01*
X147371065Y-105162200D02*
X147275827Y-105066961D01*
X147275827Y-105066961D02*
X147228208Y-104971723D01*
X147228208Y-104971723D02*
X147180589Y-104781247D01*
X147180589Y-104781247D02*
X147180589Y-104638390D01*
X147180589Y-104638390D02*
X147228208Y-104447914D01*
X147228208Y-104447914D02*
X147275827Y-104352676D01*
X147275827Y-104352676D02*
X147371065Y-104257438D01*
X147371065Y-104257438D02*
X147513922Y-104209819D01*
X147513922Y-104209819D02*
X147609160Y-104209819D01*
X147609160Y-104209819D02*
X147752017Y-104257438D01*
X147752017Y-104257438D02*
X147799636Y-104305057D01*
X148513922Y-104209819D02*
X148513922Y-104924104D01*
X148513922Y-104924104D02*
X148466303Y-105066961D01*
X148466303Y-105066961D02*
X148371065Y-105162200D01*
X148371065Y-105162200D02*
X148228208Y-105209819D01*
X148228208Y-105209819D02*
X148132970Y-105209819D01*
X149466303Y-105209819D02*
X148990113Y-105209819D01*
X148990113Y-105209819D02*
X148990113Y-104209819D01*
X150371065Y-105114580D02*
X150323446Y-105162200D01*
X150323446Y-105162200D02*
X150180589Y-105209819D01*
X150180589Y-105209819D02*
X150085351Y-105209819D01*
X150085351Y-105209819D02*
X149942494Y-105162200D01*
X149942494Y-105162200D02*
X149847256Y-105066961D01*
X149847256Y-105066961D02*
X149799637Y-104971723D01*
X149799637Y-104971723D02*
X149752018Y-104781247D01*
X149752018Y-104781247D02*
X149752018Y-104638390D01*
X149752018Y-104638390D02*
X149799637Y-104447914D01*
X149799637Y-104447914D02*
X149847256Y-104352676D01*
X149847256Y-104352676D02*
X149942494Y-104257438D01*
X149942494Y-104257438D02*
X150085351Y-104209819D01*
X150085351Y-104209819D02*
X150180589Y-104209819D01*
X150180589Y-104209819D02*
X150323446Y-104257438D01*
X150323446Y-104257438D02*
X150371065Y-104305057D01*
X151085351Y-104209819D02*
X151085351Y-104924104D01*
X151085351Y-104924104D02*
X151037732Y-105066961D01*
X151037732Y-105066961D02*
X150942494Y-105162200D01*
X150942494Y-105162200D02*
X150799637Y-105209819D01*
X150799637Y-105209819D02*
X150704399Y-105209819D01*
X152037732Y-105209819D02*
X151561542Y-105209819D01*
X151561542Y-105209819D02*
X151561542Y-104209819D01*
X152942494Y-105114580D02*
X152894875Y-105162200D01*
X152894875Y-105162200D02*
X152752018Y-105209819D01*
X152752018Y-105209819D02*
X152656780Y-105209819D01*
X152656780Y-105209819D02*
X152513923Y-105162200D01*
X152513923Y-105162200D02*
X152418685Y-105066961D01*
X152418685Y-105066961D02*
X152371066Y-104971723D01*
X152371066Y-104971723D02*
X152323447Y-104781247D01*
X152323447Y-104781247D02*
X152323447Y-104638390D01*
X152323447Y-104638390D02*
X152371066Y-104447914D01*
X152371066Y-104447914D02*
X152418685Y-104352676D01*
X152418685Y-104352676D02*
X152513923Y-104257438D01*
X152513923Y-104257438D02*
X152656780Y-104209819D01*
X152656780Y-104209819D02*
X152752018Y-104209819D01*
X152752018Y-104209819D02*
X152894875Y-104257438D01*
X152894875Y-104257438D02*
X152942494Y-104305057D01*
X153656780Y-104209819D02*
X153656780Y-104924104D01*
X153656780Y-104924104D02*
X153609161Y-105066961D01*
X153609161Y-105066961D02*
X153513923Y-105162200D01*
X153513923Y-105162200D02*
X153371066Y-105209819D01*
X153371066Y-105209819D02*
X153275828Y-105209819D01*
X154609161Y-105209819D02*
X154132971Y-105209819D01*
X154132971Y-105209819D02*
X154132971Y-104209819D01*
X155513923Y-105114580D02*
X155466304Y-105162200D01*
X155466304Y-105162200D02*
X155323447Y-105209819D01*
X155323447Y-105209819D02*
X155228209Y-105209819D01*
X155228209Y-105209819D02*
X155085352Y-105162200D01*
X155085352Y-105162200D02*
X154990114Y-105066961D01*
X154990114Y-105066961D02*
X154942495Y-104971723D01*
X154942495Y-104971723D02*
X154894876Y-104781247D01*
X154894876Y-104781247D02*
X154894876Y-104638390D01*
X154894876Y-104638390D02*
X154942495Y-104447914D01*
X154942495Y-104447914D02*
X154990114Y-104352676D01*
X154990114Y-104352676D02*
X155085352Y-104257438D01*
X155085352Y-104257438D02*
X155228209Y-104209819D01*
X155228209Y-104209819D02*
X155323447Y-104209819D01*
X155323447Y-104209819D02*
X155466304Y-104257438D01*
X155466304Y-104257438D02*
X155513923Y-104305057D01*
X142996779Y-78859819D02*
X142996779Y-77859819D01*
X142996779Y-77859819D02*
X143330112Y-78574104D01*
X143330112Y-78574104D02*
X143663445Y-77859819D01*
X143663445Y-77859819D02*
X143663445Y-78859819D01*
X144139636Y-78336009D02*
X144472969Y-78336009D01*
X144615826Y-78859819D02*
X144139636Y-78859819D01*
X144139636Y-78859819D02*
X144139636Y-77859819D01*
X144139636Y-77859819D02*
X144615826Y-77859819D01*
X145615826Y-78859819D02*
X145282493Y-78383628D01*
X145044398Y-78859819D02*
X145044398Y-77859819D01*
X145044398Y-77859819D02*
X145425350Y-77859819D01*
X145425350Y-77859819D02*
X145520588Y-77907438D01*
X145520588Y-77907438D02*
X145568207Y-77955057D01*
X145568207Y-77955057D02*
X145615826Y-78050295D01*
X145615826Y-78050295D02*
X145615826Y-78193152D01*
X145615826Y-78193152D02*
X145568207Y-78288390D01*
X145568207Y-78288390D02*
X145520588Y-78336009D01*
X145520588Y-78336009D02*
X145425350Y-78383628D01*
X145425350Y-78383628D02*
X145044398Y-78383628D01*
X146615826Y-78859819D02*
X146282493Y-78383628D01*
X146044398Y-78859819D02*
X146044398Y-77859819D01*
X146044398Y-77859819D02*
X146425350Y-77859819D01*
X146425350Y-77859819D02*
X146520588Y-77907438D01*
X146520588Y-77907438D02*
X146568207Y-77955057D01*
X146568207Y-77955057D02*
X146615826Y-78050295D01*
X146615826Y-78050295D02*
X146615826Y-78193152D01*
X146615826Y-78193152D02*
X146568207Y-78288390D01*
X146568207Y-78288390D02*
X146520588Y-78336009D01*
X146520588Y-78336009D02*
X146425350Y-78383628D01*
X146425350Y-78383628D02*
X146044398Y-78383628D01*
X147234874Y-78383628D02*
X147234874Y-78859819D01*
X146901541Y-77859819D02*
X147234874Y-78383628D01*
X147234874Y-78383628D02*
X147568207Y-77859819D01*
X149234874Y-78764580D02*
X149187255Y-78812200D01*
X149187255Y-78812200D02*
X149044398Y-78859819D01*
X149044398Y-78859819D02*
X148949160Y-78859819D01*
X148949160Y-78859819D02*
X148806303Y-78812200D01*
X148806303Y-78812200D02*
X148711065Y-78716961D01*
X148711065Y-78716961D02*
X148663446Y-78621723D01*
X148663446Y-78621723D02*
X148615827Y-78431247D01*
X148615827Y-78431247D02*
X148615827Y-78288390D01*
X148615827Y-78288390D02*
X148663446Y-78097914D01*
X148663446Y-78097914D02*
X148711065Y-78002676D01*
X148711065Y-78002676D02*
X148806303Y-77907438D01*
X148806303Y-77907438D02*
X148949160Y-77859819D01*
X148949160Y-77859819D02*
X149044398Y-77859819D01*
X149044398Y-77859819D02*
X149187255Y-77907438D01*
X149187255Y-77907438D02*
X149234874Y-77955057D01*
X149663446Y-78859819D02*
X149663446Y-77859819D01*
X149663446Y-78336009D02*
X150234874Y-78336009D01*
X150234874Y-78859819D02*
X150234874Y-77859819D01*
X151282493Y-78859819D02*
X150949160Y-78383628D01*
X150711065Y-78859819D02*
X150711065Y-77859819D01*
X150711065Y-77859819D02*
X151092017Y-77859819D01*
X151092017Y-77859819D02*
X151187255Y-77907438D01*
X151187255Y-77907438D02*
X151234874Y-77955057D01*
X151234874Y-77955057D02*
X151282493Y-78050295D01*
X151282493Y-78050295D02*
X151282493Y-78193152D01*
X151282493Y-78193152D02*
X151234874Y-78288390D01*
X151234874Y-78288390D02*
X151187255Y-78336009D01*
X151187255Y-78336009D02*
X151092017Y-78383628D01*
X151092017Y-78383628D02*
X150711065Y-78383628D01*
X151711065Y-78859819D02*
X151711065Y-77859819D01*
X152139636Y-78812200D02*
X152282493Y-78859819D01*
X152282493Y-78859819D02*
X152520588Y-78859819D01*
X152520588Y-78859819D02*
X152615826Y-78812200D01*
X152615826Y-78812200D02*
X152663445Y-78764580D01*
X152663445Y-78764580D02*
X152711064Y-78669342D01*
X152711064Y-78669342D02*
X152711064Y-78574104D01*
X152711064Y-78574104D02*
X152663445Y-78478866D01*
X152663445Y-78478866D02*
X152615826Y-78431247D01*
X152615826Y-78431247D02*
X152520588Y-78383628D01*
X152520588Y-78383628D02*
X152330112Y-78336009D01*
X152330112Y-78336009D02*
X152234874Y-78288390D01*
X152234874Y-78288390D02*
X152187255Y-78240771D01*
X152187255Y-78240771D02*
X152139636Y-78145533D01*
X152139636Y-78145533D02*
X152139636Y-78050295D01*
X152139636Y-78050295D02*
X152187255Y-77955057D01*
X152187255Y-77955057D02*
X152234874Y-77907438D01*
X152234874Y-77907438D02*
X152330112Y-77859819D01*
X152330112Y-77859819D02*
X152568207Y-77859819D01*
X152568207Y-77859819D02*
X152711064Y-77907438D01*
X152996779Y-77859819D02*
X153568207Y-77859819D01*
X153282493Y-78859819D02*
X153282493Y-77859819D01*
X153901541Y-78859819D02*
X153901541Y-77859819D01*
X153901541Y-77859819D02*
X154234874Y-78574104D01*
X154234874Y-78574104D02*
X154568207Y-77859819D01*
X154568207Y-77859819D02*
X154568207Y-78859819D01*
X154996779Y-78574104D02*
X155472969Y-78574104D01*
X154901541Y-78859819D02*
X155234874Y-77859819D01*
X155234874Y-77859819D02*
X155568207Y-78859819D01*
X155853922Y-78812200D02*
X155996779Y-78859819D01*
X155996779Y-78859819D02*
X156234874Y-78859819D01*
X156234874Y-78859819D02*
X156330112Y-78812200D01*
X156330112Y-78812200D02*
X156377731Y-78764580D01*
X156377731Y-78764580D02*
X156425350Y-78669342D01*
X156425350Y-78669342D02*
X156425350Y-78574104D01*
X156425350Y-78574104D02*
X156377731Y-78478866D01*
X156377731Y-78478866D02*
X156330112Y-78431247D01*
X156330112Y-78431247D02*
X156234874Y-78383628D01*
X156234874Y-78383628D02*
X156044398Y-78336009D01*
X156044398Y-78336009D02*
X155949160Y-78288390D01*
X155949160Y-78288390D02*
X155901541Y-78240771D01*
X155901541Y-78240771D02*
X155853922Y-78145533D01*
X155853922Y-78145533D02*
X155853922Y-78050295D01*
X155853922Y-78050295D02*
X155901541Y-77955057D01*
X155901541Y-77955057D02*
X155949160Y-77907438D01*
X155949160Y-77907438D02*
X156044398Y-77859819D01*
X156044398Y-77859819D02*
X156282493Y-77859819D01*
X156282493Y-77859819D02*
X156425350Y-77907438D01*
X156853922Y-78764580D02*
X156901541Y-78812200D01*
X156901541Y-78812200D02*
X156853922Y-78859819D01*
X156853922Y-78859819D02*
X156806303Y-78812200D01*
X156806303Y-78812200D02*
X156853922Y-78764580D01*
X156853922Y-78764580D02*
X156853922Y-78859819D01*
X156853922Y-78478866D02*
X156806303Y-77907438D01*
X156806303Y-77907438D02*
X156853922Y-77859819D01*
X156853922Y-77859819D02*
X156901541Y-77907438D01*
X156901541Y-77907438D02*
X156853922Y-78478866D01*
X156853922Y-78478866D02*
X156853922Y-77859819D01*
X157490112Y-87526009D02*
X157156779Y-87526009D01*
X157156779Y-88049819D02*
X157156779Y-87049819D01*
X157156779Y-87049819D02*
X157632969Y-87049819D01*
X158585350Y-88049819D02*
X158252017Y-87573628D01*
X158013922Y-88049819D02*
X158013922Y-87049819D01*
X158013922Y-87049819D02*
X158394874Y-87049819D01*
X158394874Y-87049819D02*
X158490112Y-87097438D01*
X158490112Y-87097438D02*
X158537731Y-87145057D01*
X158537731Y-87145057D02*
X158585350Y-87240295D01*
X158585350Y-87240295D02*
X158585350Y-87383152D01*
X158585350Y-87383152D02*
X158537731Y-87478390D01*
X158537731Y-87478390D02*
X158490112Y-87526009D01*
X158490112Y-87526009D02*
X158394874Y-87573628D01*
X158394874Y-87573628D02*
X158013922Y-87573628D01*
X159204398Y-87049819D02*
X159394874Y-87049819D01*
X159394874Y-87049819D02*
X159490112Y-87097438D01*
X159490112Y-87097438D02*
X159585350Y-87192676D01*
X159585350Y-87192676D02*
X159632969Y-87383152D01*
X159632969Y-87383152D02*
X159632969Y-87716485D01*
X159632969Y-87716485D02*
X159585350Y-87906961D01*
X159585350Y-87906961D02*
X159490112Y-88002200D01*
X159490112Y-88002200D02*
X159394874Y-88049819D01*
X159394874Y-88049819D02*
X159204398Y-88049819D01*
X159204398Y-88049819D02*
X159109160Y-88002200D01*
X159109160Y-88002200D02*
X159013922Y-87906961D01*
X159013922Y-87906961D02*
X158966303Y-87716485D01*
X158966303Y-87716485D02*
X158966303Y-87383152D01*
X158966303Y-87383152D02*
X159013922Y-87192676D01*
X159013922Y-87192676D02*
X159109160Y-87097438D01*
X159109160Y-87097438D02*
X159204398Y-87049819D01*
X160061541Y-88049819D02*
X160061541Y-87049819D01*
X160061541Y-87049819D02*
X160394874Y-87764104D01*
X160394874Y-87764104D02*
X160728207Y-87049819D01*
X160728207Y-87049819D02*
X160728207Y-88049819D01*
X161204398Y-87954580D02*
X161252017Y-88002200D01*
X161252017Y-88002200D02*
X161204398Y-88049819D01*
X161204398Y-88049819D02*
X161156779Y-88002200D01*
X161156779Y-88002200D02*
X161204398Y-87954580D01*
X161204398Y-87954580D02*
X161204398Y-88049819D01*
X161204398Y-87430771D02*
X161252017Y-87478390D01*
X161252017Y-87478390D02*
X161204398Y-87526009D01*
X161204398Y-87526009D02*
X161156779Y-87478390D01*
X161156779Y-87478390D02*
X161204398Y-87430771D01*
X161204398Y-87430771D02*
X161204398Y-87526009D01*
X162728207Y-87049819D02*
X162728207Y-87764104D01*
X162728207Y-87764104D02*
X162680588Y-87906961D01*
X162680588Y-87906961D02*
X162585350Y-88002200D01*
X162585350Y-88002200D02*
X162442493Y-88049819D01*
X162442493Y-88049819D02*
X162347255Y-88049819D01*
X163394874Y-87049819D02*
X163585350Y-87049819D01*
X163585350Y-87049819D02*
X163680588Y-87097438D01*
X163680588Y-87097438D02*
X163775826Y-87192676D01*
X163775826Y-87192676D02*
X163823445Y-87383152D01*
X163823445Y-87383152D02*
X163823445Y-87716485D01*
X163823445Y-87716485D02*
X163775826Y-87906961D01*
X163775826Y-87906961D02*
X163680588Y-88002200D01*
X163680588Y-88002200D02*
X163585350Y-88049819D01*
X163585350Y-88049819D02*
X163394874Y-88049819D01*
X163394874Y-88049819D02*
X163299636Y-88002200D01*
X163299636Y-88002200D02*
X163204398Y-87906961D01*
X163204398Y-87906961D02*
X163156779Y-87716485D01*
X163156779Y-87716485D02*
X163156779Y-87383152D01*
X163156779Y-87383152D02*
X163204398Y-87192676D01*
X163204398Y-87192676D02*
X163299636Y-87097438D01*
X163299636Y-87097438D02*
X163394874Y-87049819D01*
X164252017Y-88049819D02*
X164252017Y-87049819D01*
X164252017Y-87049819D02*
X164823445Y-88049819D01*
X164823445Y-88049819D02*
X164823445Y-87049819D01*
X157023922Y-83069819D02*
X157595350Y-83069819D01*
X157309636Y-84069819D02*
X157309636Y-83069819D01*
X158119160Y-83069819D02*
X158309636Y-83069819D01*
X158309636Y-83069819D02*
X158404874Y-83117438D01*
X158404874Y-83117438D02*
X158500112Y-83212676D01*
X158500112Y-83212676D02*
X158547731Y-83403152D01*
X158547731Y-83403152D02*
X158547731Y-83736485D01*
X158547731Y-83736485D02*
X158500112Y-83926961D01*
X158500112Y-83926961D02*
X158404874Y-84022200D01*
X158404874Y-84022200D02*
X158309636Y-84069819D01*
X158309636Y-84069819D02*
X158119160Y-84069819D01*
X158119160Y-84069819D02*
X158023922Y-84022200D01*
X158023922Y-84022200D02*
X157928684Y-83926961D01*
X157928684Y-83926961D02*
X157881065Y-83736485D01*
X157881065Y-83736485D02*
X157881065Y-83403152D01*
X157881065Y-83403152D02*
X157928684Y-83212676D01*
X157928684Y-83212676D02*
X158023922Y-83117438D01*
X158023922Y-83117438D02*
X158119160Y-83069819D01*
X158976303Y-83974580D02*
X159023922Y-84022200D01*
X159023922Y-84022200D02*
X158976303Y-84069819D01*
X158976303Y-84069819D02*
X158928684Y-84022200D01*
X158928684Y-84022200D02*
X158976303Y-83974580D01*
X158976303Y-83974580D02*
X158976303Y-84069819D01*
X158976303Y-83450771D02*
X159023922Y-83498390D01*
X159023922Y-83498390D02*
X158976303Y-83546009D01*
X158976303Y-83546009D02*
X158928684Y-83498390D01*
X158928684Y-83498390D02*
X158976303Y-83450771D01*
X158976303Y-83450771D02*
X158976303Y-83546009D01*
X159976303Y-84165057D02*
X160738207Y-84165057D01*
X160738208Y-84165057D02*
X161500112Y-84165057D01*
X161500113Y-84165057D02*
X162262017Y-84165057D01*
X162262018Y-84165057D02*
X163023922Y-84165057D01*
X163023923Y-84165057D02*
X163785827Y-84165057D01*
X163785828Y-84165057D02*
X164547732Y-84165057D01*
X164547733Y-84165057D02*
X165309637Y-84165057D01*
X165309638Y-84165057D02*
X166071542Y-84165057D01*
X166071543Y-84165057D02*
X166833447Y-84165057D01*
X166833448Y-84165057D02*
X167595352Y-84165057D01*
X167595353Y-84165057D02*
X168357257Y-84165057D01*
X168357258Y-84165057D02*
X169119162Y-84165057D01*
X169119163Y-84165057D02*
X169881067Y-84165057D01*
X169881068Y-84165057D02*
X170642972Y-84165057D01*
X161327255Y-128169819D02*
X161517731Y-128169819D01*
X161517731Y-128169819D02*
X161612969Y-128217438D01*
X161612969Y-128217438D02*
X161708207Y-128312676D01*
X161708207Y-128312676D02*
X161755826Y-128503152D01*
X161755826Y-128503152D02*
X161755826Y-128836485D01*
X161755826Y-128836485D02*
X161708207Y-129026961D01*
X161708207Y-129026961D02*
X161612969Y-129122200D01*
X161612969Y-129122200D02*
X161517731Y-129169819D01*
X161517731Y-129169819D02*
X161327255Y-129169819D01*
X161327255Y-129169819D02*
X161232017Y-129122200D01*
X161232017Y-129122200D02*
X161136779Y-129026961D01*
X161136779Y-129026961D02*
X161089160Y-128836485D01*
X161089160Y-128836485D02*
X161089160Y-128503152D01*
X161089160Y-128503152D02*
X161136779Y-128312676D01*
X161136779Y-128312676D02*
X161232017Y-128217438D01*
X161232017Y-128217438D02*
X161327255Y-128169819D01*
X162517731Y-128646009D02*
X162184398Y-128646009D01*
X162184398Y-129169819D02*
X162184398Y-128169819D01*
X162184398Y-128169819D02*
X162660588Y-128169819D01*
X163374874Y-128646009D02*
X163041541Y-128646009D01*
X163041541Y-129169819D02*
X163041541Y-128169819D01*
X163041541Y-128169819D02*
X163517731Y-128169819D01*
X126069160Y-86142200D02*
X126212017Y-86189819D01*
X126212017Y-86189819D02*
X126450112Y-86189819D01*
X126450112Y-86189819D02*
X126545350Y-86142200D01*
X126545350Y-86142200D02*
X126592969Y-86094580D01*
X126592969Y-86094580D02*
X126640588Y-85999342D01*
X126640588Y-85999342D02*
X126640588Y-85904104D01*
X126640588Y-85904104D02*
X126592969Y-85808866D01*
X126592969Y-85808866D02*
X126545350Y-85761247D01*
X126545350Y-85761247D02*
X126450112Y-85713628D01*
X126450112Y-85713628D02*
X126259636Y-85666009D01*
X126259636Y-85666009D02*
X126164398Y-85618390D01*
X126164398Y-85618390D02*
X126116779Y-85570771D01*
X126116779Y-85570771D02*
X126069160Y-85475533D01*
X126069160Y-85475533D02*
X126069160Y-85380295D01*
X126069160Y-85380295D02*
X126116779Y-85285057D01*
X126116779Y-85285057D02*
X126164398Y-85237438D01*
X126164398Y-85237438D02*
X126259636Y-85189819D01*
X126259636Y-85189819D02*
X126497731Y-85189819D01*
X126497731Y-85189819D02*
X126640588Y-85237438D01*
X127640588Y-86094580D02*
X127592969Y-86142200D01*
X127592969Y-86142200D02*
X127450112Y-86189819D01*
X127450112Y-86189819D02*
X127354874Y-86189819D01*
X127354874Y-86189819D02*
X127212017Y-86142200D01*
X127212017Y-86142200D02*
X127116779Y-86046961D01*
X127116779Y-86046961D02*
X127069160Y-85951723D01*
X127069160Y-85951723D02*
X127021541Y-85761247D01*
X127021541Y-85761247D02*
X127021541Y-85618390D01*
X127021541Y-85618390D02*
X127069160Y-85427914D01*
X127069160Y-85427914D02*
X127116779Y-85332676D01*
X127116779Y-85332676D02*
X127212017Y-85237438D01*
X127212017Y-85237438D02*
X127354874Y-85189819D01*
X127354874Y-85189819D02*
X127450112Y-85189819D01*
X127450112Y-85189819D02*
X127592969Y-85237438D01*
X127592969Y-85237438D02*
X127640588Y-85285057D01*
X128021541Y-85904104D02*
X128497731Y-85904104D01*
X127926303Y-86189819D02*
X128259636Y-85189819D01*
X128259636Y-85189819D02*
X128592969Y-86189819D01*
X128926303Y-86189819D02*
X128926303Y-85189819D01*
X128926303Y-85189819D02*
X129497731Y-86189819D01*
X129497731Y-86189819D02*
X129497731Y-85189819D01*
X131069160Y-85666009D02*
X130735827Y-85666009D01*
X130735827Y-86189819D02*
X130735827Y-85189819D01*
X130735827Y-85189819D02*
X131212017Y-85189819D01*
X131783446Y-85189819D02*
X131973922Y-85189819D01*
X131973922Y-85189819D02*
X132069160Y-85237438D01*
X132069160Y-85237438D02*
X132164398Y-85332676D01*
X132164398Y-85332676D02*
X132212017Y-85523152D01*
X132212017Y-85523152D02*
X132212017Y-85856485D01*
X132212017Y-85856485D02*
X132164398Y-86046961D01*
X132164398Y-86046961D02*
X132069160Y-86142200D01*
X132069160Y-86142200D02*
X131973922Y-86189819D01*
X131973922Y-86189819D02*
X131783446Y-86189819D01*
X131783446Y-86189819D02*
X131688208Y-86142200D01*
X131688208Y-86142200D02*
X131592970Y-86046961D01*
X131592970Y-86046961D02*
X131545351Y-85856485D01*
X131545351Y-85856485D02*
X131545351Y-85523152D01*
X131545351Y-85523152D02*
X131592970Y-85332676D01*
X131592970Y-85332676D02*
X131688208Y-85237438D01*
X131688208Y-85237438D02*
X131783446Y-85189819D01*
X133212017Y-86189819D02*
X132878684Y-85713628D01*
X132640589Y-86189819D02*
X132640589Y-85189819D01*
X132640589Y-85189819D02*
X133021541Y-85189819D01*
X133021541Y-85189819D02*
X133116779Y-85237438D01*
X133116779Y-85237438D02*
X133164398Y-85285057D01*
X133164398Y-85285057D02*
X133212017Y-85380295D01*
X133212017Y-85380295D02*
X133212017Y-85523152D01*
X133212017Y-85523152D02*
X133164398Y-85618390D01*
X133164398Y-85618390D02*
X133116779Y-85666009D01*
X133116779Y-85666009D02*
X133021541Y-85713628D01*
X133021541Y-85713628D02*
X132640589Y-85713628D01*
X134402494Y-86189819D02*
X134402494Y-85189819D01*
X134402494Y-85189819D02*
X134640589Y-85189819D01*
X134640589Y-85189819D02*
X134783446Y-85237438D01*
X134783446Y-85237438D02*
X134878684Y-85332676D01*
X134878684Y-85332676D02*
X134926303Y-85427914D01*
X134926303Y-85427914D02*
X134973922Y-85618390D01*
X134973922Y-85618390D02*
X134973922Y-85761247D01*
X134973922Y-85761247D02*
X134926303Y-85951723D01*
X134926303Y-85951723D02*
X134878684Y-86046961D01*
X134878684Y-86046961D02*
X134783446Y-86142200D01*
X134783446Y-86142200D02*
X134640589Y-86189819D01*
X134640589Y-86189819D02*
X134402494Y-86189819D01*
X135402494Y-85666009D02*
X135735827Y-85666009D01*
X135878684Y-86189819D02*
X135402494Y-86189819D01*
X135402494Y-86189819D02*
X135402494Y-85189819D01*
X135402494Y-85189819D02*
X135878684Y-85189819D01*
X136164399Y-85189819D02*
X136735827Y-85189819D01*
X136450113Y-86189819D02*
X136450113Y-85189819D01*
X137021542Y-85904104D02*
X137497732Y-85904104D01*
X136926304Y-86189819D02*
X137259637Y-85189819D01*
X137259637Y-85189819D02*
X137592970Y-86189819D01*
X137926304Y-86189819D02*
X137926304Y-85189819D01*
X138878684Y-86189819D02*
X138402494Y-86189819D01*
X138402494Y-86189819D02*
X138402494Y-85189819D01*
X139164399Y-86142200D02*
X139307256Y-86189819D01*
X139307256Y-86189819D02*
X139545351Y-86189819D01*
X139545351Y-86189819D02*
X139640589Y-86142200D01*
X139640589Y-86142200D02*
X139688208Y-86094580D01*
X139688208Y-86094580D02*
X139735827Y-85999342D01*
X139735827Y-85999342D02*
X139735827Y-85904104D01*
X139735827Y-85904104D02*
X139688208Y-85808866D01*
X139688208Y-85808866D02*
X139640589Y-85761247D01*
X139640589Y-85761247D02*
X139545351Y-85713628D01*
X139545351Y-85713628D02*
X139354875Y-85666009D01*
X139354875Y-85666009D02*
X139259637Y-85618390D01*
X139259637Y-85618390D02*
X139212018Y-85570771D01*
X139212018Y-85570771D02*
X139164399Y-85475533D01*
X139164399Y-85475533D02*
X139164399Y-85380295D01*
X139164399Y-85380295D02*
X139212018Y-85285057D01*
X139212018Y-85285057D02*
X139259637Y-85237438D01*
X139259637Y-85237438D02*
X139354875Y-85189819D01*
X139354875Y-85189819D02*
X139592970Y-85189819D01*
X139592970Y-85189819D02*
X139735827Y-85237438D01*
X140926304Y-85808866D02*
X141688209Y-85808866D01*
X142164399Y-85523152D02*
X142926304Y-85808866D01*
X142926304Y-85808866D02*
X142164399Y-86094580D01*
X162127255Y-119669819D02*
X162317731Y-119669819D01*
X162317731Y-119669819D02*
X162412969Y-119717438D01*
X162412969Y-119717438D02*
X162508207Y-119812676D01*
X162508207Y-119812676D02*
X162555826Y-120003152D01*
X162555826Y-120003152D02*
X162555826Y-120336485D01*
X162555826Y-120336485D02*
X162508207Y-120526961D01*
X162508207Y-120526961D02*
X162412969Y-120622200D01*
X162412969Y-120622200D02*
X162317731Y-120669819D01*
X162317731Y-120669819D02*
X162127255Y-120669819D01*
X162127255Y-120669819D02*
X162032017Y-120622200D01*
X162032017Y-120622200D02*
X161936779Y-120526961D01*
X161936779Y-120526961D02*
X161889160Y-120336485D01*
X161889160Y-120336485D02*
X161889160Y-120003152D01*
X161889160Y-120003152D02*
X161936779Y-119812676D01*
X161936779Y-119812676D02*
X162032017Y-119717438D01*
X162032017Y-119717438D02*
X162127255Y-119669819D01*
X162984398Y-120669819D02*
X162984398Y-119669819D01*
X162984398Y-119669819D02*
X163555826Y-120669819D01*
X163555826Y-120669819D02*
X163555826Y-119669819D01*
X144953333Y-120409580D02*
X144905714Y-120457200D01*
X144905714Y-120457200D02*
X144762857Y-120504819D01*
X144762857Y-120504819D02*
X144667619Y-120504819D01*
X144667619Y-120504819D02*
X144524762Y-120457200D01*
X144524762Y-120457200D02*
X144429524Y-120361961D01*
X144429524Y-120361961D02*
X144381905Y-120266723D01*
X144381905Y-120266723D02*
X144334286Y-120076247D01*
X144334286Y-120076247D02*
X144334286Y-119933390D01*
X144334286Y-119933390D02*
X144381905Y-119742914D01*
X144381905Y-119742914D02*
X144429524Y-119647676D01*
X144429524Y-119647676D02*
X144524762Y-119552438D01*
X144524762Y-119552438D02*
X144667619Y-119504819D01*
X144667619Y-119504819D02*
X144762857Y-119504819D01*
X144762857Y-119504819D02*
X144905714Y-119552438D01*
X144905714Y-119552438D02*
X144953333Y-119600057D01*
X145905714Y-120504819D02*
X145334286Y-120504819D01*
X145620000Y-120504819D02*
X145620000Y-119504819D01*
X145620000Y-119504819D02*
X145524762Y-119647676D01*
X145524762Y-119647676D02*
X145429524Y-119742914D01*
X145429524Y-119742914D02*
X145334286Y-119790533D01*
X155043333Y-129237319D02*
X154710000Y-128761128D01*
X154471905Y-129237319D02*
X154471905Y-128237319D01*
X154471905Y-128237319D02*
X154852857Y-128237319D01*
X154852857Y-128237319D02*
X154948095Y-128284938D01*
X154948095Y-128284938D02*
X154995714Y-128332557D01*
X154995714Y-128332557D02*
X155043333Y-128427795D01*
X155043333Y-128427795D02*
X155043333Y-128570652D01*
X155043333Y-128570652D02*
X154995714Y-128665890D01*
X154995714Y-128665890D02*
X154948095Y-128713509D01*
X154948095Y-128713509D02*
X154852857Y-128761128D01*
X154852857Y-128761128D02*
X154471905Y-128761128D01*
X155424286Y-128332557D02*
X155471905Y-128284938D01*
X155471905Y-128284938D02*
X155567143Y-128237319D01*
X155567143Y-128237319D02*
X155805238Y-128237319D01*
X155805238Y-128237319D02*
X155900476Y-128284938D01*
X155900476Y-128284938D02*
X155948095Y-128332557D01*
X155948095Y-128332557D02*
X155995714Y-128427795D01*
X155995714Y-128427795D02*
X155995714Y-128523033D01*
X155995714Y-128523033D02*
X155948095Y-128665890D01*
X155948095Y-128665890D02*
X155376667Y-129237319D01*
X155376667Y-129237319D02*
X155995714Y-129237319D01*
X139103333Y-133109580D02*
X139055714Y-133157200D01*
X139055714Y-133157200D02*
X138912857Y-133204819D01*
X138912857Y-133204819D02*
X138817619Y-133204819D01*
X138817619Y-133204819D02*
X138674762Y-133157200D01*
X138674762Y-133157200D02*
X138579524Y-133061961D01*
X138579524Y-133061961D02*
X138531905Y-132966723D01*
X138531905Y-132966723D02*
X138484286Y-132776247D01*
X138484286Y-132776247D02*
X138484286Y-132633390D01*
X138484286Y-132633390D02*
X138531905Y-132442914D01*
X138531905Y-132442914D02*
X138579524Y-132347676D01*
X138579524Y-132347676D02*
X138674762Y-132252438D01*
X138674762Y-132252438D02*
X138817619Y-132204819D01*
X138817619Y-132204819D02*
X138912857Y-132204819D01*
X138912857Y-132204819D02*
X139055714Y-132252438D01*
X139055714Y-132252438D02*
X139103333Y-132300057D01*
X140008095Y-132204819D02*
X139531905Y-132204819D01*
X139531905Y-132204819D02*
X139484286Y-132681009D01*
X139484286Y-132681009D02*
X139531905Y-132633390D01*
X139531905Y-132633390D02*
X139627143Y-132585771D01*
X139627143Y-132585771D02*
X139865238Y-132585771D01*
X139865238Y-132585771D02*
X139960476Y-132633390D01*
X139960476Y-132633390D02*
X140008095Y-132681009D01*
X140008095Y-132681009D02*
X140055714Y-132776247D01*
X140055714Y-132776247D02*
X140055714Y-133014342D01*
X140055714Y-133014342D02*
X140008095Y-133109580D01*
X140008095Y-133109580D02*
X139960476Y-133157200D01*
X139960476Y-133157200D02*
X139865238Y-133204819D01*
X139865238Y-133204819D02*
X139627143Y-133204819D01*
X139627143Y-133204819D02*
X139531905Y-133157200D01*
X139531905Y-133157200D02*
X139484286Y-133109580D01*
X148043333Y-131219580D02*
X147995714Y-131267200D01*
X147995714Y-131267200D02*
X147852857Y-131314819D01*
X147852857Y-131314819D02*
X147757619Y-131314819D01*
X147757619Y-131314819D02*
X147614762Y-131267200D01*
X147614762Y-131267200D02*
X147519524Y-131171961D01*
X147519524Y-131171961D02*
X147471905Y-131076723D01*
X147471905Y-131076723D02*
X147424286Y-130886247D01*
X147424286Y-130886247D02*
X147424286Y-130743390D01*
X147424286Y-130743390D02*
X147471905Y-130552914D01*
X147471905Y-130552914D02*
X147519524Y-130457676D01*
X147519524Y-130457676D02*
X147614762Y-130362438D01*
X147614762Y-130362438D02*
X147757619Y-130314819D01*
X147757619Y-130314819D02*
X147852857Y-130314819D01*
X147852857Y-130314819D02*
X147995714Y-130362438D01*
X147995714Y-130362438D02*
X148043333Y-130410057D01*
X148376667Y-130314819D02*
X148995714Y-130314819D01*
X148995714Y-130314819D02*
X148662381Y-130695771D01*
X148662381Y-130695771D02*
X148805238Y-130695771D01*
X148805238Y-130695771D02*
X148900476Y-130743390D01*
X148900476Y-130743390D02*
X148948095Y-130791009D01*
X148948095Y-130791009D02*
X148995714Y-130886247D01*
X148995714Y-130886247D02*
X148995714Y-131124342D01*
X148995714Y-131124342D02*
X148948095Y-131219580D01*
X148948095Y-131219580D02*
X148900476Y-131267200D01*
X148900476Y-131267200D02*
X148805238Y-131314819D01*
X148805238Y-131314819D02*
X148519524Y-131314819D01*
X148519524Y-131314819D02*
X148424286Y-131267200D01*
X148424286Y-131267200D02*
X148376667Y-131219580D01*
X151833333Y-131239580D02*
X151785714Y-131287200D01*
X151785714Y-131287200D02*
X151642857Y-131334819D01*
X151642857Y-131334819D02*
X151547619Y-131334819D01*
X151547619Y-131334819D02*
X151404762Y-131287200D01*
X151404762Y-131287200D02*
X151309524Y-131191961D01*
X151309524Y-131191961D02*
X151261905Y-131096723D01*
X151261905Y-131096723D02*
X151214286Y-130906247D01*
X151214286Y-130906247D02*
X151214286Y-130763390D01*
X151214286Y-130763390D02*
X151261905Y-130572914D01*
X151261905Y-130572914D02*
X151309524Y-130477676D01*
X151309524Y-130477676D02*
X151404762Y-130382438D01*
X151404762Y-130382438D02*
X151547619Y-130334819D01*
X151547619Y-130334819D02*
X151642857Y-130334819D01*
X151642857Y-130334819D02*
X151785714Y-130382438D01*
X151785714Y-130382438D02*
X151833333Y-130430057D01*
X152690476Y-130668152D02*
X152690476Y-131334819D01*
X152452381Y-130287200D02*
X152214286Y-131001485D01*
X152214286Y-131001485D02*
X152833333Y-131001485D01*
X155023333Y-120557319D02*
X154690000Y-120081128D01*
X154451905Y-120557319D02*
X154451905Y-119557319D01*
X154451905Y-119557319D02*
X154832857Y-119557319D01*
X154832857Y-119557319D02*
X154928095Y-119604938D01*
X154928095Y-119604938D02*
X154975714Y-119652557D01*
X154975714Y-119652557D02*
X155023333Y-119747795D01*
X155023333Y-119747795D02*
X155023333Y-119890652D01*
X155023333Y-119890652D02*
X154975714Y-119985890D01*
X154975714Y-119985890D02*
X154928095Y-120033509D01*
X154928095Y-120033509D02*
X154832857Y-120081128D01*
X154832857Y-120081128D02*
X154451905Y-120081128D01*
X155975714Y-120557319D02*
X155404286Y-120557319D01*
X155690000Y-120557319D02*
X155690000Y-119557319D01*
X155690000Y-119557319D02*
X155594762Y-119700176D01*
X155594762Y-119700176D02*
X155499524Y-119795414D01*
X155499524Y-119795414D02*
X155404286Y-119843033D01*
D11*
X138438095Y-117708571D02*
X138438095Y-118518094D01*
X138438095Y-118518094D02*
X138485714Y-118613332D01*
X138485714Y-118613332D02*
X138533333Y-118660952D01*
X138533333Y-118660952D02*
X138628571Y-118708571D01*
X138628571Y-118708571D02*
X138819047Y-118708571D01*
X138819047Y-118708571D02*
X138914285Y-118660952D01*
X138914285Y-118660952D02*
X138961904Y-118613332D01*
X138961904Y-118613332D02*
X139009523Y-118518094D01*
X139009523Y-118518094D02*
X139009523Y-117708571D01*
X139438095Y-117803809D02*
X139485714Y-117756190D01*
X139485714Y-117756190D02*
X139580952Y-117708571D01*
X139580952Y-117708571D02*
X139819047Y-117708571D01*
X139819047Y-117708571D02*
X139914285Y-117756190D01*
X139914285Y-117756190D02*
X139961904Y-117803809D01*
X139961904Y-117803809D02*
X140009523Y-117899047D01*
X140009523Y-117899047D02*
X140009523Y-117994285D01*
X140009523Y-117994285D02*
X139961904Y-118137142D01*
X139961904Y-118137142D02*
X139390476Y-118708571D01*
X139390476Y-118708571D02*
X140009523Y-118708571D01*
D10*
X126414285Y-91219614D02*
X126557142Y-91267233D01*
X126557142Y-91267233D02*
X126604761Y-91314852D01*
X126604761Y-91314852D02*
X126652380Y-91410090D01*
X126652380Y-91410090D02*
X126652380Y-91552947D01*
X126652380Y-91552947D02*
X126604761Y-91648185D01*
X126604761Y-91648185D02*
X126557142Y-91695805D01*
X126557142Y-91695805D02*
X126461904Y-91743424D01*
X126461904Y-91743424D02*
X126080952Y-91743424D01*
X126080952Y-91743424D02*
X126080952Y-90743424D01*
X126080952Y-90743424D02*
X126414285Y-90743424D01*
X126414285Y-90743424D02*
X126509523Y-90791043D01*
X126509523Y-90791043D02*
X126557142Y-90838662D01*
X126557142Y-90838662D02*
X126604761Y-90933900D01*
X126604761Y-90933900D02*
X126604761Y-91029138D01*
X126604761Y-91029138D02*
X126557142Y-91124376D01*
X126557142Y-91124376D02*
X126509523Y-91171995D01*
X126509523Y-91171995D02*
X126414285Y-91219614D01*
X126414285Y-91219614D02*
X126080952Y-91219614D01*
X126938095Y-90743424D02*
X127509523Y-90743424D01*
X127223809Y-91743424D02*
X127223809Y-90743424D01*
X128366666Y-91743424D02*
X127795238Y-91743424D01*
X128080952Y-91743424D02*
X128080952Y-90743424D01*
X128080952Y-90743424D02*
X127985714Y-90886281D01*
X127985714Y-90886281D02*
X127890476Y-90981519D01*
X127890476Y-90981519D02*
X127795238Y-91029138D01*
X144783333Y-129089580D02*
X144735714Y-129137200D01*
X144735714Y-129137200D02*
X144592857Y-129184819D01*
X144592857Y-129184819D02*
X144497619Y-129184819D01*
X144497619Y-129184819D02*
X144354762Y-129137200D01*
X144354762Y-129137200D02*
X144259524Y-129041961D01*
X144259524Y-129041961D02*
X144211905Y-128946723D01*
X144211905Y-128946723D02*
X144164286Y-128756247D01*
X144164286Y-128756247D02*
X144164286Y-128613390D01*
X144164286Y-128613390D02*
X144211905Y-128422914D01*
X144211905Y-128422914D02*
X144259524Y-128327676D01*
X144259524Y-128327676D02*
X144354762Y-128232438D01*
X144354762Y-128232438D02*
X144497619Y-128184819D01*
X144497619Y-128184819D02*
X144592857Y-128184819D01*
X144592857Y-128184819D02*
X144735714Y-128232438D01*
X144735714Y-128232438D02*
X144783333Y-128280057D01*
X145164286Y-128280057D02*
X145211905Y-128232438D01*
X145211905Y-128232438D02*
X145307143Y-128184819D01*
X145307143Y-128184819D02*
X145545238Y-128184819D01*
X145545238Y-128184819D02*
X145640476Y-128232438D01*
X145640476Y-128232438D02*
X145688095Y-128280057D01*
X145688095Y-128280057D02*
X145735714Y-128375295D01*
X145735714Y-128375295D02*
X145735714Y-128470533D01*
X145735714Y-128470533D02*
X145688095Y-128613390D01*
X145688095Y-128613390D02*
X145116667Y-129184819D01*
X145116667Y-129184819D02*
X145735714Y-129184819D01*
X157543333Y-122339580D02*
X157495714Y-122387200D01*
X157495714Y-122387200D02*
X157352857Y-122434819D01*
X157352857Y-122434819D02*
X157257619Y-122434819D01*
X157257619Y-122434819D02*
X157114762Y-122387200D01*
X157114762Y-122387200D02*
X157019524Y-122291961D01*
X157019524Y-122291961D02*
X156971905Y-122196723D01*
X156971905Y-122196723D02*
X156924286Y-122006247D01*
X156924286Y-122006247D02*
X156924286Y-121863390D01*
X156924286Y-121863390D02*
X156971905Y-121672914D01*
X156971905Y-121672914D02*
X157019524Y-121577676D01*
X157019524Y-121577676D02*
X157114762Y-121482438D01*
X157114762Y-121482438D02*
X157257619Y-121434819D01*
X157257619Y-121434819D02*
X157352857Y-121434819D01*
X157352857Y-121434819D02*
X157495714Y-121482438D01*
X157495714Y-121482438D02*
X157543333Y-121530057D01*
X157876667Y-121434819D02*
X158543333Y-121434819D01*
X158543333Y-121434819D02*
X158114762Y-122434819D01*
D11*
X149238095Y-120257419D02*
X149238095Y-121066942D01*
X149238095Y-121066942D02*
X149285714Y-121162180D01*
X149285714Y-121162180D02*
X149333333Y-121209800D01*
X149333333Y-121209800D02*
X149428571Y-121257419D01*
X149428571Y-121257419D02*
X149619047Y-121257419D01*
X149619047Y-121257419D02*
X149714285Y-121209800D01*
X149714285Y-121209800D02*
X149761904Y-121162180D01*
X149761904Y-121162180D02*
X149809523Y-121066942D01*
X149809523Y-121066942D02*
X149809523Y-120257419D01*
X150809523Y-121257419D02*
X150238095Y-121257419D01*
X150523809Y-121257419D02*
X150523809Y-120257419D01*
X150523809Y-120257419D02*
X150428571Y-120400276D01*
X150428571Y-120400276D02*
X150333333Y-120495514D01*
X150333333Y-120495514D02*
X150238095Y-120543133D01*
X178636666Y-101902214D02*
X178303333Y-101902214D01*
X178303333Y-102426024D02*
X178303333Y-101426024D01*
X178303333Y-101426024D02*
X178779523Y-101426024D01*
X179684285Y-102426024D02*
X179112857Y-102426024D01*
X179398571Y-102426024D02*
X179398571Y-101426024D01*
X179398571Y-101426024D02*
X179303333Y-101568881D01*
X179303333Y-101568881D02*
X179208095Y-101664119D01*
X179208095Y-101664119D02*
X179112857Y-101711738D01*
D10*
X160073333Y-122339580D02*
X160025714Y-122387200D01*
X160025714Y-122387200D02*
X159882857Y-122434819D01*
X159882857Y-122434819D02*
X159787619Y-122434819D01*
X159787619Y-122434819D02*
X159644762Y-122387200D01*
X159644762Y-122387200D02*
X159549524Y-122291961D01*
X159549524Y-122291961D02*
X159501905Y-122196723D01*
X159501905Y-122196723D02*
X159454286Y-122006247D01*
X159454286Y-122006247D02*
X159454286Y-121863390D01*
X159454286Y-121863390D02*
X159501905Y-121672914D01*
X159501905Y-121672914D02*
X159549524Y-121577676D01*
X159549524Y-121577676D02*
X159644762Y-121482438D01*
X159644762Y-121482438D02*
X159787619Y-121434819D01*
X159787619Y-121434819D02*
X159882857Y-121434819D01*
X159882857Y-121434819D02*
X160025714Y-121482438D01*
X160025714Y-121482438D02*
X160073333Y-121530057D01*
X160930476Y-121434819D02*
X160740000Y-121434819D01*
X160740000Y-121434819D02*
X160644762Y-121482438D01*
X160644762Y-121482438D02*
X160597143Y-121530057D01*
X160597143Y-121530057D02*
X160501905Y-121672914D01*
X160501905Y-121672914D02*
X160454286Y-121863390D01*
X160454286Y-121863390D02*
X160454286Y-122244342D01*
X160454286Y-122244342D02*
X160501905Y-122339580D01*
X160501905Y-122339580D02*
X160549524Y-122387200D01*
X160549524Y-122387200D02*
X160644762Y-122434819D01*
X160644762Y-122434819D02*
X160835238Y-122434819D01*
X160835238Y-122434819D02*
X160930476Y-122387200D01*
X160930476Y-122387200D02*
X160978095Y-122339580D01*
X160978095Y-122339580D02*
X161025714Y-122244342D01*
X161025714Y-122244342D02*
X161025714Y-122006247D01*
X161025714Y-122006247D02*
X160978095Y-121911009D01*
X160978095Y-121911009D02*
X160930476Y-121863390D01*
X160930476Y-121863390D02*
X160835238Y-121815771D01*
X160835238Y-121815771D02*
X160644762Y-121815771D01*
X160644762Y-121815771D02*
X160549524Y-121863390D01*
X160549524Y-121863390D02*
X160501905Y-121911009D01*
X160501905Y-121911009D02*
X160454286Y-122006247D01*
D11*
X164636667Y-119109800D02*
X164779524Y-119157419D01*
X164779524Y-119157419D02*
X165017619Y-119157419D01*
X165017619Y-119157419D02*
X165112857Y-119109800D01*
X165112857Y-119109800D02*
X165160476Y-119062180D01*
X165160476Y-119062180D02*
X165208095Y-118966942D01*
X165208095Y-118966942D02*
X165208095Y-118871704D01*
X165208095Y-118871704D02*
X165160476Y-118776466D01*
X165160476Y-118776466D02*
X165112857Y-118728847D01*
X165112857Y-118728847D02*
X165017619Y-118681228D01*
X165017619Y-118681228D02*
X164827143Y-118633609D01*
X164827143Y-118633609D02*
X164731905Y-118585990D01*
X164731905Y-118585990D02*
X164684286Y-118538371D01*
X164684286Y-118538371D02*
X164636667Y-118443133D01*
X164636667Y-118443133D02*
X164636667Y-118347895D01*
X164636667Y-118347895D02*
X164684286Y-118252657D01*
X164684286Y-118252657D02*
X164731905Y-118205038D01*
X164731905Y-118205038D02*
X164827143Y-118157419D01*
X164827143Y-118157419D02*
X165065238Y-118157419D01*
X165065238Y-118157419D02*
X165208095Y-118205038D01*
X165541429Y-118157419D02*
X165779524Y-119157419D01*
X165779524Y-119157419D02*
X165970000Y-118443133D01*
X165970000Y-118443133D02*
X166160476Y-119157419D01*
X166160476Y-119157419D02*
X166398572Y-118157419D01*
X167303333Y-119157419D02*
X166731905Y-119157419D01*
X167017619Y-119157419D02*
X167017619Y-118157419D01*
X167017619Y-118157419D02*
X166922381Y-118300276D01*
X166922381Y-118300276D02*
X166827143Y-118395514D01*
X166827143Y-118395514D02*
X166731905Y-118443133D01*
D12*
%TO.C,C1*%
X144365000Y-122761252D02*
X144365000Y-122238748D01*
X145835000Y-122761252D02*
X145835000Y-122238748D01*
%TO.C,R2*%
X155905000Y-126072936D02*
X155905000Y-126527064D01*
X154435000Y-126072936D02*
X154435000Y-126527064D01*
D11*
%TO.C,D3*%
X180897991Y-98768434D02*
X179585956Y-94192826D01*
X179585956Y-94192826D02*
X181373903Y-93680140D01*
X181373903Y-93680140D02*
X182685938Y-98255748D01*
X182685938Y-98255748D02*
X180897991Y-98768434D01*
X182013551Y-98799218D02*
G75*
G03*
X182013551Y-98799218I-134536J0D01*
G01*
D12*
%TO.C,C5*%
X139008748Y-130315000D02*
X139531252Y-130315000D01*
X139008748Y-131785000D02*
X139531252Y-131785000D01*
%TO.C,C3*%
X147838748Y-128465000D02*
X148361252Y-128465000D01*
X147838748Y-129935000D02*
X148361252Y-129935000D01*
D11*
%TO.C,D7*%
X139620878Y-134224637D02*
X144239485Y-135376185D01*
X144239485Y-135376185D02*
X143789510Y-137180935D01*
X143789510Y-137180935D02*
X139170903Y-136029387D01*
X139170903Y-136029387D02*
X139620878Y-134224637D01*
X139238240Y-135058837D02*
G75*
G03*
X139238240Y-135058837I-134536J0D01*
G01*
D12*
%TO.C,C4*%
X152261252Y-129935000D02*
X151738748Y-129935000D01*
X152261252Y-128465000D02*
X151738748Y-128465000D01*
%TO.C,R1*%
X155935000Y-122272936D02*
X155935000Y-122727064D01*
X154465000Y-122272936D02*
X154465000Y-122727064D01*
D11*
%TO.C,D1*%
X160427340Y-74937080D02*
X155808733Y-73785532D01*
X155808733Y-73785532D02*
X156258708Y-71980782D01*
X156258708Y-71980782D02*
X160877315Y-73132330D01*
X160877315Y-73132330D02*
X160427340Y-74937080D01*
X161079050Y-74102880D02*
G75*
G03*
X161079050Y-74102880I-134536J0D01*
G01*
%TO.C,U2*%
X136880000Y-129741152D02*
X141590000Y-129741152D01*
X141590000Y-129741152D02*
X141590000Y-118961152D01*
X141590000Y-118961152D02*
X136880000Y-118961152D01*
X136880000Y-118961152D02*
X136880000Y-129741152D01*
X142020416Y-130101152D02*
G75*
G03*
X142020416Y-130101152I-120416J0D01*
G01*
%TO.C,D11*%
X129553461Y-80749508D02*
X126246887Y-84173565D01*
X126246887Y-84173565D02*
X124908915Y-82881500D01*
X124908915Y-82881500D02*
X128215489Y-79457443D01*
X128215489Y-79457443D02*
X129553461Y-80749508D01*
X129224147Y-79884522D02*
G75*
G03*
X129224147Y-79884522I-134537J0D01*
G01*
%TO.C,D9*%
X119150228Y-110393285D02*
X120462263Y-114968893D01*
X120462263Y-114968893D02*
X118674316Y-115481579D01*
X118674316Y-115481579D02*
X117362281Y-110905971D01*
X117362281Y-110905971D02*
X119150228Y-110393285D01*
X118303740Y-110362501D02*
G75*
G03*
X118303740Y-110362501I-134536J0D01*
G01*
D13*
%TO.C,BT1*%
X123600000Y-92393605D02*
X176580000Y-92393605D01*
X123600000Y-116983605D02*
X123600000Y-92393605D01*
X176580000Y-92393605D02*
X176580000Y-116983605D01*
X176580000Y-116983605D02*
X123600000Y-116983605D01*
D12*
%TO.C,C2*%
X144265000Y-126561252D02*
X144265000Y-126038748D01*
X145735000Y-126561252D02*
X145735000Y-126038748D01*
D11*
%TO.C,D10*%
X120380332Y-94177628D02*
X119228784Y-98796235D01*
X119228784Y-98796235D02*
X117424034Y-98346260D01*
X117424034Y-98346260D02*
X118575582Y-93727653D01*
X118575582Y-93727653D02*
X120380332Y-94177628D01*
X119680668Y-93660454D02*
G75*
G03*
X119680668Y-93660454I-134536J0D01*
G01*
D12*
%TO.C,C7*%
X158475000Y-124138748D02*
X158475000Y-124661252D01*
X157005000Y-124138748D02*
X157005000Y-124661252D01*
D11*
%TO.C,D2*%
X173855460Y-84110209D02*
X170431403Y-80803635D01*
X170431403Y-80803635D02*
X171723468Y-79465663D01*
X171723468Y-79465663D02*
X175147525Y-82772237D01*
X175147525Y-82772237D02*
X173855460Y-84110209D01*
X174854983Y-83646358D02*
G75*
G03*
X174854983Y-83646358I-134537J0D01*
G01*
%TO.C,U1*%
X147870000Y-121570000D02*
X152370000Y-121570000D01*
X152370000Y-121570000D02*
X152370000Y-127160000D01*
X152370000Y-127160000D02*
X147870000Y-127160000D01*
X147870000Y-127160000D02*
X147870000Y-121570000D01*
X147797279Y-121150000D02*
G75*
G03*
X147797279Y-121150000I-127279J0D01*
G01*
%TO.C,F1*%
X177910000Y-106733605D02*
X179950000Y-106733605D01*
X179950000Y-106733605D02*
X179950000Y-102643605D01*
X179950000Y-102643605D02*
X177910000Y-102643605D01*
X177910000Y-102643605D02*
X177910000Y-106733605D01*
%TO.C,D8*%
X126192759Y-125051507D02*
X129616816Y-128358081D01*
X129616816Y-128358081D02*
X128324751Y-129696053D01*
X128324751Y-129696053D02*
X124900694Y-126389479D01*
X124900694Y-126389479D02*
X126192759Y-125051507D01*
X125462310Y-125515358D02*
G75*
G03*
X125462310Y-125515358I-134537J0D01*
G01*
%TO.C,D5*%
X170494757Y-128412211D02*
X173801331Y-124988154D01*
X173801331Y-124988154D02*
X175139303Y-126280219D01*
X175139303Y-126280219D02*
X171832729Y-129704276D01*
X171832729Y-129704276D02*
X170494757Y-128412211D01*
X171093145Y-129277197D02*
G75*
G03*
X171093145Y-129277197I-134537J0D01*
G01*
D12*
%TO.C,C6*%
X160935000Y-124138748D02*
X160935000Y-124661252D01*
X159465000Y-124138748D02*
X159465000Y-124661252D01*
D11*
%TO.C,D4*%
X179667886Y-114984088D02*
X180819434Y-110365481D01*
X180819434Y-110365481D02*
X182624184Y-110815456D01*
X182624184Y-110815456D02*
X181472636Y-115434063D01*
X181472636Y-115434063D02*
X179667886Y-114984088D01*
X180636622Y-115501262D02*
G75*
G03*
X180636622Y-115501262I-134536J0D01*
G01*
%TO.C,G\u002A\u002A\u002A*%
G36*
X147814617Y-86617718D02*
G01*
X147814617Y-86895273D01*
X147259508Y-86895273D01*
X146704399Y-86895273D01*
X146704399Y-86617718D01*
X146704399Y-86340164D01*
X147259508Y-86340164D01*
X147814617Y-86340164D01*
X147814617Y-86617718D01*
G37*
G36*
X148924836Y-83287063D02*
G01*
X148924836Y-83564617D01*
X148647281Y-83564617D01*
X148369726Y-83564617D01*
X148369726Y-83287063D01*
X148369726Y-83009508D01*
X148647281Y-83009508D01*
X148924836Y-83009508D01*
X148924836Y-83287063D01*
G37*
G36*
X148924836Y-86617718D02*
G01*
X148924836Y-87450382D01*
X148647281Y-87450382D01*
X148369726Y-87450382D01*
X148369726Y-86617718D01*
X148369726Y-85785054D01*
X148647281Y-85785054D01*
X148924836Y-85785054D01*
X148924836Y-86617718D01*
G37*
G36*
X149479945Y-88283046D02*
G01*
X149479945Y-88560601D01*
X149202390Y-88560601D01*
X148924836Y-88560601D01*
X148924836Y-88283046D01*
X148924836Y-88005491D01*
X149202390Y-88005491D01*
X149479945Y-88005491D01*
X149479945Y-88283046D01*
G37*
G36*
X151700382Y-84397281D02*
G01*
X151700382Y-84674836D01*
X151422827Y-84674836D01*
X151145273Y-84674836D01*
X151145273Y-84397281D01*
X151145273Y-84119726D01*
X151422827Y-84119726D01*
X151700382Y-84119726D01*
X151700382Y-84397281D01*
G37*
G36*
X154475929Y-87727937D02*
G01*
X154475929Y-88005491D01*
X154198374Y-88005491D01*
X153920819Y-88005491D01*
X153920819Y-87727937D01*
X153920819Y-87450382D01*
X154198374Y-87450382D01*
X154475929Y-87450382D01*
X154475929Y-87727937D01*
G37*
G36*
X155031038Y-90503483D02*
G01*
X155031038Y-90781038D01*
X154753483Y-90781038D01*
X154475929Y-90781038D01*
X154475929Y-90503483D01*
X154475929Y-90225929D01*
X154753483Y-90225929D01*
X155031038Y-90225929D01*
X155031038Y-90503483D01*
G37*
G36*
X155586147Y-87172827D02*
G01*
X155586147Y-87450382D01*
X155308592Y-87450382D01*
X155031038Y-87450382D01*
X155031038Y-87172827D01*
X155031038Y-86895273D01*
X155308592Y-86895273D01*
X155586147Y-86895273D01*
X155586147Y-87172827D01*
G37*
G36*
X155586147Y-88283046D02*
G01*
X155586147Y-88560601D01*
X155308592Y-88560601D01*
X155031038Y-88560601D01*
X155031038Y-88283046D01*
X155031038Y-88005491D01*
X155308592Y-88005491D01*
X155586147Y-88005491D01*
X155586147Y-88283046D01*
G37*
G36*
X153920819Y-89670819D02*
G01*
X153920819Y-90225929D01*
X153643265Y-90225929D01*
X153365710Y-90225929D01*
X153365710Y-90781038D01*
X153365710Y-91336147D01*
X153088155Y-91336147D01*
X152810601Y-91336147D01*
X152810601Y-90503483D01*
X152810601Y-89670819D01*
X153088155Y-89670819D01*
X153365710Y-89670819D01*
X153365710Y-89393265D01*
X153365710Y-89115710D01*
X153643265Y-89115710D01*
X153920819Y-89115710D01*
X153920819Y-89670819D01*
G37*
G36*
X150035054Y-88838155D02*
G01*
X150035054Y-89115710D01*
X150312609Y-89115710D01*
X150590164Y-89115710D01*
X150590164Y-89393265D01*
X150590164Y-89670819D01*
X150035054Y-89670819D01*
X149479945Y-89670819D01*
X149479945Y-89948374D01*
X149479945Y-90225929D01*
X149202390Y-90225929D01*
X148924836Y-90225929D01*
X148924836Y-90781038D01*
X148924836Y-91336147D01*
X148647281Y-91336147D01*
X148369726Y-91336147D01*
X148369726Y-90225929D01*
X148369726Y-89115710D01*
X148924836Y-89115710D01*
X149479945Y-89115710D01*
X149479945Y-88838155D01*
X149479945Y-88560601D01*
X149757500Y-88560601D01*
X150035054Y-88560601D01*
X150035054Y-88838155D01*
G37*
G36*
X151145273Y-89948374D02*
G01*
X151145273Y-90225929D01*
X151422827Y-90225929D01*
X151700382Y-90225929D01*
X151700382Y-89948374D01*
X151700382Y-89670819D01*
X151977937Y-89670819D01*
X152255491Y-89670819D01*
X152255491Y-90225929D01*
X152255491Y-90781038D01*
X151422827Y-90781038D01*
X150590164Y-90781038D01*
X150590164Y-91058592D01*
X150590164Y-91336147D01*
X150312609Y-91336147D01*
X150035054Y-91336147D01*
X150035054Y-90781038D01*
X150035054Y-90225929D01*
X150312609Y-90225929D01*
X150590164Y-90225929D01*
X150590164Y-89948374D01*
X150590164Y-89670819D01*
X150867718Y-89670819D01*
X151145273Y-89670819D01*
X151145273Y-89948374D01*
G37*
G36*
X146149289Y-84397281D02*
G01*
X146149289Y-84674836D01*
X146426844Y-84674836D01*
X146704399Y-84674836D01*
X146704399Y-85229945D01*
X146704399Y-85785054D01*
X146426844Y-85785054D01*
X146149289Y-85785054D01*
X146149289Y-86062609D01*
X146149289Y-86340164D01*
X145316625Y-86340164D01*
X144483962Y-86340164D01*
X144483962Y-86617718D01*
X144483962Y-86895273D01*
X144206407Y-86895273D01*
X143928852Y-86895273D01*
X143928852Y-86617718D01*
X143928852Y-86340164D01*
X144206407Y-86340164D01*
X144483962Y-86340164D01*
X144483962Y-85785054D01*
X144483962Y-85229945D01*
X144206407Y-85229945D01*
X143928852Y-85229945D01*
X143928852Y-84674836D01*
X144483962Y-84674836D01*
X144483962Y-84952390D01*
X144483962Y-85229945D01*
X144761516Y-85229945D01*
X145039071Y-85229945D01*
X145039071Y-84952390D01*
X145039071Y-84674836D01*
X144761516Y-84674836D01*
X144483962Y-84674836D01*
X143928852Y-84674836D01*
X143928852Y-84119726D01*
X145039071Y-84119726D01*
X146149289Y-84119726D01*
X146149289Y-84397281D01*
G37*
G36*
X149479945Y-79956407D02*
G01*
X149479945Y-80233962D01*
X150035054Y-80233962D01*
X150590164Y-80233962D01*
X150590164Y-80511516D01*
X150590164Y-80789071D01*
X150867718Y-80789071D01*
X151145273Y-80789071D01*
X151145273Y-82176844D01*
X151145273Y-83564617D01*
X150867718Y-83564617D01*
X150590164Y-83564617D01*
X150590164Y-83287063D01*
X150590164Y-83009508D01*
X150312609Y-83009508D01*
X150035054Y-83009508D01*
X150035054Y-83287063D01*
X150035054Y-83564617D01*
X149757500Y-83564617D01*
X149479945Y-83564617D01*
X149479945Y-83009508D01*
X149479945Y-82454399D01*
X150035054Y-82454399D01*
X150590164Y-82454399D01*
X150590164Y-81899289D01*
X150590164Y-81344180D01*
X150312609Y-81344180D01*
X150035054Y-81344180D01*
X150035054Y-81621735D01*
X150035054Y-81899289D01*
X149757500Y-81899289D01*
X149479945Y-81899289D01*
X149479945Y-81344180D01*
X149479945Y-80789071D01*
X149202390Y-80789071D01*
X148924836Y-80789071D01*
X148924836Y-81621735D01*
X148924836Y-82454399D01*
X148647281Y-82454399D01*
X148369726Y-82454399D01*
X148369726Y-81621735D01*
X148369726Y-80789071D01*
X148647281Y-80789071D01*
X148924836Y-80789071D01*
X148924836Y-80511516D01*
X148924836Y-80233962D01*
X148647281Y-80233962D01*
X148369726Y-80233962D01*
X148369726Y-79956407D01*
X148369726Y-79678852D01*
X148924836Y-79678852D01*
X149479945Y-79678852D01*
X149479945Y-79956407D01*
G37*
G36*
X145694138Y-80789802D02*
G01*
X145798214Y-80789944D01*
X145882557Y-80790096D01*
X146628524Y-80791571D01*
X146650068Y-80806714D01*
X146666545Y-80820616D01*
X146682232Y-80837470D01*
X146686756Y-80843402D01*
X146701898Y-80864947D01*
X146701898Y-81621735D01*
X146701898Y-82378522D01*
X146686756Y-82400068D01*
X146672853Y-82416545D01*
X146656000Y-82432232D01*
X146650068Y-82436756D01*
X146628524Y-82451898D01*
X145877556Y-82453065D01*
X145776196Y-82453219D01*
X145684355Y-82453347D01*
X145601549Y-82453445D01*
X145527294Y-82453506D01*
X145461108Y-82453527D01*
X145402507Y-82453502D01*
X145351007Y-82453426D01*
X145306124Y-82453293D01*
X145267377Y-82453099D01*
X145234280Y-82452839D01*
X145206351Y-82452507D01*
X145183107Y-82452098D01*
X145164063Y-82451608D01*
X145148736Y-82451030D01*
X145136643Y-82450361D01*
X145127301Y-82449595D01*
X145120226Y-82448726D01*
X145114934Y-82447750D01*
X145110943Y-82446662D01*
X145107768Y-82445456D01*
X145106584Y-82444924D01*
X145089949Y-82434963D01*
X145073784Y-82421937D01*
X145070580Y-82418752D01*
X145066365Y-82414553D01*
X145062541Y-82410949D01*
X145059091Y-82407456D01*
X145055994Y-82403592D01*
X145053232Y-82398877D01*
X145050786Y-82392827D01*
X145048637Y-82384962D01*
X145046767Y-82374798D01*
X145045155Y-82361854D01*
X145043784Y-82345647D01*
X145042634Y-82325697D01*
X145041686Y-82301520D01*
X145040921Y-82272635D01*
X145040320Y-82238560D01*
X145039865Y-82198813D01*
X145039537Y-82152911D01*
X145039315Y-82100374D01*
X145039182Y-82040718D01*
X145039119Y-81973462D01*
X145039106Y-81898123D01*
X145039125Y-81814220D01*
X145039156Y-81721272D01*
X145039181Y-81620645D01*
X145039200Y-81519706D01*
X145039230Y-81428285D01*
X145039276Y-81345894D01*
X145039345Y-81272050D01*
X145039442Y-81206266D01*
X145039573Y-81148059D01*
X145039745Y-81096941D01*
X145039962Y-81052429D01*
X145040231Y-81014037D01*
X145040558Y-80981279D01*
X145040948Y-80953671D01*
X145041408Y-80930727D01*
X145041942Y-80911961D01*
X145042558Y-80896889D01*
X145043260Y-80885026D01*
X145044056Y-80875886D01*
X145044949Y-80868983D01*
X145045948Y-80863833D01*
X145047056Y-80859950D01*
X145048281Y-80856850D01*
X145048401Y-80856584D01*
X145061432Y-80836078D01*
X145080044Y-80816743D01*
X145101010Y-80801498D01*
X145117525Y-80794141D01*
X145123788Y-80793324D01*
X145136797Y-80792594D01*
X145156808Y-80791951D01*
X145184077Y-80791391D01*
X145218859Y-80790916D01*
X145261409Y-80790522D01*
X145311983Y-80790208D01*
X145370835Y-80789974D01*
X145438222Y-80789818D01*
X145514397Y-80789738D01*
X145599618Y-80789733D01*
X145694138Y-80789802D01*
G37*
G36*
X145694138Y-88561332D02*
G01*
X145798214Y-88561473D01*
X145882557Y-88561626D01*
X146628524Y-88563101D01*
X146650068Y-88578244D01*
X146666545Y-88592146D01*
X146682232Y-88608999D01*
X146686756Y-88614932D01*
X146701898Y-88636477D01*
X146701898Y-89393265D01*
X146701898Y-90150052D01*
X146686756Y-90171597D01*
X146672853Y-90188074D01*
X146656000Y-90203762D01*
X146650068Y-90208285D01*
X146628524Y-90223428D01*
X145877556Y-90224595D01*
X145776196Y-90224748D01*
X145684355Y-90224877D01*
X145601549Y-90224974D01*
X145527294Y-90225036D01*
X145461108Y-90225057D01*
X145402507Y-90225032D01*
X145351007Y-90224956D01*
X145306124Y-90224823D01*
X145267377Y-90224629D01*
X145234280Y-90224369D01*
X145206351Y-90224037D01*
X145183107Y-90223628D01*
X145164063Y-90223138D01*
X145148736Y-90222560D01*
X145136643Y-90221891D01*
X145127301Y-90221125D01*
X145120226Y-90220256D01*
X145114934Y-90219280D01*
X145110943Y-90218192D01*
X145107768Y-90216986D01*
X145106584Y-90216453D01*
X145089949Y-90206493D01*
X145073784Y-90193467D01*
X145070580Y-90190282D01*
X145066365Y-90186083D01*
X145062541Y-90182478D01*
X145059091Y-90178985D01*
X145055994Y-90175122D01*
X145053232Y-90170407D01*
X145050786Y-90164357D01*
X145048637Y-90156491D01*
X145046767Y-90146328D01*
X145045155Y-90133383D01*
X145043784Y-90117177D01*
X145042634Y-90097227D01*
X145041686Y-90073050D01*
X145040921Y-90044165D01*
X145040320Y-90010090D01*
X145039865Y-89970343D01*
X145039537Y-89924441D01*
X145039315Y-89871903D01*
X145039182Y-89812248D01*
X145039119Y-89744991D01*
X145039106Y-89669653D01*
X145039125Y-89585750D01*
X145039156Y-89492801D01*
X145039181Y-89392175D01*
X145039200Y-89291236D01*
X145039230Y-89199814D01*
X145039276Y-89117424D01*
X145039345Y-89043580D01*
X145039442Y-88977796D01*
X145039573Y-88919588D01*
X145039745Y-88868471D01*
X145039962Y-88823959D01*
X145040231Y-88785567D01*
X145040558Y-88752809D01*
X145040948Y-88725201D01*
X145041408Y-88702256D01*
X145041942Y-88683491D01*
X145042558Y-88668419D01*
X145043260Y-88656556D01*
X145044056Y-88647415D01*
X145044949Y-88640513D01*
X145045948Y-88635363D01*
X145047056Y-88631480D01*
X145048281Y-88628379D01*
X145048401Y-88628114D01*
X145061432Y-88607608D01*
X145080044Y-88588273D01*
X145101010Y-88573027D01*
X145117525Y-88565671D01*
X145123788Y-88564854D01*
X145136797Y-88564124D01*
X145156808Y-88563480D01*
X145184077Y-88562921D01*
X145218859Y-88562445D01*
X145261409Y-88562052D01*
X145311983Y-88561738D01*
X145370835Y-88561504D01*
X145438222Y-88561347D01*
X145514397Y-88561268D01*
X145599618Y-88561263D01*
X145694138Y-88561332D01*
G37*
G36*
X153465668Y-80789802D02*
G01*
X153569744Y-80789944D01*
X153654087Y-80790096D01*
X154400054Y-80791571D01*
X154421598Y-80806714D01*
X154438075Y-80820616D01*
X154453762Y-80837470D01*
X154458285Y-80843402D01*
X154473428Y-80864947D01*
X154473428Y-81621735D01*
X154473428Y-82378522D01*
X154458285Y-82400068D01*
X154444383Y-82416545D01*
X154427530Y-82432232D01*
X154421598Y-82436756D01*
X154400053Y-82451898D01*
X153649086Y-82453065D01*
X153547726Y-82453219D01*
X153455885Y-82453347D01*
X153373079Y-82453445D01*
X153298824Y-82453506D01*
X153232638Y-82453527D01*
X153174037Y-82453502D01*
X153122536Y-82453426D01*
X153077654Y-82453293D01*
X153038907Y-82453099D01*
X153005810Y-82452839D01*
X152977881Y-82452507D01*
X152954636Y-82452098D01*
X152935592Y-82451608D01*
X152920266Y-82451030D01*
X152908173Y-82450361D01*
X152898831Y-82449595D01*
X152891756Y-82448726D01*
X152886464Y-82447750D01*
X152882473Y-82446662D01*
X152879298Y-82445456D01*
X152878114Y-82444924D01*
X152861478Y-82434963D01*
X152845314Y-82421937D01*
X152842110Y-82418752D01*
X152837895Y-82414553D01*
X152834071Y-82410949D01*
X152830620Y-82407456D01*
X152827524Y-82403592D01*
X152824762Y-82398877D01*
X152822316Y-82392827D01*
X152820167Y-82384962D01*
X152818297Y-82374798D01*
X152816685Y-82361854D01*
X152815314Y-82345647D01*
X152814163Y-82325697D01*
X152813215Y-82301520D01*
X152812451Y-82272635D01*
X152811850Y-82238560D01*
X152811395Y-82198813D01*
X152811066Y-82152911D01*
X152810845Y-82100374D01*
X152810712Y-82040718D01*
X152810649Y-81973462D01*
X152810636Y-81898123D01*
X152810655Y-81814220D01*
X152810686Y-81721272D01*
X152810711Y-81620645D01*
X152810730Y-81519706D01*
X152810759Y-81428285D01*
X152810806Y-81345894D01*
X152810875Y-81272050D01*
X152810972Y-81206266D01*
X152811103Y-81148059D01*
X152811275Y-81096941D01*
X152811492Y-81052429D01*
X152811761Y-81014037D01*
X152812088Y-80981279D01*
X152812478Y-80953671D01*
X152812937Y-80930727D01*
X152813472Y-80911961D01*
X152814088Y-80896889D01*
X152814790Y-80885026D01*
X152815585Y-80875886D01*
X152816479Y-80868983D01*
X152817478Y-80863833D01*
X152818586Y-80859950D01*
X152819811Y-80856850D01*
X152819931Y-80856584D01*
X152832961Y-80836078D01*
X152851574Y-80816743D01*
X152872540Y-80801498D01*
X152889055Y-80794141D01*
X152895317Y-80793324D01*
X152908327Y-80792594D01*
X152928338Y-80791951D01*
X152955607Y-80791391D01*
X152990389Y-80790916D01*
X153032939Y-80790522D01*
X153083513Y-80790208D01*
X153142365Y-80789974D01*
X153209751Y-80789818D01*
X153285927Y-80789738D01*
X153371148Y-80789733D01*
X153465668Y-80789802D01*
G37*
G36*
X147814617Y-84397281D02*
G01*
X147814617Y-84674836D01*
X148092172Y-84674836D01*
X148369726Y-84674836D01*
X148369726Y-84397281D01*
X148369726Y-84119726D01*
X148647281Y-84119726D01*
X148924836Y-84119726D01*
X148924836Y-84397281D01*
X148924836Y-84674836D01*
X149202390Y-84674836D01*
X149479945Y-84674836D01*
X149479945Y-84952390D01*
X149479945Y-85229945D01*
X149757500Y-85229945D01*
X150035054Y-85229945D01*
X150035054Y-84952390D01*
X150035054Y-84674836D01*
X149757500Y-84674836D01*
X149479945Y-84674836D01*
X149479945Y-84397281D01*
X149479945Y-84119726D01*
X150035054Y-84119726D01*
X150590164Y-84119726D01*
X150590164Y-84952390D01*
X150590164Y-85785054D01*
X150312609Y-85785054D01*
X150035054Y-85785054D01*
X150035054Y-86062609D01*
X150035054Y-86340164D01*
X150312609Y-86340164D01*
X150590164Y-86340164D01*
X150590164Y-86062609D01*
X150590164Y-85785054D01*
X150867718Y-85785054D01*
X151145273Y-85785054D01*
X151145273Y-86062609D01*
X151145273Y-86340164D01*
X151422827Y-86340164D01*
X151700382Y-86340164D01*
X151700382Y-86062609D01*
X151700382Y-85785054D01*
X152255491Y-85785054D01*
X152810601Y-85785054D01*
X152810601Y-85507500D01*
X152810601Y-85229945D01*
X153088155Y-85229945D01*
X153365710Y-85229945D01*
X153365710Y-84952390D01*
X153365710Y-84674836D01*
X153088155Y-84674836D01*
X152810601Y-84674836D01*
X152810601Y-84397281D01*
X152810601Y-84119726D01*
X153643265Y-84119726D01*
X154475929Y-84119726D01*
X154475929Y-84397281D01*
X154475929Y-84674836D01*
X154753483Y-84674836D01*
X155031038Y-84674836D01*
X155031038Y-84397281D01*
X155031038Y-84119726D01*
X155308592Y-84119726D01*
X155586147Y-84119726D01*
X155586147Y-84674836D01*
X155586147Y-85229945D01*
X155308592Y-85229945D01*
X155031038Y-85229945D01*
X155031038Y-85785054D01*
X155031038Y-86340164D01*
X154753483Y-86340164D01*
X154475929Y-86340164D01*
X154475929Y-86062609D01*
X154475929Y-85785054D01*
X153643265Y-85785054D01*
X152810601Y-85785054D01*
X152810601Y-86062609D01*
X152810601Y-86340164D01*
X152533046Y-86340164D01*
X152255491Y-86340164D01*
X152255491Y-86895273D01*
X152255491Y-87450382D01*
X152533046Y-87450382D01*
X152810601Y-87450382D01*
X152810601Y-87727937D01*
X152810601Y-88005491D01*
X153088155Y-88005491D01*
X153365710Y-88005491D01*
X153365710Y-88283046D01*
X153365710Y-88560601D01*
X153088155Y-88560601D01*
X152810601Y-88560601D01*
X152810601Y-88838155D01*
X152810601Y-89115710D01*
X152255491Y-89115710D01*
X151700382Y-89115710D01*
X151700382Y-88838155D01*
X151700382Y-88560601D01*
X151422827Y-88560601D01*
X151145273Y-88560601D01*
X151145273Y-88283046D01*
X151145273Y-88005491D01*
X151422827Y-88005491D01*
X151700382Y-88005491D01*
X151700382Y-88283046D01*
X151700382Y-88560601D01*
X151977937Y-88560601D01*
X152255491Y-88560601D01*
X152255491Y-88283046D01*
X152255491Y-88005491D01*
X151977937Y-88005491D01*
X151700382Y-88005491D01*
X151700382Y-87727937D01*
X151700382Y-87450382D01*
X151422827Y-87450382D01*
X151145273Y-87450382D01*
X151145273Y-87727937D01*
X151145273Y-88005491D01*
X150590164Y-88005491D01*
X150035054Y-88005491D01*
X150035054Y-87727937D01*
X150035054Y-87450382D01*
X150590164Y-87450382D01*
X151145273Y-87450382D01*
X151145273Y-87172827D01*
X151145273Y-86895273D01*
X150590164Y-86895273D01*
X150035054Y-86895273D01*
X150035054Y-86617718D01*
X150035054Y-86340164D01*
X149757500Y-86340164D01*
X149479945Y-86340164D01*
X149479945Y-85785054D01*
X149479945Y-85229945D01*
X148924836Y-85229945D01*
X148369726Y-85229945D01*
X148369726Y-85507500D01*
X148369726Y-85785054D01*
X147814617Y-85785054D01*
X147259508Y-85785054D01*
X147259508Y-85507500D01*
X147259508Y-85229945D01*
X147537063Y-85229945D01*
X147814617Y-85229945D01*
X147814617Y-84952390D01*
X147814617Y-84674836D01*
X147537063Y-84674836D01*
X147259508Y-84674836D01*
X147259508Y-84397281D01*
X147259508Y-84119726D01*
X147537063Y-84119726D01*
X147814617Y-84119726D01*
X147814617Y-84397281D01*
G37*
G36*
X150035054Y-87172827D02*
G01*
X150035054Y-87450382D01*
X149757500Y-87450382D01*
X149479945Y-87450382D01*
X149479945Y-87172827D01*
X149479945Y-86895273D01*
X149757500Y-86895273D01*
X150035054Y-86895273D01*
X150035054Y-87172827D01*
G37*
G36*
X146775643Y-79679529D02*
G01*
X146895688Y-79679567D01*
X147006929Y-79679635D01*
X147109538Y-79679732D01*
X147203686Y-79679859D01*
X147289543Y-79680016D01*
X147367282Y-79680204D01*
X147437074Y-79680423D01*
X147499089Y-79680674D01*
X147553498Y-79680956D01*
X147600474Y-79681271D01*
X147640187Y-79681618D01*
X147672809Y-79681998D01*
X147698510Y-79682411D01*
X147717462Y-79682858D01*
X147729835Y-79683339D01*
X147735802Y-79683855D01*
X147736163Y-79683937D01*
X147756650Y-79693703D01*
X147777410Y-79709926D01*
X147795216Y-79729694D01*
X147805287Y-79746366D01*
X147806083Y-79748371D01*
X147806831Y-79750986D01*
X147807533Y-79754514D01*
X147808190Y-79759258D01*
X147808804Y-79765519D01*
X147809376Y-79773600D01*
X147809908Y-79783804D01*
X147810401Y-79796434D01*
X147810856Y-79811791D01*
X147811276Y-79830178D01*
X147811661Y-79851898D01*
X147812014Y-79877252D01*
X147812334Y-79906545D01*
X147812625Y-79940077D01*
X147812887Y-79978152D01*
X147813122Y-80021072D01*
X147813332Y-80069140D01*
X147813517Y-80122657D01*
X147813680Y-80181927D01*
X147813821Y-80247252D01*
X147813943Y-80318934D01*
X147814046Y-80397276D01*
X147814132Y-80482580D01*
X147814204Y-80575149D01*
X147814261Y-80675286D01*
X147814306Y-80783292D01*
X147814340Y-80899470D01*
X147814365Y-81024124D01*
X147814381Y-81157554D01*
X147814391Y-81300064D01*
X147814396Y-81451956D01*
X147814398Y-81613533D01*
X147814398Y-81621735D01*
X147814396Y-81783744D01*
X147814392Y-81936054D01*
X147814383Y-82078968D01*
X147814368Y-82212788D01*
X147814345Y-82337816D01*
X147814313Y-82454356D01*
X147814271Y-82562711D01*
X147814216Y-82663182D01*
X147814147Y-82756073D01*
X147814064Y-82841686D01*
X147813963Y-82920324D01*
X147813845Y-82992290D01*
X147813707Y-83057886D01*
X147813547Y-83117416D01*
X147813365Y-83171181D01*
X147813159Y-83219484D01*
X147812927Y-83262629D01*
X147812668Y-83300918D01*
X147812381Y-83334653D01*
X147812063Y-83364138D01*
X147811714Y-83389674D01*
X147811331Y-83411565D01*
X147810914Y-83430114D01*
X147810461Y-83445623D01*
X147809970Y-83458394D01*
X147809440Y-83468731D01*
X147808869Y-83476936D01*
X147808256Y-83483312D01*
X147807599Y-83488161D01*
X147806898Y-83491787D01*
X147806149Y-83494492D01*
X147805353Y-83496578D01*
X147805116Y-83497104D01*
X147789221Y-83521654D01*
X147767152Y-83542854D01*
X147743514Y-83556862D01*
X147741184Y-83557544D01*
X147737364Y-83558185D01*
X147731760Y-83558787D01*
X147724073Y-83559350D01*
X147714008Y-83559876D01*
X147701268Y-83560366D01*
X147685557Y-83560822D01*
X147666578Y-83561244D01*
X147644035Y-83561633D01*
X147617631Y-83561992D01*
X147587069Y-83562321D01*
X147552054Y-83562621D01*
X147512289Y-83562894D01*
X147467477Y-83563140D01*
X147417322Y-83563362D01*
X147361528Y-83563559D01*
X147299797Y-83563734D01*
X147231834Y-83563888D01*
X147157342Y-83564022D01*
X147076024Y-83564136D01*
X146987584Y-83564233D01*
X146891726Y-83564313D01*
X146788153Y-83564378D01*
X146676569Y-83564429D01*
X146556676Y-83564466D01*
X146428180Y-83564493D01*
X146290782Y-83564508D01*
X146144188Y-83564515D01*
X145988099Y-83564513D01*
X145870645Y-83564507D01*
X145708633Y-83564497D01*
X145556320Y-83564483D01*
X145413403Y-83564464D01*
X145279582Y-83564440D01*
X145154551Y-83564409D01*
X145038010Y-83564368D01*
X144929656Y-83564317D01*
X144829185Y-83564255D01*
X144736296Y-83564179D01*
X144650686Y-83564088D01*
X144572052Y-83563980D01*
X144500092Y-83563855D01*
X144434503Y-83563711D01*
X144374983Y-83563546D01*
X144321229Y-83563358D01*
X144272939Y-83563147D01*
X144229809Y-83562910D01*
X144191538Y-83562647D01*
X144157822Y-83562355D01*
X144128360Y-83562034D01*
X144102848Y-83561682D01*
X144080985Y-83561296D01*
X144062467Y-83560877D01*
X144046992Y-83560422D01*
X144034258Y-83559930D01*
X144023961Y-83559399D01*
X144015800Y-83558828D01*
X144009471Y-83558215D01*
X144004673Y-83557559D01*
X144001102Y-83556858D01*
X143998456Y-83556112D01*
X143996433Y-83555318D01*
X143996366Y-83555287D01*
X143975864Y-83542261D01*
X143956538Y-83523658D01*
X143941300Y-83502704D01*
X143933937Y-83486163D01*
X143933416Y-83481166D01*
X143932930Y-83469789D01*
X143932478Y-83451860D01*
X143932060Y-83427208D01*
X143931674Y-83395663D01*
X143931322Y-83357052D01*
X143931003Y-83311204D01*
X143930715Y-83257949D01*
X143930460Y-83197115D01*
X143930236Y-83128531D01*
X143930043Y-83052026D01*
X143929881Y-82967429D01*
X143929749Y-82874567D01*
X143929648Y-82773271D01*
X143929576Y-82663369D01*
X143929533Y-82544690D01*
X143929519Y-82417062D01*
X143929534Y-82280314D01*
X143929573Y-82147966D01*
X144484674Y-82147966D01*
X144484678Y-82245923D01*
X144484705Y-82339288D01*
X144484753Y-82427639D01*
X144484823Y-82510557D01*
X144484914Y-82587621D01*
X144485026Y-82658410D01*
X144485157Y-82722504D01*
X144485308Y-82779483D01*
X144485478Y-82828926D01*
X144485666Y-82870412D01*
X144485872Y-82903521D01*
X144486096Y-82927833D01*
X144486337Y-82942927D01*
X144486558Y-82948222D01*
X144493814Y-82970829D01*
X144507470Y-82989709D01*
X144525384Y-83002148D01*
X144530635Y-83004039D01*
X144537188Y-83004492D01*
X144553458Y-83004921D01*
X144579159Y-83005324D01*
X144614008Y-83005702D01*
X144657717Y-83006053D01*
X144710003Y-83006376D01*
X144770581Y-83006671D01*
X144839164Y-83006936D01*
X144915469Y-83007172D01*
X144999210Y-83007376D01*
X145090102Y-83007550D01*
X145187860Y-83007691D01*
X145292198Y-83007798D01*
X145402833Y-83007872D01*
X145519477Y-83007911D01*
X145641848Y-83007914D01*
X145769658Y-83007881D01*
X145879457Y-83007826D01*
X146016182Y-83007739D01*
X146143261Y-83007653D01*
X146261050Y-83007564D01*
X146369904Y-83007469D01*
X146470180Y-83007367D01*
X146562234Y-83007254D01*
X146646421Y-83007129D01*
X146723097Y-83006987D01*
X146792618Y-83006828D01*
X146855340Y-83006648D01*
X146911619Y-83006445D01*
X146961811Y-83006217D01*
X147006272Y-83005960D01*
X147045356Y-83005672D01*
X147079422Y-83005351D01*
X147108823Y-83004994D01*
X147133917Y-83004599D01*
X147155058Y-83004163D01*
X147172604Y-83003683D01*
X147186909Y-83003157D01*
X147198330Y-83002583D01*
X147207223Y-83001957D01*
X147213943Y-83001278D01*
X147218846Y-83000542D01*
X147222289Y-82999748D01*
X147224626Y-82998892D01*
X147225902Y-82998186D01*
X147238868Y-82987125D01*
X147248186Y-82975902D01*
X147249088Y-82974183D01*
X147249927Y-82971642D01*
X147250704Y-82967925D01*
X147251423Y-82962677D01*
X147252085Y-82955543D01*
X147252693Y-82946168D01*
X147253248Y-82934198D01*
X147253754Y-82919276D01*
X147254213Y-82901050D01*
X147254627Y-82879162D01*
X147254998Y-82853260D01*
X147255328Y-82822987D01*
X147255621Y-82787989D01*
X147255877Y-82747911D01*
X147256100Y-82702399D01*
X147256292Y-82651097D01*
X147256455Y-82593650D01*
X147256592Y-82529704D01*
X147256704Y-82458904D01*
X147256794Y-82380894D01*
X147256865Y-82295321D01*
X147256919Y-82201828D01*
X147256957Y-82100062D01*
X147256983Y-81989667D01*
X147256998Y-81870289D01*
X147257006Y-81741572D01*
X147257007Y-81621735D01*
X147257005Y-81484606D01*
X147256997Y-81357125D01*
X147256980Y-81238935D01*
X147256953Y-81129684D01*
X147256913Y-81029014D01*
X147256857Y-80936572D01*
X147256784Y-80852003D01*
X147256691Y-80774952D01*
X147256575Y-80705064D01*
X147256436Y-80641983D01*
X147256269Y-80585356D01*
X147256073Y-80534828D01*
X147255846Y-80490043D01*
X147255585Y-80450646D01*
X147255287Y-80416283D01*
X147254952Y-80386599D01*
X147254575Y-80361239D01*
X147254156Y-80339848D01*
X147253691Y-80322072D01*
X147253179Y-80307555D01*
X147252617Y-80295942D01*
X147252002Y-80286879D01*
X147251333Y-80280010D01*
X147250607Y-80274981D01*
X147249821Y-80271438D01*
X147248975Y-80269024D01*
X147248186Y-80267568D01*
X147237125Y-80254602D01*
X147225902Y-80245283D01*
X147224183Y-80244381D01*
X147221642Y-80243543D01*
X147217925Y-80242765D01*
X147212677Y-80242046D01*
X147205543Y-80241384D01*
X147196168Y-80240777D01*
X147184198Y-80240221D01*
X147169276Y-80239715D01*
X147151050Y-80239256D01*
X147129162Y-80238843D01*
X147103260Y-80238472D01*
X147072987Y-80238141D01*
X147037989Y-80237849D01*
X146997911Y-80237592D01*
X146952399Y-80237369D01*
X146901097Y-80237177D01*
X146843650Y-80237014D01*
X146779704Y-80236878D01*
X146708904Y-80236765D01*
X146630894Y-80236675D01*
X146545321Y-80236604D01*
X146451828Y-80236551D01*
X146350062Y-80236512D01*
X146239667Y-80236487D01*
X146120289Y-80236471D01*
X145991572Y-80236464D01*
X145871735Y-80236462D01*
X145734606Y-80236464D01*
X145607125Y-80236473D01*
X145488935Y-80236489D01*
X145379684Y-80236517D01*
X145279014Y-80236557D01*
X145186572Y-80236612D01*
X145102003Y-80236686D01*
X145024952Y-80236779D01*
X144955064Y-80236894D01*
X144891983Y-80237034D01*
X144835356Y-80237201D01*
X144784828Y-80237396D01*
X144740043Y-80237624D01*
X144700646Y-80237885D01*
X144666283Y-80238182D01*
X144636599Y-80238518D01*
X144611239Y-80238894D01*
X144589848Y-80239313D01*
X144572072Y-80239778D01*
X144557555Y-80240291D01*
X144545942Y-80240853D01*
X144536879Y-80241468D01*
X144530010Y-80242137D01*
X144524981Y-80242863D01*
X144521438Y-80243648D01*
X144519024Y-80244495D01*
X144517568Y-80245283D01*
X144504602Y-80256344D01*
X144495283Y-80267568D01*
X144494375Y-80269303D01*
X144493530Y-80271875D01*
X144492745Y-80275642D01*
X144492018Y-80280959D01*
X144491347Y-80288185D01*
X144490728Y-80297676D01*
X144490158Y-80309790D01*
X144489635Y-80324884D01*
X144489156Y-80343315D01*
X144488719Y-80365441D01*
X144488320Y-80391618D01*
X144487958Y-80422205D01*
X144487628Y-80457557D01*
X144487329Y-80498033D01*
X144487057Y-80543989D01*
X144486810Y-80595784D01*
X144486585Y-80653773D01*
X144486380Y-80718314D01*
X144486191Y-80789765D01*
X144486017Y-80868482D01*
X144485853Y-80954824D01*
X144485698Y-81049146D01*
X144485548Y-81151807D01*
X144485401Y-81263163D01*
X144485255Y-81383572D01*
X144485106Y-81513391D01*
X144485005Y-81604011D01*
X144484890Y-81718623D01*
X144484800Y-81830745D01*
X144484734Y-81939957D01*
X144484692Y-82045837D01*
X144484674Y-82147966D01*
X143929573Y-82147966D01*
X143929577Y-82134276D01*
X143929648Y-81978776D01*
X143929746Y-81813643D01*
X143929871Y-81638705D01*
X143929893Y-81610913D01*
X143931353Y-79754728D01*
X143946495Y-79733183D01*
X143960398Y-79716706D01*
X143977251Y-79701019D01*
X143983183Y-79696495D01*
X144004728Y-79681353D01*
X145860913Y-79679893D01*
X146037374Y-79679763D01*
X146204005Y-79679661D01*
X146360976Y-79679586D01*
X146508458Y-79679539D01*
X146646624Y-79679520D01*
X146775643Y-79679529D01*
G37*
G36*
X146775643Y-87451059D02*
G01*
X146895688Y-87451097D01*
X147006929Y-87451165D01*
X147109538Y-87451262D01*
X147203686Y-87451389D01*
X147289543Y-87451546D01*
X147367282Y-87451734D01*
X147437074Y-87451953D01*
X147499089Y-87452204D01*
X147553498Y-87452486D01*
X147600474Y-87452801D01*
X147640187Y-87453148D01*
X147672809Y-87453528D01*
X147698510Y-87453941D01*
X147717462Y-87454388D01*
X147729835Y-87454869D01*
X147735802Y-87455385D01*
X147736163Y-87455467D01*
X147756650Y-87465233D01*
X147777410Y-87481456D01*
X147795216Y-87501223D01*
X147805287Y-87517895D01*
X147806083Y-87519900D01*
X147806831Y-87522516D01*
X147807533Y-87526044D01*
X147808190Y-87530787D01*
X147808804Y-87537049D01*
X147809376Y-87545130D01*
X147809908Y-87555334D01*
X147810401Y-87567963D01*
X147810856Y-87583320D01*
X147811276Y-87601708D01*
X147811661Y-87623427D01*
X147812014Y-87648782D01*
X147812334Y-87678075D01*
X147812625Y-87711607D01*
X147812887Y-87749682D01*
X147813122Y-87792602D01*
X147813332Y-87840670D01*
X147813517Y-87894187D01*
X147813680Y-87953457D01*
X147813821Y-88018782D01*
X147813943Y-88090464D01*
X147814046Y-88168806D01*
X147814132Y-88254110D01*
X147814204Y-88346679D01*
X147814261Y-88446816D01*
X147814306Y-88554822D01*
X147814340Y-88671000D01*
X147814365Y-88795653D01*
X147814381Y-88929084D01*
X147814391Y-89071594D01*
X147814396Y-89223486D01*
X147814398Y-89385062D01*
X147814398Y-89393265D01*
X147814396Y-89555274D01*
X147814392Y-89707584D01*
X147814383Y-89850498D01*
X147814368Y-89984318D01*
X147814345Y-90109346D01*
X147814313Y-90225886D01*
X147814271Y-90334241D01*
X147814216Y-90434712D01*
X147814147Y-90527603D01*
X147814064Y-90613216D01*
X147813963Y-90691854D01*
X147813845Y-90763820D01*
X147813707Y-90829416D01*
X147813547Y-90888945D01*
X147813365Y-90942710D01*
X147813159Y-90991014D01*
X147812927Y-91034159D01*
X147812668Y-91072448D01*
X147812381Y-91106183D01*
X147812063Y-91135667D01*
X147811714Y-91161204D01*
X147811331Y-91183095D01*
X147810914Y-91201644D01*
X147810461Y-91217152D01*
X147809970Y-91229924D01*
X147809440Y-91240261D01*
X147808869Y-91248466D01*
X147808256Y-91254842D01*
X147807599Y-91259691D01*
X147806898Y-91263317D01*
X147806149Y-91266022D01*
X147805353Y-91268108D01*
X147805116Y-91268634D01*
X147789221Y-91293183D01*
X147767152Y-91314384D01*
X147743514Y-91328392D01*
X147741184Y-91329074D01*
X147737364Y-91329715D01*
X147731760Y-91330317D01*
X147724073Y-91330880D01*
X147714008Y-91331406D01*
X147701268Y-91331896D01*
X147685557Y-91332352D01*
X147666578Y-91332774D01*
X147644035Y-91333163D01*
X147617631Y-91333522D01*
X147587069Y-91333851D01*
X147552054Y-91334151D01*
X147512289Y-91334424D01*
X147467477Y-91334670D01*
X147417322Y-91334891D01*
X147361528Y-91335089D01*
X147299797Y-91335264D01*
X147231834Y-91335418D01*
X147157342Y-91335551D01*
X147076024Y-91335666D01*
X146987584Y-91335763D01*
X146891726Y-91335843D01*
X146788153Y-91335908D01*
X146676569Y-91335958D01*
X146556676Y-91335996D01*
X146428180Y-91336022D01*
X146290782Y-91336038D01*
X146144188Y-91336044D01*
X145988099Y-91336043D01*
X145870645Y-91336037D01*
X145708633Y-91336026D01*
X145556320Y-91336013D01*
X145413403Y-91335994D01*
X145279582Y-91335970D01*
X145154551Y-91335939D01*
X145038010Y-91335898D01*
X144929656Y-91335847D01*
X144829185Y-91335785D01*
X144736296Y-91335708D01*
X144650686Y-91335618D01*
X144572052Y-91335510D01*
X144500092Y-91335385D01*
X144434503Y-91335241D01*
X144374983Y-91335076D01*
X144321229Y-91334888D01*
X144272939Y-91334677D01*
X144229809Y-91334440D01*
X144191538Y-91334177D01*
X144157822Y-91333885D01*
X144128360Y-91333564D01*
X144102848Y-91333211D01*
X144080985Y-91332826D01*
X144062467Y-91332407D01*
X144046992Y-91331952D01*
X144034258Y-91331459D01*
X144023961Y-91330928D01*
X144015800Y-91330357D01*
X144009471Y-91329745D01*
X144004673Y-91329089D01*
X144001102Y-91328388D01*
X143998456Y-91327642D01*
X143996433Y-91326847D01*
X143996366Y-91326817D01*
X143975864Y-91313791D01*
X143956538Y-91295188D01*
X143941300Y-91274234D01*
X143933937Y-91257692D01*
X143933416Y-91252696D01*
X143932930Y-91241319D01*
X143932478Y-91223390D01*
X143932060Y-91198738D01*
X143931674Y-91167193D01*
X143931322Y-91128582D01*
X143931003Y-91082734D01*
X143930715Y-91029479D01*
X143930460Y-90968645D01*
X143930236Y-90900061D01*
X143930043Y-90823556D01*
X143929881Y-90738958D01*
X143929749Y-90646097D01*
X143929648Y-90544801D01*
X143929576Y-90434899D01*
X143929533Y-90316219D01*
X143929519Y-90188592D01*
X143929534Y-90051844D01*
X143929573Y-89919496D01*
X144484674Y-89919496D01*
X144484678Y-90017453D01*
X144484705Y-90110818D01*
X144484753Y-90199169D01*
X144484823Y-90282087D01*
X144484914Y-90359151D01*
X144485026Y-90429940D01*
X144485157Y-90494034D01*
X144485308Y-90551013D01*
X144485478Y-90600456D01*
X144485666Y-90641942D01*
X144485872Y-90675051D01*
X144486096Y-90699363D01*
X144486337Y-90714457D01*
X144486558Y-90719752D01*
X144493814Y-90742359D01*
X144507470Y-90761239D01*
X144525384Y-90773678D01*
X144530635Y-90775569D01*
X144537188Y-90776022D01*
X144553458Y-90776451D01*
X144579159Y-90776854D01*
X144614008Y-90777232D01*
X144657717Y-90777582D01*
X144710003Y-90777906D01*
X144770581Y-90778200D01*
X144839164Y-90778466D01*
X144915469Y-90778702D01*
X144999210Y-90778906D01*
X145090102Y-90779080D01*
X145187860Y-90779220D01*
X145292198Y-90779328D01*
X145402833Y-90779402D01*
X145519477Y-90779441D01*
X145641848Y-90779444D01*
X145769658Y-90779411D01*
X145879457Y-90779355D01*
X146016182Y-90779269D01*
X146143261Y-90779183D01*
X146261050Y-90779094D01*
X146369904Y-90778999D01*
X146470180Y-90778897D01*
X146562234Y-90778784D01*
X146646421Y-90778658D01*
X146723097Y-90778517D01*
X146792618Y-90778358D01*
X146855340Y-90778178D01*
X146911619Y-90777975D01*
X146961811Y-90777747D01*
X147006272Y-90777490D01*
X147045356Y-90777202D01*
X147079422Y-90776881D01*
X147108823Y-90776524D01*
X147133917Y-90776129D01*
X147155058Y-90775693D01*
X147172604Y-90775213D01*
X147186909Y-90774687D01*
X147198330Y-90774112D01*
X147207223Y-90773487D01*
X147213943Y-90772807D01*
X147218846Y-90772072D01*
X147222289Y-90771277D01*
X147224626Y-90770422D01*
X147225902Y-90769716D01*
X147238868Y-90758655D01*
X147248186Y-90747431D01*
X147249088Y-90745712D01*
X147249927Y-90743172D01*
X147250704Y-90739455D01*
X147251423Y-90734207D01*
X147252085Y-90727073D01*
X147252693Y-90717698D01*
X147253248Y-90705728D01*
X147253754Y-90690806D01*
X147254213Y-90672579D01*
X147254627Y-90650692D01*
X147254998Y-90624789D01*
X147255328Y-90594517D01*
X147255621Y-90559519D01*
X147255877Y-90519441D01*
X147256100Y-90473929D01*
X147256292Y-90422627D01*
X147256455Y-90365180D01*
X147256592Y-90301234D01*
X147256704Y-90230434D01*
X147256794Y-90152424D01*
X147256865Y-90066851D01*
X147256919Y-89973358D01*
X147256957Y-89871592D01*
X147256983Y-89761197D01*
X147256998Y-89641819D01*
X147257006Y-89513102D01*
X147257007Y-89393265D01*
X147257005Y-89256136D01*
X147256997Y-89128655D01*
X147256980Y-89010465D01*
X147256953Y-88901213D01*
X147256913Y-88800544D01*
X147256857Y-88708102D01*
X147256784Y-88623533D01*
X147256691Y-88546482D01*
X147256575Y-88476593D01*
X147256436Y-88413513D01*
X147256269Y-88356886D01*
X147256073Y-88306358D01*
X147255846Y-88261572D01*
X147255585Y-88222176D01*
X147255287Y-88187813D01*
X147254952Y-88158129D01*
X147254575Y-88132769D01*
X147254156Y-88111378D01*
X147253691Y-88093602D01*
X147253179Y-88079084D01*
X147252617Y-88067472D01*
X147252002Y-88058408D01*
X147251333Y-88051540D01*
X147250607Y-88046511D01*
X147249821Y-88042968D01*
X147248975Y-88040554D01*
X147248186Y-88039098D01*
X147237125Y-88026132D01*
X147225902Y-88016813D01*
X147224183Y-88015911D01*
X147221642Y-88015072D01*
X147217925Y-88014295D01*
X147212677Y-88013576D01*
X147205543Y-88012914D01*
X147196168Y-88012307D01*
X147184198Y-88011751D01*
X147169276Y-88011245D01*
X147151050Y-88010786D01*
X147129162Y-88010373D01*
X147103260Y-88010002D01*
X147072987Y-88009671D01*
X147037989Y-88009379D01*
X146997911Y-88009122D01*
X146952399Y-88008899D01*
X146901097Y-88008707D01*
X146843650Y-88008544D01*
X146779704Y-88008408D01*
X146708904Y-88008295D01*
X146630894Y-88008205D01*
X146545321Y-88008134D01*
X146451828Y-88008081D01*
X146350062Y-88008042D01*
X146239667Y-88008016D01*
X146120289Y-88008001D01*
X145991572Y-88007994D01*
X145871735Y-88007992D01*
X145734606Y-88007994D01*
X145607125Y-88008002D01*
X145488935Y-88008019D01*
X145379684Y-88008046D01*
X145279014Y-88008087D01*
X145186572Y-88008142D01*
X145102003Y-88008215D01*
X145024952Y-88008309D01*
X144955064Y-88008424D01*
X144891983Y-88008564D01*
X144835356Y-88008730D01*
X144784828Y-88008926D01*
X144740043Y-88009154D01*
X144700646Y-88009415D01*
X144666283Y-88009712D01*
X144636599Y-88010048D01*
X144611239Y-88010424D01*
X144589848Y-88010843D01*
X144572072Y-88011308D01*
X144557555Y-88011820D01*
X144545942Y-88012383D01*
X144536879Y-88012997D01*
X144530010Y-88013667D01*
X144524981Y-88014393D01*
X144521438Y-88015178D01*
X144519024Y-88016025D01*
X144517568Y-88016813D01*
X144504602Y-88027874D01*
X144495283Y-88039097D01*
X144494375Y-88040833D01*
X144493530Y-88043405D01*
X144492745Y-88047171D01*
X144492018Y-88052489D01*
X144491347Y-88059714D01*
X144490728Y-88069206D01*
X144490158Y-88081320D01*
X144489635Y-88096414D01*
X144489156Y-88114845D01*
X144488719Y-88136971D01*
X144488320Y-88163148D01*
X144487958Y-88193735D01*
X144487628Y-88229087D01*
X144487329Y-88269563D01*
X144487057Y-88315519D01*
X144486810Y-88367313D01*
X144486585Y-88425303D01*
X144486380Y-88489844D01*
X144486191Y-88561295D01*
X144486017Y-88640012D01*
X144485853Y-88726353D01*
X144485698Y-88820676D01*
X144485548Y-88923336D01*
X144485401Y-89034693D01*
X144485255Y-89155102D01*
X144485106Y-89284921D01*
X144485005Y-89375541D01*
X144484890Y-89490153D01*
X144484800Y-89602275D01*
X144484734Y-89711487D01*
X144484692Y-89817367D01*
X144484674Y-89919496D01*
X143929573Y-89919496D01*
X143929577Y-89905806D01*
X143929648Y-89750306D01*
X143929746Y-89585173D01*
X143929871Y-89410235D01*
X143929893Y-89382443D01*
X143931353Y-87526258D01*
X143946495Y-87504713D01*
X143960398Y-87488236D01*
X143977251Y-87472549D01*
X143983183Y-87468025D01*
X144004728Y-87452883D01*
X145860913Y-87451422D01*
X146037374Y-87451293D01*
X146204005Y-87451191D01*
X146360976Y-87451116D01*
X146508458Y-87451069D01*
X146646624Y-87451049D01*
X146775643Y-87451059D01*
G37*
G36*
X154547173Y-79679529D02*
G01*
X154667218Y-79679567D01*
X154778459Y-79679635D01*
X154881068Y-79679732D01*
X154975216Y-79679859D01*
X155061073Y-79680016D01*
X155138812Y-79680204D01*
X155208604Y-79680423D01*
X155270619Y-79680674D01*
X155325028Y-79680956D01*
X155372004Y-79681271D01*
X155411717Y-79681618D01*
X155444339Y-79681998D01*
X155470040Y-79682411D01*
X155488991Y-79682858D01*
X155501365Y-79683339D01*
X155507332Y-79683855D01*
X155507692Y-79683937D01*
X155528180Y-79693703D01*
X155548940Y-79709926D01*
X155566746Y-79729694D01*
X155576817Y-79746366D01*
X155577613Y-79748371D01*
X155578361Y-79750986D01*
X155579063Y-79754514D01*
X155579720Y-79759258D01*
X155580334Y-79765519D01*
X155580906Y-79773600D01*
X155581438Y-79783804D01*
X155581931Y-79796434D01*
X155582386Y-79811791D01*
X155582806Y-79830178D01*
X155583191Y-79851898D01*
X155583543Y-79877252D01*
X155583864Y-79906545D01*
X155584155Y-79940077D01*
X155584417Y-79978152D01*
X155584652Y-80021072D01*
X155584862Y-80069140D01*
X155585047Y-80122657D01*
X155585209Y-80181927D01*
X155585351Y-80247252D01*
X155585472Y-80318934D01*
X155585576Y-80397276D01*
X155585662Y-80482580D01*
X155585734Y-80575149D01*
X155585791Y-80675286D01*
X155585836Y-80783292D01*
X155585870Y-80899470D01*
X155585894Y-81024124D01*
X155585911Y-81157554D01*
X155585921Y-81300064D01*
X155585926Y-81451956D01*
X155585927Y-81613533D01*
X155585927Y-81621735D01*
X155585926Y-81783744D01*
X155585922Y-81936054D01*
X155585913Y-82078968D01*
X155585898Y-82212788D01*
X155585875Y-82337816D01*
X155585843Y-82454356D01*
X155585800Y-82562711D01*
X155585746Y-82663182D01*
X155585677Y-82756073D01*
X155585593Y-82841686D01*
X155585493Y-82920324D01*
X155585375Y-82992290D01*
X155585236Y-83057886D01*
X155585077Y-83117416D01*
X155584895Y-83171181D01*
X155584689Y-83219484D01*
X155584457Y-83262629D01*
X155584198Y-83300918D01*
X155583911Y-83334653D01*
X155583593Y-83364138D01*
X155583243Y-83389674D01*
X155582861Y-83411565D01*
X155582444Y-83430114D01*
X155581990Y-83445623D01*
X155581499Y-83458394D01*
X155580969Y-83468731D01*
X155580399Y-83476936D01*
X155579786Y-83483312D01*
X155579129Y-83488161D01*
X155578428Y-83491787D01*
X155577679Y-83494492D01*
X155576883Y-83496578D01*
X155576646Y-83497104D01*
X155560751Y-83521654D01*
X155538682Y-83542854D01*
X155515044Y-83556862D01*
X155512713Y-83557544D01*
X155508894Y-83558185D01*
X155503290Y-83558787D01*
X155495603Y-83559350D01*
X155485538Y-83559876D01*
X155472798Y-83560366D01*
X155457087Y-83560822D01*
X155438108Y-83561244D01*
X155415565Y-83561633D01*
X155389160Y-83561992D01*
X155358599Y-83562321D01*
X155323584Y-83562621D01*
X155283819Y-83562894D01*
X155239007Y-83563140D01*
X155188852Y-83563362D01*
X155133058Y-83563559D01*
X155071327Y-83563734D01*
X155003364Y-83563888D01*
X154928872Y-83564022D01*
X154847554Y-83564136D01*
X154759114Y-83564233D01*
X154663256Y-83564313D01*
X154559683Y-83564378D01*
X154448099Y-83564429D01*
X154328206Y-83564466D01*
X154199710Y-83564493D01*
X154062312Y-83564508D01*
X153915718Y-83564515D01*
X153759629Y-83564513D01*
X153642175Y-83564507D01*
X153480163Y-83564497D01*
X153327849Y-83564483D01*
X153184933Y-83564464D01*
X153051111Y-83564440D01*
X152926081Y-83564409D01*
X152809540Y-83564368D01*
X152701186Y-83564317D01*
X152600715Y-83564255D01*
X152507826Y-83564179D01*
X152422216Y-83564088D01*
X152343582Y-83563980D01*
X152271622Y-83563855D01*
X152206033Y-83563711D01*
X152146513Y-83563546D01*
X152092759Y-83563358D01*
X152044468Y-83563147D01*
X152001339Y-83562910D01*
X151963067Y-83562647D01*
X151929352Y-83562355D01*
X151899890Y-83562034D01*
X151874378Y-83561682D01*
X151852515Y-83561296D01*
X151833997Y-83560877D01*
X151818522Y-83560422D01*
X151805787Y-83559930D01*
X151795491Y-83559399D01*
X151787329Y-83558828D01*
X151781001Y-83558215D01*
X151776202Y-83557559D01*
X151772632Y-83556858D01*
X151769986Y-83556112D01*
X151767963Y-83555318D01*
X151767895Y-83555287D01*
X151747394Y-83542261D01*
X151728067Y-83523658D01*
X151712830Y-83502704D01*
X151705467Y-83486163D01*
X151704946Y-83481166D01*
X151704460Y-83469789D01*
X151704008Y-83451860D01*
X151703589Y-83427208D01*
X151703204Y-83395663D01*
X151702852Y-83357052D01*
X151702533Y-83311204D01*
X151702245Y-83257949D01*
X151701990Y-83197115D01*
X151701766Y-83128531D01*
X151701573Y-83052026D01*
X151701411Y-82967429D01*
X151701279Y-82874567D01*
X151701178Y-82773271D01*
X151701106Y-82663369D01*
X151701063Y-82544690D01*
X151701049Y-82417062D01*
X151701064Y-82280314D01*
X151701103Y-82147966D01*
X152256204Y-82147966D01*
X152256208Y-82245923D01*
X152256235Y-82339288D01*
X152256283Y-82427639D01*
X152256353Y-82510557D01*
X152256444Y-82587621D01*
X152256556Y-82658410D01*
X152256687Y-82722504D01*
X152256838Y-82779483D01*
X152257007Y-82828926D01*
X152257196Y-82870412D01*
X152257402Y-82903521D01*
X152257626Y-82927833D01*
X152257866Y-82942927D01*
X152258088Y-82948222D01*
X152265344Y-82970829D01*
X152279000Y-82989709D01*
X152296914Y-83002148D01*
X152302165Y-83004039D01*
X152308718Y-83004492D01*
X152324988Y-83004921D01*
X152350689Y-83005324D01*
X152385537Y-83005702D01*
X152429247Y-83006053D01*
X152481533Y-83006376D01*
X152542111Y-83006671D01*
X152610694Y-83006936D01*
X152686999Y-83007172D01*
X152770740Y-83007376D01*
X152861632Y-83007550D01*
X152959390Y-83007691D01*
X153063728Y-83007798D01*
X153174362Y-83007872D01*
X153291007Y-83007911D01*
X153413377Y-83007914D01*
X153541188Y-83007881D01*
X153650986Y-83007826D01*
X153787712Y-83007739D01*
X153914791Y-83007653D01*
X154032580Y-83007564D01*
X154141434Y-83007469D01*
X154241710Y-83007367D01*
X154333764Y-83007254D01*
X154417951Y-83007129D01*
X154494627Y-83006987D01*
X154564148Y-83006828D01*
X154626870Y-83006648D01*
X154683149Y-83006445D01*
X154733341Y-83006217D01*
X154777801Y-83005960D01*
X154816886Y-83005672D01*
X154850951Y-83005351D01*
X154880353Y-83004994D01*
X154905447Y-83004599D01*
X154926588Y-83004163D01*
X154944134Y-83003683D01*
X154958439Y-83003157D01*
X154969860Y-83002583D01*
X154978753Y-83001957D01*
X154985473Y-83001278D01*
X154990376Y-83000542D01*
X154993818Y-82999748D01*
X154996156Y-82998892D01*
X154997432Y-82998186D01*
X155010397Y-82987125D01*
X155019716Y-82975902D01*
X155020618Y-82974183D01*
X155021457Y-82971642D01*
X155022234Y-82967925D01*
X155022953Y-82962677D01*
X155023615Y-82955543D01*
X155024223Y-82946168D01*
X155024778Y-82934198D01*
X155025284Y-82919276D01*
X155025743Y-82901050D01*
X155026157Y-82879162D01*
X155026528Y-82853260D01*
X155026858Y-82822987D01*
X155027150Y-82787989D01*
X155027407Y-82747911D01*
X155027630Y-82702399D01*
X155027822Y-82651097D01*
X155027985Y-82593650D01*
X155028122Y-82529704D01*
X155028234Y-82458904D01*
X155028324Y-82380894D01*
X155028395Y-82295321D01*
X155028449Y-82201828D01*
X155028487Y-82100062D01*
X155028513Y-81989667D01*
X155028528Y-81870289D01*
X155028536Y-81741572D01*
X155028537Y-81621735D01*
X155028535Y-81484606D01*
X155028527Y-81357125D01*
X155028510Y-81238935D01*
X155028483Y-81129684D01*
X155028442Y-81029014D01*
X155028387Y-80936572D01*
X155028314Y-80852003D01*
X155028221Y-80774952D01*
X155028105Y-80705064D01*
X155027965Y-80641983D01*
X155027799Y-80585356D01*
X155027603Y-80534828D01*
X155027376Y-80490043D01*
X155027114Y-80450646D01*
X155026817Y-80416283D01*
X155026482Y-80386599D01*
X155026105Y-80361239D01*
X155025686Y-80339848D01*
X155025221Y-80322072D01*
X155024709Y-80307555D01*
X155024146Y-80295942D01*
X155023532Y-80286879D01*
X155022863Y-80280010D01*
X155022137Y-80274981D01*
X155021351Y-80271438D01*
X155020504Y-80269024D01*
X155019716Y-80267568D01*
X155008655Y-80254602D01*
X154997431Y-80245283D01*
X154995712Y-80244381D01*
X154993172Y-80243543D01*
X154989455Y-80242765D01*
X154984207Y-80242046D01*
X154977073Y-80241384D01*
X154967698Y-80240777D01*
X154955728Y-80240221D01*
X154940806Y-80239715D01*
X154922579Y-80239256D01*
X154900692Y-80238843D01*
X154874789Y-80238472D01*
X154844517Y-80238141D01*
X154809519Y-80237849D01*
X154769441Y-80237592D01*
X154723929Y-80237369D01*
X154672627Y-80237177D01*
X154615180Y-80237014D01*
X154551234Y-80236878D01*
X154480434Y-80236765D01*
X154402424Y-80236675D01*
X154316851Y-80236604D01*
X154223358Y-80236551D01*
X154121592Y-80236512D01*
X154011197Y-80236487D01*
X153891819Y-80236471D01*
X153763102Y-80236464D01*
X153643265Y-80236462D01*
X153506136Y-80236464D01*
X153378655Y-80236473D01*
X153260465Y-80236489D01*
X153151213Y-80236517D01*
X153050544Y-80236557D01*
X152958102Y-80236612D01*
X152873533Y-80236686D01*
X152796482Y-80236779D01*
X152726593Y-80236894D01*
X152663513Y-80237034D01*
X152606886Y-80237201D01*
X152556358Y-80237396D01*
X152511572Y-80237624D01*
X152472176Y-80237885D01*
X152437813Y-80238182D01*
X152408129Y-80238518D01*
X152382769Y-80238894D01*
X152361378Y-80239313D01*
X152343602Y-80239778D01*
X152329084Y-80240291D01*
X152317472Y-80240853D01*
X152308408Y-80241468D01*
X152301540Y-80242137D01*
X152296511Y-80242863D01*
X152292968Y-80243648D01*
X152290554Y-80244495D01*
X152289098Y-80245283D01*
X152276132Y-80256344D01*
X152266813Y-80267568D01*
X152265905Y-80269303D01*
X152265060Y-80271875D01*
X152264275Y-80275642D01*
X152263548Y-80280959D01*
X152262877Y-80288185D01*
X152262257Y-80297676D01*
X152261688Y-80309790D01*
X152261165Y-80324884D01*
X152260686Y-80343315D01*
X152260249Y-80365441D01*
X152259850Y-80391618D01*
X152259487Y-80422205D01*
X152259158Y-80457557D01*
X152258858Y-80498033D01*
X152258587Y-80543989D01*
X152258340Y-80595784D01*
X152258115Y-80653773D01*
X152257910Y-80718314D01*
X152257721Y-80789765D01*
X152257546Y-80868482D01*
X152257383Y-80954824D01*
X152257228Y-81049146D01*
X152257078Y-81151807D01*
X152256931Y-81263163D01*
X152256785Y-81383572D01*
X152256636Y-81513391D01*
X152256535Y-81604011D01*
X152256420Y-81718623D01*
X152256330Y-81830745D01*
X152256264Y-81939957D01*
X152256222Y-82045837D01*
X152256204Y-82147966D01*
X151701103Y-82147966D01*
X151701107Y-82134276D01*
X151701177Y-81978776D01*
X151701276Y-81813643D01*
X151701401Y-81638705D01*
X151701422Y-81610913D01*
X151702883Y-79754728D01*
X151718025Y-79733183D01*
X151731927Y-79716706D01*
X151748781Y-79701019D01*
X151754713Y-79696495D01*
X151776258Y-79681353D01*
X153632443Y-79679893D01*
X153808904Y-79679763D01*
X153975535Y-79679661D01*
X154132506Y-79679586D01*
X154279988Y-79679539D01*
X154418154Y-79679520D01*
X154547173Y-79679529D01*
G37*
%TO.C,D6*%
X155836535Y-135454738D02*
X160412143Y-134142703D01*
X160412143Y-134142703D02*
X160924829Y-135930650D01*
X160924829Y-135930650D02*
X156349221Y-137242685D01*
X156349221Y-137242685D02*
X155836535Y-135454738D01*
X155940287Y-136435762D02*
G75*
G03*
X155940287Y-136435762I-134536J0D01*
G01*
%TO.C,D12*%
X144211684Y-73706980D02*
X139636076Y-75019015D01*
X139636076Y-75019015D02*
X139123390Y-73231068D01*
X139123390Y-73231068D02*
X143698998Y-71919033D01*
X143698998Y-71919033D02*
X144211684Y-73706980D01*
X144377004Y-72725956D02*
G75*
G03*
X144377004Y-72725956I-134536J0D01*
G01*
%TO.C,SW1*%
X163960000Y-129330000D02*
X167900000Y-129330000D01*
X167900000Y-129330000D02*
X167900000Y-119350000D01*
X167900000Y-119350000D02*
X163960000Y-119350000D01*
X163960000Y-119350000D02*
X163960000Y-129330000D01*
%TD*%
%LPC*%
D14*
%TO.C,C1*%
X145100000Y-123450000D03*
X145100000Y-121550000D03*
%TD*%
D15*
%TO.C,R2*%
X155170000Y-125387500D03*
X155170000Y-127212500D03*
%TD*%
D16*
%TO.C,D3*%
X181135947Y-96224287D03*
D17*
X181632094Y-97954558D03*
X180639800Y-94494016D03*
%TD*%
D18*
%TO.C,C5*%
X138320000Y-131050000D03*
X140220000Y-131050000D03*
%TD*%
%TO.C,C3*%
X147150000Y-129200000D03*
X149050000Y-129200000D03*
%TD*%
D16*
%TO.C,D7*%
X141705194Y-135702786D03*
D19*
X139958662Y-135267327D03*
X143451726Y-136138245D03*
%TD*%
D20*
%TO.C,C4*%
X152950000Y-129200000D03*
X151050000Y-129200000D03*
%TD*%
D15*
%TO.C,R1*%
X155200000Y-121587500D03*
X155200000Y-123412500D03*
%TD*%
D16*
%TO.C,D1*%
X158343024Y-73458931D03*
D21*
X160089556Y-73894390D03*
X156596492Y-73023472D03*
%TD*%
D22*
%TO.C,U2*%
X141900000Y-128821152D03*
X141900000Y-127551152D03*
X141900000Y-126281152D03*
X141900000Y-125011152D03*
X141900000Y-123741152D03*
X141900000Y-122471152D03*
X141900000Y-121201152D03*
X141900000Y-119931152D03*
X136500000Y-119931152D03*
X136500000Y-121201152D03*
X136500000Y-122471152D03*
X136500000Y-123741152D03*
X136500000Y-125011152D03*
X136500000Y-126281152D03*
X136500000Y-127551152D03*
X136500000Y-128821152D03*
%TD*%
D16*
%TO.C,D11*%
X127231188Y-81815504D03*
D23*
X128481573Y-80520692D03*
X125980803Y-83110316D03*
%TD*%
D16*
%TO.C,D9*%
X118912272Y-112937432D03*
D24*
X118416125Y-111207161D03*
X119408419Y-114667703D03*
%TD*%
D25*
%TO.C,BT1*%
X173990000Y-111038605D03*
X173990000Y-98338605D03*
%TD*%
D14*
%TO.C,C2*%
X145000000Y-127250000D03*
X145000000Y-125350000D03*
%TD*%
D16*
%TO.C,D10*%
X118902183Y-96261944D03*
D26*
X119337642Y-94515412D03*
X118466724Y-98008476D03*
%TD*%
D27*
%TO.C,C7*%
X157740000Y-123450000D03*
X157740000Y-125350000D03*
%TD*%
D16*
%TO.C,D2*%
X172789464Y-81787936D03*
D28*
X174084276Y-83038321D03*
X171494652Y-80537551D03*
%TD*%
D29*
%TO.C,U1*%
X147400000Y-122490000D03*
X147400000Y-123760000D03*
X147400000Y-125030000D03*
X147400000Y-126300000D03*
X152800000Y-126300000D03*
X152800000Y-125030000D03*
X152800000Y-123760000D03*
X152800000Y-122490000D03*
%TD*%
D30*
%TO.C,F1*%
X178930000Y-106083605D03*
X178930000Y-103283605D03*
%TD*%
D16*
%TO.C,D8*%
X127258755Y-127373780D03*
D31*
X125963943Y-126123395D03*
X128553567Y-128624165D03*
%TD*%
D16*
%TO.C,D5*%
X172817030Y-127346215D03*
D32*
X171566645Y-128641027D03*
X174067415Y-126051403D03*
%TD*%
D27*
%TO.C,C6*%
X160200000Y-123450000D03*
X160200000Y-125350000D03*
%TD*%
D16*
%TO.C,D4*%
X181146035Y-112899772D03*
D33*
X180710576Y-114646304D03*
X181581494Y-111153240D03*
%TD*%
D16*
%TO.C,D6*%
X158380682Y-135692694D03*
D34*
X156650411Y-136188841D03*
X160110953Y-135196547D03*
%TD*%
D16*
%TO.C,D12*%
X141667537Y-73469024D03*
D35*
X143397808Y-72972877D03*
X139937266Y-73965171D03*
%TD*%
D36*
%TO.C,SW1*%
X168680000Y-126790000D03*
X168680000Y-124290000D03*
X168680000Y-121790000D03*
X163180000Y-126790000D03*
X163180000Y-124290000D03*
X163180000Y-121790000D03*
%TD*%
%LPD*%
M02*
