<svg version="1.0" xmlns="http://www.w3.org/2000/svg" xmlns:xlink="http://www.w3.org/1999/xlink"
	 viewBox="0 0 100 100" enable-background="new 0 0 100 100" xml:space="preserve">
	
<svg xmlns="http://www.w3.org/2000/svg" xmlns:xlink="http://www.w3.org/1999/xlink" version="1.1" width="100" height="100" viewBox="0 0 2000 2000" x="0" y="0" shape-rendering="crispEdges"><defs/><rect x="0" y="0" width="2000" height="2000" fill="#ffffff"/><rect x="815" y="223" width="74" height="74" fill="#000000"/><rect x="889" y="223" width="74" height="74" fill="#000000"/><rect x="889" y="297" width="74" height="74" fill="#000000"/><rect x="963" y="297" width="74" height="74" fill="#000000"/><rect x="1037" y="297" width="74" height="74" fill="#000000"/><rect x="815" y="371" width="74" height="74" fill="#000000"/><rect x="963" y="371" width="74" height="74" fill="#000000"/><rect x="1037" y="371" width="74" height="74" fill="#000000"/><rect x="1111" y="371" width="74" height="74" fill="#000000"/><rect x="815" y="445" width="74" height="74" fill="#000000"/><rect x="963" y="445" width="74" height="74" fill="#000000"/><rect x="1111" y="445" width="74" height="74" fill="#000000"/><rect x="815" y="519" width="74" height="74" fill="#000000"/><rect x="1111" y="519" width="74" height="74" fill="#000000"/><rect x="963" y="593" width="74" height="74" fill="#000000"/><rect x="1037" y="593" width="74" height="74" fill="#000000"/><rect x="1111" y="593" width="74" height="74" fill="#000000"/><rect x="815" y="667" width="74" height="74" fill="#000000"/><rect x="963" y="667" width="74" height="74" fill="#000000"/><rect x="1111" y="667" width="74" height="74" fill="#000000"/><rect x="223" y="815" width="74" height="74" fill="#000000"/><rect x="297" y="815" width="74" height="74" fill="#000000"/><rect x="371" y="815" width="74" height="74" fill="#000000"/><rect x="445" y="815" width="74" height="74" fill="#000000"/><rect x="667" y="815" width="74" height="74" fill="#000000"/><rect x="815" y="815" width="74" height="74" fill="#000000"/><rect x="963" y="815" width="74" height="74" fill="#000000"/><rect x="1037" y="815" width="74" height="74" fill="#000000"/><rect x="1185" y="815" width="74" height="74" fill="#000000"/><rect x="1407" y="815" width="74" height="74" fill="#000000"/><rect x="1481" y="815" width="74" height="74" fill="#000000"/><rect x="1555" y="815" width="74" height="74" fill="#000000"/><rect x="1703" y="815" width="74" height="74" fill="#000000"/><rect x="223" y="889" width="74" height="74" fill="#000000"/><rect x="371" y="889" width="74" height="74" fill="#000000"/><rect x="445" y="889" width="74" height="74" fill="#000000"/><rect x="519" y="889" width="74" height="74" fill="#000000"/><rect x="741" y="889" width="74" height="74" fill="#000000"/><rect x="815" y="889" width="74" height="74" fill="#000000"/><rect x="889" y="889" width="74" height="74" fill="#000000"/><rect x="1037" y="889" width="74" height="74" fill="#000000"/><rect x="1481" y="889" width="74" height="74" fill="#000000"/><rect x="1555" y="889" width="74" height="74" fill="#000000"/><rect x="1629" y="889" width="74" height="74" fill="#000000"/><rect x="1703" y="889" width="74" height="74" fill="#000000"/><rect x="297" y="963" width="74" height="74" fill="#000000"/><rect x="371" y="963" width="74" height="74" fill="#000000"/><rect x="445" y="963" width="74" height="74" fill="#000000"/><rect x="519" y="963" width="74" height="74" fill="#000000"/><rect x="667" y="963" width="74" height="74" fill="#000000"/><rect x="741" y="963" width="74" height="74" fill="#000000"/><rect x="963" y="963" width="74" height="74" fill="#000000"/><rect x="1037" y="963" width="74" height="74" fill="#000000"/><rect x="1407" y="963" width="74" height="74" fill="#000000"/><rect x="1481" y="963" width="74" height="74" fill="#000000"/><rect x="1555" y="963" width="74" height="74" fill="#000000"/><rect x="1629" y="963" width="74" height="74" fill="#000000"/><rect x="297" y="1037" width="74" height="74" fill="#000000"/><rect x="371" y="1037" width="74" height="74" fill="#000000"/><rect x="445" y="1037" width="74" height="74" fill="#000000"/><rect x="815" y="1037" width="74" height="74" fill="#000000"/><rect x="963" y="1037" width="74" height="74" fill="#000000"/><rect x="1111" y="1037" width="74" height="74" fill="#000000"/><rect x="1259" y="1037" width="74" height="74" fill="#000000"/><rect x="1333" y="1037" width="74" height="74" fill="#000000"/><rect x="1629" y="1037" width="74" height="74" fill="#000000"/><rect x="223" y="1111" width="74" height="74" fill="#000000"/><rect x="593" y="1111" width="74" height="74" fill="#000000"/><rect x="667" y="1111" width="74" height="74" fill="#000000"/><rect x="815" y="1111" width="74" height="74" fill="#000000"/><rect x="1037" y="1111" width="74" height="74" fill="#000000"/><rect x="1111" y="1111" width="74" height="74" fill="#000000"/><rect x="1185" y="1111" width="74" height="74" fill="#000000"/><rect x="1259" y="1111" width="74" height="74" fill="#000000"/><rect x="815" y="1185" width="74" height="74" fill="#000000"/><rect x="963" y="1185" width="74" height="74" fill="#000000"/><rect x="1185" y="1185" width="74" height="74" fill="#000000"/><rect x="1259" y="1185" width="74" height="74" fill="#000000"/><rect x="1703" y="1185" width="74" height="74" fill="#000000"/><rect x="1037" y="1259" width="74" height="74" fill="#000000"/><rect x="1111" y="1259" width="74" height="74" fill="#000000"/><rect x="1259" y="1259" width="74" height="74" fill="#000000"/><rect x="1333" y="1259" width="74" height="74" fill="#000000"/><rect x="1555" y="1259" width="74" height="74" fill="#000000"/><rect x="889" y="1333" width="74" height="74" fill="#000000"/><rect x="1185" y="1333" width="74" height="74" fill="#000000"/><rect x="1333" y="1333" width="74" height="74" fill="#000000"/><rect x="1407" y="1333" width="74" height="74" fill="#000000"/><rect x="1703" y="1333" width="74" height="74" fill="#000000"/><rect x="963" y="1407" width="74" height="74" fill="#000000"/><rect x="1259" y="1407" width="74" height="74" fill="#000000"/><rect x="1333" y="1407" width="74" height="74" fill="#000000"/><rect x="815" y="1481" width="74" height="74" fill="#000000"/><rect x="889" y="1481" width="74" height="74" fill="#000000"/><rect x="963" y="1481" width="74" height="74" fill="#000000"/><rect x="1037" y="1481" width="74" height="74" fill="#000000"/><rect x="1481" y="1481" width="74" height="74" fill="#000000"/><rect x="815" y="1555" width="74" height="74" fill="#000000"/><rect x="889" y="1555" width="74" height="74" fill="#000000"/><rect x="1111" y="1555" width="74" height="74" fill="#000000"/><rect x="1259" y="1555" width="74" height="74" fill="#000000"/><rect x="1407" y="1555" width="74" height="74" fill="#000000"/><rect x="1481" y="1555" width="74" height="74" fill="#000000"/><rect x="815" y="1629" width="74" height="74" fill="#000000"/><rect x="1037" y="1629" width="74" height="74" fill="#000000"/><rect x="1111" y="1629" width="74" height="74" fill="#000000"/><rect x="1185" y="1629" width="74" height="74" fill="#000000"/><rect x="1259" y="1629" width="74" height="74" fill="#000000"/><rect x="1407" y="1629" width="74" height="74" fill="#000000"/><rect x="1629" y="1629" width="74" height="74" fill="#000000"/><rect x="815" y="1703" width="74" height="74" fill="#000000"/><rect x="1037" y="1703" width="74" height="74" fill="#000000"/><rect x="1407" y="1703" width="74" height="74" fill="#000000"/><svg version="1.1" id="Ebene_1" x="223" y="223" viewBox="0 0 700 700" style="enable-background:new 0 0 700 700;" xml:space="preserve" width="518" height="518" shape-rendering="auto">

<path fill="#000000" d="M21.2-0.1C9.5-0.1-0.1,9.5-0.1,21.2v78.8v100v100v100v100v100v78.8c0,11.7,9.5,21.3,21.3,21.3h657.6  c11.7,0,21.3-9.5,21.3-21.3V600V500V400V300V200v-100V21.2c0-11.7-9.5-21.3-21.3-21.3H21.2z M600,200v100v100v100v87.8  c0,6.8-5.5,12.2-12.2,12.2H112.2c-6.8,0-12.2-5.5-12.2-12.2V500V400V300V200v-87.8c0-6.8,5.5-12.2,12.2-12.2h475.6  c6.8,0,12.2,5.5,12.2,12.2V200z"/>
</svg>
<svg version="1.1" id="Ebene_1" x="223" y="223" viewBox="0 0 700 700" style="enable-background:new 0 0 700 700;" xml:space="preserve" width="518" height="518" shape-rendering="auto">

<path fill="#000000" d="M500,400V300v-78.8c0-11.7-9.5-21.3-21.3-21.3H221.2c-11.7,0-21.3,9.5-21.3,21.3V300v100v78.8    c0,11.7,9.5,21.3,21.3,21.3h257.5c11.7,0,21.3-9.5,21.3-21.3V400z"/>
</svg>
<svg version="1.1" id="Ebene_1" x="1259" y="223" viewBox="0 0 700 700" style="enable-background:new 0 0 700 700;" xml:space="preserve" width="518" height="518" shape-rendering="auto">

<path fill="#000000" d="M21.2-0.1C9.5-0.1-0.1,9.5-0.1,21.2v78.8v100v100v100v100v100v78.8c0,11.7,9.5,21.3,21.3,21.3h657.6  c11.7,0,21.3-9.5,21.3-21.3V600V500V400V300V200v-100V21.2c0-11.7-9.5-21.3-21.3-21.3H21.2z M600,200v100v100v100v87.8  c0,6.8-5.5,12.2-12.2,12.2H112.2c-6.8,0-12.2-5.5-12.2-12.2V500V400V300V200v-87.8c0-6.8,5.5-12.2,12.2-12.2h475.6  c6.8,0,12.2,5.5,12.2,12.2V200z"/>
</svg>
<svg version="1.1" id="Ebene_1" x="1259" y="223" viewBox="0 0 700 700" style="enable-background:new 0 0 700 700;" xml:space="preserve" width="518" height="518" shape-rendering="auto">

<path fill="#000000" d="M500,400V300v-78.8c0-11.7-9.5-21.3-21.3-21.3H221.2c-11.7,0-21.3,9.5-21.3,21.3V300v100v78.8    c0,11.7,9.5,21.3,21.3,21.3h257.5c11.7,0,21.3-9.5,21.3-21.3V400z"/>
</svg>
<svg version="1.1" id="Ebene_1" x="223" y="1259" viewBox="0 0 700 700" style="enable-background:new 0 0 700 700;" xml:space="preserve" width="518" height="518" shape-rendering="auto">

<path fill="#000000" d="M21.2-0.1C9.5-0.1-0.1,9.5-0.1,21.2v78.8v100v100v100v100v100v78.8c0,11.7,9.5,21.3,21.3,21.3h657.6  c11.7,0,21.3-9.5,21.3-21.3V600V500V400V300V200v-100V21.2c0-11.7-9.5-21.3-21.3-21.3H21.2z M600,200v100v100v100v87.8  c0,6.8-5.5,12.2-12.2,12.2H112.2c-6.8,0-12.2-5.5-12.2-12.2V500V400V300V200v-87.8c0-6.8,5.5-12.2,12.2-12.2h475.6  c6.8,0,12.2,5.5,12.2,12.2V200z"/>
</svg>
<svg version="1.1" id="Ebene_1" x="223" y="1259" viewBox="0 0 700 700" style="enable-background:new 0 0 700 700;" xml:space="preserve" width="518" height="518" shape-rendering="auto">

<path fill="#000000" d="M500,400V300v-78.8c0-11.7-9.5-21.3-21.3-21.3H221.2c-11.7,0-21.3,9.5-21.3,21.3V300v100v78.8    c0,11.7,9.5,21.3,21.3,21.3h257.5c11.7,0,21.3-9.5,21.3-21.3V400z"/>
</svg>
</svg>

</svg>
