<svg xmlns="http://www.w3.org/2000/svg" width="210mm" height="297mm" viewBox="0 0 210 297"><defs><clipPath id="B" clipPathUnits="userSpaceOnUse"><path d="M285.082 538.52h55.276v59.352h-55.276z" style="opacity:.82999998;fill:#fff;fill-opacity:1;stroke:red;stroke-width:.3810477;stroke-miterlimit:4;stroke-dasharray:none;stroke-opacity:1"/></clipPath><clipPath id="A" clipPathUnits="userSpaceOnUse"><path d="M75.428 142.483h14.625v15.703H75.428z" style="opacity:.82999998;fill:#fff;fill-opacity:1;stroke:red;stroke-width:.10081887;stroke-miterlimit:4;stroke-dasharray:none;stroke-opacity:1"/></clipPath><clipPath id="z" clipPathUnits="userSpaceOnUse"><path d="M75.428 142.483h14.625v15.703H75.428z" style="opacity:.82999998;fill:#fff;fill-opacity:1;stroke:red;stroke-width:.10081887;stroke-miterlimit:4;stroke-dasharray:none;stroke-opacity:1"/></clipPath><clipPath id="y" clipPathUnits="userSpaceOnUse"><path d="M75.428 142.483h14.625v15.703H75.428z" style="opacity:.82999998;fill:#fff;fill-opacity:1;stroke:red;stroke-width:.10081887;stroke-miterlimit:4;stroke-dasharray:none;stroke-opacity:1"/></clipPath><clipPath id="x" clipPathUnits="userSpaceOnUse"><path d="M75.428 142.483h14.625v15.703H75.428z" style="opacity:.82999998;fill:#fff;fill-opacity:1;stroke:red;stroke-width:.10081887;stroke-miterlimit:4;stroke-dasharray:none;stroke-opacity:1"/></clipPath><clipPath id="w" clipPathUnits="userSpaceOnUse"><path d="M75.428 142.483h14.625v15.703H75.428z" style="opacity:.82999998;fill:#fff;fill-opacity:1;stroke:red;stroke-width:.10081887;stroke-miterlimit:4;stroke-dasharray:none;stroke-opacity:1"/></clipPath><clipPath id="v" clipPathUnits="userSpaceOnUse"><path d="M75.428 142.483h14.625v15.703H75.428z" style="opacity:.82999998;fill:#fff;fill-opacity:1;stroke:red;stroke-width:.10081887;stroke-miterlimit:4;stroke-dasharray:none;stroke-opacity:1"/></clipPath><clipPath id="u" clipPathUnits="userSpaceOnUse"><path d="M75.428 142.483h14.625v15.703H75.428z" style="opacity:.82999998;fill:#fff;fill-opacity:1;stroke:red;stroke-width:.10081887;stroke-miterlimit:4;stroke-dasharray:none;stroke-opacity:1"/></clipPath><clipPath id="t" clipPathUnits="userSpaceOnUse"><path d="M75.428 142.483h14.625v15.703H75.428z" style="opacity:.82999998;fill:#fff;fill-opacity:1;stroke:red;stroke-width:.10081887;stroke-miterlimit:4;stroke-dasharray:none;stroke-opacity:1"/></clipPath><clipPath id="s" clipPathUnits="userSpaceOnUse"><path d="M75.428 142.483h14.625v15.703H75.428z" style="opacity:.82999998;fill:#fff;fill-opacity:1;stroke:red;stroke-width:.10081887;stroke-miterlimit:4;stroke-dasharray:none;stroke-opacity:1"/></clipPath><clipPath id="r" clipPathUnits="userSpaceOnUse"><path d="M75.428 142.483h14.625v15.703H75.428z" style="opacity:.82999998;fill:#fff;fill-opacity:1;stroke:red;stroke-width:.10081887;stroke-miterlimit:4;stroke-dasharray:none;stroke-opacity:1"/></clipPath><clipPath id="q" clipPathUnits="userSpaceOnUse"><path d="M75.428 142.483h14.625v15.703H75.428z" style="opacity:.82999998;fill:#fff;fill-opacity:1;stroke:red;stroke-width:.10081887;stroke-miterlimit:4;stroke-dasharray:none;stroke-opacity:1"/></clipPath><clipPath id="p" clipPathUnits="userSpaceOnUse"><path d="M75.428 142.483h14.625v15.703H75.428z" style="opacity:.82999998;fill:#fff;fill-opacity:1;stroke:red;stroke-width:.10081887;stroke-miterlimit:4;stroke-dasharray:none;stroke-opacity:1"/></clipPath><clipPath id="o" clipPathUnits="userSpaceOnUse"><path d="M75.428 142.483h14.625v15.703H75.428z" style="opacity:.82999998;fill:#fff;fill-opacity:1;stroke:red;stroke-width:.10081887;stroke-miterlimit:4;stroke-dasharray:none;stroke-opacity:1"/></clipPath><clipPath id="n" clipPathUnits="userSpaceOnUse"><path d="M75.428 142.483h14.625v15.703H75.428z" style="opacity:.82999998;fill:#fff;fill-opacity:1;stroke:red;stroke-width:.10081887;stroke-miterlimit:4;stroke-dasharray:none;stroke-opacity:1"/></clipPath><clipPath id="m" clipPathUnits="userSpaceOnUse"><path d="M75.428 142.483h14.625v15.703H75.428z" style="opacity:.82999998;fill:#fff;fill-opacity:1;stroke:red;stroke-width:.10081887;stroke-miterlimit:4;stroke-dasharray:none;stroke-opacity:1"/></clipPath><clipPath id="l" clipPathUnits="userSpaceOnUse"><path d="M75.428 142.483h14.625v15.703H75.428z" style="opacity:.82999998;fill:#fff;fill-opacity:1;stroke:red;stroke-width:.10081887;stroke-miterlimit:4;stroke-dasharray:none;stroke-opacity:1"/></clipPath><clipPath id="k" clipPathUnits="userSpaceOnUse"><path d="M75.428 142.483h14.625v15.703H75.428z" style="opacity:.82999998;fill:#fff;fill-opacity:1;stroke:red;stroke-width:.10081887;stroke-miterlimit:4;stroke-dasharray:none;stroke-opacity:1"/></clipPath><clipPath id="j" clipPathUnits="userSpaceOnUse"><path d="M75.428 142.483h14.625v15.703H75.428z" style="opacity:.82999998;fill:#fff;fill-opacity:1;stroke:red;stroke-width:.10081887;stroke-miterlimit:4;stroke-dasharray:none;stroke-opacity:1"/></clipPath><clipPath id="i" clipPathUnits="userSpaceOnUse"><path d="M75.428 142.483h14.625v15.703H75.428z" style="opacity:.82999998;fill:#fff;fill-opacity:1;stroke:red;stroke-width:.10081887;stroke-miterlimit:4;stroke-dasharray:none;stroke-opacity:1"/></clipPath><clipPath id="h" clipPathUnits="userSpaceOnUse"><path d="M75.428 142.483h14.625v15.703H75.428z" style="opacity:.82999998;fill:#fff;fill-opacity:1;stroke:red;stroke-width:.10081887;stroke-miterlimit:4;stroke-dasharray:none;stroke-opacity:1"/></clipPath><clipPath id="g" clipPathUnits="userSpaceOnUse"><path d="M75.428 142.483h14.625v15.703H75.428z" style="opacity:.82999998;fill:#fff;fill-opacity:1;stroke:red;stroke-width:.10081887;stroke-miterlimit:4;stroke-dasharray:none;stroke-opacity:1"/></clipPath><clipPath id="f" clipPathUnits="userSpaceOnUse"><path d="M75.428 142.483h14.625v15.703H75.428z" style="opacity:.82999998;fill:#fff;fill-opacity:1;stroke:red;stroke-width:.10081887;stroke-miterlimit:4;stroke-dasharray:none;stroke-opacity:1"/></clipPath><clipPath id="e" clipPathUnits="userSpaceOnUse"><path d="M75.428 142.483h14.625v15.703H75.428z" style="opacity:.82999998;fill:#fff;fill-opacity:1;stroke:red;stroke-width:.10081887;stroke-miterlimit:4;stroke-dasharray:none;stroke-opacity:1"/></clipPath><clipPath id="d" clipPathUnits="userSpaceOnUse"><path d="M75.428 142.483h14.625v15.703H75.428z" style="opacity:.82999998;fill:#fff;fill-opacity:1;stroke:red;stroke-width:.10081887;stroke-miterlimit:4;stroke-dasharray:none;stroke-opacity:1"/></clipPath><clipPath id="c" clipPathUnits="userSpaceOnUse"><path d="M75.428 142.483h14.625v15.703H75.428z" style="opacity:.82999998;fill:#fff;fill-opacity:1;stroke:red;stroke-width:.10081887;stroke-miterlimit:4;stroke-dasharray:none;stroke-opacity:1"/></clipPath><clipPath id="b" clipPathUnits="userSpaceOnUse"><path d="M75.428 142.483h14.625v15.703H75.428z" style="opacity:.82999998;fill:#fff;fill-opacity:1;stroke:red;stroke-width:.10081887;stroke-miterlimit:4;stroke-dasharray:none;stroke-opacity:1"/></clipPath><clipPath id="a" clipPathUnits="userSpaceOnUse"><path d="M75.428 142.483h14.625v15.703H75.428z" style="opacity:.82999998;fill:#fff;fill-opacity:1;stroke:red;stroke-width:.10081887;stroke-miterlimit:4;stroke-dasharray:none;stroke-opacity:1"/></clipPath></defs><path d="M76.892 143.932v10.198c0 .036 0 .072.004.108a1.22 1.22 0 0 0 .538.9 1.345 1.345 0 0 0 .763.196 4.97 4.97 0 0 0 .503-.034c.513-.052 1.018-.158 1.532-.201.178-.015.357-.025.537-.025a3.45 3.45 0 0 1 .95.12 1.936 1.936 0 0 1 1.033.69l.005.007.005-.007a1.936 1.936 0 0 1 1.032-.69 3.45 3.45 0 0 1 .953-.12c.179 0 .358.01.536.025.515.043 1.02.148 1.532.201a4.97 4.97 0 0 0 .503.034 1.346 1.346 0 0 0 .764-.197 1.22 1.22 0 0 0 .537-.9c.003-.035.005-.071.005-.107v-10.198zm5.717 11.418a2.326 2.326 0 0 0-.816-.418 3.723 3.723 0 0 0-1.025-.129c-.171 0-.354.008-.56.027-.287.024-.572.068-.848.109-.226.034-.46.07-.688.093-.147.015-.315.032-.474.032a1.071 1.071 0 0 1-.613-.152.946.946 0 0 1-.418-.7.993.993 0 0 1-.004-.082v-4.178h5.447zm0-5.691h-5.446v-5.455h5.446zm5.74 4.471c0 .03-.001.057-.003.084a.946.946 0 0 1-.417.697 1.074 1.074 0 0 1-.614.152c-.159 0-.327-.017-.474-.032-.229-.024-.462-.06-.688-.093-.276-.041-.56-.085-.848-.11a6.828 6.828 0 0 0-.56-.026 3.723 3.723 0 0 0-1.025.129 2.319 2.319 0 0 0-.816.418v-5.397h5.445zm0-4.471h-5.446v-5.455h5.446z" clip-path="url(#a)" data-name="Path 4180" style="fill:#1a1818;stroke-width:.26458332" transform="matrix(1.94229 0 0 1.94229 -71.198 -148.969)"/><path d="M82.61 149.952v5.397a2.32 2.32 0 0 0-.817-.418 3.713 3.713 0 0 0-1.025-.129c-.171 0-.354.008-.56.027-.287.024-.572.067-.848.109-.226.034-.46.07-.688.093-.147.015-.315.032-.474.032a1.072 1.072 0 0 1-.613-.152.946.946 0 0 1-.418-.699.993.993 0 0 1-.004-.082v-4.178z" clip-path="url(#b)" data-name="Path 4181" style="fill:#fff;stroke-width:.26458332" transform="matrix(1.94229 0 0 1.94229 -71.198 -148.969)"/><path d="M82.903 144.204h5.446v5.455h-5.446z" clip-path="url(#c)" data-name="Rectangle 97" style="fill:#fff;stroke-width:.26458332" transform="matrix(1.94229 0 0 1.94229 -71.198 -148.969)"/><path d="M88.35 149.952v4.178c0 .03-.002.057-.004.083a.946.946 0 0 1-.417.698 1.074 1.074 0 0 1-.614.152c-.159 0-.327-.018-.474-.032-.229-.024-.462-.06-.688-.094-.276-.041-.56-.084-.848-.109a6.829 6.829 0 0 0-.56-.026 3.712 3.712 0 0 0-1.025.129 2.314 2.314 0 0 0-.816.418v-5.397z" clip-path="url(#d)" data-name="Path 4182" style="fill:#fff;stroke-width:.26458332" transform="matrix(1.94229 0 0 1.94229 -71.198 -148.969)"/><path d="M77.163 144.204h5.446v5.455h-5.446z" clip-path="url(#e)" data-name="Rectangle 98" style="fill:#fff;stroke-width:.26458332" transform="matrix(1.94229 0 0 1.94229 -71.198 -148.969)"/><path d="M78.28 146.93c0-1.014.779-1.74 1.828-1.74a1.739 1.739 0 0 1 1.385.596l-.5.462a1.085 1.085 0 0 0-.847-.395 1.032 1.032 0 0 0-1.077 1.078 1.032 1.032 0 0 0 1.077 1.078 1.073 1.073 0 0 0 .847-.4l.5.462a1.73 1.73 0 0 1-1.39.602 1.73 1.73 0 0 1-1.824-1.742" clip-path="url(#f)" data-name="Path 4183" style="fill:#1a1818;stroke-width:.26458332" transform="matrix(1.94229 0 0 1.94229 -71.198 -148.969)"/><path d="m84.226 153.8.264-.588a1.982 1.982 0 0 0 1.112.352c.462 0 .65-.154.65-.361 0-.63-1.959-.198-1.959-1.448 0-.573.462-1.05 1.42-1.05a2.259 2.259 0 0 1 1.17.299l-.242.59a1.901 1.901 0 0 0-.933-.264c-.462 0-.64.173-.64.385 0 .62 1.958.192 1.958 1.429 0 .562-.467 1.044-1.429 1.044a2.4 2.4 0 0 1-1.371-.39" clip-path="url(#g)" data-name="Path 4184" style="fill:#1a1818;stroke-width:.26458332" transform="matrix(1.94229 0 0 1.94229 -71.198 -148.969)"/><path d="M88.961 145.67h.994v7.352h-.994z" clip-path="url(#h)" data-name="Rectangle 99" style="fill:#040504;stroke-width:.26458332" transform="matrix(1.94229 0 0 1.94229 -71.198 -148.969)"/><path d="M89.954 142.599v2.174h-.993v-1.18H76.55v1.18h-.993v-2.174z" clip-path="url(#i)" data-name="Path 4185" style="fill:#040504;stroke-width:.26458332" transform="matrix(1.94229 0 0 1.94229 -71.198 -148.969)"/><path d="M75.558 145.67h.994v7.352h-.994z" clip-path="url(#j)" data-name="Rectangle 100" style="fill:#040504;stroke-width:.26458332" transform="matrix(1.94229 0 0 1.94229 -71.198 -148.969)"/><path d="M88.96 153.92v.21a1.535 1.535 0 0 1-1.504 1.542q-.197.003-.39-.01a9.282 9.282 0 0 1-.645-.067c-.109-.015-.22-.031-.332-.05a8.281 8.281 0 0 0-1.373-.126h-.096c-.035 0-.07 0-.103.002l-.064.004a.849.849 0 0 0-.087.006l-.075.008-.07.008a2.684 2.684 0 0 0-.306.062h-.001a1.193 1.193 0 0 0-.08.024 1.736 1.736 0 0 0-.312.132c-.036.02-.072.04-.106.062a1.53 1.53 0 0 0-.224.179.815.815 0 0 0-.05.05 1.343 1.343 0 0 0-.109.132.872.872 0 0 0-.047.068 1.385 1.385 0 0 0-.087.147l-.021.044-.02.045-.024.053c-.009.017-.015.038-.022.057-.022.06-.04.121-.056.185a2.136 2.136 0 0 0-.057-.185l-.022-.057a1.003 1.003 0 0 0-.023-.053l-.02-.045a.89.89 0 0 0-.023-.044 1.34 1.34 0 0 0-.086-.147.868.868 0 0 0-.047-.068 1.343 1.343 0 0 0-.109-.132.816.816 0 0 0-.05-.05 1.516 1.516 0 0 0-.224-.18 1.341 1.341 0 0 0-.104-.061 1.738 1.738 0 0 0-.314-.132c-.026-.01-.053-.017-.079-.024a2.672 2.672 0 0 0-.305-.062l-.07-.008-.076-.008-.087-.006-.064-.004-.103-.002h-.096a8.285 8.285 0 0 0-1.373.126 14.088 14.088 0 0 1-.657.09c-.107.012-.214.021-.32.027q-.193.013-.39.01a1.536 1.536 0 0 1-1.505-1.541v-.212h-.994v.38c0 1.5.651 2.62 2.475 2.62a10.208 10.208 0 0 0 1.482-.145 10.073 10.073 0 0 1 1.463-.144 1.413 1.413 0 0 1 .878.25c.265.206.459.572.459 1.212h.884c0-.64.195-1.006.459-1.212a1.413 1.413 0 0 1 .878-.25 10.077 10.077 0 0 1 1.464.144 10.2 10.2 0 0 0 1.481.144c1.824 0 2.475-1.119 2.475-2.619v-.38z" clip-path="url(#k)" data-name="Path 4186" style="fill:#040504;stroke-width:.26458332" transform="matrix(1.94229 0 0 1.94229 -71.198 -148.969)"/><path d="M88.35 149.01v.648H87.7z" clip-path="url(#l)" data-name="Path 4187" style="fill:#000;fill-opacity:1;stroke-width:.26458332" transform="matrix(1.94229 0 0 1.94229 -71.198 -148.969)"/><path d="M82.61 154.75v.6a2.185 2.185 0 0 0-.364-.238z" clip-path="url(#m)" data-name="Path 4188" style="fill:#000;fill-opacity:1;stroke-width:.26458332" transform="matrix(1.94229 0 0 1.94229 -71.198 -148.969)"/><path d="M88.35 147.543v.97l-1.146 1.145h-.97z" clip-path="url(#n)" data-name="Path 4189" style="fill:#000;fill-opacity:1;stroke-width:.26458332" transform="matrix(1.94229 0 0 1.94229 -71.198 -148.969)"/><path d="M82.61 153.283v.97l-.712.711a3.222 3.222 0 0 0-.106-.032 3.422 3.422 0 0 0-.714-.119z" clip-path="url(#o)" data-name="Path 4190" style="fill:#000;fill-opacity:1;stroke-width:.26458332" transform="matrix(1.94229 0 0 1.94229 -71.198 -148.969)"/><path d="M88.35 146.076v.97l-2.613 2.613h-.971z" clip-path="url(#p)" data-name="Path 4191" style="fill:#000;fill-opacity:1;stroke-width:.26458332" transform="matrix(1.94229 0 0 1.94229 -71.198 -148.969)"/><path d="M82.61 151.815v.97l-2.02 2.02c-.12.004-.245.01-.382.022-.236.02-.47.053-.698.087z" clip-path="url(#q)" data-name="Path 4192" style="fill:#000;fill-opacity:1;stroke-width:.26458332" transform="matrix(1.94229 0 0 1.94229 -71.198 -148.969)"/><path d="M88.35 144.608v.971l-4.08 4.08h-.971z" clip-path="url(#r)" data-name="Path 4193" style="fill:#000;fill-opacity:1;stroke-width:.26458332" transform="matrix(1.94229 0 0 1.94229 -71.198 -148.969)"/><path d="M82.61 150.348v.97L78.928 155a6.572 6.572 0 0 1-.258.032c-.147.014-.315.032-.474.032a1.532 1.532 0 0 1-.28-.023z" clip-path="url(#s)" data-name="Path 4194" style="fill:#000;fill-opacity:1;stroke-width:.26458332" transform="matrix(1.94229 0 0 1.94229 -71.198 -148.969)"/><path d="m88.258 144.203-5.355 5.354v-.97l4.384-4.384z" clip-path="url(#t)" data-name="Path 4195" style="fill:#000;fill-opacity:1;stroke-width:.26458332" transform="matrix(1.94229 0 0 1.94229 -71.198 -148.969)"/><path d="m82.509 149.952-4.945 4.945a.942.942 0 0 1-.383-.588l4.357-4.357z" clip-path="url(#u)" data-name="Path 4196" style="fill:#000;fill-opacity:1;stroke-width:.26458332" transform="matrix(1.94229 0 0 1.94229 -71.198 -148.969)"/><path d="m86.79 144.203-3.887 3.888v-.971l2.916-2.917z" clip-path="url(#v)" data-name="Path 4197" style="fill:#000;fill-opacity:1;stroke-width:.26458332" transform="matrix(1.94229 0 0 1.94229 -71.198 -148.969)"/><path d="m81.042 149.952-3.879 3.878v-.97l2.908-2.908z" clip-path="url(#w)" data-name="Path 4198" style="fill:#000;fill-opacity:1;stroke-width:.26458332" transform="matrix(1.94229 0 0 1.94229 -71.198 -148.969)"/><path d="m85.323 144.203-2.42 2.42v-.97l1.449-1.45z" clip-path="url(#x)" data-name="Path 4199" style="fill:#000;fill-opacity:1;stroke-width:.26458332" transform="matrix(1.94229 0 0 1.94229 -71.198 -148.969)"/><path d="m79.574 149.952-2.41 2.41v-.97l1.44-1.44z" clip-path="url(#y)" data-name="Path 4200" style="fill:#000;fill-opacity:1;stroke-width:.26458332" transform="matrix(1.94229 0 0 1.94229 -71.198 -148.969)"/><path d="m83.855 144.203-.952.953v-.953z" clip-path="url(#z)" data-name="Path 4201" style="fill:#000;fill-opacity:1;stroke-width:.26458332" transform="matrix(1.94229 0 0 1.94229 -71.198 -148.969)"/><path d="m78.107 149.952-.944.943v-.943z" clip-path="url(#A)" data-name="Path 4202" style="fill:#000;fill-opacity:1;stroke-width:.26458332" transform="matrix(1.94229 0 0 1.94229 -71.198 -148.969)"/><path d="M291.68 573.975v-1.808l2.69-2.69 2.69-2.69 1.797.011 1.796.012-4.487 4.486-4.487 4.487z" clip-path="url(#B)" style="opacity:1;fill:none;fill-opacity:1;stroke:red;stroke-width:.01687289;stroke-miterlimit:4;stroke-dasharray:none;stroke-opacity:1" transform="matrix(.5139 0 0 .5139 -71.198 -148.969)"/></svg>