<svg xmlns="http://www.w3.org/2000/svg" width="210mm" height="297mm" viewBox="0 0 210 297"><defs><clipPath id="w" clipPathUnits="userSpaceOnUse"><path d="M75.428 142.483h14.625v15.703H75.428z" style="opacity:.82999998;fill:#fff;fill-opacity:1;stroke:red;stroke-width:.10081887;stroke-miterlimit:4;stroke-dasharray:none;stroke-opacity:1"/></clipPath><clipPath id="v" clipPathUnits="userSpaceOnUse"><path d="M75.428 142.483h14.625v15.703H75.428z" style="opacity:.82999998;fill:#fff;fill-opacity:1;stroke:red;stroke-width:.10081887;stroke-miterlimit:4;stroke-dasharray:none;stroke-opacity:1"/></clipPath><clipPath id="u" clipPathUnits="userSpaceOnUse"><path d="M75.428 142.483h14.625v15.703H75.428z" style="opacity:.82999998;fill:#fff;fill-opacity:1;stroke:red;stroke-width:.10081887;stroke-miterlimit:4;stroke-dasharray:none;stroke-opacity:1"/></clipPath><clipPath id="t" clipPathUnits="userSpaceOnUse"><path d="M75.428 142.483h14.625v15.703H75.428z" style="opacity:.82999998;fill:#fff;fill-opacity:1;stroke:red;stroke-width:.10081887;stroke-miterlimit:4;stroke-dasharray:none;stroke-opacity:1"/></clipPath><clipPath id="s" clipPathUnits="userSpaceOnUse"><path d="M75.428 142.483h14.625v15.703H75.428z" style="opacity:.82999998;fill:#fff;fill-opacity:1;stroke:red;stroke-width:.10081887;stroke-miterlimit:4;stroke-dasharray:none;stroke-opacity:1"/></clipPath><clipPath id="r" clipPathUnits="userSpaceOnUse"><path d="M75.428 142.483h14.625v15.703H75.428z" style="opacity:.82999998;fill:#fff;fill-opacity:1;stroke:red;stroke-width:.10081887;stroke-miterlimit:4;stroke-dasharray:none;stroke-opacity:1"/></clipPath><clipPath id="q" clipPathUnits="userSpaceOnUse"><path d="M75.428 142.483h14.625v15.703H75.428z" style="opacity:.82999998;fill:#fff;fill-opacity:1;stroke:red;stroke-width:.10081887;stroke-miterlimit:4;stroke-dasharray:none;stroke-opacity:1"/></clipPath><clipPath id="p" clipPathUnits="userSpaceOnUse"><path d="M75.428 142.483h14.625v15.703H75.428z" style="opacity:.82999998;fill:#fff;fill-opacity:1;stroke:red;stroke-width:.10081887;stroke-miterlimit:4;stroke-dasharray:none;stroke-opacity:1"/></clipPath><clipPath id="o" clipPathUnits="userSpaceOnUse"><path d="M75.428 142.483h14.625v15.703H75.428z" style="opacity:.82999998;fill:#fff;fill-opacity:1;stroke:red;stroke-width:.10081887;stroke-miterlimit:4;stroke-dasharray:none;stroke-opacity:1"/></clipPath><clipPath id="n" clipPathUnits="userSpaceOnUse"><path d="M75.428 142.483h14.625v15.703H75.428z" style="opacity:.82999998;fill:#fff;fill-opacity:1;stroke:red;stroke-width:.10081887;stroke-miterlimit:4;stroke-dasharray:none;stroke-opacity:1"/></clipPath><clipPath id="m" clipPathUnits="userSpaceOnUse"><path d="M75.428 142.483h14.625v15.703H75.428z" style="opacity:.82999998;fill:#fff;fill-opacity:1;stroke:red;stroke-width:.10081887;stroke-miterlimit:4;stroke-dasharray:none;stroke-opacity:1"/></clipPath><clipPath id="l" clipPathUnits="userSpaceOnUse"><path d="M75.428 142.483h14.625v15.703H75.428z" style="opacity:.82999998;fill:#fff;fill-opacity:1;stroke:red;stroke-width:.10081887;stroke-miterlimit:4;stroke-dasharray:none;stroke-opacity:1"/></clipPath><clipPath id="k" clipPathUnits="userSpaceOnUse"><path d="M75.428 142.483h14.625v15.703H75.428z" style="opacity:.82999998;fill:#fff;fill-opacity:1;stroke:red;stroke-width:.10081887;stroke-miterlimit:4;stroke-dasharray:none;stroke-opacity:1"/></clipPath><clipPath id="j" clipPathUnits="userSpaceOnUse"><path d="M75.428 142.483h14.625v15.703H75.428z" style="opacity:.82999998;fill:#fff;fill-opacity:1;stroke:red;stroke-width:.10081887;stroke-miterlimit:4;stroke-dasharray:none;stroke-opacity:1"/></clipPath><clipPath id="i" clipPathUnits="userSpaceOnUse"><path d="M75.428 142.483h14.625v15.703H75.428z" style="opacity:.82999998;fill:#fff;fill-opacity:1;stroke:red;stroke-width:.10081887;stroke-miterlimit:4;stroke-dasharray:none;stroke-opacity:1"/></clipPath><clipPath id="h" clipPathUnits="userSpaceOnUse"><path d="M75.428 142.483h14.625v15.703H75.428z" style="opacity:.82999998;fill:#fff;fill-opacity:1;stroke:red;stroke-width:.10081887;stroke-miterlimit:4;stroke-dasharray:none;stroke-opacity:1"/></clipPath><clipPath id="g" clipPathUnits="userSpaceOnUse"><path d="M75.428 142.483h14.625v15.703H75.428z" style="opacity:.82999998;fill:#fff;fill-opacity:1;stroke:red;stroke-width:.10081887;stroke-miterlimit:4;stroke-dasharray:none;stroke-opacity:1"/></clipPath><clipPath id="f" clipPathUnits="userSpaceOnUse"><path d="M75.428 142.483h14.625v15.703H75.428z" style="opacity:.82999998;fill:#fff;fill-opacity:1;stroke:red;stroke-width:.10081887;stroke-miterlimit:4;stroke-dasharray:none;stroke-opacity:1"/></clipPath><clipPath id="e" clipPathUnits="userSpaceOnUse"><path d="M75.428 142.483h14.625v15.703H75.428z" style="opacity:.82999998;fill:#fff;fill-opacity:1;stroke:red;stroke-width:.10081887;stroke-miterlimit:4;stroke-dasharray:none;stroke-opacity:1"/></clipPath><clipPath id="d" clipPathUnits="userSpaceOnUse"><path d="M75.428 142.483h14.625v15.703H75.428z" style="opacity:.82999998;fill:#fff;fill-opacity:1;stroke:red;stroke-width:.10081887;stroke-miterlimit:4;stroke-dasharray:none;stroke-opacity:1"/></clipPath><clipPath id="c" clipPathUnits="userSpaceOnUse"><path d="M75.428 142.483h14.625v15.703H75.428z" style="opacity:.82999998;fill:#fff;fill-opacity:1;stroke:red;stroke-width:.10081887;stroke-miterlimit:4;stroke-dasharray:none;stroke-opacity:1"/></clipPath><clipPath id="b" clipPathUnits="userSpaceOnUse"><path d="M75.428 142.483h14.625v15.703H75.428z" style="opacity:.82999998;fill:#fff;fill-opacity:1;stroke:red;stroke-width:.10081887;stroke-miterlimit:4;stroke-dasharray:none;stroke-opacity:1"/></clipPath><clipPath id="a" clipPathUnits="userSpaceOnUse"><path d="M75.428 142.483h14.625v15.703H75.428z" style="opacity:.82999998;fill:#fff;fill-opacity:1;stroke:red;stroke-width:.10081887;stroke-miterlimit:4;stroke-dasharray:none;stroke-opacity:1"/></clipPath></defs><g style="display:inline"><path d="M88.961 145.67h.994v7.352h-.994z" clip-path="url(#d)" data-name="Rectangle 99" style="fill:#040504;stroke:none;stroke-width:.26458332" transform="matrix(1.94229 0 0 1.94229 -71.198 -148.969)"/><path d="M89.954 142.599v2.174h-.993v-1.18H76.55v1.18h-.993v-2.174z" clip-path="url(#e)" data-name="Path 4185" style="fill:#040504;stroke:none;stroke-width:.26458332" transform="matrix(1.94229 0 0 1.94229 -71.198 -148.969)"/><path d="M75.558 145.67h.994v7.352h-.994z" clip-path="url(#f)" data-name="Rectangle 100" style="fill:#040504;stroke:none;stroke-width:.26458332" transform="matrix(1.94229 0 0 1.94229 -71.198 -148.969)"/><path d="M88.96 153.92v.21a1.535 1.535 0 0 1-1.504 1.542q-.197.003-.39-.01a9.282 9.282 0 0 1-.645-.067c-.109-.015-.22-.031-.332-.05a8.281 8.281 0 0 0-1.373-.126h-.096c-.035 0-.07 0-.103.002l-.064.004a.849.849 0 0 0-.087.006l-.075.008-.07.008a2.684 2.684 0 0 0-.306.062h-.001a1.193 1.193 0 0 0-.08.024 1.736 1.736 0 0 0-.312.132c-.036.02-.072.04-.106.062a1.53 1.53 0 0 0-.224.179.815.815 0 0 0-.05.05 1.343 1.343 0 0 0-.109.132.872.872 0 0 0-.047.068 1.385 1.385 0 0 0-.087.147l-.021.044-.02.045-.024.053c-.009.017-.015.038-.022.057-.022.06-.04.121-.056.185a2.136 2.136 0 0 0-.057-.185l-.022-.057a1.003 1.003 0 0 0-.023-.053l-.02-.045a.89.89 0 0 0-.023-.044 1.34 1.34 0 0 0-.086-.147.868.868 0 0 0-.047-.068 1.343 1.343 0 0 0-.109-.132.816.816 0 0 0-.05-.05 1.516 1.516 0 0 0-.224-.18 1.341 1.341 0 0 0-.104-.061 1.738 1.738 0 0 0-.314-.132c-.026-.01-.053-.017-.079-.024a2.672 2.672 0 0 0-.305-.062l-.07-.008-.076-.008-.087-.006-.064-.004-.103-.002h-.096a8.285 8.285 0 0 0-1.373.126 14.088 14.088 0 0 1-.657.09c-.107.012-.214.021-.32.027q-.193.013-.39.01a1.536 1.536 0 0 1-1.505-1.541v-.212h-.994v.38c0 1.5.651 2.62 2.475 2.62a10.208 10.208 0 0 0 1.482-.145 10.073 10.073 0 0 1 1.463-.144 1.413 1.413 0 0 1 .878.25c.265.206.459.572.459 1.212h.884c0-.64.195-1.006.459-1.212a1.413 1.413 0 0 1 .878-.25 10.077 10.077 0 0 1 1.464.144 10.2 10.2 0 0 0 1.481.144c1.824 0 2.475-1.119 2.475-2.619v-.38z" clip-path="url(#g)" data-name="Path 4186" style="fill:#040504;stroke:none;stroke-width:.26458332" transform="matrix(1.94229 0 0 1.94229 -71.198 -148.969)"/></g></svg>