<?xml version="1.0" encoding="UTF-8"?>
<svg width="711px" height="146px" viewBox="0 0 711 146" version="1.1" xmlns="http://www.w3.org/2000/svg" xmlns:xlink="http://www.w3.org/1999/xlink">
    <!-- Generator: Sketch 49.3 (51167) - http://www.bohemiancoding.com/sketch -->
    <title>CA_Dashboard_RevisedLogo</title>
    <desc>Created with Sketch.</desc>
    <defs></defs>
    <g id="Page-3" stroke="none" stroke-width="1" fill="none" fill-rule="evenodd">
        <g id="CA_Dashboard_RevisedLogo" transform="translate(2.000000, 0.000000)">
            <path d="M17.7002,121.2998 L42.1002,121.2998 C42.1002,121.2998 41.7002,93.1998 59.9002,68.0998 L39.9002,54.0998 C40.0002,54.0998 19.6002,80.2998 17.7002,121.2998" id="Fill-1" fill="#E00D1F"></path>
            <path d="M62.1001,65.1001 C62.1001,65.1001 76.7001,41.6001 109.2001,30.3001 L101.9001,7.5001 C101.9001,7.5001 68.1001,16.7001 42.5001,50.6001 L62.1001,65.1001 Z" id="Fill-3" fill="#FF7418"></path>
            <path d="M113,29 C113,29 139.5,18.5 171.8,28.6 L179.3,6.7 C179.3,6.7 143.5,-6.7 105.9,6.7 L113,29 Z" id="Fill-5" fill="#FFB907"></path>
            <path d="M176,29.8999 C176,29.8999 203.6,37.7999 224.1,65.0999 L242.6,52.1999 C242.6,52.1999 221.6,21.0999 183.3,7.9999 L176,29.8999 Z" id="Fill-7" fill="#009543"></path>
            <path d="M226.6001,68.6001 C226.6001,68.6001 243.6001,90.1001 244.1001,121.3001 L266.2001,121.3001 C266.2001,121.3001 267.4001,90.3001 245.0001,55.7001 L226.6001,68.6001 Z" id="Fill-9" fill="#426BD0"></path>
            <polygon id="Fill-11" fill="#354052" points="0.1 127.5 706.1 127.5 706.1 123 0.1 123"></polygon>
            <polygon id="Stroke-13" stroke="#354052" stroke-width="4.001" points="0.1 127.5 706.1 127.5 706.1 123 0.1 123"></polygon>
            <path d="M300.8999,20.7998 C298.7999,20.7998 297.1999,21.5998 295.9999,23.1998 C294.8999,24.7998 294.2999,26.9998 294.2999,29.7998 C294.2999,35.6998 296.4999,38.5998 300.8999,38.5998 C302.6999,38.5998 304.9999,38.0998 307.5999,37.1998 L307.5999,41.8998 C305.3999,42.7998 302.9999,43.1998 300.3999,43.1998 C296.5999,43.1998 293.6999,41.9998 291.5999,39.6998 C289.5999,37.3998 288.5999,34.0998 288.5999,29.6998 C288.5999,26.9998 289.0999,24.5998 290.0999,22.4998 C291.0999,20.3998 292.4999,18.8998 294.3999,17.7998 C296.2999,16.6998 298.3999,16.1998 300.8999,16.1998 C303.4999,16.1998 305.9999,16.7998 308.5999,18.0998 L306.7999,22.5998 C305.7999,22.0998 304.7999,21.6998 303.7999,21.3998 C302.8999,20.8998 301.8999,20.7998 300.8999,20.7998" id="Fill-14" fill="#354052"></path>
            <path d="M323.8999,33.5 L321.7999,33.6 C320.1999,33.6 318.9999,33.9 318.1999,34.5 C317.3999,35.1 316.9999,35.8 316.9999,36.9 C316.9999,38.4 317.8999,39.2 319.6999,39.2 C320.9999,39.2 321.9999,38.8 322.6999,38.1 C323.4999,37.4 323.7999,36.4 323.7999,35.2 L323.7999,33.5 L323.8999,33.5 Z M325.5999,42.8 L324.4999,40.1 L324.3999,40.1 C323.4999,41.3 322.4999,42.1 321.5999,42.5 C320.5999,43 319.3999,43.2 317.7999,43.2 C315.8999,43.2 314.3999,42.6 313.1999,41.5 C312.0999,40.4 311.4999,38.8 311.4999,36.8 C311.4999,34.7 312.1999,33.1 313.6999,32.1 C315.1999,31.1 317.3999,30.5 320.3999,30.4 L323.8999,30.3 L323.8999,29.4 C323.8999,27.4 322.8999,26.3 320.7999,26.3 C319.1999,26.3 317.2999,26.8 315.0999,27.8 L313.2999,24.1 C315.5999,22.9 318.1999,22.3 320.9999,22.3 C323.6999,22.3 325.7999,22.9 327.1999,24.1 C328.5999,25.3 329.3999,27.1 329.3999,29.5 L329.3999,42.9 L325.5999,42.9 L325.5999,42.8 Z" id="Fill-15" fill="#354052"></path>
            <polygon id="Fill-16" fill="#354052" points="335 42.8 340.5 42.8 340.5 14.8 335 14.8"></polygon>
            <path d="M346.2,42.8 L351.7,42.8 L351.7,22.7 L346.2,22.7 L346.2,42.8 Z M346,17.5 C346,15.7 347,14.8 349,14.8 C351,14.8 352,15.7 352,17.5 C352,18.4 351.8,19 351.3,19.5 C350.8,20 350.1,20.2 349.1,20.2 C347,20.2 346,19.3 346,17.5 Z" id="Fill-17" fill="#354052"></path>
            <path d="M368.5996,26.7998 L363.9006,26.7998 L363.9006,42.7998 L358.4006,42.7998 L358.4006,26.7998 L355.4006,26.7998 L355.4006,24.1998 L358.4006,22.6998 L358.4006,21.1998 C358.4006,18.8998 358.9996,17.1998 360.0996,16.1998 C361.2006,15.0998 362.9996,14.5998 365.4996,14.5998 C367.4006,14.5998 369.0996,14.8998 370.4996,15.3998 L369.0996,19.3998 C367.9996,19.0998 366.9996,18.8998 365.9996,18.8998 C365.2006,18.8998 364.7006,19.0998 364.2996,19.5998 C363.9996,20.0998 363.7996,20.6998 363.7996,21.3998 L363.7996,22.6998 L368.4996,22.6998 L368.4996,26.7998 L368.5996,26.7998 Z" id="Fill-18" fill="#354052"></path>
            <path d="M376.0996,32.7002 C376.0996,34.7002 376.4006,36.2002 377.0996,37.2002 C377.7996,38.2002 378.7996,38.7002 380.2996,38.7002 C381.7996,38.7002 382.7996,38.2002 383.4996,37.2002 C384.0996,36.2002 384.4996,34.7002 384.4996,32.7002 C384.4996,30.7002 384.2006,29.2002 383.4996,28.2002 C382.9006,27.2002 381.7996,26.7002 380.2996,26.7002 C378.7996,26.7002 377.7996,27.2002 377.0996,28.2002 C376.4006,29.2002 376.0996,30.7002 376.0996,32.7002 M389.9996,32.7002 C389.9996,36.0002 389.0996,38.5002 387.4006,40.4002 C385.7006,42.2002 383.2996,43.2002 380.2006,43.2002 C378.2996,43.2002 376.5996,42.8002 375.0996,41.9002 C373.5996,41.1002 372.4996,39.8002 371.7006,38.3002 C370.9006,36.7002 370.4996,34.9002 370.4996,32.8002 C370.4996,29.5002 371.4006,27.0002 373.0996,25.1002 C374.7996,23.3002 377.2006,22.4002 380.2996,22.4002 C382.2006,22.4002 383.9006,22.8002 385.4006,23.7002 C386.9006,24.5002 387.9996,25.7002 388.7996,27.3002 C389.5996,28.7002 389.9996,30.6002 389.9996,32.7002" id="Fill-19" fill="#354052"></path>
            <path d="M405.7002,22.2998 C406.4002,22.2998 407.0992,22.3998 407.5992,22.4998 L407.2002,27.5998 C406.8002,27.4998 406.2002,27.3998 405.5992,27.3998 C403.9002,27.3998 402.5002,27.8998 401.5002,28.6998 C400.5002,29.5998 400.0002,30.8998 400.0002,32.4998 L400.0002,42.6998 L394.5002,42.6998 L394.5002,22.5998 L398.7002,22.5998 L399.5002,25.9998 L399.8002,25.9998 C400.4002,24.8998 401.3002,23.9998 402.3002,23.2998 C403.3002,22.5998 404.5002,22.2998 405.7002,22.2998" id="Fill-20" fill="#354052"></path>
            <path d="M429.7998,42.7998 L424.2998,42.7998 L424.2998,30.9998 C424.2998,29.4998 423.9998,28.4998 423.4998,27.6998 C422.9998,26.9998 422.1998,26.5998 420.9998,26.5998 C419.4998,26.5998 418.4008,27.0998 417.6998,28.0998 C416.9998,29.0998 416.6998,30.7998 416.6998,33.1998 L416.6998,42.6998 L411.1998,42.6998 L411.1998,22.5998 L415.4008,22.5998 L416.0998,25.1998 L416.4008,25.1998 C416.9998,24.1998 417.9008,23.4998 418.9008,22.9998 C419.9998,22.4998 421.1998,22.2998 422.5998,22.2998 C424.9008,22.2998 426.6998,22.8998 427.9008,24.1998 C429.0998,25.4998 429.6998,27.2998 429.6998,29.6998 L429.6998,42.7998 L429.7998,42.7998 Z" id="Fill-21" fill="#354052"></path>
            <path d="M435.4,42.8 L440.9,42.8 L440.9,22.7 L435.4,22.7 L435.4,42.8 Z M435.2,17.5 C435.2,15.7 436.2,14.8 438.2,14.8 C440.2,14.8 441.2,15.7 441.2,17.5 C441.2,18.4 441,19 440.5,19.5 C440,20 439.3,20.2 438.3,20.2 C436.2,20.2 435.2,19.3 435.2,17.5 Z" id="Fill-22" fill="#354052"></path>
            <path d="M457.7998,33.5 L455.6998,33.6 C454.0998,33.6 452.9008,33.9 452.0998,34.5 C451.2998,35.1 450.9008,35.8 450.9008,36.9 C450.9008,38.4 451.7998,39.2 453.5998,39.2 C454.9008,39.2 455.9008,38.8 456.5998,38.1 C457.4008,37.4 457.6998,36.4 457.6998,35.2 L457.6998,33.5 L457.7998,33.5 Z M459.4008,42.8 L458.2998,40.1 L458.1998,40.1 C457.2998,41.3 456.2998,42.1 455.4008,42.5 C454.4008,43 453.1998,43.2 451.5998,43.2 C449.6998,43.2 448.1998,42.6 446.9998,41.5 C445.9008,40.4 445.2998,38.8 445.2998,36.8 C445.2998,34.7 445.9998,33.1 447.4998,32.1 C448.9998,31.1 451.1998,30.5 454.1998,30.4 L457.6998,30.3 L457.6998,29.4 C457.6998,27.4 456.6998,26.3 454.5998,26.3 C452.9998,26.3 451.0998,26.8 448.9008,27.8 L447.0998,24.1 C449.4008,22.9 451.9998,22.3 454.7998,22.3 C457.4998,22.3 459.5998,22.9 460.9998,24.1 C462.4008,25.3 463.1998,27.1 463.1998,29.5 L463.1998,42.9 L459.4008,42.9 L459.4008,42.8 Z" id="Fill-23" fill="#354052"></path>
            <path d="M494.4004,35.5 C494.4004,37.9 493.5004,39.7 491.7994,41.1 C490.0994,42.5 487.7004,43.1 484.7004,43.1 C481.9004,43.1 479.4004,42.6 477.2994,41.5 L477.2994,36.3 C479.0994,37.1 480.5994,37.6 481.7994,38 C483.0004,38.3 484.2004,38.5 485.2004,38.5 C486.4004,38.5 487.4004,38.3 488.0004,37.8 C488.7004,37.3 489.0004,36.6 489.0004,35.7 C489.0004,35.2 488.9004,34.7 488.5994,34.3 C488.2994,33.9 487.9004,33.5 487.2994,33.1 C486.7004,32.7 485.5994,32.1 483.9004,31.3 C482.2994,30.5 481.0994,29.8 480.2994,29.1 C479.5004,28.4 478.9004,27.6 478.4004,26.7 C477.9004,25.8 477.7004,24.7 477.7004,23.5 C477.7004,21.2 478.5004,19.4 480.0994,18 C481.7004,16.7 483.9004,16 486.5994,16 C488.0004,16 489.2994,16.2 490.5004,16.5 C491.7004,16.8 493.0004,17.3 494.4004,17.9 L492.5994,22.2 C491.2004,21.6 490.0004,21.2 489.0994,21 C488.2004,20.8 487.2994,20.7 486.4004,20.7 C485.2994,20.7 484.5004,20.9 484.0004,21.4 C483.4004,21.9 483.2004,22.5 483.2004,23.3 C483.2004,23.8 483.2994,24.2 483.5004,24.6 C483.7004,25 484.0994,25.3 484.5994,25.7 C485.0994,26 486.2994,26.7 488.0994,27.5 C490.5994,28.7 492.2004,29.9 493.2004,31 C493.9004,32.3 494.4004,33.8 494.4004,35.5" id="Fill-24" fill="#354052"></path>
            <path d="M506.9004,43.1001 C500.5994,43.1001 497.5004,39.7001 497.5004,32.8001 C497.5004,29.4001 498.2994,26.8001 500.0994,25.0001 C501.9004,23.2001 504.2004,22.3001 507.4004,22.3001 C509.7004,22.3001 511.7994,22.8001 513.7004,23.7001 L512.0994,27.9001 C511.2004,27.6001 510.4004,27.3001 509.7004,27.0001 C509.0004,26.8001 508.2004,26.7001 507.5004,26.7001 C504.7004,26.7001 503.2004,28.7001 503.2004,32.8001 C503.2004,36.7001 504.5994,38.7001 507.5004,38.7001 C508.5994,38.7001 509.5004,38.6001 510.4004,38.3001 C511.2994,38.0001 512.2004,37.6001 513.0994,37.0001 L513.0994,41.7001 C512.2004,42.3001 511.2994,42.7001 510.4004,42.9001 C509.4004,43.0001 508.2004,43.1001 506.9004,43.1001" id="Fill-25" fill="#354052"></path>
            <path d="M536.2002,42.7998 L530.7002,42.7998 L530.7002,30.9998 C530.7002,28.0998 529.5992,26.5998 527.5002,26.5998 C526.0002,26.5998 524.9002,27.0998 524.2002,28.1998 C523.5002,29.2998 523.2002,30.8998 523.2002,33.2998 L523.2002,42.7998 L517.7002,42.7998 L517.7002,14.7998 L523.2002,14.7998 L523.2002,20.4998 C523.2002,20.8998 523.2002,21.9998 523.0992,23.5998 L523.0002,25.1998 L523.3002,25.1998 C524.5002,23.1998 526.5002,22.2998 529.0992,22.2998 C531.5002,22.2998 533.2002,22.8998 534.5002,24.1998 C535.7002,25.4998 536.3002,27.2998 536.3002,29.6998 L536.3002,42.7998 L536.2002,42.7998 Z" id="Fill-26" fill="#354052"></path>
            <path d="M546.2002,32.7002 C546.2002,34.7002 546.5002,36.2002 547.2002,37.2002 C547.9002,38.2002 548.9002,38.7002 550.4002,38.7002 C551.9002,38.7002 552.9002,38.2002 553.5992,37.2002 C554.2002,36.2002 554.5992,34.7002 554.5992,32.7002 C554.5992,30.7002 554.3002,29.2002 553.5992,28.2002 C552.9002,27.2002 551.9002,26.7002 550.4002,26.7002 C548.9002,26.7002 547.9002,27.2002 547.2002,28.2002 C546.5002,29.2002 546.2002,30.7002 546.2002,32.7002 M560.0992,32.7002 C560.0992,36.0002 559.2002,38.5002 557.5002,40.4002 C555.8002,42.2002 553.4002,43.2002 550.3002,43.2002 C548.4002,43.2002 546.7002,42.8002 545.2002,41.9002 C543.7002,41.1002 542.5992,39.8002 541.8002,38.3002 C541.0002,36.7002 540.5992,34.9002 540.5992,32.8002 C540.5992,29.5002 541.5002,27.0002 543.2002,25.1002 C544.9002,23.3002 547.3002,22.4002 550.4002,22.4002 C552.3002,22.4002 554.0002,22.8002 555.5002,23.7002 C557.0002,24.5002 558.0992,25.7002 558.9002,27.3002 C559.7002,28.9002 560.0992,30.6002 560.0992,32.7002" id="Fill-27" fill="#354052"></path>
            <path d="M569,32.7002 C569,34.7002 569.3,36.2002 570,37.2002 C570.7,38.2002 571.7,38.7002 573.2,38.7002 C574.7,38.7002 575.7,38.2002 576.4,37.2002 C577,36.2002 577.4,34.7002 577.4,32.7002 C577.4,30.7002 577.1,29.2002 576.4,28.2002 C575.8,27.2002 574.7,26.7002 573.2,26.7002 C571.7,26.7002 570.7,27.2002 570,28.2002 C569.3,29.2002 569,30.7002 569,32.7002 M582.8,32.7002 C582.8,36.0002 581.9,38.5002 580.2,40.4002 C578.5,42.3002 576.1,43.2002 573,43.2002 C571.1,43.2002 569.4,42.8002 567.9,41.9002 C566.4,41.1002 565.3,39.8002 564.5,38.3002 C563.7,36.7002 563.3,34.9002 563.3,32.8002 C563.3,29.5002 564.2,27.0002 565.9,25.1002 C567.6,23.3002 570,22.4002 573.1,22.4002 C575,22.4002 576.7,22.8002 578.2,23.7002 C579.7,24.5002 580.8,25.7002 581.6,27.3002 C582.4,28.7002 582.8,30.6002 582.8,32.7002" id="Fill-28" fill="#354052"></path>
            <polygon id="Fill-29" fill="#354052" points="587.4 42.8 592.9 42.8 592.9 14.8 587.4 14.8"></polygon>
            <path d="M322.2998,84.0996 C322.2998,77.9006 320.6998,73.0996 317.5998,69.9996 C314.4998,66.7996 309.7998,65.2996 303.5998,65.2996 L295.4998,65.2996 L295.4998,103.5996 L302.2998,103.5996 C308.8998,103.5996 313.8998,101.9996 317.2998,98.7006 C320.5998,95.2996 322.2998,90.4996 322.2998,84.0996 M328.1998,83.9006 C328.1998,91.7996 326.0998,97.9006 321.7998,101.9996 C317.4998,106.2006 311.2998,108.2996 303.2998,108.2996 L289.9998,108.2996 L289.9998,60.3996 L304.6998,60.3996 C312.0998,60.3996 317.8998,62.4996 322.0998,66.5996 C326.0998,70.7006 328.1998,76.4996 328.1998,83.9006" id="Fill-30" fill="#354052"></path>
            <path d="M362,88.0996 L356.4,73.2996 C355.7,71.3996 354.9,69.0996 354.2,66.3996 C353.7,68.4996 353,70.7996 352.1,73.2996 L346.5,88.0996 L362,88.0996 Z M369.7,108.2996 L363.7,93.0996 L344.5,93.0996 L338.6,108.2996 L333,108.2996 L351.9,60.2006 L356.6,60.2006 L375.4,108.2996 L369.7,108.2996 Z" id="Fill-31" fill="#354052"></path>
            <path d="M409.7002,95.5996 C409.7002,99.7996 408.2002,103.0996 405.0992,105.4996 C402.0002,107.9006 397.9002,108.9996 392.5992,108.9996 C386.9002,108.9996 382.5992,108.2996 379.5002,106.7996 L379.5002,101.4006 C381.5002,102.2006 383.5992,102.9006 385.9002,103.4006 C388.2002,103.9006 390.5002,104.0996 392.8002,104.0996 C396.5002,104.0996 399.3002,103.4006 401.2002,101.9996 C403.0992,100.5996 404.0002,98.5996 404.0002,96.0996 C404.0002,94.4006 403.7002,93.0996 403.0002,91.9996 C402.3002,90.9006 401.2002,89.9996 399.7002,89.0996 C398.0992,88.2006 395.8002,87.2006 392.5992,86.0996 C388.0992,84.4996 385.0002,82.5996 383.0002,80.4006 C381.0992,78.2006 380.0992,75.3996 380.0992,71.7996 C380.0992,68.0996 381.5002,65.2006 384.3002,62.9996 C387.0992,60.7996 390.7002,59.7006 395.3002,59.7006 C400.0992,59.7006 404.4002,60.5996 408.4002,62.2996 L406.7002,67.0996 C402.7002,65.3996 398.9002,64.5996 395.2002,64.5996 C392.3002,64.5996 389.9002,65.2006 388.3002,66.4996 C386.5992,67.7996 385.8002,69.4996 385.8002,71.7996 C385.8002,73.4996 386.0992,74.7996 386.7002,75.8996 C387.3002,76.9996 388.3002,77.9006 389.8002,78.7996 C391.3002,79.7006 393.5002,80.7006 396.5002,81.7006 C401.5002,83.4996 405.0002,85.4006 406.9002,87.4996 C408.8002,89.5996 409.7002,92.2996 409.7002,95.5996" id="Fill-32" fill="#354052"></path>
            <polygon id="Fill-33" fill="#354052" points="456.5996 108.2998 450.9996 108.2998 450.9996 85.7998 425.7996 85.7998 425.7996 108.2998 420.2006 108.2998 420.2006 60.3998 425.7996 60.3998 425.7996 80.7998 450.9996 80.7998 450.9996 60.3998 456.5996 60.3998"></polygon>
            <path d="M475.9004,85.5996 L475.9004,103.4996 L485.9004,103.4996 C489.7994,103.4996 492.7004,102.7996 494.5994,101.2996 C496.5994,99.7996 497.5004,97.4996 497.5004,94.2996 C497.5004,91.2996 496.5004,89.0996 494.5004,87.7006 C492.5004,86.2996 489.5004,85.5996 485.4004,85.5996 L475.9004,85.5996 Z M475.9004,80.9006 L485.0994,80.9006 C489.0004,80.9006 491.9004,80.2996 493.5994,78.9996 C495.2994,77.7996 496.2004,75.7006 496.2004,72.7996 C496.2004,70.0996 495.2004,68.2006 493.2994,66.9996 C491.4004,65.7996 488.2994,65.2006 484.0994,65.2006 L475.9004,65.2006 L475.9004,80.9006 Z M470.4004,60.3996 L483.9004,60.3996 C490.2994,60.3996 494.9004,61.2996 497.7004,63.2996 C500.5004,65.2006 502.0004,68.2006 502.0004,72.2996 C502.0004,75.0996 501.2004,77.4996 499.5994,79.2996 C498.0004,81.0996 495.7004,82.2996 492.7004,82.9006 L492.7004,83.2006 C500.0004,84.4006 503.5994,88.2996 503.5994,94.7006 C503.5994,98.9996 502.2004,102.2996 499.2994,104.7006 C496.4004,107.0996 492.4004,108.2996 487.2004,108.2996 L470.5004,108.2996 L470.5004,60.3996 L470.4004,60.3996 Z" id="Fill-34" fill="#354052"></path>
            <path d="M517.9004,84.2998 C517.9004,90.7998 519.2994,95.6998 522.0004,99.0998 C524.7994,102.4998 528.7994,104.0998 534.0004,104.0998 C539.2994,104.0998 543.2994,102.4008 546.0004,99.0998 C548.7004,95.7998 550.0994,90.7998 550.0994,84.2998 C550.0994,77.9008 548.7994,72.9998 546.0994,69.5998 C543.4004,66.2998 539.4004,64.5998 534.0994,64.5998 C528.7994,64.5998 524.7994,66.2998 522.0004,69.5998 C519.2994,72.9998 517.9004,77.9008 517.9004,84.2998 M556.0994,84.2998 C556.0994,91.9998 554.2004,97.9998 550.2994,102.4008 C546.4004,106.7998 541.0004,108.9998 534.0994,108.9998 C527.0004,108.9998 521.5994,106.7998 517.7994,102.4998 C514.0004,98.1998 512.0994,92.0998 512.0994,84.1998 C512.0994,76.3998 514.0004,70.3998 517.9004,66.0998 C521.7004,61.7998 527.2004,59.6998 534.2994,59.6998 C541.2004,59.6998 546.5994,61.8998 550.4004,66.2998 C554.2004,70.5998 556.0994,76.5998 556.0994,84.2998" id="Fill-35" fill="#354052"></path>
            <path d="M589.9004,88.0996 L584.2994,73.2996 C583.5994,71.3996 582.7994,69.0996 582.0994,66.3996 C581.5994,68.4996 580.9004,70.7996 580.0004,73.2996 L574.4004,88.0996 L589.9004,88.0996 Z M597.5994,108.2996 L591.5994,93.0996 L572.4004,93.0996 L566.5004,108.2996 L560.9004,108.2996 L579.7994,60.2006 L584.5004,60.2006 L603.2994,108.2996 L597.5994,108.2996 Z" id="Fill-36" fill="#354052"></path>
            <path d="M616.0996,83.5996 L623.7006,83.5996 C627.5996,83.5996 630.4996,82.7996 632.4006,81.2996 C634.2006,79.7006 635.2006,77.4006 635.2006,74.2996 C635.2006,71.0996 634.2996,68.8996 632.4006,67.4996 C630.4996,66.0996 627.4996,65.3996 623.4006,65.3996 L616.2006,65.3996 L616.2006,83.5996 L616.0996,83.5996 Z M616.0996,88.4006 L616.0996,108.2996 L610.4996,108.2996 L610.4996,60.3996 L623.5996,60.3996 C629.4996,60.3996 633.7996,61.4996 636.5996,63.7996 C639.4006,65.9996 640.7996,69.3996 640.7996,73.9996 C640.7996,80.2996 637.5996,84.5996 631.2006,86.7996 L644.2006,108.2996 L637.5996,108.2996 L625.9996,88.4006 L616.0996,88.4006 Z" id="Fill-37" fill="#354052"></path>
            <path d="M685.0996,84.0996 C685.0996,77.9006 683.4996,73.0996 680.4006,69.9996 C677.2996,66.7996 672.5996,65.2996 666.4006,65.2996 L658.2996,65.2996 L658.2996,103.5996 L665.0996,103.5996 C671.7006,103.5996 676.7006,101.9996 680.0996,98.7006 C683.4006,95.2996 685.0996,90.4996 685.0996,84.0996 M690.9996,83.9006 C690.9996,91.7996 688.9006,97.9006 684.5996,101.9996 C680.2996,106.2006 674.0996,108.2996 666.0996,108.2996 L652.7996,108.2996 L652.7996,60.3996 L667.4996,60.3996 C674.9006,60.3996 680.7006,62.4996 684.9006,66.5996 C688.9006,70.7006 690.9996,76.4996 690.9996,83.9006" id="Fill-38" fill="#354052"></path>
            <path d="M139,107.0996 C148.941,107.0996 157,115.1596 157,125.0996 C157,135.0406 148.941,143.0996 139,143.0996 C129.059,143.0996 121,135.0406 121,125.0996 C121,115.1596 129.059,107.0996 139,107.0996" id="Fill-39" fill="#FFFFFF"></path>
            <path d="M139,107.0996 C148.941,107.0996 157,115.1596 157,125.0996 C157,135.0406 148.941,143.0996 139,143.0996 C129.059,143.0996 121,135.0406 121,125.0996 C121,115.1596 129.059,107.0996 139,107.0996 Z" id="Stroke-40" stroke="#354052" stroke-width="4.001"></path>
            <polygon id="Fill-41" fill="#F7931E" points="135.1021 114.6435 175.4721 62.9365 189.6601 74.0145 149.2901 125.7205"></polygon>
            <path d="M148.1001,127.0996 L145.4001,130.4996 C144.6001,131.4996 143.1001,131.7006 142.1001,130.9006 L131.7001,122.7996 C130.7001,121.9996 130.5001,120.4996 131.3001,119.4006 L134.0001,115.9996 L148.1001,127.0996 Z" id="Fill-42" fill="#354052"></path>
            <path d="M176.7002,61.2998 L190.8002,72.2998 L193.1002,56.0998 C193.2002,55.4998 192.5002,54.8998 191.9002,55.1998 L176.7002,61.2998 Z" id="Fill-43" fill="#354052"></path>
            <polygon id="Fill-44" fill="#FFFFFF" points="137.7241 117.0977 176.8021 67.0467 179.0091 68.7697 139.9311 118.8207"></polygon>
        </g>
    </g>
</svg>