<svg version="1.1" id="Layer_1" xmlns="http://www.w3.org/2000/svg" xmlns:xlink="http://www.w3.org/1999/xlink" x="0px" y="0px"
	 width="100%" viewBox="0 0 756 814" enable-background="new 0 0 756 814" xml:space="preserve">
<path fill="#020302" opacity="1.000000" stroke="none" 
	d="
M1.000000,282.000000 
	C1.000000,188.000000 1.000000,94.500000 1.000000,1.000000 
	C253.000000,1.000000 505.000000,1.000000 757.000000,1.000000 
	C757.000000,272.333344 757.000000,543.666687 757.000000,815.000000 
	C505.000000,815.000000 253.000000,815.000000 1.000000,815.000000 
	C1.000000,637.500000 1.000000,460.000000 1.000000,282.000000 
M268.522919,656.995117 
	C280.433960,657.660828 292.392487,657.869690 304.244720,659.101379 
	C321.280151,660.871582 337.280731,666.201172 351.889587,675.323792 
	C362.338989,681.849060 371.360779,690.009216 378.440125,699.362427 
	C385.143158,693.047363 391.127472,686.577087 397.939758,681.145203 
	C419.663605,663.823486 445.508087,658.202026 472.396332,657.213745 
	C487.430206,656.661072 502.591400,657.799683 517.611450,659.125244 
	C533.731018,660.547852 549.793518,662.807800 565.806396,665.201233 
	C586.736572,668.329468 607.623230,671.561707 628.895203,669.996460 
	C648.281189,668.570068 663.609253,659.786621 675.321472,644.422119 
	C684.944458,631.798401 687.900940,617.060974 687.911194,601.754272 
	C688.027893,427.106781 687.985413,252.459167 687.984863,77.811584 
	C687.984863,71.008781 687.981873,71.004974 681.327942,71.004951 
	C480.183258,71.004272 279.038574,71.004311 77.893883,71.004768 
	C71.006546,71.004784 71.004684,71.007324 71.004669,78.075539 
	C71.004311,255.889435 70.999344,433.703308 71.047707,611.517212 
	C71.048508,614.469849 71.390549,617.498047 72.093132,620.363464 
	C80.536995,654.802490 106.645378,670.465393 138.395935,670.816101 
	C149.418060,670.937805 160.491928,669.252197 171.490387,667.953674 
	C187.078751,666.113098 202.593185,663.639282 218.187241,661.855957 
	C234.606293,659.978210 251.081848,658.594666 268.522919,656.995117 
z"/>
<path fill="#1A1818" opacity="1.000000" stroke="none" 
	d="
M268.027832,656.995117 
	C251.081848,658.594666 234.606293,659.978210 218.187241,661.855957 
	C202.593185,663.639282 187.078751,666.113098 171.490387,667.953674 
	C160.491928,669.252197 149.418060,670.937805 138.395935,670.816101 
	C106.645378,670.465393 80.536995,654.802490 72.093132,620.363464 
	C71.390549,617.498047 71.048508,614.469849 71.047707,611.517212 
	C70.999344,433.703308 71.004311,255.889435 71.004669,78.075539 
	C71.004684,71.007324 71.006546,71.004784 77.893883,71.004768 
	C279.038574,71.004311 480.183258,71.004272 681.327942,71.004951 
	C687.981873,71.004974 687.984863,71.008781 687.984863,77.811584 
	C687.985413,252.459167 688.027893,427.106781 687.911194,601.754272 
	C687.900940,617.060974 684.944458,631.798401 675.321472,644.422119 
	C663.609253,659.786621 648.281189,668.570068 628.895203,669.996460 
	C607.623230,671.561707 586.736572,668.329468 565.806396,665.201233 
	C549.793518,662.807800 533.731018,660.547852 517.611450,659.125244 
	C502.591400,657.799683 487.430206,656.661072 472.396332,657.213745 
	C445.508087,658.202026 419.663605,663.823486 397.939758,681.145203 
	C391.127472,686.577087 385.143158,693.047363 378.440125,699.362427 
	C371.360779,690.009216 362.338989,681.849060 351.889587,675.323792 
	C337.280731,666.201172 321.280151,660.871582 304.244720,659.101379 
	C292.392487,657.869690 280.433960,657.660828 268.027832,656.995117 
M386.095398,87.020233 
	C386.087341,100.781319 386.050049,114.542542 386.111633,128.303314 
	C386.118622,129.861069 386.682343,131.416321 387.069977,133.627228 
	C387.073181,133.847092 387.076416,134.066940 386.817657,135.157745 
	C386.739685,142.711746 386.615234,150.265945 386.648376,157.819458 
	C386.652069,158.667923 387.547638,159.512466 387.854492,160.807983 
	C387.573578,161.195450 387.292664,161.582916 386.396301,162.542297 
	C386.300659,177.783401 386.195618,193.024475 386.146454,208.265732 
	C386.144653,208.827209 386.689453,209.390442 387.053192,210.490555 
	C387.020325,210.847076 386.987457,211.203613 386.701843,212.527390 
	C386.666565,219.803589 386.574738,227.080444 386.660400,234.355194 
	C386.672485,235.381271 387.550842,236.397156 387.859528,237.846619 
	C387.581360,238.209213 387.303192,238.571808 386.406311,239.513885 
	C386.310791,255.098587 386.202423,270.683258 386.158905,286.268097 
	C386.156799,287.017914 386.725677,287.769318 387.034149,288.611023 
	C387.034149,288.611023 386.948547,288.642517 386.723267,289.605011 
	C386.682251,296.881378 386.584778,304.158386 386.664398,311.433441 
	C386.675629,312.461029 387.550446,313.479156 387.886139,314.873840 
	C387.615906,315.161957 387.345673,315.450073 386.431488,316.357239 
	C386.327698,332.159424 386.214172,347.961578 386.158844,363.763916 
	C386.156830,364.342865 386.725311,364.923767 387.069397,365.634308 
	C387.069397,365.634308 386.952698,365.706055 386.739105,366.646484 
	C386.739105,368.277222 386.739105,369.907990 386.739105,372.003510 
	C392.528870,372.003510 398.147339,372.198639 403.739746,371.902588 
	C405.827942,371.792053 407.855438,370.535217 410.456543,370.464874 
	C412.243774,370.640747 414.030548,370.963562 415.818298,370.969269 
	C430.217804,371.015259 444.617462,371.001556 459.373566,371.805908 
	C466.996704,371.871613 474.622467,372.060791 482.240845,371.901459 
	C483.811768,371.868591 485.355530,370.536591 487.458038,370.466583 
	C489.246521,370.641815 491.034515,370.963043 492.823578,370.969177 
	C507.231232,371.018707 521.639099,371.008911 536.403320,371.812103 
	C544.020386,371.875793 551.639954,372.060760 559.252441,371.903564 
	C560.826599,371.871063 562.374512,370.565704 564.488770,370.496185 
	C566.279663,370.661530 568.070068,370.964233 569.861511,370.970551 
	C584.265076,371.021332 598.668762,371.016235 613.432861,371.816162 
	C621.040466,371.878540 628.650574,372.060547 636.253723,371.905334 
	C637.830322,371.873108 639.381287,370.588776 641.507263,370.518707 
	C651.615845,370.660065 661.724487,370.801422 672.406616,371.262970 
	C672.603882,361.632904 672.830261,352.003235 672.949463,342.372192 
	C672.960327,341.496216 672.283630,340.611664 671.902039,339.401031 
	C671.902039,339.401031 672.022827,339.092834 672.338257,338.300812 
	C672.513306,329.616547 672.688293,320.932312 672.962891,311.283295 
	C672.979309,296.676819 673.027954,282.070190 672.964722,267.464081 
	C672.958008,265.915985 672.294800,264.370758 671.910095,262.410614 
	C671.910095,262.410614 672.001404,262.006378 672.318665,261.224609 
	C672.504578,252.558105 672.690491,243.891602 672.973450,234.263123 
	C672.986328,219.674911 673.031067,205.086578 672.965210,190.498718 
	C672.958252,188.953888 672.302246,187.412003 671.916016,185.409042 
	C671.916016,185.409042 671.988953,184.954056 672.305969,184.179276 
	C672.500366,175.520615 672.694763,166.861969 672.985535,157.244064 
	C672.994385,142.669876 673.034790,128.095520 672.965698,113.521713 
	C672.958374,111.978897 672.308350,110.439125 671.915710,108.392143 
	C671.934265,108.224014 671.952820,108.055893 672.294189,107.124947 
	C672.294189,99.916237 672.294189,92.707527 672.294189,84.868050 
	C670.422302,85.232399 668.568481,85.593239 666.123901,86.059555 
	C665.725403,86.026886 665.326904,85.994225 664.355225,85.378410 
	C649.490295,85.277489 634.625488,85.166748 619.760376,85.113564 
	C619.197937,85.111549 618.633606,85.666824 617.468323,86.028786 
	C617.065857,86.027527 616.663452,86.026268 615.798889,85.256325 
	C612.645569,85.192734 609.487000,84.984261 606.340027,85.097382 
	C600.752014,85.298271 595.171082,85.694191 589.034424,86.083389 
	C588.664978,86.042442 588.295593,86.001488 587.353638,85.377525 
	C572.490173,85.276764 557.626831,85.166199 542.763184,85.113106 
	C542.200745,85.111092 541.636414,85.665718 540.460876,86.026062 
	C540.051453,86.025002 539.642090,86.023941 538.769958,85.253822 
	C535.617432,85.190514 532.459717,84.982491 529.313538,85.095711 
	C523.727722,85.296745 518.148987,85.692604 512.020203,86.080818 
	C511.654572,86.040268 511.288910,85.999710 510.351471,85.376396 
	C495.606689,85.255539 480.862000,85.120415 466.116974,85.057167 
	C465.401093,85.054100 464.682495,85.682053 463.387878,86.061920 
	C463.002808,86.049080 462.617767,86.036240 461.779236,85.247375 
	C456.351624,85.182564 450.920837,84.979561 445.497559,85.103577 
	C442.119843,85.180832 438.753448,85.752495 434.658051,86.059265 
	C434.418335,86.028351 434.178589,85.997437 433.363190,85.382668 
	C418.151093,85.282188 402.939026,85.171501 387.726776,85.124710 
	C387.207062,85.123108 386.685394,85.762817 386.095398,87.020233 
M371.686127,669.267578 
	C371.778595,663.206482 372.003448,657.143494 371.913116,651.085083 
	C371.860352,647.549744 371.303436,644.021851 370.891205,640.327271 
	C370.891205,640.327271 371.036743,640.216675 371.160248,639.258667 
	C371.114838,630.801941 371.069427,622.345154 370.899658,613.594666 
	C370.899658,613.594666 370.925110,613.276733 371.536957,612.625488 
	C371.641449,596.834900 371.755524,581.044312 371.812958,565.253540 
	C371.815094,564.666687 371.265228,564.077881 370.890900,563.315857 
	C370.890900,563.315857 371.041443,563.196045 371.141571,562.237366 
	C371.103577,553.805298 371.065582,545.373291 370.994873,536.996338 
	C370.994873,536.996338 371.001740,536.932495 371.671997,536.439209 
	C371.761963,520.650330 371.865784,504.861481 371.896210,489.072479 
	C371.897522,488.372589 371.230377,487.671387 370.372864,486.995300 
	C370.206268,486.978485 370.039642,486.961639 370.245483,486.166290 
	C370.572876,485.282806 371.182007,484.399811 371.183563,483.515717 
	C371.197754,475.526306 371.105621,467.536652 370.911499,459.036591 
	C370.943054,458.686615 370.974609,458.336609 371.617798,457.421143 
	C371.711731,442.138153 371.815674,426.855225 371.859497,411.572083 
	C371.861084,411.013062 371.272827,410.452362 370.921783,409.439789 
	C370.921783,409.439789 370.997864,408.991943 371.115631,408.061401 
	C371.115631,401.100128 371.115631,394.138855 371.115631,386.639984 
	C368.519073,387.180939 366.648834,387.570557 364.644592,388.105530 
	C364.644592,388.105530 364.462860,388.027740 363.709717,387.490417 
	C362.240540,387.326538 360.771637,387.022858 359.302185,387.020325 
	C344.184937,386.994263 329.067627,387.016937 313.020142,387.069519 
	C310.855560,387.071045 308.688049,386.999908 306.526978,387.087860 
	C300.260376,387.342834 293.996368,387.661713 287.628571,388.088409 
	C287.628571,388.088409 287.476532,388.016876 286.730743,387.482758 
	C285.425934,387.321411 284.121368,387.021820 282.816315,387.019867 
	C267.525787,386.997070 252.235199,387.018921 236.015030,387.069824 
	C233.889191,387.071259 231.760498,387.001617 229.638062,387.087494 
	C223.319855,387.343048 217.004105,387.659698 210.142761,388.065674 
	C209.772491,388.048737 209.402206,388.031799 208.458832,387.392853 
	C192.283829,387.273529 176.108810,387.154175 159.005280,387.067108 
	C156.878662,387.068237 154.749222,386.999054 152.625931,387.083679 
	C146.304230,387.335663 139.984924,387.648041 133.128616,388.068878 
	C132.761292,388.050049 132.393967,388.031250 131.455368,387.390991 
	C116.088188,387.390991 100.721008,387.390991 85.068405,387.390991 
	C85.068405,402.680664 85.058365,417.474792 85.106842,432.268768 
	C85.108696,432.833038 85.675369,433.395477 86.033249,434.545074 
	C86.002396,434.933777 85.971542,435.322449 85.560234,436.499573 
	C85.448326,445.201996 85.336411,453.904419 85.106003,463.589325 
	C85.077438,478.159271 85.025772,492.729309 85.062271,507.299103 
	C85.065331,508.521515 85.660942,509.742462 86.029968,511.562073 
	C86.005936,511.959503 85.981903,512.356934 85.586922,513.543152 
	C85.451164,522.256042 85.315414,530.968933 85.086670,540.656189 
	C85.064522,555.464600 85.014053,570.273193 85.066269,585.081299 
	C85.071213,586.482605 85.720573,587.881714 86.099815,589.586487 
	C86.099815,589.586487 85.972687,589.864929 85.635384,590.656128 
	C85.441017,595.436401 84.950577,600.229004 85.148293,604.993042 
	C85.299721,608.641785 86.320328,612.254395 87.036087,616.695251 
	C87.294655,617.974792 87.456711,619.282959 87.826897,620.529297 
	C91.081924,631.488831 97.849571,639.960144 106.959427,647.640015 
	C111.917603,649.777893 116.803047,652.121216 121.881470,653.919617 
	C123.275696,654.413330 125.247368,653.276428 127.014435,653.711609 
	C127.869270,657.736816 130.924088,655.659180 133.059357,655.766602 
	C136.614548,655.945496 140.186737,655.773010 143.751740,655.776855 
	C145.402374,655.778564 147.081985,656.063416 148.698456,655.846802 
	C155.149292,654.982117 161.570892,653.898499 168.022812,653.042969 
	C171.432800,652.590759 174.882919,652.441162 178.527725,652.182434 
	C178.716339,652.071716 178.912552,651.999084 179.046341,652.077209 
	C179.046341,652.077209 178.922272,652.030396 179.809860,652.209473 
	C186.853043,651.212769 193.932114,650.412476 200.924088,649.135376 
	C204.350830,648.509460 207.615875,646.998352 211.085617,646.592285 
	C211.857635,646.973633 212.690582,647.774170 213.392319,647.672119 
	C221.272629,646.526428 229.120544,645.155762 237.004684,644.039917 
	C239.865555,643.634949 242.805161,643.821533 245.699722,643.612305 
	C252.407364,643.127380 259.109467,642.565735 266.767395,642.167236 
	C273.899567,642.325256 281.032257,642.592163 288.163513,642.557983 
	C289.767212,642.550293 291.365906,641.491272 293.157593,641.703064 
	C298.140533,642.803894 303.108063,643.981323 308.109833,644.988647 
	C316.776398,646.734131 325.464233,648.374329 334.383331,650.717712 
	C340.592041,653.153870 346.800751,655.590027 353.177917,658.683899 
	C359.153015,662.392578 365.128082,666.101318 371.686127,669.267578 
M85.999390,272.500000 
	C85.999420,303.490479 86.083618,334.481415 85.903015,365.470856 
	C85.877754,369.806152 86.935799,371.108673 91.429962,371.102081 
	C182.735153,370.967499 274.040619,370.963501 365.345764,371.108612 
	C370.082489,371.116119 371.096466,369.658905 371.090546,365.195435 
	C370.969940,274.056824 370.968628,182.917984 371.093567,91.779396 
	C371.099731,87.270065 370.009064,85.888062 365.319977,85.895325 
	C274.181427,86.036453 183.042557,86.039177 91.904030,85.892197 
	C87.000008,85.884293 85.883797,87.339218 85.896164,92.055206 
	C86.053062,151.869827 85.999397,211.684982 85.999390,272.500000 
M581.357544,652.010559 
	C588.088867,652.786926 594.807373,654.050171 601.554504,654.228760 
	C612.462524,654.517395 623.664917,655.598022 634.251953,653.660889 
	C657.351562,649.434204 672.234436,627.504822 672.128357,605.746704 
	C671.784668,535.268616 671.949890,464.787659 672.107910,394.308258 
	C672.118958,389.388916 671.083618,387.861542 665.848755,387.871765 
	C574.875244,388.049591 483.901215,388.038757 392.927582,387.892792 
	C388.051270,387.884979 386.889862,389.287567 386.897186,394.031891 
	C387.036499,484.339081 386.999146,574.646545 387.007690,664.953918 
	C387.007812,666.355713 387.124115,667.757446 387.184845,669.129333 
	C394.728607,664.597534 401.647919,659.623840 409.226471,656.046814 
	C429.134064,646.650635 450.379150,642.404480 472.313782,642.092102 
	C484.759247,641.914917 497.250549,642.218872 509.661774,643.122314 
	C522.832336,644.080872 535.946838,645.892761 549.059021,647.544250 
	C559.545288,648.864990 569.991455,650.503906 581.357544,652.010559 
z"/>
<path fill="#000000" opacity="1.000000" stroke="none" 
	d="
M85.999390,272.000000 
	C85.999397,211.684982 86.053062,151.869827 85.896164,92.055206 
	C85.883797,87.339218 87.000008,85.884293 91.904030,85.892197 
	C183.042557,86.039177 274.181427,86.036453 365.319977,85.895325 
	C370.009064,85.888062 371.099731,87.270065 371.093567,91.779396 
	C370.968628,182.917984 370.969940,274.056824 371.090546,365.195435 
	C371.096466,369.658905 370.082489,371.116119 365.345764,371.108612 
	C274.040619,370.963501 182.735153,370.967499 91.429962,371.102081 
	C86.935799,371.108673 85.877754,369.806152 85.903015,365.470856 
	C86.083618,334.481415 85.999420,303.490479 85.999390,272.000000 
M147.160736,256.125122 
	C161.286163,295.468140 189.315033,317.468201 230.799026,320.733917 
	C262.763916,323.250244 290.999664,313.913513 313.435120,288.650177 
	C304.330750,280.124207 295.478546,271.834442 286.601227,263.521118 
	C263.962646,289.906860 226.679077,291.152344 203.950211,271.391541 
	C180.539108,251.037613 179.305359,211.184952 201.126373,188.488403 
	C211.630280,177.563049 225.176605,172.271713 240.067474,172.187454 
	C258.227509,172.084686 273.958038,178.808990 286.570221,193.446030 
	C295.638123,184.949753 304.498138,176.648254 314.087738,167.663162 
	C307.119324,161.962387 301.301727,156.483688 294.793152,152.010406 
	C273.365631,137.283432 249.302124,134.692474 224.229782,137.812790 
	C198.474121,141.018143 177.343063,152.650543 161.339554,173.201477 
	C148.143036,190.147842 143.182098,209.914169 143.221756,230.893372 
	C143.237152,239.039963 145.687759,247.181976 147.160736,256.125122 
z"/>
<path fill="#000000" opacity="1.000000" stroke="none" 
	d="
M580.906494,652.006104 
	C569.991455,650.503906 559.545288,648.864990 549.059021,647.544250 
	C535.946838,645.892761 522.832336,644.080872 509.661774,643.122314 
	C497.250549,642.218872 484.759247,641.914917 472.313782,642.092102 
	C450.379150,642.404480 429.134064,646.650635 409.226471,656.046814 
	C401.647919,659.623840 394.728607,664.597534 387.184845,669.129333 
	C387.124115,667.757446 387.007812,666.355713 387.007690,664.953918 
	C386.999146,574.646545 387.036499,484.339081 386.897186,394.031891 
	C386.889862,389.287567 388.051270,387.884979 392.927582,387.892792 
	C483.901215,388.038757 574.875244,388.049591 665.848755,387.871765 
	C671.083618,387.861542 672.118958,389.388916 672.107910,394.308258 
	C671.949890,464.787659 671.784668,535.268616 672.128357,605.746704 
	C672.234436,627.504822 657.351562,649.434204 634.251953,653.660889 
	C623.664917,655.598022 612.462524,654.517395 601.554504,654.228760 
	C594.807373,654.050171 588.088867,652.786926 580.906494,652.006104 
M498.341003,431.784943 
	C485.946686,435.447571 475.704834,442.548431 468.220215,452.861755 
	C459.287537,465.170319 457.137146,479.183868 460.503326,494.069855 
	C462.979584,505.020355 469.100586,513.371094 478.267487,519.555176 
	C490.926575,528.095093 505.588776,531.294678 520.056458,535.044006 
	C529.821350,537.574524 539.591797,540.157532 549.181946,543.265686 
	C557.433533,545.940063 562.058228,552.004150 561.997925,558.621277 
	C561.936218,565.382507 557.243591,570.714172 548.779968,573.565735 
	C533.417358,578.741760 517.908325,577.284973 502.916199,572.854187 
	C491.437805,569.461914 480.591370,563.931396 469.224487,559.253357 
	C465.385162,567.659851 461.203979,577.030212 456.816864,586.303101 
	C455.293762,589.522339 457.018280,590.822021 459.374573,592.187683 
	C474.610168,601.018311 490.744049,607.248718 508.381775,609.055542 
	C529.195190,611.187744 549.830566,611.073059 569.597351,602.949951 
	C590.839844,594.220398 606.018860,574.808533 603.178833,549.020630 
	C601.150391,530.602600 590.503845,519.116516 574.604675,512.657471 
	C561.959839,507.520538 548.280273,504.976257 535.173279,500.915619 
	C525.887390,498.038818 516.347046,495.432587 507.732697,491.092926 
	C498.972412,486.679749 498.631409,476.483704 505.309479,469.109802 
	C512.434875,461.242004 522.061157,460.427368 531.368225,460.195862 
	C547.685120,459.789948 563.223572,463.880432 577.792786,471.382446 
	C579.532654,472.278351 581.314087,473.093323 583.284241,474.046356 
	C586.161377,467.050995 588.874390,460.474548 591.571960,453.891785 
	C596.855835,440.997742 596.762451,441.220642 583.652771,435.976196 
	C565.866150,428.860809 547.561890,425.131653 528.421631,427.083710 
	C518.590881,428.086334 508.850830,429.979523 498.341003,431.784943 
z"/>
<path fill="#020202" opacity="1.000000" stroke="none" 
	d="
M664.928406,85.961555 
	C665.326904,85.994225 665.725403,86.026886 666.360168,86.328354 
	C574.505981,178.719635 482.416504,270.843109 390.311890,362.951416 
	C389.292938,363.970428 388.076782,364.792206 386.952698,365.706055 
	C386.952698,365.706055 387.069397,365.634308 387.034546,365.058899 
	C387.024963,348.235077 387.050201,331.986633 387.075470,315.738190 
	C387.345673,315.450073 387.615906,315.161957 388.149231,314.390381 
	C422.431885,279.860077 456.441864,245.803650 490.473389,211.768768 
	C532.393250,169.844803 574.330994,127.938797 616.260986,86.025009 
	C616.663452,86.026268 617.065857,86.027527 618.230225,85.990829 
	C634.304260,85.955765 649.616333,85.958656 664.928406,85.961555 
z"/>
<path fill="#010101" opacity="1.000000" stroke="none" 
	d="
M364.462860,388.027740 
	C364.462860,388.027740 364.644592,388.105530 364.677185,388.363220 
	C302.907806,450.449615 241.097183,512.269653 179.308105,574.111267 
	C155.066071,598.373840 130.872284,622.684509 106.656532,646.973328 
	C97.849571,639.960144 91.081924,631.488831 87.826897,620.529297 
	C87.456711,619.282959 87.294655,617.974792 87.111404,615.978027 
	C162.875793,539.534424 238.564850,463.808014 314.706543,388.087341 
	C331.593750,388.071320 348.028320,388.049530 364.462860,388.027740 
z"/>
<path fill="#010101" opacity="1.000000" stroke="none" 
	d="
M671.971313,107.887756 
	C671.952820,108.055893 671.934265,108.224014 671.947571,109.124893 
	C672.003235,125.934059 672.027039,142.010483 671.875732,158.367966 
	C602.024902,228.326355 532.349976,298.004517 462.666595,367.674164 
	C461.502899,368.837616 460.235901,369.897736 459.017090,371.006073 
	C444.617462,371.001556 430.217804,371.015259 415.818298,370.969269 
	C414.030548,370.963562 412.243774,370.640747 410.318359,369.832336 
	C496.081665,283.263214 581.981812,197.325363 667.896790,111.402168 
	C669.161560,110.137291 670.609070,109.055168 671.971313,107.887756 
z"/>
<path fill="#010101" opacity="1.000000" stroke="none" 
	d="
M370.997864,408.991943 
	C370.997864,408.991943 370.921783,409.439789 370.973755,410.146057 
	C371.019226,426.563751 371.012695,442.275177 371.006165,457.986633 
	C370.974609,458.336609 370.943054,458.686615 370.661102,459.455536 
	C369.134857,461.188507 367.875305,462.518860 366.580750,463.814209 
	C305.112793,525.320435 243.640564,586.822388 182.180664,648.336609 
	C181.022430,649.495850 180.005249,650.795959 178.922272,652.030396 
	C178.922272,652.030396 179.046341,652.077209 178.898941,652.142334 
	C178.751541,652.207397 178.314926,652.155029 178.314926,652.155029 
	C174.882919,652.441162 171.432800,652.590759 168.022812,653.042969 
	C161.570892,653.898499 155.149292,654.982117 148.698456,655.846802 
	C147.081985,656.063416 145.402374,655.778564 143.751740,655.776855 
	C140.186737,655.773010 136.614548,655.945496 133.059357,655.766602 
	C130.924088,655.659180 127.869270,657.736816 127.117119,652.995972 
	C207.120804,572.351318 287.020416,492.420898 366.934753,412.505219 
	C368.197449,411.242432 369.639526,410.159058 370.997864,408.991943 
z"/>
<path fill="#020202" opacity="1.000000" stroke="none" 
	d="
M386.948547,288.642517 
	C386.948547,288.642517 387.034149,288.611023 386.991669,288.057953 
	C386.974457,271.314728 386.999725,255.124557 387.024994,238.934387 
	C387.303192,238.571808 387.581360,238.209213 388.137756,237.340622 
	C438.688232,186.564041 488.960449,136.293457 539.232666,86.022881 
	C539.642090,86.023941 540.051453,86.025002 541.227600,85.988785 
	C557.304932,85.954521 572.615540,85.957527 587.926147,85.960533 
	C588.295593,86.001488 588.664978,86.042442 589.230347,86.349197 
	C522.822693,153.278778 456.220337,219.943665 389.602631,286.593231 
	C388.818970,287.377319 387.837616,287.963806 386.948547,288.642517 
z"/>
<path fill="#020202" opacity="1.000000" stroke="none" 
	d="
M85.972687,589.864929 
	C85.972687,589.864929 86.099815,589.586487 86.048721,588.931213 
	C85.938904,572.094421 85.880165,555.912903 85.986038,539.445679 
	C136.514923,488.799591 186.879196,438.439148 237.696777,388.084625 
	C254.592239,388.065948 271.034393,388.041412 287.476532,388.016876 
	C287.476532,388.016876 287.628571,388.088409 287.647888,388.350494 
	C221.555984,454.762604 155.446014,520.913879 89.321861,587.050964 
	C88.294807,588.078247 87.092964,588.930847 85.972687,589.864929 
z"/>
<path fill="#010101" opacity="1.000000" stroke="none" 
	d="
M671.988953,184.954056 
	C671.988953,184.954056 671.916016,185.409042 671.946533,186.122162 
	C672.010620,202.933197 672.044250,219.031128 671.908325,235.413223 
	C627.727783,279.698303 583.717957,323.700500 539.698364,367.692932 
	C538.535339,368.855225 537.266418,369.911530 536.046875,371.017242 
	C521.639099,371.008911 507.231232,371.018707 492.823578,370.969177 
	C491.034515,370.963043 489.246521,370.641815 487.319702,369.834320 
	C547.422913,308.949463 607.662659,248.695053 667.918396,188.456635 
	C669.180786,187.194626 670.627991,186.117462 671.988953,184.954056 
z"/>
<path fill="#FCFCFC" opacity="1.000000" stroke="none" 
	d="
M672.132751,107.506348 
	C670.609070,109.055168 669.161560,110.137291 667.896790,111.402168 
	C581.981812,197.325363 496.081665,283.263214 410.045410,369.500458 
	C407.855438,370.535217 405.827942,371.792053 403.739746,371.902588 
	C398.147339,372.198639 392.528870,372.003510 386.739105,372.003510 
	C386.739105,369.907990 386.739105,368.277222 386.845886,366.176270 
	C388.076782,364.792206 389.292938,363.970428 390.311890,362.951416 
	C482.416504,270.843109 574.505981,178.719635 666.655518,86.275620 
	C668.568481,85.593239 670.422302,85.232399 672.294189,84.868050 
	C672.294189,92.707527 672.294189,99.916237 672.132751,107.506348 
z"/>
<path fill="#010101" opacity="1.000000" stroke="none" 
	d="
M265.813782,642.035278 
	C259.109467,642.565735 252.407364,643.127380 245.699722,643.612305 
	C242.805161,643.821533 239.865555,643.634949 237.004684,644.039917 
	C229.120544,645.155762 221.272629,646.526428 213.392319,647.672119 
	C212.690582,647.774170 211.857635,646.973633 211.152664,645.936340 
	C262.887207,593.612671 314.553650,541.943909 366.228912,490.283875 
	C367.392944,489.120148 368.656097,488.055603 369.873047,486.944824 
	C370.039642,486.961639 370.206268,486.978485 370.688538,487.451172 
	C371.003418,504.248871 371.002563,520.590698 371.001740,536.932495 
	C371.001740,536.932495 370.994873,536.996338 370.678894,537.047852 
	C354.372375,553.093262 338.358368,569.063660 322.397369,585.086975 
	C303.512299,604.045898 284.672943,623.050476 265.813782,642.035278 
z"/>
<path fill="#FDFDFD" opacity="1.000000" stroke="none" 
	d="
M371.056763,408.526672 
	C369.639526,410.159058 368.197449,411.242432 366.934753,412.505219 
	C287.020416,492.420898 207.120804,572.351318 127.086929,652.584106 
	C125.247368,653.276428 123.275696,654.413330 121.881470,653.919617 
	C116.803047,652.121216 111.917603,649.777893 106.807983,647.306641 
	C130.872284,622.684509 155.066071,598.373840 179.308105,574.111267 
	C241.097183,512.269653 302.907806,450.449615 364.744202,388.290588 
	C366.648834,387.570557 368.519073,387.180939 371.115631,386.639984 
	C371.115631,394.138855 371.115631,401.100128 371.056763,408.526672 
z"/>
<path fill="#FCFCFC" opacity="1.000000" stroke="none" 
	d="
M386.835907,289.123779 
	C387.837616,287.963806 388.818970,287.377319 389.602631,286.593231 
	C456.220337,219.943665 522.822693,153.278778 589.506714,86.311760 
	C595.171082,85.694191 600.752014,85.298271 606.340027,85.097382 
	C609.487000,84.984261 612.645569,85.192734 616.029907,85.640671 
	C574.330994,127.938797 532.393250,169.844803 490.473389,211.768768 
	C456.441864,245.803650 422.431885,279.860077 388.218933,314.204285 
	C387.550446,313.479156 386.675629,312.461029 386.664398,311.433441 
	C386.584778,304.158386 386.682251,296.881378 386.835907,289.123779 
z"/>
<path fill="#FCFCFC" opacity="1.000000" stroke="none" 
	d="
M85.804039,590.260498 
	C87.092964,588.930847 88.294807,588.078247 89.321861,587.050964 
	C155.446014,520.913879 221.555984,454.762604 287.699280,388.284058 
	C293.996368,387.661713 300.260376,387.342834 306.526978,387.087860 
	C308.688049,386.999908 310.855560,387.071045 313.655579,387.284485 
	C314.278656,387.693542 314.266266,387.887573 314.253906,388.081604 
	C238.564850,463.808014 162.875793,539.534424 87.070534,615.571960 
	C86.320328,612.254395 85.299721,608.641785 85.148293,604.993042 
	C84.950577,600.229004 85.441017,595.436401 85.804039,590.260498 
z"/>
<path fill="#FCFCFC" opacity="1.000000" stroke="none" 
	d="
M672.147461,184.566666 
	C670.627991,186.117462 669.180786,187.194626 667.918396,188.456635 
	C607.662659,248.695053 547.422913,308.949463 487.046570,369.502747 
	C485.355530,370.536591 483.811768,371.868591 482.240845,371.901459 
	C474.622467,372.060791 466.996704,371.871613 459.195312,371.406006 
	C460.235901,369.897736 461.502899,368.837616 462.666595,367.674164 
	C532.349976,298.004517 602.024902,228.326355 672.086060,158.391373 
	C672.471558,158.133728 672.889160,158.203308 672.889160,158.203308 
	C672.694763,166.861969 672.500366,175.520615 672.147461,184.566666 
z"/>
<path fill="#030303" opacity="1.000000" stroke="none" 
	d="
M462.232697,86.023392 
	C462.617767,86.036240 463.002808,86.049080 464.148926,86.031693 
	C480.247711,85.987358 495.585510,85.973251 510.923279,85.959152 
	C511.288910,85.999710 511.654572,86.040268 512.209106,86.346275 
	C477.941345,121.104279 443.502228,155.614365 409.013885,190.075119 
	C401.753571,197.329636 394.312439,204.403198 386.954620,211.560120 
	C386.987457,211.203613 387.020325,210.847076 386.990509,209.758331 
	C386.955780,193.340851 386.983765,177.655609 387.011719,161.970367 
	C387.292664,161.582916 387.573578,161.195450 388.133179,160.293243 
	C413.018829,135.193466 437.625763,110.608429 462.232697,86.023392 
z"/>
<path fill="#020202" opacity="1.000000" stroke="none" 
	d="
M209.031937,388.014893 
	C209.402206,388.031799 209.772491,388.048737 210.380142,388.334808 
	C170.062195,429.169220 129.508652,469.736267 88.940277,510.288483 
	C88.032028,511.196320 86.955750,511.936127 85.957863,512.754333 
	C85.981903,512.356934 86.005936,511.959503 85.999718,510.798340 
	C85.901482,494.244537 85.833488,478.454407 85.937363,462.383789 
	C110.809105,437.425537 135.508972,412.747772 160.664307,388.076721 
	C177.090485,388.060577 193.061218,388.037720 209.031937,388.014893 
z"/>
<path fill="#FDFDFD" opacity="1.000000" stroke="none" 
	d="
M370.059265,486.555542 
	C368.656097,488.055603 367.392944,489.120148 366.228912,490.283875 
	C314.553650,541.943909 262.887207,593.612671 211.086914,645.584167 
	C207.615875,646.998352 204.350830,648.509460 200.924088,649.135376 
	C193.932114,650.412476 186.853043,651.212769 179.366058,652.119934 
	C180.005249,650.795959 181.022430,649.495850 182.180664,648.336609 
	C243.640564,586.822388 305.112793,525.320435 366.580750,463.814209 
	C367.875305,462.518860 369.134857,461.188507 370.727661,459.710785 
	C371.105621,467.536652 371.197754,475.526306 371.183563,483.515717 
	C371.182007,484.399811 370.572876,485.282806 370.059265,486.555542 
z"/>
<path fill="#010101" opacity="1.000000" stroke="none" 
	d="
M672.001404,262.006348 
	C672.001404,262.006378 671.910095,262.410614 671.941956,263.106018 
	C672.016724,279.923187 672.059570,296.044891 671.935425,312.451935 
	C669.285706,315.184540 666.794250,317.623016 664.321594,320.080444 
	C647.236328,337.060791 630.155029,354.045135 613.072449,371.028198 
	C598.668762,371.016235 584.265076,371.021332 569.861511,370.970551 
	C568.070068,370.964233 566.279663,370.661530 564.344971,369.869171 
	C598.776245,334.658691 633.348145,300.072144 667.938721,265.504211 
	C669.199219,264.244476 670.643005,263.168152 672.001404,262.006348 
z"/>
<path fill="#FCFCFC" opacity="1.000000" stroke="none" 
	d="
M85.772385,513.148743 
	C86.955750,511.936127 88.032028,511.196320 88.940277,510.288483 
	C129.508652,469.736267 170.062195,429.169220 210.652466,388.278198 
	C217.004105,387.659698 223.319855,387.343048 229.638062,387.087494 
	C231.760498,387.001617 233.889191,387.071259 236.640747,387.287323 
	C237.258789,387.696136 237.251129,387.887421 237.243469,388.078735 
	C186.879196,438.439148 136.514923,488.799591 85.826797,539.417725 
	C85.502960,539.675354 85.179657,539.681824 85.179657,539.681824 
	C85.315414,530.968933 85.451164,522.256042 85.772385,513.148743 
z"/>
<path fill="#FBFBFB" opacity="1.000000" stroke="none" 
	d="
M386.828247,212.043762 
	C394.312439,204.403198 401.753571,197.329636 409.013885,190.075119 
	C443.502228,155.614365 477.941345,121.104279 512.482605,86.309341 
	C518.148987,85.692604 523.727722,85.296745 529.313538,85.095711 
	C532.459717,84.982491 535.617432,85.190514 539.001343,85.638351 
	C488.960449,136.293457 438.688232,186.564041 388.222107,237.126190 
	C387.550842,236.397156 386.672485,235.381271 386.660400,234.355194 
	C386.574738,227.080444 386.666565,219.803589 386.828247,212.043762 
z"/>
<path fill="#FCFCFC" opacity="1.000000" stroke="none" 
	d="
M672.160034,261.615479 
	C670.643005,263.168152 669.199219,264.244476 667.938721,265.504211 
	C633.348145,300.072144 598.776245,334.658691 564.067871,369.544556 
	C562.374512,370.565704 560.826599,371.871063 559.252441,371.903564 
	C551.639954,372.060760 544.020386,371.875793 536.225098,371.414673 
	C537.266418,369.911530 538.535339,368.855225 539.698364,367.692932 
	C583.717957,323.700500 627.727783,279.698303 672.108276,235.435059 
	C672.477661,235.172714 672.876404,235.225098 672.876404,235.225098 
	C672.690491,243.891602 672.504578,252.558105 672.160034,261.615479 
z"/>
<path fill="#010101" opacity="1.000000" stroke="none" 
	d="
M371.041443,563.196045 
	C371.041443,563.196045 370.890900,563.315857 370.955078,563.917114 
	C370.987885,580.771118 370.956512,597.023926 370.925110,613.276733 
	C370.925110,613.276733 370.899658,613.594666 370.647003,613.872314 
	C358.310608,626.119568 346.226868,638.089172 334.143127,650.058716 
	C325.464233,648.374329 316.776398,646.734131 308.109833,644.988647 
	C303.108063,643.981323 298.140533,642.803894 293.195068,641.005127 
	C317.799957,615.751770 342.362427,591.191406 366.948730,566.654846 
	C368.208649,565.397400 369.672516,564.344299 371.041443,563.196045 
z"/>
<path fill="#FDFDFD" opacity="1.000000" stroke="none" 
	d="
M371.091492,562.716675 
	C369.672516,564.344299 368.208649,565.397400 366.948730,566.654846 
	C342.362427,591.191406 317.799957,615.751770 293.099731,640.611755 
	C291.365906,641.491272 289.767212,642.550293 288.163513,642.557983 
	C281.032257,642.592163 273.899567,642.325256 266.290588,642.101257 
	C284.672943,623.050476 303.512299,604.045898 322.397369,585.086975 
	C338.358368,569.063660 354.372375,553.093262 370.695221,537.020264 
	C371.065582,545.373291 371.103577,553.805298 371.091492,562.716675 
z"/>
<path fill="#F7F7F7" opacity="1.000000" stroke="none" 
	d="
M462.005981,85.635384 
	C437.625763,110.608429 413.018829,135.193466 388.220764,160.068665 
	C387.547638,159.512466 386.652069,158.667923 386.648376,157.819458 
	C386.615234,150.265945 386.739685,142.711746 387.288757,134.648071 
	C391.054657,130.862564 394.372681,127.609718 397.640106,124.306786 
	C410.229523,111.580635 422.802704,98.838463 435.381958,86.102264 
	C438.753448,85.752495 442.119843,85.180832 445.497559,85.103577 
	C450.920837,84.979561 456.351624,85.182564 462.005981,85.635384 
z"/>
<path fill="#FBFBFB" opacity="1.000000" stroke="none" 
	d="
M160.208832,388.070038 
	C135.508972,412.747772 110.809105,437.425537 85.806305,462.330017 
	C85.503365,462.556763 85.224495,462.606842 85.224495,462.606842 
	C85.336411,453.904419 85.448326,445.201996 86.075119,436.056702 
	C96.201981,425.998901 105.849228,416.418854 115.413239,406.756409 
	C121.560410,400.545929 127.585106,394.214233 133.664703,387.936829 
	C139.984924,387.648041 146.304230,387.335663 152.625931,387.083679 
	C154.749222,386.999054 156.878662,387.068237 159.609039,387.290955 
	C160.211487,387.699890 160.210175,387.884949 160.208832,388.070038 
z"/>
<path fill="#FCFCFC" opacity="1.000000" stroke="none" 
	d="
M613.252686,371.422180 
	C630.155029,354.045135 647.236328,337.060791 664.321594,320.080444 
	C666.794250,317.623016 669.285706,315.184540 672.125488,312.474182 
	C672.482483,312.211121 672.863281,312.248047 672.863281,312.248047 
	C672.688293,320.932312 672.513306,329.616547 671.844727,338.731598 
	C661.215454,349.402100 651.079773,359.641846 640.944092,369.881592 
	C639.381287,370.588776 637.830322,371.873108 636.253723,371.905334 
	C628.650574,372.060547 621.040466,371.878540 613.252686,371.422180 
z"/>
<path fill="#030303" opacity="1.000000" stroke="none" 
	d="
M133.396667,388.002869 
	C127.585106,394.214233 121.560410,400.545929 115.413239,406.756409 
	C105.849228,416.418854 96.201981,425.998901 86.265350,435.662506 
	C85.971542,435.322449 86.002396,434.933777 85.999931,433.787781 
	C85.966614,418.157318 85.966614,403.284149 85.966614,388.012421 
	C101.851967,388.012421 116.939308,388.012421 132.026642,388.012421 
	C132.393967,388.031250 132.761292,388.050049 133.396667,388.002869 
z"/>
<path fill="#000000" opacity="1.000000" stroke="none" 
	d="
M435.020020,86.080765 
	C422.802704,98.838463 410.229523,111.580635 397.640106,124.306786 
	C394.372681,127.609718 391.054657,130.862564 387.419739,134.212616 
	C387.076416,134.066940 387.073181,133.847092 387.004028,132.834564 
	C386.933105,116.692635 386.928131,101.343384 387.396484,85.979477 
	C403.226135,85.965393 418.582489,85.965958 433.938843,85.966522 
	C434.178589,85.997437 434.418335,86.028351 435.020020,86.080765 
z"/>
<path fill="#FCFCFC" opacity="1.000000" stroke="none" 
	d="
M334.263245,650.388184 
	C346.226868,638.089172 358.310608,626.119568 370.709167,614.019226 
	C371.069427,622.345154 371.114838,630.801941 370.770325,639.783508 
	C364.590118,646.214294 358.799774,652.120239 353.009430,658.026184 
	C346.800751,655.590027 340.592041,653.153870 334.263245,650.388184 
z"/>
<path fill="#020202" opacity="1.000000" stroke="none" 
	d="
M641.225708,370.200134 
	C651.079773,359.641846 661.215454,349.402100 671.687012,339.127625 
	C672.022827,339.092834 671.902039,339.401031 671.936401,340.066528 
	C671.924866,350.802307 671.878967,360.872559 671.833069,370.942810 
	C661.724487,370.801422 651.615845,370.660065 641.225708,370.200134 
z"/>
<path fill="#030303" opacity="1.000000" stroke="none" 
	d="
M353.093689,658.355042 
	C358.799774,652.120239 364.590118,646.214294 370.708588,640.262512 
	C371.036743,640.216675 370.891205,640.327271 370.956970,640.923706 
	C371.049561,650.950134 371.076355,660.380066 371.103149,669.810059 
	C365.128082,666.101318 359.153015,662.392578 353.093689,658.355042 
z"/>
<path fill="#3E3E3E" opacity="1.000000" stroke="none" 
	d="
M131.740997,387.701721 
	C116.939308,388.012421 101.851967,388.012421 85.966614,388.012421 
	C85.966614,403.284149 85.966614,418.157318 85.972733,433.494659 
	C85.675369,433.395477 85.108696,432.833038 85.106842,432.268768 
	C85.058365,417.474792 85.068405,402.680664 85.068405,387.390991 
	C100.721008,387.390991 116.088188,387.390991 131.740997,387.701721 
z"/>
<path fill="#3E3E3E" opacity="1.000000" stroke="none" 
	d="
M237.696777,388.084625 
	C237.251129,387.887421 237.258789,387.696136 237.105530,387.266907 
	C252.235199,387.018921 267.525787,386.997070 282.816315,387.019867 
	C284.121368,387.021820 285.425934,387.321411 287.103638,387.749817 
	C271.034393,388.041412 254.592239,388.065948 237.696777,388.084625 
z"/>
<path fill="#4F4E4E" opacity="1.000000" stroke="none" 
	d="
M371.336853,536.685852 
	C371.002563,520.590698 371.003418,504.248871 370.939453,487.438934 
	C371.230377,487.671387 371.897522,488.372589 371.896210,489.072479 
	C371.865784,504.861481 371.761963,520.650330 371.336853,536.685852 
z"/>
<path fill="#3E3E3E" opacity="1.000000" stroke="none" 
	d="
M314.706543,388.087341 
	C314.266266,387.887573 314.278656,387.693542 314.120667,387.262756 
	C329.067627,387.016937 344.184937,386.994263 359.302185,387.020325 
	C360.771637,387.022858 362.240540,387.326538 364.086304,387.759094 
	C348.028320,388.049530 331.593750,388.071320 314.706543,388.087341 
z"/>
<path fill="#3E3E3E" opacity="1.000000" stroke="none" 
	d="
M160.664307,388.076721 
	C160.210175,387.884949 160.211487,387.699890 160.073303,387.274841 
	C176.108810,387.154175 192.283829,387.273529 208.745392,387.703857 
	C193.061218,388.037720 177.090485,388.060577 160.664307,388.076721 
z"/>
<path fill="#4F4E4E" opacity="1.000000" stroke="none" 
	d="
M386.753479,316.047729 
	C387.050201,331.986633 387.024963,348.235077 387.013794,364.993622 
	C386.725311,364.923767 386.156830,364.342865 386.158844,363.763916 
	C386.214172,347.961578 386.327698,332.159424 386.753479,316.047729 
z"/>
<path fill="#3E3E3E" opacity="1.000000" stroke="none" 
	d="
M672.913086,311.765686 
	C672.863281,312.248047 672.482483,312.211121 672.292480,312.188873 
	C672.059570,296.044891 672.016724,279.923187 671.954956,263.312805 
	C672.294800,264.370758 672.958008,265.915985 672.964722,267.464081 
	C673.027954,282.070190 672.979309,296.676819 672.913086,311.765686 
z"/>
<path fill="#4F4E4E" opacity="1.000000" stroke="none" 
	d="
M371.231049,612.951111 
	C370.956512,597.023926 370.987885,580.771118 370.995972,564.004150 
	C371.265228,564.077881 371.815094,564.666687 371.812958,565.253540 
	C371.755524,581.044312 371.641449,596.834900 371.231049,612.951111 
z"/>
<path fill="#5D5D5D" opacity="1.000000" stroke="none" 
	d="
M386.715637,239.224136 
	C386.999725,255.124557 386.974457,271.314728 386.988922,288.012451 
	C386.725677,287.769318 386.156799,287.017914 386.158905,286.268097 
	C386.202423,270.683258 386.310791,255.098587 386.715637,239.224136 
z"/>
<path fill="#3E3E3E" opacity="1.000000" stroke="none" 
	d="
M672.924927,234.744110 
	C672.876404,235.225098 672.477661,235.172714 672.277710,235.150879 
	C672.044250,219.031128 672.010620,202.933197 671.962158,186.352020 
	C672.302246,187.412003 672.958252,188.953888 672.965210,190.498718 
	C673.031067,205.086578 672.986328,219.674911 672.924927,234.744110 
z"/>
<path fill="#3E3E3E" opacity="1.000000" stroke="none" 
	d="
M85.133163,540.169006 
	C85.179657,539.681824 85.502960,539.675354 85.662201,539.703369 
	C85.880165,555.912903 85.938904,572.094421 86.034195,588.778870 
	C85.720573,587.881714 85.071213,586.482605 85.066269,585.081299 
	C85.014053,570.273193 85.064522,555.464600 85.133163,540.169006 
z"/>
<path fill="#3E3E3E" opacity="1.000000" stroke="none" 
	d="
M672.937378,157.723694 
	C672.889160,158.203308 672.471558,158.133728 672.261230,158.110321 
	C672.027039,142.010483 672.003235,125.934059 671.967957,109.377792 
	C672.308350,110.439125 672.958374,111.978897 672.965698,113.521713 
	C673.034790,128.095520 672.994385,142.669876 672.937378,157.723694 
z"/>
<path fill="#3E3E3E" opacity="1.000000" stroke="none" 
	d="
M433.651001,85.674591 
	C418.582489,85.965958 403.226135,85.965393 387.206940,86.006577 
	C386.544098,86.048332 386.164642,86.103615 386.164642,86.103615 
	C386.685394,85.762817 387.207062,85.123108 387.726776,85.124710 
	C402.939026,85.171501 418.151093,85.282188 433.651001,85.674591 
z"/>
<path fill="#5D5D5D" opacity="1.000000" stroke="none" 
	d="
M386.704010,162.256332 
	C386.983765,177.655609 386.955780,193.340851 386.953674,209.489471 
	C386.689453,209.390442 386.144653,208.827209 386.146454,208.265732 
	C386.195618,193.024475 386.300659,177.783401 386.704010,162.256332 
z"/>
<path fill="#3E3E3E" opacity="1.000000" stroke="none" 
	d="
M85.165253,463.098083 
	C85.224495,462.606842 85.503365,462.556763 85.634430,462.610535 
	C85.833488,478.454407 85.901482,494.244537 85.975357,510.499359 
	C85.660942,509.742462 85.065331,508.521515 85.062271,507.299103 
	C85.025772,492.729309 85.077438,478.159271 85.165253,463.098083 
z"/>
<path fill="#4F4E4E" opacity="1.000000" stroke="none" 
	d="
M371.311981,457.703888 
	C371.012695,442.275177 371.019226,426.563751 370.992615,410.372375 
	C371.272827,410.452362 371.861084,411.013062 371.859497,411.572083 
	C371.815674,426.855225 371.711731,442.138153 371.311981,457.703888 
z"/>
<path fill="#5D5D5D" opacity="1.000000" stroke="none" 
	d="
M386.130005,86.561920 
	C386.164642,86.103615 386.544098,86.048332 386.733643,86.021233 
	C386.928131,101.343384 386.933105,116.692635 386.962982,132.507309 
	C386.682343,131.416321 386.118622,129.861069 386.111633,128.303314 
	C386.050049,114.542542 386.087341,100.781319 386.130005,86.561920 
z"/>
<path fill="#3E3E3E" opacity="1.000000" stroke="none" 
	d="
M664.641846,85.669983 
	C649.616333,85.958656 634.304260,85.955765 618.531128,85.957642 
	C618.633606,85.666824 619.197937,85.111549 619.760376,85.113564 
	C634.625488,85.166748 649.490295,85.277489 664.641846,85.669983 
z"/>
<path fill="#3E3E3E" opacity="1.000000" stroke="none" 
	d="
M587.639893,85.669029 
	C572.615540,85.957527 557.304932,85.954521 541.533630,85.956223 
	C541.636414,85.665718 542.200745,85.111092 542.763184,85.113106 
	C557.626831,85.166199 572.490173,85.276764 587.639893,85.669029 
z"/>
<path fill="#3E3E3E" opacity="1.000000" stroke="none" 
	d="
M510.637390,85.667770 
	C495.585510,85.973251 480.247711,85.987358 464.437561,86.008804 
	C464.682495,85.682053 465.401093,85.054100 466.116974,85.057167 
	C480.862000,85.120415 495.606689,85.255539 510.637390,85.667770 
z"/>
<path fill="#3E3E3E" opacity="1.000000" stroke="none" 
	d="
M672.119873,371.102905 
	C671.878967,360.872559 671.924866,350.802307 671.948486,340.231567 
	C672.283630,340.611664 672.960327,341.496216 672.949463,342.372192 
	C672.830261,352.003235 672.603882,361.632904 672.119873,371.102905 
z"/>
<path fill="#4F4E4E" opacity="1.000000" stroke="none" 
	d="
M371.394653,669.538818 
	C371.076355,660.380066 371.049561,650.950134 370.998047,641.005371 
	C371.303436,644.021851 371.860352,647.549744 371.913116,651.085083 
	C372.003448,657.143494 371.778595,663.206482 371.394653,669.538818 
z"/>
<path fill="#FDFDFD" opacity="1.000000" stroke="none" 
	d="
M178.421326,652.168701 
	C178.314926,652.155029 178.751541,652.207397 178.933960,652.085999 
	C178.912552,651.999084 178.716339,652.071716 178.421326,652.168701 
z"/>
<path fill="#1A1818" opacity="1.000000" stroke="none" 
	d="
M147.094879,255.725586 
	C145.687759,247.181976 143.237152,239.039963 143.221756,230.893372 
	C143.182098,209.914169 148.143036,190.147842 161.339554,173.201477 
	C177.343063,152.650543 198.474121,141.018143 224.229782,137.812790 
	C249.302124,134.692474 273.365631,137.283432 294.793152,152.010406 
	C301.301727,156.483688 307.119324,161.962387 314.087738,167.663162 
	C304.498138,176.648254 295.638123,184.949753 286.570221,193.446030 
	C273.958038,178.808990 258.227509,172.084686 240.067474,172.187454 
	C225.176605,172.271713 211.630280,177.563049 201.126373,188.488403 
	C179.305359,211.184952 180.539108,251.037613 203.950211,271.391541 
	C226.679077,291.152344 263.962646,289.906860 286.601227,263.521118 
	C295.478546,271.834442 304.330750,280.124207 313.435120,288.650177 
	C290.999664,313.913513 262.763916,323.250244 230.799026,320.733917 
	C189.315033,317.468201 161.286163,295.468140 147.094879,255.725586 
z"/>
<path fill="#1A1818" opacity="1.000000" stroke="none" 
	d="
M498.705383,431.627594 
	C508.850830,429.979523 518.590881,428.086334 528.421631,427.083710 
	C547.561890,425.131653 565.866150,428.860809 583.652771,435.976196 
	C596.762451,441.220642 596.855835,440.997742 591.571960,453.891785 
	C588.874390,460.474548 586.161377,467.050995 583.284241,474.046356 
	C581.314087,473.093323 579.532654,472.278351 577.792786,471.382446 
	C563.223572,463.880432 547.685120,459.789948 531.368225,460.195862 
	C522.061157,460.427368 512.434875,461.242004 505.309479,469.109802 
	C498.631409,476.483704 498.972412,486.679749 507.732697,491.092926 
	C516.347046,495.432587 525.887390,498.038818 535.173279,500.915619 
	C548.280273,504.976257 561.959839,507.520538 574.604675,512.657471 
	C590.503845,519.116516 601.150391,530.602600 603.178833,549.020630 
	C606.018860,574.808533 590.839844,594.220398 569.597351,602.949951 
	C549.830566,611.073059 529.195190,611.187744 508.381775,609.055542 
	C490.744049,607.248718 474.610168,601.018311 459.374573,592.187683 
	C457.018280,590.822021 455.293762,589.522339 456.816864,586.303101 
	C461.203979,577.030212 465.385162,567.659851 469.224487,559.253357 
	C480.591370,563.931396 491.437805,569.461914 502.916199,572.854187 
	C517.908325,577.284973 533.417358,578.741760 548.779968,573.565735 
	C557.243591,570.714172 561.936218,565.382507 561.997925,558.621277 
	C562.058228,552.004150 557.433533,545.940063 549.181946,543.265686 
	C539.591797,540.157532 529.821350,537.574524 520.056458,535.044006 
	C505.588776,531.294678 490.926575,528.095093 478.267487,519.555176 
	C469.100586,513.371094 462.979584,505.020355 460.503326,494.069855 
	C457.137146,479.183868 459.287537,465.170319 468.220215,452.861755 
	C475.704834,442.548431 485.946686,435.447571 498.705383,431.627594 
z"/>
</svg>