<?xml version="1.0" encoding="utf-8"?>
<!-- Generator: Adobe Illustrator 27.4.1, SVG Export Plug-In . SVG Version: 6.00 Build 0)  -->
<svg version="1.1" id="Layer_1" xmlns="http://www.w3.org/2000/svg" xmlns:xlink="http://www.w3.org/1999/xlink" x="0px" y="0px"
	 viewBox="0 0 716.6 716.6" style="enable-background:new 0 0 716.6 716.6;" xml:space="preserve">
<style type="text/css">
	.st0{fill:#FFC713;}
	.st1{fill:#124A83;}
	.st2{fill:#FFFFFF;}
</style>
<g>
	<g>
		<path class="st0" d="M358.3,12.4c191.1,0,345.9,154.9,345.9,345.9c0,191-154.9,345.9-345.9,345.9c-191,0-345.9-154.9-345.9-345.9
			C12.4,167.3,167.3,12.4,358.3,12.4 M358.3,640.9c156.1,0,282.6-126.5,282.6-282.6c0-156.1-126.5-282.6-282.6-282.6
			c-156.1,0-282.6,126.5-282.6,282.6C75.7,514.4,202.2,640.9,358.3,640.9 M358.3,5.3c-47.7,0-93.9,9.3-137.4,27.7
			c-42,17.8-79.8,43.2-112.2,75.6C76.3,141.1,50.8,178.9,33,220.9C14.6,264.4,5.3,310.7,5.3,358.3c0,47.7,9.3,93.9,27.7,137.4
			c17.8,42,43.2,79.8,75.6,112.2c32.4,32.4,70.2,57.9,112.2,75.6c43.5,18.4,89.8,27.7,137.4,27.7c47.7,0,93.9-9.3,137.4-27.7
			c42-17.8,79.8-43.2,112.2-75.6c32.4-32.4,57.9-70.2,75.6-112.2c18.4-43.5,27.7-89.8,27.7-137.4c0-47.7-9.3-93.9-27.7-137.4
			c-17.8-42-43.2-79.8-75.6-112.2C575.5,76.3,537.7,50.8,495.7,33C452.2,14.6,406,5.3,358.3,5.3L358.3,5.3z M358.3,633.8
			c-37.2,0-73.3-7.3-107.2-21.6c-32.8-13.9-62.3-33.7-87.6-59s-45.2-54.8-59-87.6c-14.4-34-21.6-70-21.6-107.2
			c0-37.2,7.3-73.3,21.6-107.2c13.9-32.8,33.7-62.3,59-87.6s54.8-45.2,87.6-59c34-14.4,70-21.6,107.2-21.6
			c37.2,0,73.3,7.3,107.2,21.6c32.8,13.9,62.3,33.7,87.6,59s45.2,54.8,59,87.6c14.4,34,21.6,70,21.6,107.2
			c0,37.2-7.3,73.3-21.6,107.2c-13.9,32.8-33.7,62.3-59,87.6s-54.8,45.2-87.6,59C431.6,626.5,395.5,633.8,358.3,633.8L358.3,633.8z"
			/>
	</g>
	<g>
		<path class="st1" d="M612.2,251.1c-13.9-32.8-33.7-62.3-59-87.6c-25.3-25.3-54.8-45.2-87.6-59c-34-14.4-70-21.6-107.2-21.6
			c-37.2,0-73.3,7.3-107.2,21.6c-32.8,13.9-62.3,33.7-87.6,59c-25.3,25.3-45.2,54.8-59,87.6c-14.4,34-21.6,70-21.6,107.2
			c0,37.2,7.3,73.3,21.6,107.2c13.9,32.8,33.7,62.3,59,87.6s54.8,45.2,87.6,59c34,14.4,70,21.6,107.2,21.6
			c37.2,0,73.3-7.3,107.2-21.6c32.8-13.9,62.3-33.7,87.6-59s45.2-54.8,59-87.6c14.4-34,21.6-70,21.6-107.2
			C633.8,321.1,626.5,285,612.2,251.1z M607.3,463.5c-13.6,32.2-33.1,61.1-57.9,85.9c-24.8,24.8-53.7,44.3-85.9,57.9
			c-33.3,14.1-68.7,21.2-105.2,21.2c-36.5,0-71.9-7.1-105.2-21.2c-32.2-13.6-61.1-33.1-85.9-57.9c-24.8-24.8-44.3-53.7-57.9-85.9
			c-14.1-33.3-21.2-68.7-21.2-105.2c0-36.5,7.1-71.9,21.2-105.2c13.6-32.2,33.1-61.1,57.9-85.9s53.7-44.3,85.9-57.9
			c33.3-14.1,68.7-21.2,105.2-21.2s71.9,7.1,105.2,21.2c32.2,13.6,61.1,33.1,85.9,57.9s44.3,53.7,57.9,85.9
			c14.1,33.3,21.2,68.7,21.2,105.2C628.5,394.8,621.4,430.2,607.3,463.5z"/>
		<path class="st1" d="M688.4,218.8c-18-42.7-43.9-81-76.8-113.9C578.8,72,540.4,46.2,497.8,28.2C453.6,9.5,406.7,0,358.3,0
			C309.9,0,263,9.5,218.8,28.2c-42.7,18-81,43.9-113.9,76.8C72,137.8,46.2,176.2,28.2,218.8C9.5,263,0,309.9,0,358.3
			c0,48.4,9.5,95.3,28.2,139.5c18,42.7,43.9,81,76.8,113.9c32.9,32.9,71.2,58.7,113.9,76.8c44.2,18.7,91.1,28.2,139.5,28.2
			c48.4,0,95.3-9.5,139.5-28.2c42.7-18,81-43.9,113.9-76.8c32.9-32.9,58.7-71.2,76.8-113.9c18.7-44.2,28.2-91.1,28.2-139.5
			C716.6,309.9,707.1,263,688.4,218.8z M683.6,495.7c-17.8,42-43.2,79.8-75.6,112.2c-32.4,32.4-70.2,57.9-112.2,75.6
			c-43.5,18.4-89.8,27.7-137.4,27.7c-47.7,0-93.9-9.3-137.4-27.7c-42-17.8-79.8-43.2-112.2-75.6C76.3,575.5,50.8,537.7,33,495.7
			C14.6,452.2,5.3,406,5.3,358.3c0-47.7,9.3-93.9,27.7-137.4c17.8-42,43.2-79.8,75.6-112.2c32.4-32.4,70.2-57.9,112.2-75.6
			c43.5-18.4,89.8-27.7,137.4-27.7c47.7,0,93.9,9.3,137.4,27.7c42,17.8,79.8,43.2,112.2,75.6c32.4,32.4,57.9,70.2,75.6,112.2
			c18.4,43.5,27.7,89.8,27.7,137.4C711.3,406,702,452.2,683.6,495.7z"/>
		<path class="st1" d="M358.3,12.4c-191,0-345.9,154.9-345.9,345.9c0,191,154.9,345.9,345.9,345.9c191.1,0,345.9-154.9,345.9-345.9
			C704.2,167.3,549.4,12.4,358.3,12.4z M358.3,640.9c-156.1,0-282.6-126.5-282.6-282.6c0-156.1,126.5-282.6,282.6-282.6
			c156.1,0,282.6,126.5,282.6,282.6C640.9,514.4,514.4,640.9,358.3,640.9z"/>
	</g>
	<g>
		<path class="st2" d="M65.1,296.5l3.1,0.5l-4.8,27.3l-3.1-0.5l2.1-11.7l-27.3-4.8l0.7-3.8l27.3,4.8L65.1,296.5z"/>
		<path class="st2" d="M48,348.6l-3.2-0.3l1.5-19.2l-11-0.9l-1.7,21.9l-3.2-0.3l2.1-25.8l30.8,2.5l-2,25.2l-3.2-0.3l1.7-21.3
			l-10.2-0.8L48,348.6z"/>
		<path class="st2" d="M41.1,386.9c-2.7-0.1-5.1-0.9-7.4-3c-3-2.8-3.8-6-4-12c-0.1-4,0.2-8.9,3.8-12.7c2.1-2.2,5.8-4.4,12.1-4.6
			c2.9-0.1,8,0.3,11.9,3.9c4,3.6,4.8,8.4,4.9,12.5c0.1,3.4-0.2,7.9-2.2,11.1c-1.3,2-3.6,4.2-7.5,4.4l-0.1-4c1.7-0.2,3.7-0.8,5.2-3.2
			c1.2-2,1.7-5.1,1.6-8.1c-0.1-3-0.8-6.6-4-9.3c-1.7-1.5-4.7-3.2-9.8-3.1c-4.1,0.1-7.4,1.3-9.5,3.3c-3.1,3-3.3,6.8-3.2,10.1
			c0.1,2.5,0.3,5.4,2.1,7.7c0.8,1,2.6,2.9,6.1,3.1L41.1,386.9z"/>
		<path class="st2" d="M32.4,398.6l-0.5-3.8l30.6-4.3l0.5,3.8l-12.8,1.8l2.8,19.8l12.8-1.8l0.5,3.8l-30.6,4.3l-0.5-3.8l14.6-2.1
			L47,396.6L32.4,398.6z"/>
		<path class="st2" d="M45,459.7l-1.1-4.1l20-26.8l-25.3,6.6l-1-3.8l29.9-7.9l1.1,4.1l-20,26.8l25.3-6.6l1,3.8L45,459.7z"/>
		<path class="st2" d="M78.4,461.3l-29.2,10.1l-1.3-3.7l29.2-10.1L78.4,461.3z"/>
		<path class="st2" d="M73.5,504c-2.5,0.9-5.1,1.1-7.9,0c-3.9-1.4-5.8-4.2-8.2-9.7c-1.6-3.6-3.1-8.3-1.2-13.2
			c1.1-2.8,3.8-6.3,9.5-8.8c2.7-1.2,7.5-2.7,12.5-0.9c5.1,1.8,7.6,5.9,9.2,9.7c1.3,3.1,2.8,7.3,2.1,11.1c-0.5,2.4-1.7,5.2-5.3,6.9
			l-1.6-3.6c1.5-0.8,3.1-2.2,3.6-4.9c0.4-2.3-0.4-5.3-1.6-8.1s-3.3-5.8-7.2-7.2c-2.1-0.7-5.6-1.2-10.3,0.9c-3.8,1.6-6.4,4-7.5,6.7
			c-1.8,4-0.5,7.5,0.8,10.6c1,2.3,2.3,4.9,4.8,6.3c1.1,0.6,3.5,1.7,6.8,0.6L73.5,504z"/>
		<path class="st2" d="M68,514.9l-2.1-3.6l33.9-3.2l2.2,3.8l-19.7,27.7l-2.1-3.6l5.7-8l-8.1-14.1L68,514.9z M87.9,525.3l10.1-13.7
			l-17,1.8L87.9,525.3z"/>
		<path class="st2" d="M98.5,562.2l-13.2-18.6l25.2-17.9l2.2,3.2l-22.5,16l11,15.5L98.5,562.2z"/>
		<path class="st2" d="M107.8,573.7l-2.8-3.1l32.4-10.4l2.9,3.2L127,594.8l-2.8-3.1l3.8-9l-10.9-12L107.8,573.7z M129.5,579.7
			l7-15.5l-16.2,5.4L129.5,579.7z"/>
		<path class="st2" d="M139.2,592.7l-0.1,0.1c-1.3,1.5-2.6,3.6-1.5,6.6c0.8,2.2,3.2,4.6,4.6,5.9c0.6,0.5,3.4,3.1,5.6,3.6
			c2.3,0.6,4.4-0.2,5.7-1.7c1.2-1.3,1.5-2.8,1-4.6c-0.5-1.6-1.6-3.1-3.1-5l-2.8-3.5c-2.1-2.7-4.6-5.5-5-8.3c-0.3-2.3,0.6-4,1.6-5.2
			c2.4-2.7,5.3-3.2,7.8-2.7c2.3,0.4,5,1.9,8,4.6c4.2,3.7,5.4,6.4,5.9,7.8c1.4,3.9-0.1,6.4-1.7,8l-2.9-2.6c0.9-1.1,1.8-2.7,1-5.3
			c-0.7-1.9-2.5-3.9-4.3-5.5c-2.9-2.6-4.8-3.2-5.4-3.4c-2.1-0.5-4.1,0.1-5.3,1.5c-1.2,1.4-1.2,2.7-0.7,4.3c0.5,1.4,1.6,2.9,3.9,5.7
			l2.8,3.5c2.4,3,3.6,5,4,6.9c0.6,2.6-0.3,4.6-1.8,6.4c-1.7,1.9-4.5,3.6-8.5,2.7c-2.9-0.7-5.3-2.6-7.8-4.8c-2.4-2.1-4.7-4.4-5.9-7
			c-2.5-5.2,0.4-9,1.7-10.4l0.2-0.2L139.2,592.7z"/>
		<path class="st2" d="M164.3,614.1l-0.1,0.1c-1.2,1.6-2.2,3.8-0.8,6.7c1,2.1,3.6,4.2,5.2,5.4c0.6,0.5,3.7,2.7,6,3
			c2.4,0.4,4.3-0.6,5.5-2.3c1-1.4,1.2-3,0.5-4.7c-0.6-1.5-1.9-2.9-3.6-4.7l-3.1-3.2c-2.3-2.4-5.1-5-5.8-7.7c-0.6-2.2,0.2-4,1.1-5.3
			c2.1-3,5-3.7,7.5-3.5c2.4,0.2,5.1,1.3,8.5,3.7c4.5,3.2,6.1,5.8,6.7,7.1c1.8,3.8,0.5,6.4-0.8,8.2l-3.2-2.3c0.8-1.2,1.5-2.9,0.4-5.4
			c-0.9-1.8-2.9-3.6-4.8-5c-3.2-2.3-5.1-2.7-5.8-2.8c-2.2-0.3-4.1,0.6-5.1,2c-1.1,1.5-1,2.8-0.2,4.3c0.7,1.3,1.9,2.7,4.4,5.3
			l3.2,3.2c2.7,2.8,4.1,4.6,4.7,6.4c0.9,2.5,0.2,4.6-1.2,6.5c-1.5,2.1-4.1,4.1-8.2,3.5c-2.9-0.4-5.6-2.1-8.3-4
			c-2.6-1.9-5.1-3.9-6.6-6.4c-3-4.9-0.5-9,0.6-10.6l0.2-0.2L164.3,614.1z"/>
		<path class="st2" d="M203.7,615.4l-16.3,26.2l-3.3-2l16.3-26.2L203.7,615.4z"/>
		<path class="st2" d="M201.2,638.7l-0.1,0.2c-0.9,1.8-1.6,4.1,0.2,6.8c1.3,1.9,4.2,3.7,5.9,4.6c0.7,0.4,4.1,2.1,6.3,2.2
			c2.4,0.1,4.2-1.2,5.1-3c0.8-1.6,0.8-3.1-0.1-4.7c-0.8-1.4-2.3-2.6-4.3-4.1l-3.5-2.8c-2.6-2.1-5.8-4.3-6.9-6.9
			c-0.9-2.1-0.4-4,0.3-5.4c1.7-3.2,4.4-4.3,6.9-4.5c2.4-0.1,5.3,0.6,8.9,2.5c4.9,2.6,6.8,4.9,7.6,6.1c2.3,3.5,1.4,6.2,0.3,8.2
			l-3.5-1.8c0.6-1.3,1.1-3.1-0.3-5.4c-1.1-1.7-3.3-3.2-5.5-4.3c-3.5-1.8-5.4-1.9-6.1-2c-2.2,0-3.9,1.1-4.8,2.7
			c-0.8,1.6-0.6,3,0.4,4.3c0.8,1.2,2.2,2.4,5.1,4.6l3.6,2.7c3.1,2.4,4.7,4,5.5,5.7c1.2,2.4,0.9,4.5-0.3,6.6
			c-1.2,2.3-3.5,4.6-7.6,4.6c-2.9,0-5.8-1.3-8.7-2.8c-2.9-1.5-5.6-3.1-7.5-5.4c-3.7-4.4-1.8-8.8-0.8-10.6l0.1-0.2L201.2,638.7z"/>
		<path class="st2" d="M230.9,634l1.2-2.9l25.6,10.6l-1.2,2.9l-11-4.5l-10.6,25.6l-3.6-1.5l10.6-25.6L230.9,634z"/>
		<path class="st2" d="M246.8,670.5l-4-1.3l22.9-25.1l4.2,1.3l4,33.7l-4-1.3l-1.2-9.7l-15.5-4.9L246.8,670.5z M268.6,664.8
			l-1.7-16.9l-11.3,12.8L268.6,664.8z"/>
		<path class="st2" d="M307.7,686.1l-4.2-0.8l-15.3-29.7l-5.1,25.6l-3.8-0.8l6.1-30.3l4.2,0.8l15.3,29.7L310,655l3.8,0.8
			L307.7,686.1z"/>
		<path class="st2" d="M348.9,679.9c-0.3,2.6-1.5,5-3.7,7c-3.1,2.7-6.4,3.2-12.4,2.7c-4-0.3-8.8-1.1-12.2-5.1
			c-2-2.3-3.8-6.3-3.3-12.5c0.2-2.9,1.2-7.9,5.1-11.5c4-3.6,8.8-3.9,12.9-3.6c3.3,0.3,7.8,1,10.7,3.4c1.9,1.5,3.8,4,3.6,7.9l-4-0.3
			c0-1.7-0.5-3.8-2.7-5.5c-1.8-1.4-4.9-2.2-7.9-2.4s-6.6,0.1-9.7,3c-1.6,1.5-3.7,4.4-4.1,9.5c-0.3,4.1,0.5,7.5,2.3,9.8
			c2.6,3.4,6.4,4,9.7,4.3c2.5,0.2,5.4,0.3,7.8-1.2c1.1-0.7,3.1-2.3,3.7-5.7L348.9,679.9z"/>
		<path class="st2" d="M378.2,671.7l0.1,3.2l-19.3,0.5l0.3,11.1l22-0.6l0.1,3.2l-25.9,0.7l-0.8-30.9l25.2-0.7l0.1,3.2l-21.4,0.6
			l0.3,10.3L378.2,671.7z"/>
		<path class="st2" d="M419.5,670.5c0.1,1.5,0.2,4.3-1.3,7.2l7.4,5.4l-4.3,0.7l-4.6-3.3c-1,2-2.4,3.5-3.9,4.5
			c-2,1.3-4.4,1.8-6.3,2.1c-2.3,0.4-5.7,0.7-8.5-0.8c-2.4-1.2-3.8-3.2-4.2-6.2c-0.4-2.3-0.1-4.3,1.5-6.5c1.6-2.3,4.1-3.8,6.1-4.7
			c-3.7-2.3-4.6-4.6-4.9-6.1c-0.3-1.9,0-3.7,1.6-5.2c1.6-1.6,3.6-2,5.3-2.3c1.6-0.3,3.9-0.3,5.6,0.6c1.3,0.7,2.6,2.2,3,4.4
			c0.3,1.8-0.2,3.4-1.3,4.8c-1,1.4-2.9,2.8-4.6,3.7l9.6,7.2c0.5-1.5,0.7-3.2,0.5-4.9L419.5,670.5z M403.4,670.5
			c-1.6,0.8-3.8,2.2-4.8,3.6c-0.9,1.2-1.6,2.8-1.3,5c0.4,2.2,1.7,3.7,3,4.4c1.1,0.6,3,1,6.1,0.6c1.9-0.3,3.3-0.8,4.8-1.9
			c1.6-1.2,2.6-2.6,3.1-3.4L403.4,670.5z M407.5,664.5c1.4-1.6,1.2-3.1,1.1-3.8c-0.2-1.4-1-2.1-1.6-2.4c-0.9-0.5-2.1-0.7-3.3-0.5
			c-1.2,0.2-2.4,0.7-3.1,1.5c-0.7,0.7-1,1.9-0.9,3c0.2,1.3,1.1,2.2,1.8,2.8c0.7,0.6,1.8,1.5,2.5,2
			C405.4,666.5,406.8,665.4,407.5,664.5z"/>
		<path class="st2" d="M431.6,649.9l15.1-4.6c2.4-0.7,6.5-2.1,9.7-0.9c2.7,1,3.8,3.3,4.4,5.1c0.4,1.4,0.8,3.6-0.2,5.7
			c-1.1,2.2-3.4,3.4-3.7,3.5l0,0.1c1.3-0.2,2.9,0,4.1,0.7c1.8,1,2.3,2.7,2.8,4l1.4,3.9c0.5,1.4,0.9,2.5,2.5,3.7l-4.1,1.2
			c-1.2-1.1-1.7-2.1-2.2-3.6l-1.2-3.4c-0.4-1.1-1-2.8-2.6-3.7c-1.8-0.9-4.2-0.3-5.8,0.2l-11.4,3.5l3.9,12.9l-3.7,1.1L431.6,649.9z
			 M439.5,662.4l11.6-3.5c1.9-0.6,4.1-1.6,5.2-3.3c1.2-1.7,1-3.3,0.6-4.7c-0.5-1.5-1.3-3.1-3.5-3.6c-1.3-0.3-3,0-6.4,1l-10.8,3.3
			L439.5,662.4z"/>
		<path class="st2" d="M489.8,643.2l1.2,2.9l-17.8,7.5l4.3,10.2l20.2-8.6l1.2,2.9l-23.8,10.1l-12-28.4l23.2-9.8l1.2,2.9l-19.7,8.3
			l4,9.5L489.8,643.2z"/>
		<path class="st2" d="M502.2,621.4c3.6-2,7-3.2,10-2.4c2.5,0.7,4.1,2.5,5.2,4.5c0.7,1.4,1.9,3.9,1.1,6.8c-1,3.5-4.6,5.7-7.8,7.5
			l-8.8,4.8l6,10.9l-3.4,1.9l-14.8-27.1L502.2,621.4z M500.4,639.8l8.3-4.5c2.7-1.5,5.2-3.1,5.8-5.5c0.3-1.2,0.2-2.7-0.7-4.3
			c-1-1.8-2.3-2.6-3.5-2.8c-2.3-0.5-4.9,0.7-7.4,2.1l-8.3,4.5L500.4,639.8z"/>
		<path class="st2" d="M555.7,619.1c-0.6,3.2-2.5,7.4-7.9,11.2c-5.4,3.8-9.9,4.3-13.2,3.8c-3-0.4-7-2-10.5-7
			c-3.5-5-3.7-9.3-3.1-12.3c0.6-3.3,2.5-7.4,7.9-11.2c5.4-3.8,9.9-4.3,13.2-3.8c3,0.4,7,2,10.5,7
			C556.1,611.8,556.3,616.1,555.7,619.1z M524.8,614.3c-0.5,2.5-0.2,6.3,2.7,10.3c2.9,4.1,6.3,5.6,8.9,5.9c2.9,0.4,6.2-0.3,9.7-2.8
			s5.3-5.3,5.9-8.2c0.5-2.5,0.2-6.3-2.7-10.3c-2.9-4.1-6.3-5.6-8.9-5.9c-2.9-0.4-6.2,0.3-9.7,2.8
			C527.2,608.5,525.4,611.4,524.8,614.3z"/>
		<path class="st2" d="M547.2,591l11.7-10.6c1.9-1.7,5-4.7,8.4-4.9c2.9-0.2,4.9,1.4,6.1,2.7c1,1.1,2.3,2.9,2.2,5.3
			c-0.1,2.5-1.6,4.5-1.9,4.8l0.1,0.1c1.1-0.7,2.6-1.2,4-1.1c2.1,0.2,3.3,1.4,4.3,2.4l3,3c1,1,1.9,1.8,3.8,2.2l-3.1,2.8
			c-1.5-0.5-2.4-1.1-3.6-2.3l-2.6-2.6c-0.8-0.9-2.1-2.2-3.9-2.2c-2-0.1-3.9,1.5-5.1,2.6l-8.8,8l9.1,10l-2.9,2.6L547.2,591z
			 M559.7,599l9-8.1c1.5-1.4,3-3.2,3.3-5.2c0.4-2-0.5-3.4-1.4-4.5c-1.1-1.2-2.5-2.3-4.7-1.8c-1.3,0.3-2.7,1.3-5.4,3.7l-8.4,7.6
			L559.7,599z"/>
		<path class="st2" d="M571.3,573.3l-2.4-2.1l18.6-20.5l2.4,2.1l-8,8.8l20.6,18.6l-2.6,2.9l-20.5-18.6L571.3,573.3z"/>
		<path class="st2" d="M591.3,545.5l24.1,19.3l-2.4,3l-24.1-19.3L591.3,545.5z"/>
		<path class="st2" d="M637.2,534.2l-2.4,3.5l-33.3,2.6l21.6,14.7l-2.2,3.2l-25.5-17.4l2.4-3.5l33.3-2.5l-21.6-14.7l2.2-3.2
			L637.2,534.2z"/>
		<path class="st2" d="M642.7,490.8l14,7.2l-1.5,2.9l-5.1-2.6l-0.1,0.1c1.7,2.2,2.3,4.7,2.3,6.5c0,3-1.4,6-2.6,8.2
			c-1.7,3.4-4.4,7.5-9.5,9c-2.6,0.8-7,1.1-12.5-1.8c-5.6-2.9-7.8-6.8-8.7-9.7c-1.6-5.3,0.2-9.8,2-13.3c1.6-3,3.9-6.7,7.6-8.6
			c3.2-1.6,5.9-1.3,8.2-0.3L635,492c-2.6-0.9-4.7-0.3-6.2,0.6c-2.2,1.3-3.9,3.9-5,6c-1.4,2.7-2.7,6.3-1.5,10.1c1,3.1,3.5,6,7.4,8
			c3.8,2,7.5,2.3,10.4,1.4c4-1.3,5.9-4.5,7.1-6.8c1.1-2.1,2.8-5.8,1.6-9.6c-0.8-2.4-2.9-4.8-5.4-6.2l-5.3,10.2l-2.6-1.3L642.7,490.8
			z"/>
		<path class="st2" d="M655.1,476.1l0.2,0.1c1.9,0.7,4.3,1,6.7-1.2c1.7-1.6,3-4.7,3.7-6.5c0.3-0.7,1.5-4.3,1.2-6.6
			c-0.3-2.4-1.8-4-3.7-4.6c-1.7-0.6-3.2-0.3-4.6,0.8c-1.3,1-2.2,2.7-3.5,4.8l-2.2,3.9c-1.7,2.9-3.4,6.3-5.8,7.8
			c-2,1.2-3.9,1-5.4,0.5c-3.5-1.2-5-3.7-5.5-6.2c-0.5-2.3-0.2-5.3,1.2-9.2c1.8-5.2,3.8-7.5,4.9-8.4c3.1-2.7,5.9-2.3,8.1-1.5
			l-1.3,3.7c-1.3-0.4-3.2-0.7-5.2,1.1c-1.5,1.3-2.7,3.8-3.5,6c-1.3,3.7-1.1,5.6-1,6.3c0.3,2.2,1.7,3.7,3.4,4.3c1.7,0.6,3,0.1,4.2-1
			c1.1-1,2.1-2.6,3.8-5.8l2.2-4c1.9-3.4,3.3-5.3,4.8-6.3c2.2-1.5,4.4-1.5,6.6-0.7c2.4,0.8,5.1,2.7,5.7,6.8c0.4,2.9-0.4,5.9-1.5,9.1
			c-1.1,3-2.3,6-4.2,8.2c-3.8,4.3-8.4,3-10.3,2.4l-0.2-0.1L655.1,476.1z"/>
		<path class="st2" d="M649,421.7l1.1-4.4l14.1,17l12.8,3.1l-0.9,3.8l-12.8-3.1l-20.3,8.7l1.1-4.5l16.9-6.8L649,421.7z"/>
		<path class="st2" d="M671.4,416.9l0.2,0c2,0.3,4.4,0.2,6.3-2.5c1.4-1.9,2.1-5.2,2.3-7.1c0.1-0.8,0.6-4.5-0.1-6.7
			c-0.7-2.3-2.6-3.5-4.5-3.8c-1.8-0.2-3.2,0.3-4.4,1.7c-1.1,1.3-1.7,3.1-2.5,5.4l-1.4,4.3c-1.1,3.2-2.1,6.9-4.1,8.8
			c-1.7,1.5-3.6,1.7-5.2,1.5c-3.6-0.5-5.6-2.7-6.6-5c-0.9-2.2-1.2-5.2-0.6-9.2c0.8-5.5,2.3-8.1,3.2-9.2c2.5-3.3,5.4-3.4,7.6-3.1
			l-0.5,3.9c-1.4-0.2-3.3,0-4.9,2.1c-1.2,1.6-1.9,4.2-2.2,6.6c-0.5,3.9,0,5.7,0.2,6.4c0.7,2.1,2.4,3.3,4.2,3.6
			c1.8,0.3,3-0.5,3.9-1.8c0.9-1.2,1.5-2.9,2.6-6.4l1.4-4.3c1.2-3.7,2.2-5.8,3.5-7.1c1.8-1.9,4-2.3,6.3-2c2.5,0.4,5.5,1.7,6.9,5.6
			c1,2.8,0.8,5.9,0.3,9.2c-0.4,3.2-1.1,6.3-2.5,8.8c-2.9,5-7.7,4.6-9.7,4.3l-0.3,0L671.4,416.9z"/>
		<path class="st2" d="M657,390.4l-3.2-0.2l1.3-27.6l3.2,0.2l-0.6,11.9l27.7,1.3l-0.2,3.9l-27.6-1.3L657,390.4z"/>
		<path class="st2" d="M667.5,336.6l3.2-0.1l0.8,19.3l11.1-0.5l-1-22l3.2-0.1l1.1,25.8l-30.9,1.4l-1.1-25.2l3.2-0.1l0.9,21.3
			l10.3-0.5L667.5,336.6z"/>
		<path class="st2" d="M657.2,327.1l0,0.2l1.5-0.4l24.9-4.1l0.6,3.8l-30.5,5l-0.9-5.6l24.4-16.6l-28.4-7.9l-0.9-5.6l30.5-5l0.6,3.8
			l-24.9,4.1l-1.6,0.1l0,0.2l28.5,8l0.5,3.3L657.2,327.1z"/>
	</g>
	<g>
		<path class="st2" d="M75,237.7l0.2,0.1c2.2,1.1,5.1,1.9,8.5-0.5c2.4-1.7,4.5-5.4,5.5-7.5c0.4-0.9,2.5-5.2,2.5-8
			c0-3-1.7-5.2-3.9-6.3c-2-1-3.9-0.9-5.9,0.3c-1.8,1.1-3.2,3-5,5.5l-3.3,4.5c-2.5,3.4-5.1,7.4-8.3,8.8c-2.6,1.2-5,0.6-6.8-0.2
			c-4.1-2-5.6-5.4-5.9-8.5c-0.3-3,0.6-6.6,2.8-11.2c3.1-6.2,5.9-8.7,7.3-9.7c4.3-2.9,7.7-2,10.2-0.7l-2.2,4.4
			c-1.6-0.7-3.9-1.3-6.7,0.6c-2.1,1.4-3.9,4.3-5.2,7c-2.2,4.4-2.2,6.8-2.2,7.7c0.1,2.7,1.5,4.9,3.6,5.9c2,1,3.7,0.6,5.3-0.6
			c1.5-1.1,2.9-2.9,5.6-6.6l3.3-4.6c2.9-3.9,4.9-6,6.9-7.1c2.9-1.6,5.6-1.2,8.3,0.1c2.9,1.4,5.9,4.2,6,9.4c0.1,3.7-1.4,7.3-3.2,11
			c-1.8,3.6-3.7,7.1-6.4,9.5c-5.4,4.8-10.9,2.5-13.2,1.4l-0.3-0.1L75,237.7z"/>
		<path class="st2" d="M100,174.8l3.3,2.2L90,197.2l11.6,7.6l15.1-22.9l3.3,2.2l-17.8,27L70,189.8l17.3-26.4l3.3,2.2L76,187.9
			l10.7,7.1L100,174.8z"/>
		<path class="st2" d="M124.7,144.8l3,2.6l-15.6,18.4l10.6,9l17.8-20.9l3,2.6L122.6,181l-29.4-25l20.4-24l3,2.6l-17.3,20.3l9.8,8.3
			L124.7,144.8z"/>
		<path class="st2" d="M131.2,115.1c4.5-4.1,9.8-8.1,16.6-7.8c5.9,0.3,10.2,3.7,12.9,6.8c2.8,3.1,6.1,7.9,5.7,13.9
			c-0.4,7-5.9,12.5-11,17.1l-9.3,8.4L120.2,125L131.2,115.1z M147.1,147.4l6.1-5.5c3.8-3.4,7.9-7.5,8.3-13.1
			c0.4-4.9-2.2-8.6-4.5-11.1c-2-2.2-5.5-5.4-10.6-5.5c-5.3-0.2-9.5,3-13.7,6.9l-6.2,5.6L147.1,147.4z"/>
		<path class="st2" d="M173.7,113.8l0.1,0.2c1.4,2.1,3.5,4.2,7.6,3.8c2.9-0.3,6.5-2.5,8.5-3.8c0.8-0.6,4.7-3.2,6.1-5.7
			c1.5-2.6,1.1-5.4-0.3-7.4c-1.2-1.8-3-2.7-5.3-2.6c-2.1,0.1-4.2,1-7.1,2.3l-5.1,2.3c-3.9,1.7-8.1,3.9-11.6,3.6
			c-2.8-0.3-4.6-1.9-5.8-3.6c-2.6-3.8-2.2-7.4-0.9-10.3c1.2-2.7,3.8-5.4,8-8.3c5.7-3.9,9.4-4.7,11.2-4.8c5.2-0.5,7.7,2.1,9.2,4.4
			l-4.1,2.8c-1-1.4-2.8-3.1-6.1-2.8c-2.5,0.2-5.5,1.8-8,3.5c-4.1,2.8-5.3,4.8-5.7,5.6c-1.3,2.4-1.1,5,0.2,6.9c1.3,1.9,2.9,2.3,5,2.1
			c1.9-0.2,4-1,8.1-2.9l5.1-2.4c4.4-2,7.2-2.8,9.5-2.8c3.3,0.1,5.5,1.7,7.2,4.2c1.8,2.6,3.1,6.5,0.6,11.1c-1.7,3.2-4.8,5.7-8.2,8
			c-3.3,2.3-6.7,4.3-10.3,5.1c-7.1,1.5-10.7-3.2-12.1-5.3l-0.2-0.3L173.7,113.8z"/>
		<path class="st2" d="M251.7,79.6c-1.6,3.8-4.9,8.4-12.5,11.7c-7.6,3.3-13.2,2.7-17.1,1.3c-3.5-1.3-8.1-4.3-11.2-11.2
			c-3.1-7-2.2-12.4-0.8-15.8c1.6-3.8,4.9-8.4,12.5-11.7c7.6-3.3,13.2-2.7,17.1-1.3c3.5,1.3,8.1,4.3,11.2,11.2
			C254,70.8,253.1,76.2,251.7,79.6z M215,66c-1.2,3-1.8,7.6,0.7,13.3c2.5,5.7,6.4,8.4,9.4,9.5c3.5,1.2,7.7,1.1,12.6-1
			c4.9-2.2,7.8-5.2,9.2-8.6c1.2-3,1.8-7.6-0.7-13.3c-2.5-5.7-6.4-8.4-9.4-9.5c-3.5-1.2-7.7-1.1-12.6,1S216.4,62.6,215,66z"/>
		<path class="st2" d="M284.3,51.9l1.1,3.8l-21,5.9l4.8,17l-4.7,1.3l-10.5-37.2l28.6-8.1l1.1,3.8l-23.9,6.8l3.6,12.5L284.3,51.9z"/>
		<path class="st2" d="M320.8,28.7c5-0.6,9.6-0.4,12.7,1.9c2.6,2,3.6,4.9,3.9,7.6c0.2,1.9,0.4,5.4-1.8,8.4c-2.7,3.5-8,4.5-12.5,5
			l-12.4,1.5l1.8,15.5l-4.8,0.6L303,30.8L320.8,28.7z M310.1,49.1l11.7-1.4c3.9-0.5,7.5-1.2,9.3-3.6c0.9-1.2,1.5-3,1.2-5.3
			c-0.3-2.6-1.5-4-2.7-4.9c-2.4-1.7-6.1-1.5-9.6-1.1l-11.7,1.4L310.1,49.1z"/>
		<path class="st2" d="M341.7,65.5l-5.2,0.1l17.1-38.9l5.5-0.1l18.3,38.3l-5.2,0.1L366.8,54l-20.3,0.3L341.7,65.5z M365.1,50.1
			l-8.8-19.4L348,50.4L365.1,50.1z"/>
		<path class="st2" d="M385.2,27.3l19.6,2.6c3.1,0.4,8.5,1,11.4,4c2.5,2.6,2.6,5.7,2.3,8c-0.2,1.9-0.9,4.5-3.2,6.4
			c-2.4,2-5.6,2.1-6.1,2.1l0,0.2c1.6,0.5,3.3,1.5,4.3,2.9c1.5,2.1,1.3,4.3,1.2,6.1l-0.4,5.2c-0.1,1.8-0.2,3.3,0.9,5.5l-5.3-0.7
			c-0.8-1.8-0.9-3.2-0.7-5.3l0.4-4.5c0.1-1.5,0.4-3.7-1.1-5.5c-1.6-2-4.6-2.5-6.6-2.8l-14.8-1.9l-2.2,16.7l-4.8-0.6L385.2,27.3z
			 M387.6,45.7l15,2c2.5,0.3,5.5,0.3,7.6-1c2.2-1.3,2.9-3.2,3.1-5c0.3-2,0.2-4.2-2.1-5.9c-1.4-1-3.5-1.6-7.8-2.1l-14-1.8L387.6,45.7
			z"/>
		<path class="st2" d="M425.4,37l1-3.8l33.5,8.8l-1,3.8L444.5,42l-8.8,33.5l-4.7-1.3l8.8-33.5L425.4,37z"/>
		<path class="st2" d="M486.4,93.8l-4.9-2l-11.9-40.1L457.4,82l-4.5-1.8l14.5-35.8l5,2l11.8,40.1l12.3-30.3L501,58L486.4,93.8z"/>
		<path class="st2" d="M529.1,92.8l-2,3.4l-20.9-12l-6.9,12l23.8,13.7l-2,3.4l-28-16.1l19.2-33.5l27.4,15.7l-2,3.4l-23.2-13.3
			l-6.4,11.2L529.1,92.8z"/>
		<path class="st2" d="M547.8,84.9l15.7,12c2.5,1.9,6.9,5.1,7.9,9.2c0.9,3.5-0.6,6.3-2,8.1c-1.1,1.5-3,3.4-6,3.9
			c-3.1,0.5-5.9-1-6.3-1.2l-0.1,0.1c1.1,1.2,2.1,2.9,2.3,4.7c0.3,2.6-1,4.3-2,5.8l-3,4.3c-1,1.5-1.8,2.8-1.9,5.2l-4.2-3.2
			c0.2-2,0.9-3.2,2-4.9l2.6-3.7c0.9-1.2,2.2-3,1.8-5.3c-0.4-2.5-2.7-4.4-4.4-5.7l-11.8-9l-10.2,13.4l-3.9-2.9L547.8,84.9z
			 M540.8,102.1l12.1,9.2c2,1.5,4.6,3,7.1,2.9c2.6,0,4.1-1.4,5.2-2.8c1.2-1.6,2.2-3.6,1.1-6.2c-0.7-1.6-2.2-3.1-5.7-5.8l-11.2-8.6
			L540.8,102.1z"/>
		<path class="st2" d="M567.6,134.6l-0.2,0.2c-1.8,1.8-3.5,4.3-2.3,8.2c0.8,2.8,3.6,6,5.3,7.6c0.7,0.7,4.1,4.1,6.7,5
			c2.8,1,5.5,0.1,7.2-1.7c1.6-1.6,2.1-3.4,1.6-5.7c-0.5-2-1.8-4-3.5-6.5l-3.2-4.6c-2.4-3.5-5.3-7.3-5.7-10.7c-0.3-2.8,1-4.9,2.4-6.3
			c3.2-3.2,6.9-3.5,9.9-2.8c2.9,0.7,6,2.7,9.7,6.3c4.9,4.9,6.3,8.3,6.8,10.1c1.4,5-0.6,8-2.7,9.9l-3.5-3.5c1.2-1.3,2.5-3.3,1.6-6.5
			c-0.7-2.4-2.8-5.1-4.9-7.2c-3.5-3.5-5.7-4.3-6.6-4.6c-2.6-0.8-5.1-0.1-6.7,1.5c-1.6,1.6-1.8,3.3-1.1,5.3c0.5,1.8,1.8,3.7,4.4,7.5
			l3.3,4.6c2.8,4,4.1,6.6,4.5,8.9c0.5,3.3-0.7,5.7-2.8,7.8c-2.3,2.3-5.9,4.2-10.8,2.7c-3.5-1.1-6.5-3.7-9.4-6.6
			c-2.8-2.8-5.5-5.8-6.9-9.2c-2.8-6.7,1.2-11.2,2.9-12.9l0.2-0.2L567.6,134.6z"/>
		<path class="st2" d="M587,172.8l-2.9-3.9l30.7-23.3l2.9,3.9l-12.9,9.8l15.1,19.9l12.9-9.8l2.9,3.9l-30.7,23.3l-2.9-3.9l14.7-11.1
			l-15.1-19.9L587,172.8z"/>
		<path class="st2" d="M644.4,187.2l-32.8,20.4l-2.6-4.1l32.8-20.4L644.4,187.2z"/>
		<path class="st2" d="M658.4,212.6c2.3,4.5,3.7,8.9,2.6,12.5c-0.9,3.1-3.3,5-5.8,6.3c-1.7,0.9-5,2.3-8.5,1.2c-4.3-1.4-7-6-9-10
			l-5.7-11.2l-13.9,7.1l-2.2-4.3l34.4-17.5L658.4,212.6z M635.6,209.6l5.3,10.5c1.8,3.5,3.7,6.6,6.6,7.5c1.5,0.4,3.3,0.3,5.4-0.7
			c2.3-1.2,3.3-2.8,3.7-4.2c0.7-2.8-0.7-6.2-2.3-9.4l-5.3-10.5L635.6,209.6z"/>
	</g>
	<polygon class="st2" points="35.3,260.4 51.6,261.1 57.3,245.7 61.8,261.5 78.1,262.2 64.5,271.3 68.9,287 56,276.9 42.4,285.9 
		48.1,270.6 	"/>
	<polygon class="st2" points="679.6,256 663.3,256.7 657.6,241.3 653.2,257.1 636.8,257.8 650.4,266.8 646,282.6 658.9,272.4 
		672.5,281.5 666.8,266.2 	"/>
	<g>
		<path class="st1" d="M136.2,312.5l4.8-28.6c7.8,6.3,22.7,10.6,35,10.6c8.3,0,11.8-2.6,11.8-6.9c0-5.2-5.1-7.1-17.7-11.4
			c-26.1-8.9-33-15.5-33-32.9c0-20.9,19.6-33.5,44.4-33.5c13.7,0,25.6,3.8,34.7,10.4L212,247c-6.9-5.1-20-9.2-29.2-9.2
			c-7.4,0-11.4,2.1-11.4,5.7c0,3.4,2.5,4.9,18.4,10.6c22.9,8.3,31.6,17.3,31.6,33c0,21.8-20.7,35.3-48,35.3
			C159.8,322.4,146.5,319,136.2,312.5z"/>
		<path class="st1" d="M322.1,238.8h-31.9c-0.2,12.1-0.2,22.1-0.2,32.2c0,14.6,0.2,28.9,0.3,48.8h-34.5c0.5-8,0.8-25.6,0.8-44.2
			c0-12.7-0.2-25.8-0.3-36.8h-31.6v-26.4h97.5V238.8z"/>
		<path class="st1" d="M469.1,319.9c-7.1-10.3-15.5-22.7-22.6-32.5h-8.9c0.2,11.5,0.2,22.7,0.3,32.5h-34.5c0.6-9.5,0.8-32.2,0.8-55
			c0-20.9-0.2-41.6-0.5-52.5h50.2c27.3,0,42.7,15.4,42.7,38.4c0,15-6.9,24.9-18.1,29.6c10.3,13.2,20.4,26.2,30.5,39.5H469.1z
			 M437.8,238.1c0,7.2-0.2,15.5-0.2,24.1h13c7.1,0,11.7-4.3,11.7-11.2c0-7.5-3.8-12.9-14-12.9H437.8z"/>
		<path class="st1" d="M506.1,312.5l4.8-28.6c7.8,6.3,22.7,10.6,35,10.6c8.3,0,11.8-2.6,11.8-6.9c0-5.2-5.1-7.1-17.7-11.4
			c-26.1-8.9-33-15.5-33-32.9c0-20.9,19.6-33.5,44.4-33.5c13.7,0,25.6,3.8,34.7,10.4L582,247c-6.9-5.1-20-9.2-29.2-9.2
			c-7.4,0-11.4,2.1-11.4,5.7c0,3.4,2.5,4.9,18.4,10.6c22.9,8.3,31.6,17.3,31.6,33c0,21.8-20.7,35.3-48,35.3
			C529.8,322.4,516.4,319,506.1,312.5z"/>
		<g>
			<polygon class="st1" points="589,342 332.9,342 475.1,368.1 441.1,426.1 			"/>
			<polygon class="st1" points="355,281.5 399.7,331.8 355.5,174.3 286.3,408.7 			"/>
			<polygon class="st1" points="235.6,369 297.1,342 121.9,342 335.3,473.7 			"/>
			<polygon class="st1" points="281.8,509.6 275.2,442.7 231,578.8 412.2,447.2 			"/>
			<polygon class="st1" points="429.8,509.1 364.2,494.7 480,578.8 410.7,365.8 			"/>
		</g>
		<g>
			<path class="st0" d="M301.2,405.4c0-0.1,0-0.1,0-0.2C301.3,405.3,301.2,405.3,301.2,405.4z"/>
			<path class="st0" d="M301,406.2c0,0.1,0,0.2-0.1,0.2C301,406.3,301,406.3,301,406.2z"/>
			<path class="st0" d="M301.3,405.2C301.3,405.1,301.3,405.1,301.3,405.2L301.3,405.2z"/>
			<path class="st0" d="M300.9,406.4C300.9,406.5,300.9,406.5,300.9,406.4L300.9,406.4z"/>
			<path class="st0" d="M393.8,394c-3.8,3.3-6.9,7.6-11.6,9.9c-14.1,6.9-3.1-5.6-0.8-12.3c2.1-6.2,7.2-11.8,8.8-18
				c1.8-7-6.7-8-9.1-2.4c-1.3,3.1-15.6,26.9-16.9,25.5c-3-3.3,4.1-28.9,5.6-34.1c0.7-3.8,1-9.4-5.2-7.3c-3.8,1.3-4.4,7.1-5.3,10.3
				c-1.1,3.9-6.1,29.7-9.6,28.2c-3.3-1.4-4.7-18.3-4.8-21.4c-0.1-3.4,0.8-11.9-3.3-13.3c-5.2-1.8-6.2,5.5-6.4,8.6
				c-0.4,8.7,0.9,17.3,1.4,26c0.3,1.9,0.1,5.7-0.6,9.7c2.8-1.4,6-2.1,9.2-2c3.3,0.1,7,0.8,10.3,0.4c1.9-0.2,9.1-3,10.6-1l0,0
				c0,0,0,0,0,0c3.8,5-7.2,6.9-9.9,7.1c-0.8,0.1-1.4,0.2-1.9,0.5c-1.2-0.5-2.4-0.7-3.5-0.9c-1.9-0.3-3-0.1-4.7-1.1
				c-1.4-0.9-2.8-1.8-4.3-2.5c-1.6-0.8-2.8,0.7-1.3,1.8c1.1,0.8,2.4,1.3,3.2,2.4c2.6,3.2-1.2,1.1-3.1,0.9c-1.7-0.2-3.4-1.2-5.1-1.2
				c-1.9-0.1-1.7,2.2-0.1,2.5c0.9,0.2,7.8,2.4,7.5,2.9c-0.7,1-7.6,0.6-9,0.5c-1,0-2.5,0.3-1.6,1.7c0.6,0.9,2.1,0.7,2.9,0.8
				c1,0.1,8-0.2,7.8,0.8c-0.2,0.9-4.4,2.3-5.2,2.5c-0.9,0.2-3.1,0.5-3.2,1.6c-0.1,1.4,1.8,1.3,2.6,1.1c2.2-0.4,4.4-1.2,6.6-1.9
				c1.4-0.6,8-1.2,5.7,2.2c-0.8,1.1-3.7,6.1-0.5,6.2c-0.1,0-0.1,0-0.2,0c0,0,0.1,0,0.2,0c0,0,0.1,0,0.1,0c0,0-0.1,0-0.1,0
				c1.3,0.1,2.5-3.7,3.1-4.5c1-1.4,2.4-2.6,3.6-3.9c0.9-0.9,1.5-2,2-3.2c1,1,2,1.7,2.6,2c3.7,2.5,7.6,4.6,11.1,7.4
				c1.2,1,3.9,3.7,1.6,5.3c-1.8,1.3-5.1-1.7-6.5-2.8c-1.3-0.9-8.6-5.6-10.3-4.7c-1.7,1,7.4,11,8.6,12.7c1,1.4,3.2,3.4,2.6,5.4
				c-1,3.2-3.3,1.3-4.6-0.1c-1.7-2.2-10-13-12.2-12.8c-1,0.1,4.4,13.3,5.2,14.8c1.5,2.8-1.5,5.9-3.8,3c-2.1-2.6-2.8-6.4-4.7-9.2
				c-2-3-3.7-11.4-5.3-3.5c-0.5,2.6,0.3,5.2,0.5,7.8c0.3,3.7-3.6,3.8-4.3,0.4c-0.7-3.1-1.1-6.4-1.6-9.6c-0.6-3.8-2.3-5.2-4.3-8.4
				c-1.5-2.5-3.2-5.7-3.7-8.9c-1.4-0.1-2.9-1-4.7-3c-3.6-4-19.4-19-22.8-7.1c0-0.2,0.1-0.3,0.1-0.5c0,0.1-0.1,0.3-0.1,0.5
				c0,0.1-0.1,0.2-0.1,0.3c0-0.1,0.1-0.2,0.1-0.3c-1.3,4.7,11.5,12.6,14,15.3c4.5,4.8,7.8,11.2,11.5,16.5
				c7.3,10.5,20.1,17.5,33.4,14.5c9.6-2.2,15.1-13.3,18.4-21.5c2.7-6.8,2.9-11.1,8.1-16.5c4.4-4.5,8.9-9,13-13.8
				C404,395.1,399.3,389.3,393.8,394z M366.5,401C366.5,401.1,366.5,401.1,366.5,401L366.5,401z"/>
			<path class="st0" d="M348.9,428.7C348.8,428.7,348.8,428.7,348.9,428.7L348.9,428.7z"/>
			<path class="st0" d="M349.1,428.7C349.1,428.7,349.1,428.7,349.1,428.7C349.1,428.7,349.1,428.7,349.1,428.7z"/>
			<path class="st0" d="M349.1,428.7C349.2,428.7,349.2,428.7,349.1,428.7C349.2,428.7,349.2,428.7,349.1,428.7z"/>
			<path class="st0" d="M349.2,428.7C349.2,428.7,349.2,428.7,349.2,428.7L349.2,428.7z"/>
		</g>
	</g>
</g>
</svg>
